M48
;Layer_Color=9474304
;FILE_FORMAT=2:3
INCH,TZ
;TYPE=PLATED
T1F00S00C0.031
T2F00S00C0.033
T3F00S00C0.035
%
T01
X4672Y3584
X4868Y3584
T02
X5225Y3475
X5360Y3475
X5485Y3475
X5485Y3775
X5360Y3775
X5225Y3775
T03
X5195Y3085
X4410Y3110
X4410Y3010
X4310Y3010
X4310Y3110
X4310Y3372
X4410Y3372
X4410Y3473
X4310Y3473
X4310Y3735
X4410Y3735
X4410Y3835
X4310Y3835
X4000Y3526
X4000Y3426
X4000Y3326
X5035Y3505
X5035Y3605
X4820Y3835
X4720Y3835
X5195Y3185
M30
