G04 #@! TF.FileFunction,Legend,Bot*
%FSLAX46Y46*%
G04 Gerber Fmt 4.6, Leading zero omitted, Abs format (unit mm)*
G04 Created by KiCad (PCBNEW (2015-06-25 BZR 5821)-product) date Thu 25 Jun 2015 01:48:58 PM EDT*
%MOMM*%
G01*
G04 APERTURE LIST*
%ADD10C,0.200000*%
%ADD11C,0.250000*%
%ADD12C,0.150000*%
G04 APERTURE END LIST*
D10*
X42338095Y-75100000D02*
X42433333Y-75052381D01*
X42576190Y-75052381D01*
X42719048Y-75100000D01*
X42814286Y-75195238D01*
X42861905Y-75290476D01*
X42909524Y-75480952D01*
X42909524Y-75623810D01*
X42861905Y-75814286D01*
X42814286Y-75909524D01*
X42719048Y-76004762D01*
X42576190Y-76052381D01*
X42480952Y-76052381D01*
X42338095Y-76004762D01*
X42290476Y-75957143D01*
X42290476Y-75623810D01*
X42480952Y-75623810D01*
X49338095Y-75200000D02*
X49433333Y-75152381D01*
X49576190Y-75152381D01*
X49719048Y-75200000D01*
X49814286Y-75295238D01*
X49861905Y-75390476D01*
X49909524Y-75580952D01*
X49909524Y-75723810D01*
X49861905Y-75914286D01*
X49814286Y-76009524D01*
X49719048Y-76104762D01*
X49576190Y-76152381D01*
X49480952Y-76152381D01*
X49338095Y-76104762D01*
X49290476Y-76057143D01*
X49290476Y-75723810D01*
X49480952Y-75723810D01*
X56338095Y-75200000D02*
X56433333Y-75152381D01*
X56576190Y-75152381D01*
X56719048Y-75200000D01*
X56814286Y-75295238D01*
X56861905Y-75390476D01*
X56909524Y-75580952D01*
X56909524Y-75723810D01*
X56861905Y-75914286D01*
X56814286Y-76009524D01*
X56719048Y-76104762D01*
X56576190Y-76152381D01*
X56480952Y-76152381D01*
X56338095Y-76104762D01*
X56290476Y-76057143D01*
X56290476Y-75723810D01*
X56480952Y-75723810D01*
X63438095Y-75200000D02*
X63533333Y-75152381D01*
X63676190Y-75152381D01*
X63819048Y-75200000D01*
X63914286Y-75295238D01*
X63961905Y-75390476D01*
X64009524Y-75580952D01*
X64009524Y-75723810D01*
X63961905Y-75914286D01*
X63914286Y-76009524D01*
X63819048Y-76104762D01*
X63676190Y-76152381D01*
X63580952Y-76152381D01*
X63438095Y-76104762D01*
X63390476Y-76057143D01*
X63390476Y-75723810D01*
X63580952Y-75723810D01*
X82852381Y-75952381D02*
X83423810Y-75952381D01*
X83138096Y-75952381D02*
X83138096Y-74952381D01*
X83233334Y-75095238D01*
X83328572Y-75190476D01*
X83423810Y-75238095D01*
X82471429Y-75047619D02*
X82423810Y-75000000D01*
X82328572Y-74952381D01*
X82090476Y-74952381D01*
X81995238Y-75000000D01*
X81947619Y-75047619D01*
X81900000Y-75142857D01*
X81900000Y-75238095D01*
X81947619Y-75380952D01*
X82519048Y-75952381D01*
X81900000Y-75952381D01*
X81328572Y-74952381D02*
X81328572Y-75190476D01*
X81566667Y-75095238D02*
X81328572Y-75190476D01*
X81090476Y-75095238D01*
X81471429Y-75380952D02*
X81328572Y-75190476D01*
X81185714Y-75380952D01*
X80566667Y-74952381D02*
X80566667Y-75190476D01*
X80804762Y-75095238D02*
X80566667Y-75190476D01*
X80328571Y-75095238D01*
X80709524Y-75380952D02*
X80566667Y-75190476D01*
X80423809Y-75380952D01*
X78485714Y-76052381D02*
X78485714Y-75052381D01*
X78485714Y-75528571D02*
X77914285Y-75528571D01*
X77914285Y-76052381D02*
X77914285Y-75052381D01*
X74390476Y-76152381D02*
X74866667Y-76152381D01*
X74866667Y-75152381D01*
X71500000Y-75100000D02*
X71595238Y-75052381D01*
X71738095Y-75052381D01*
X71880953Y-75100000D01*
X71976191Y-75195238D01*
X72023810Y-75290476D01*
X72071429Y-75480952D01*
X72071429Y-75623810D01*
X72023810Y-75814286D01*
X71976191Y-75909524D01*
X71880953Y-76004762D01*
X71738095Y-76052381D01*
X71642857Y-76052381D01*
X71500000Y-76004762D01*
X71452381Y-75957143D01*
X71452381Y-75623810D01*
X71642857Y-75623810D01*
X70880953Y-75052381D02*
X70880953Y-75290476D01*
X71119048Y-75195238D02*
X70880953Y-75290476D01*
X70642857Y-75195238D01*
X71023810Y-75480952D02*
X70880953Y-75290476D01*
X70738095Y-75480952D01*
X70119048Y-75052381D02*
X70119048Y-75290476D01*
X70357143Y-75195238D02*
X70119048Y-75290476D01*
X69880952Y-75195238D01*
X70261905Y-75480952D02*
X70119048Y-75290476D01*
X69976190Y-75480952D01*
X92538095Y-67000000D02*
X92633333Y-66952381D01*
X92776190Y-66952381D01*
X92919048Y-67000000D01*
X93014286Y-67095238D01*
X93061905Y-67190476D01*
X93109524Y-67380952D01*
X93109524Y-67523810D01*
X93061905Y-67714286D01*
X93014286Y-67809524D01*
X92919048Y-67904762D01*
X92776190Y-67952381D01*
X92680952Y-67952381D01*
X92538095Y-67904762D01*
X92490476Y-67857143D01*
X92490476Y-67523810D01*
X92680952Y-67523810D01*
X92538095Y-60000000D02*
X92633333Y-59952381D01*
X92776190Y-59952381D01*
X92919048Y-60000000D01*
X93014286Y-60095238D01*
X93061905Y-60190476D01*
X93109524Y-60380952D01*
X93109524Y-60523810D01*
X93061905Y-60714286D01*
X93014286Y-60809524D01*
X92919048Y-60904762D01*
X92776190Y-60952381D01*
X92680952Y-60952381D01*
X92538095Y-60904762D01*
X92490476Y-60857143D01*
X92490476Y-60523810D01*
X92680952Y-60523810D01*
X92438095Y-53100000D02*
X92533333Y-53052381D01*
X92676190Y-53052381D01*
X92819048Y-53100000D01*
X92914286Y-53195238D01*
X92961905Y-53290476D01*
X93009524Y-53480952D01*
X93009524Y-53623810D01*
X92961905Y-53814286D01*
X92914286Y-53909524D01*
X92819048Y-54004762D01*
X92676190Y-54052381D01*
X92580952Y-54052381D01*
X92438095Y-54004762D01*
X92390476Y-53957143D01*
X92390476Y-53623810D01*
X92580952Y-53623810D01*
X92438095Y-46000000D02*
X92533333Y-45952381D01*
X92676190Y-45952381D01*
X92819048Y-46000000D01*
X92914286Y-46095238D01*
X92961905Y-46190476D01*
X93009524Y-46380952D01*
X93009524Y-46523810D01*
X92961905Y-46714286D01*
X92914286Y-46809524D01*
X92819048Y-46904762D01*
X92676190Y-46952381D01*
X92580952Y-46952381D01*
X92438095Y-46904762D01*
X92390476Y-46857143D01*
X92390476Y-46523810D01*
X92580952Y-46523810D01*
X92638095Y-30700000D02*
X92733333Y-30652381D01*
X92876190Y-30652381D01*
X93019048Y-30700000D01*
X93114286Y-30795238D01*
X93161905Y-30890476D01*
X93209524Y-31080952D01*
X93209524Y-31223810D01*
X93161905Y-31414286D01*
X93114286Y-31509524D01*
X93019048Y-31604762D01*
X92876190Y-31652381D01*
X92780952Y-31652381D01*
X92638095Y-31604762D01*
X92590476Y-31557143D01*
X92590476Y-31223810D01*
X92780952Y-31223810D01*
D11*
X82523809Y-30400000D02*
X82714286Y-30304762D01*
X83000000Y-30304762D01*
X83285714Y-30400000D01*
X83476190Y-30590476D01*
X83571429Y-30780952D01*
X83666667Y-31161905D01*
X83666667Y-31447619D01*
X83571429Y-31828571D01*
X83476190Y-32019048D01*
X83285714Y-32209524D01*
X83000000Y-32304762D01*
X82809524Y-32304762D01*
X82523809Y-32209524D01*
X82428571Y-32114286D01*
X82428571Y-31447619D01*
X82809524Y-31447619D01*
X81571429Y-32304762D02*
X81571429Y-30304762D01*
X80428571Y-32304762D01*
X80428571Y-30304762D01*
X79476191Y-32304762D02*
X79476191Y-30304762D01*
X79000000Y-30304762D01*
X78714286Y-30400000D01*
X78523810Y-30590476D01*
X78428571Y-30780952D01*
X78333333Y-31161905D01*
X78333333Y-31447619D01*
X78428571Y-31828571D01*
X78523810Y-32019048D01*
X78714286Y-32209524D01*
X79000000Y-32304762D01*
X79476191Y-32304762D01*
X84823809Y-35804762D02*
X85966667Y-35804762D01*
X85395238Y-35804762D02*
X85395238Y-33804762D01*
X85585714Y-34090476D01*
X85776190Y-34280952D01*
X85966667Y-34376190D01*
X84061905Y-33995238D02*
X83966667Y-33900000D01*
X83776190Y-33804762D01*
X83300000Y-33804762D01*
X83109524Y-33900000D01*
X83014286Y-33995238D01*
X82919047Y-34185714D01*
X82919047Y-34376190D01*
X83014286Y-34661905D01*
X84157143Y-35804762D01*
X82919047Y-35804762D01*
X82347619Y-33804762D02*
X81680952Y-35804762D01*
X81014285Y-33804762D01*
X80823809Y-35995238D02*
X79299999Y-35995238D01*
X78823809Y-35804762D02*
X78823809Y-33804762D01*
X77871428Y-35804762D02*
X77871428Y-33804762D01*
X76728570Y-35804762D01*
X76728570Y-33804762D01*
X83190476Y-60557143D02*
X83095238Y-60271428D01*
X83095238Y-59795238D01*
X83190476Y-59604762D01*
X83285714Y-59509524D01*
X83476190Y-59414285D01*
X83666667Y-59414285D01*
X83857143Y-59509524D01*
X83952381Y-59604762D01*
X84047619Y-59795238D01*
X84142857Y-60176190D01*
X84238095Y-60366666D01*
X84333333Y-60461905D01*
X84523810Y-60557143D01*
X84714286Y-60557143D01*
X84904762Y-60461905D01*
X85000000Y-60366666D01*
X85095238Y-60176190D01*
X85095238Y-59700000D01*
X85000000Y-59414285D01*
X85095238Y-58747619D02*
X83095238Y-58271428D01*
X84523810Y-57890476D01*
X83095238Y-57509523D01*
X85095238Y-57033333D01*
X83095238Y-56271429D02*
X85095238Y-56271429D01*
X85095238Y-55604762D02*
X85095238Y-54461905D01*
X83095238Y-55033333D02*
X85095238Y-55033333D01*
X83285714Y-52652380D02*
X83190476Y-52747618D01*
X83095238Y-53033333D01*
X83095238Y-53223809D01*
X83190476Y-53509523D01*
X83380952Y-53699999D01*
X83571429Y-53795238D01*
X83952381Y-53890476D01*
X84238095Y-53890476D01*
X84619048Y-53795238D01*
X84809524Y-53699999D01*
X85000000Y-53509523D01*
X85095238Y-53223809D01*
X85095238Y-53033333D01*
X85000000Y-52747618D01*
X84904762Y-52652380D01*
X83095238Y-51795238D02*
X85095238Y-51795238D01*
X84142857Y-51795238D02*
X84142857Y-50652380D01*
X83095238Y-50652380D02*
X85095238Y-50652380D01*
X84142857Y-49700000D02*
X84142857Y-49033333D01*
X83095238Y-48747619D02*
X83095238Y-49700000D01*
X85095238Y-49700000D01*
X85095238Y-48747619D01*
X83190476Y-47985714D02*
X83095238Y-47699999D01*
X83095238Y-47223809D01*
X83190476Y-47033333D01*
X83285714Y-46938095D01*
X83476190Y-46842856D01*
X83666667Y-46842856D01*
X83857143Y-46938095D01*
X83952381Y-47033333D01*
X84047619Y-47223809D01*
X84142857Y-47604761D01*
X84238095Y-47795237D01*
X84333333Y-47890476D01*
X84523810Y-47985714D01*
X84714286Y-47985714D01*
X84904762Y-47890476D01*
X85000000Y-47795237D01*
X85095238Y-47604761D01*
X85095238Y-47128571D01*
X85000000Y-46842856D01*
X82885714Y-67214286D02*
X82980952Y-67309524D01*
X83266667Y-67404762D01*
X83457143Y-67404762D01*
X83742857Y-67309524D01*
X83933333Y-67119048D01*
X84028572Y-66928571D01*
X84123810Y-66547619D01*
X84123810Y-66261905D01*
X84028572Y-65880952D01*
X83933333Y-65690476D01*
X83742857Y-65500000D01*
X83457143Y-65404762D01*
X83266667Y-65404762D01*
X82980952Y-65500000D01*
X82885714Y-65595238D01*
X82123810Y-66833333D02*
X81171429Y-66833333D01*
X82314286Y-67404762D02*
X81647619Y-65404762D01*
X80980952Y-67404762D01*
X80314286Y-67404762D02*
X80314286Y-65404762D01*
X79171428Y-67404762D01*
X79171428Y-65404762D01*
X59095239Y-69457143D02*
X58809525Y-69552381D01*
X58714286Y-69647619D01*
X58619048Y-69838095D01*
X58619048Y-70123810D01*
X58714286Y-70314286D01*
X58809525Y-70409524D01*
X59000001Y-70504762D01*
X59761906Y-70504762D01*
X59761906Y-68504762D01*
X59095239Y-68504762D01*
X58904763Y-68600000D01*
X58809525Y-68695238D01*
X58714286Y-68885714D01*
X58714286Y-69076190D01*
X58809525Y-69266667D01*
X58904763Y-69361905D01*
X59095239Y-69457143D01*
X59761906Y-69457143D01*
X57857144Y-69933333D02*
X56904763Y-69933333D01*
X58047620Y-70504762D02*
X57380953Y-68504762D01*
X56714286Y-70504762D01*
X56333334Y-68504762D02*
X55190477Y-68504762D01*
X55761905Y-70504762D02*
X55761905Y-68504762D01*
X55000000Y-70695238D02*
X53476190Y-70695238D01*
X53000000Y-70504762D02*
X53000000Y-68504762D01*
X52333333Y-69933333D01*
X51666666Y-68504762D01*
X51666666Y-70504762D01*
X50714286Y-69457143D02*
X50047619Y-69457143D01*
X49761905Y-70504762D02*
X50714286Y-70504762D01*
X50714286Y-68504762D01*
X49761905Y-68504762D01*
X49000000Y-69933333D02*
X48047619Y-69933333D01*
X49190476Y-70504762D02*
X48523809Y-68504762D01*
X47857142Y-70504762D01*
X47285714Y-70409524D02*
X46999999Y-70504762D01*
X46523809Y-70504762D01*
X46333333Y-70409524D01*
X46238095Y-70314286D01*
X46142856Y-70123810D01*
X46142856Y-69933333D01*
X46238095Y-69742857D01*
X46333333Y-69647619D01*
X46523809Y-69552381D01*
X46904761Y-69457143D01*
X47095237Y-69361905D01*
X47190476Y-69266667D01*
X47285714Y-69076190D01*
X47285714Y-68885714D01*
X47190476Y-68695238D01*
X47095237Y-68600000D01*
X46904761Y-68504762D01*
X46428571Y-68504762D01*
X46142856Y-68600000D01*
D12*
X80309000Y-69102000D02*
X79109000Y-69102000D01*
X79109000Y-70852000D02*
X80309000Y-70852000D01*
X74053000Y-68975000D02*
X72853000Y-68975000D01*
X72853000Y-70725000D02*
X74053000Y-70725000D01*
X55772000Y-51624000D02*
X56117000Y-51624000D01*
X55772000Y-59374000D02*
X56117000Y-59374000D01*
X67672000Y-59374000D02*
X67327000Y-59374000D01*
X67672000Y-51624000D02*
X67327000Y-51624000D01*
X55772000Y-51624000D02*
X55772000Y-59374000D01*
X67672000Y-51624000D02*
X67672000Y-59374000D01*
X56117000Y-51624000D02*
X56117000Y-49799000D01*
X75950000Y-52400000D02*
X75950000Y-51400000D01*
X77650000Y-51400000D02*
X77650000Y-52400000D01*
X49776000Y-60540000D02*
X48776000Y-60540000D01*
X48776000Y-58840000D02*
X49776000Y-58840000D01*
X40378000Y-60540000D02*
X39378000Y-60540000D01*
X39378000Y-58840000D02*
X40378000Y-58840000D01*
X64428000Y-64127000D02*
X64428000Y-63127000D01*
X66128000Y-63127000D02*
X66128000Y-64127000D01*
X68795000Y-66302000D02*
X68795000Y-67302000D01*
X67095000Y-67302000D02*
X67095000Y-66302000D01*
X77650000Y-58600000D02*
X77650000Y-59600000D01*
X75950000Y-59600000D02*
X75950000Y-58600000D01*
X55050000Y-55350000D02*
X55050000Y-56350000D01*
X53350000Y-56350000D02*
X53350000Y-55350000D01*
X75150000Y-66150000D02*
X76150000Y-66150000D01*
X76150000Y-67850000D02*
X75150000Y-67850000D01*
X63881000Y-37152580D02*
X64881760Y-36304220D01*
X64881760Y-36304220D02*
X62880240Y-36304220D01*
X62880240Y-36304220D02*
X63881000Y-37152580D01*
X63881000Y-37152580D02*
X62880240Y-37152580D01*
X63881000Y-37152580D02*
X64881760Y-37152580D01*
X62081000Y-39009320D02*
X62280800Y-39009320D01*
X62081000Y-38552280D02*
X62280000Y-38552280D01*
X62081000Y-34401760D02*
X62230000Y-34401760D01*
X65681000Y-39004240D02*
X65532000Y-39004240D01*
X65681000Y-38552280D02*
X65532000Y-38552280D01*
X65681000Y-34401760D02*
X65532000Y-34401760D01*
X61932020Y-38552280D02*
X62130140Y-38552280D01*
X65879980Y-38552280D02*
X65681860Y-38552280D01*
X61884560Y-34406840D02*
X62082680Y-34406840D01*
X61884560Y-39009320D02*
X61884560Y-34406840D01*
X61884560Y-39009320D02*
X62082680Y-39009320D01*
X65879980Y-39004240D02*
X65681860Y-39004240D01*
X65879980Y-39004240D02*
X65879980Y-34401760D01*
X65879980Y-34401760D02*
X65681860Y-34401760D01*
X40513000Y-67179000D02*
X40513000Y-67429000D01*
X40513000Y-66679000D02*
X40513000Y-66429000D01*
X40513000Y-66679000D02*
X40163000Y-67179000D01*
X40163000Y-67179000D02*
X40863000Y-67179000D01*
X40863000Y-67179000D02*
X40513000Y-66679000D01*
X40163000Y-66679000D02*
X40863000Y-66679000D01*
X41313000Y-65629000D02*
X41313000Y-68029000D01*
X39713000Y-65629000D02*
X39713000Y-68029000D01*
X47625000Y-67179000D02*
X47625000Y-67429000D01*
X47625000Y-66679000D02*
X47625000Y-66429000D01*
X47625000Y-66679000D02*
X47275000Y-67179000D01*
X47275000Y-67179000D02*
X47975000Y-67179000D01*
X47975000Y-67179000D02*
X47625000Y-66679000D01*
X47275000Y-66679000D02*
X47975000Y-66679000D01*
X48425000Y-65629000D02*
X48425000Y-68029000D01*
X46825000Y-65629000D02*
X46825000Y-68029000D01*
X54229000Y-66798000D02*
X54229000Y-67048000D01*
X54229000Y-66298000D02*
X54229000Y-66048000D01*
X54229000Y-66298000D02*
X53879000Y-66798000D01*
X53879000Y-66798000D02*
X54579000Y-66798000D01*
X54579000Y-66798000D02*
X54229000Y-66298000D01*
X53879000Y-66298000D02*
X54579000Y-66298000D01*
X55029000Y-65248000D02*
X55029000Y-67648000D01*
X53429000Y-65248000D02*
X53429000Y-67648000D01*
X60833000Y-66798000D02*
X60833000Y-67048000D01*
X60833000Y-66298000D02*
X60833000Y-66048000D01*
X60833000Y-66298000D02*
X60483000Y-66798000D01*
X60483000Y-66798000D02*
X61183000Y-66798000D01*
X61183000Y-66798000D02*
X60833000Y-66298000D01*
X60483000Y-66298000D02*
X61183000Y-66298000D01*
X61633000Y-65248000D02*
X61633000Y-67648000D01*
X60033000Y-65248000D02*
X60033000Y-67648000D01*
X39319200Y-32995820D02*
X40020240Y-32995820D01*
X40020240Y-32995820D02*
X40020240Y-32746900D01*
X40020240Y-30196840D02*
X40020240Y-29996180D01*
X40020240Y-29996180D02*
X39319200Y-29996180D01*
X36181000Y-41883000D02*
X34981000Y-41883000D01*
X34981000Y-43633000D02*
X36181000Y-43633000D01*
X36181000Y-44550000D02*
X34981000Y-44550000D01*
X34981000Y-46300000D02*
X36181000Y-46300000D01*
X36181000Y-47217000D02*
X34981000Y-47217000D01*
X34981000Y-48967000D02*
X36181000Y-48967000D01*
X36200000Y-49925000D02*
X35000000Y-49925000D01*
X35000000Y-51675000D02*
X36200000Y-51675000D01*
X36475000Y-57400000D02*
X36475000Y-56200000D01*
X34725000Y-56200000D02*
X34725000Y-57400000D01*
X44875000Y-57400000D02*
X44875000Y-56200000D01*
X43125000Y-56200000D02*
X43125000Y-57400000D01*
X40478000Y-56783000D02*
X39278000Y-56783000D01*
X39278000Y-58533000D02*
X40478000Y-58533000D01*
X74889360Y-49649380D02*
X74889360Y-61348620D01*
X69890640Y-61348620D02*
X69890640Y-49649380D01*
X74889360Y-61348620D02*
X74041000Y-61348620D01*
X69890640Y-61348620D02*
X70739000Y-61348620D01*
X74889360Y-49649380D02*
X74041000Y-49649380D01*
X69890640Y-49649380D02*
X70739000Y-49649380D01*
X84542857Y-70352381D02*
X84876191Y-69876190D01*
X85114286Y-70352381D02*
X85114286Y-69352381D01*
X84733333Y-69352381D01*
X84638095Y-69400000D01*
X84590476Y-69447619D01*
X84542857Y-69542857D01*
X84542857Y-69685714D01*
X84590476Y-69780952D01*
X84638095Y-69828571D01*
X84733333Y-69876190D01*
X85114286Y-69876190D01*
X84161905Y-69447619D02*
X84114286Y-69400000D01*
X84019048Y-69352381D01*
X83780952Y-69352381D01*
X83685714Y-69400000D01*
X83638095Y-69447619D01*
X83590476Y-69542857D01*
X83590476Y-69638095D01*
X83638095Y-69780952D01*
X84209524Y-70352381D01*
X83590476Y-70352381D01*
X83114286Y-70352381D02*
X82923810Y-70352381D01*
X82828571Y-70304762D01*
X82780952Y-70257143D01*
X82685714Y-70114286D01*
X82638095Y-69923810D01*
X82638095Y-69542857D01*
X82685714Y-69447619D01*
X82733333Y-69400000D01*
X82828571Y-69352381D01*
X83019048Y-69352381D01*
X83114286Y-69400000D01*
X83161905Y-69447619D01*
X83209524Y-69542857D01*
X83209524Y-69780952D01*
X83161905Y-69876190D01*
X83114286Y-69923810D01*
X83019048Y-69971429D01*
X82828571Y-69971429D01*
X82733333Y-69923810D01*
X82685714Y-69876190D01*
X82638095Y-69780952D01*
X69842857Y-70252381D02*
X70176191Y-69776190D01*
X70414286Y-70252381D02*
X70414286Y-69252381D01*
X70033333Y-69252381D01*
X69938095Y-69300000D01*
X69890476Y-69347619D01*
X69842857Y-69442857D01*
X69842857Y-69585714D01*
X69890476Y-69680952D01*
X69938095Y-69728571D01*
X70033333Y-69776190D01*
X70414286Y-69776190D01*
X69509524Y-69252381D02*
X68890476Y-69252381D01*
X69223810Y-69633333D01*
X69080952Y-69633333D01*
X68985714Y-69680952D01*
X68938095Y-69728571D01*
X68890476Y-69823810D01*
X68890476Y-70061905D01*
X68938095Y-70157143D01*
X68985714Y-70204762D01*
X69080952Y-70252381D01*
X69366667Y-70252381D01*
X69461905Y-70204762D01*
X69509524Y-70157143D01*
X68271429Y-69252381D02*
X68176190Y-69252381D01*
X68080952Y-69300000D01*
X68033333Y-69347619D01*
X67985714Y-69442857D01*
X67938095Y-69633333D01*
X67938095Y-69871429D01*
X67985714Y-70061905D01*
X68033333Y-70157143D01*
X68080952Y-70204762D01*
X68176190Y-70252381D01*
X68271429Y-70252381D01*
X68366667Y-70204762D01*
X68414286Y-70157143D01*
X68461905Y-70061905D01*
X68509524Y-69871429D01*
X68509524Y-69633333D01*
X68461905Y-69442857D01*
X68414286Y-69347619D01*
X68366667Y-69300000D01*
X68271429Y-69252381D01*
X66261905Y-47252381D02*
X66261905Y-48061905D01*
X66214286Y-48157143D01*
X66166667Y-48204762D01*
X66071429Y-48252381D01*
X65880952Y-48252381D01*
X65785714Y-48204762D01*
X65738095Y-48157143D01*
X65690476Y-48061905D01*
X65690476Y-47252381D01*
X64785714Y-47252381D02*
X64976191Y-47252381D01*
X65071429Y-47300000D01*
X65119048Y-47347619D01*
X65214286Y-47490476D01*
X65261905Y-47680952D01*
X65261905Y-48061905D01*
X65214286Y-48157143D01*
X65166667Y-48204762D01*
X65071429Y-48252381D01*
X64880952Y-48252381D01*
X64785714Y-48204762D01*
X64738095Y-48157143D01*
X64690476Y-48061905D01*
X64690476Y-47823810D01*
X64738095Y-47728571D01*
X64785714Y-47680952D01*
X64880952Y-47633333D01*
X65071429Y-47633333D01*
X65166667Y-47680952D01*
X65214286Y-47728571D01*
X65261905Y-47823810D01*
X77442857Y-48857143D02*
X77490476Y-48904762D01*
X77633333Y-48952381D01*
X77728571Y-48952381D01*
X77871429Y-48904762D01*
X77966667Y-48809524D01*
X78014286Y-48714286D01*
X78061905Y-48523810D01*
X78061905Y-48380952D01*
X78014286Y-48190476D01*
X77966667Y-48095238D01*
X77871429Y-48000000D01*
X77728571Y-47952381D01*
X77633333Y-47952381D01*
X77490476Y-48000000D01*
X77442857Y-48047619D01*
X76490476Y-48952381D02*
X77061905Y-48952381D01*
X76776191Y-48952381D02*
X76776191Y-47952381D01*
X76871429Y-48095238D01*
X76966667Y-48190476D01*
X77061905Y-48238095D01*
X75871429Y-47952381D02*
X75776190Y-47952381D01*
X75680952Y-48000000D01*
X75633333Y-48047619D01*
X75585714Y-48142857D01*
X75538095Y-48333333D01*
X75538095Y-48571429D01*
X75585714Y-48761905D01*
X75633333Y-48857143D01*
X75680952Y-48904762D01*
X75776190Y-48952381D01*
X75871429Y-48952381D01*
X75966667Y-48904762D01*
X76014286Y-48857143D01*
X76061905Y-48761905D01*
X76109524Y-48571429D01*
X76109524Y-48333333D01*
X76061905Y-48142857D01*
X76014286Y-48047619D01*
X75966667Y-48000000D01*
X75871429Y-47952381D01*
X49442666Y-62147143D02*
X49490285Y-62194762D01*
X49633142Y-62242381D01*
X49728380Y-62242381D01*
X49871238Y-62194762D01*
X49966476Y-62099524D01*
X50014095Y-62004286D01*
X50061714Y-61813810D01*
X50061714Y-61670952D01*
X50014095Y-61480476D01*
X49966476Y-61385238D01*
X49871238Y-61290000D01*
X49728380Y-61242381D01*
X49633142Y-61242381D01*
X49490285Y-61290000D01*
X49442666Y-61337619D01*
X48537904Y-61242381D02*
X49014095Y-61242381D01*
X49061714Y-61718571D01*
X49014095Y-61670952D01*
X48918857Y-61623333D01*
X48680761Y-61623333D01*
X48585523Y-61670952D01*
X48537904Y-61718571D01*
X48490285Y-61813810D01*
X48490285Y-62051905D01*
X48537904Y-62147143D01*
X48585523Y-62194762D01*
X48680761Y-62242381D01*
X48918857Y-62242381D01*
X49014095Y-62194762D01*
X49061714Y-62147143D01*
X40044666Y-62147143D02*
X40092285Y-62194762D01*
X40235142Y-62242381D01*
X40330380Y-62242381D01*
X40473238Y-62194762D01*
X40568476Y-62099524D01*
X40616095Y-62004286D01*
X40663714Y-61813810D01*
X40663714Y-61670952D01*
X40616095Y-61480476D01*
X40568476Y-61385238D01*
X40473238Y-61290000D01*
X40330380Y-61242381D01*
X40235142Y-61242381D01*
X40092285Y-61290000D01*
X40044666Y-61337619D01*
X39187523Y-61242381D02*
X39378000Y-61242381D01*
X39473238Y-61290000D01*
X39520857Y-61337619D01*
X39616095Y-61480476D01*
X39663714Y-61670952D01*
X39663714Y-62051905D01*
X39616095Y-62147143D01*
X39568476Y-62194762D01*
X39473238Y-62242381D01*
X39282761Y-62242381D01*
X39187523Y-62194762D01*
X39139904Y-62147143D01*
X39092285Y-62051905D01*
X39092285Y-61813810D01*
X39139904Y-61718571D01*
X39187523Y-61670952D01*
X39282761Y-61623333D01*
X39473238Y-61623333D01*
X39568476Y-61670952D01*
X39616095Y-61718571D01*
X39663714Y-61813810D01*
X62966666Y-63857143D02*
X63014285Y-63904762D01*
X63157142Y-63952381D01*
X63252380Y-63952381D01*
X63395238Y-63904762D01*
X63490476Y-63809524D01*
X63538095Y-63714286D01*
X63585714Y-63523810D01*
X63585714Y-63380952D01*
X63538095Y-63190476D01*
X63490476Y-63095238D01*
X63395238Y-63000000D01*
X63252380Y-62952381D01*
X63157142Y-62952381D01*
X63014285Y-63000000D01*
X62966666Y-63047619D01*
X62395238Y-63380952D02*
X62490476Y-63333333D01*
X62538095Y-63285714D01*
X62585714Y-63190476D01*
X62585714Y-63142857D01*
X62538095Y-63047619D01*
X62490476Y-63000000D01*
X62395238Y-62952381D01*
X62204761Y-62952381D01*
X62109523Y-63000000D01*
X62061904Y-63047619D01*
X62014285Y-63142857D01*
X62014285Y-63190476D01*
X62061904Y-63285714D01*
X62109523Y-63333333D01*
X62204761Y-63380952D01*
X62395238Y-63380952D01*
X62490476Y-63428571D01*
X62538095Y-63476190D01*
X62585714Y-63571429D01*
X62585714Y-63761905D01*
X62538095Y-63857143D01*
X62490476Y-63904762D01*
X62395238Y-63952381D01*
X62204761Y-63952381D01*
X62109523Y-63904762D01*
X62061904Y-63857143D01*
X62014285Y-63761905D01*
X62014285Y-63571429D01*
X62061904Y-63476190D01*
X62109523Y-63428571D01*
X62204761Y-63380952D01*
X65866666Y-67157143D02*
X65914285Y-67204762D01*
X66057142Y-67252381D01*
X66152380Y-67252381D01*
X66295238Y-67204762D01*
X66390476Y-67109524D01*
X66438095Y-67014286D01*
X66485714Y-66823810D01*
X66485714Y-66680952D01*
X66438095Y-66490476D01*
X66390476Y-66395238D01*
X66295238Y-66300000D01*
X66152380Y-66252381D01*
X66057142Y-66252381D01*
X65914285Y-66300000D01*
X65866666Y-66347619D01*
X65390476Y-67252381D02*
X65200000Y-67252381D01*
X65104761Y-67204762D01*
X65057142Y-67157143D01*
X64961904Y-67014286D01*
X64914285Y-66823810D01*
X64914285Y-66442857D01*
X64961904Y-66347619D01*
X65009523Y-66300000D01*
X65104761Y-66252381D01*
X65295238Y-66252381D01*
X65390476Y-66300000D01*
X65438095Y-66347619D01*
X65485714Y-66442857D01*
X65485714Y-66680952D01*
X65438095Y-66776190D01*
X65390476Y-66823810D01*
X65295238Y-66871429D01*
X65104761Y-66871429D01*
X65009523Y-66823810D01*
X64961904Y-66776190D01*
X64914285Y-66680952D01*
X77442857Y-62557143D02*
X77490476Y-62604762D01*
X77633333Y-62652381D01*
X77728571Y-62652381D01*
X77871429Y-62604762D01*
X77966667Y-62509524D01*
X78014286Y-62414286D01*
X78061905Y-62223810D01*
X78061905Y-62080952D01*
X78014286Y-61890476D01*
X77966667Y-61795238D01*
X77871429Y-61700000D01*
X77728571Y-61652381D01*
X77633333Y-61652381D01*
X77490476Y-61700000D01*
X77442857Y-61747619D01*
X76490476Y-62652381D02*
X77061905Y-62652381D01*
X76776191Y-62652381D02*
X76776191Y-61652381D01*
X76871429Y-61795238D01*
X76966667Y-61890476D01*
X77061905Y-61938095D01*
X75538095Y-62652381D02*
X76109524Y-62652381D01*
X75823810Y-62652381D02*
X75823810Y-61652381D01*
X75919048Y-61795238D01*
X76014286Y-61890476D01*
X76109524Y-61938095D01*
X51742857Y-56157143D02*
X51790476Y-56204762D01*
X51933333Y-56252381D01*
X52028571Y-56252381D01*
X52171429Y-56204762D01*
X52266667Y-56109524D01*
X52314286Y-56014286D01*
X52361905Y-55823810D01*
X52361905Y-55680952D01*
X52314286Y-55490476D01*
X52266667Y-55395238D01*
X52171429Y-55300000D01*
X52028571Y-55252381D01*
X51933333Y-55252381D01*
X51790476Y-55300000D01*
X51742857Y-55347619D01*
X50790476Y-56252381D02*
X51361905Y-56252381D01*
X51076191Y-56252381D02*
X51076191Y-55252381D01*
X51171429Y-55395238D01*
X51266667Y-55490476D01*
X51361905Y-55538095D01*
X50409524Y-55347619D02*
X50361905Y-55300000D01*
X50266667Y-55252381D01*
X50028571Y-55252381D01*
X49933333Y-55300000D01*
X49885714Y-55347619D01*
X49838095Y-55442857D01*
X49838095Y-55538095D01*
X49885714Y-55680952D01*
X50457143Y-56252381D01*
X49838095Y-56252381D01*
X76292857Y-65257143D02*
X76340476Y-65304762D01*
X76483333Y-65352381D01*
X76578571Y-65352381D01*
X76721429Y-65304762D01*
X76816667Y-65209524D01*
X76864286Y-65114286D01*
X76911905Y-64923810D01*
X76911905Y-64780952D01*
X76864286Y-64590476D01*
X76816667Y-64495238D01*
X76721429Y-64400000D01*
X76578571Y-64352381D01*
X76483333Y-64352381D01*
X76340476Y-64400000D01*
X76292857Y-64447619D01*
X75340476Y-65352381D02*
X75911905Y-65352381D01*
X75626191Y-65352381D02*
X75626191Y-64352381D01*
X75721429Y-64495238D01*
X75816667Y-64590476D01*
X75911905Y-64638095D01*
X75007143Y-64352381D02*
X74388095Y-64352381D01*
X74721429Y-64733333D01*
X74578571Y-64733333D01*
X74483333Y-64780952D01*
X74435714Y-64828571D01*
X74388095Y-64923810D01*
X74388095Y-65161905D01*
X74435714Y-65257143D01*
X74483333Y-65304762D01*
X74578571Y-65352381D01*
X74864286Y-65352381D01*
X74959524Y-65304762D01*
X75007143Y-65257143D01*
X68338095Y-37252381D02*
X68338095Y-36252381D01*
X68100000Y-36252381D01*
X67957142Y-36300000D01*
X67861904Y-36395238D01*
X67814285Y-36490476D01*
X67766666Y-36680952D01*
X67766666Y-36823810D01*
X67814285Y-37014286D01*
X67861904Y-37109524D01*
X67957142Y-37204762D01*
X68100000Y-37252381D01*
X68338095Y-37252381D01*
X66861904Y-36252381D02*
X67338095Y-36252381D01*
X67385714Y-36728571D01*
X67338095Y-36680952D01*
X67242857Y-36633333D01*
X67004761Y-36633333D01*
X66909523Y-36680952D01*
X66861904Y-36728571D01*
X66814285Y-36823810D01*
X66814285Y-37061905D01*
X66861904Y-37157143D01*
X66909523Y-37204762D01*
X67004761Y-37252381D01*
X67242857Y-37252381D01*
X67338095Y-37204762D01*
X67385714Y-37157143D01*
X60561905Y-40452381D02*
X60561905Y-39452381D01*
X59990476Y-40452381D02*
X60419048Y-39880952D01*
X59990476Y-39452381D02*
X60561905Y-40023810D01*
X60938095Y-33966667D02*
X60461904Y-33966667D01*
X61033333Y-34252381D02*
X60700000Y-33252381D01*
X60366666Y-34252381D01*
X38538095Y-67252381D02*
X38538095Y-66252381D01*
X38300000Y-66252381D01*
X38157142Y-66300000D01*
X38061904Y-66395238D01*
X38014285Y-66490476D01*
X37966666Y-66680952D01*
X37966666Y-66823810D01*
X38014285Y-67014286D01*
X38061904Y-67109524D01*
X38157142Y-67204762D01*
X38300000Y-67252381D01*
X38538095Y-67252381D01*
X37633333Y-66252381D02*
X36966666Y-66252381D01*
X37395238Y-67252381D01*
X46238095Y-67252381D02*
X46238095Y-66252381D01*
X46000000Y-66252381D01*
X45857142Y-66300000D01*
X45761904Y-66395238D01*
X45714285Y-66490476D01*
X45666666Y-66680952D01*
X45666666Y-66823810D01*
X45714285Y-67014286D01*
X45761904Y-67109524D01*
X45857142Y-67204762D01*
X46000000Y-67252381D01*
X46238095Y-67252381D01*
X45095238Y-66680952D02*
X45190476Y-66633333D01*
X45238095Y-66585714D01*
X45285714Y-66490476D01*
X45285714Y-66442857D01*
X45238095Y-66347619D01*
X45190476Y-66300000D01*
X45095238Y-66252381D01*
X44904761Y-66252381D01*
X44809523Y-66300000D01*
X44761904Y-66347619D01*
X44714285Y-66442857D01*
X44714285Y-66490476D01*
X44761904Y-66585714D01*
X44809523Y-66633333D01*
X44904761Y-66680952D01*
X45095238Y-66680952D01*
X45190476Y-66728571D01*
X45238095Y-66776190D01*
X45285714Y-66871429D01*
X45285714Y-67061905D01*
X45238095Y-67157143D01*
X45190476Y-67204762D01*
X45095238Y-67252381D01*
X44904761Y-67252381D01*
X44809523Y-67204762D01*
X44761904Y-67157143D01*
X44714285Y-67061905D01*
X44714285Y-66871429D01*
X44761904Y-66776190D01*
X44809523Y-66728571D01*
X44904761Y-66680952D01*
X52838095Y-67000381D02*
X52838095Y-66000381D01*
X52600000Y-66000381D01*
X52457142Y-66048000D01*
X52361904Y-66143238D01*
X52314285Y-66238476D01*
X52266666Y-66428952D01*
X52266666Y-66571810D01*
X52314285Y-66762286D01*
X52361904Y-66857524D01*
X52457142Y-66952762D01*
X52600000Y-67000381D01*
X52838095Y-67000381D01*
X51790476Y-67000381D02*
X51600000Y-67000381D01*
X51504761Y-66952762D01*
X51457142Y-66905143D01*
X51361904Y-66762286D01*
X51314285Y-66571810D01*
X51314285Y-66190857D01*
X51361904Y-66095619D01*
X51409523Y-66048000D01*
X51504761Y-66000381D01*
X51695238Y-66000381D01*
X51790476Y-66048000D01*
X51838095Y-66095619D01*
X51885714Y-66190857D01*
X51885714Y-66428952D01*
X51838095Y-66524190D01*
X51790476Y-66571810D01*
X51695238Y-66619429D01*
X51504761Y-66619429D01*
X51409523Y-66571810D01*
X51361904Y-66524190D01*
X51314285Y-66428952D01*
X59514286Y-67000381D02*
X59514286Y-66000381D01*
X59276191Y-66000381D01*
X59133333Y-66048000D01*
X59038095Y-66143238D01*
X58990476Y-66238476D01*
X58942857Y-66428952D01*
X58942857Y-66571810D01*
X58990476Y-66762286D01*
X59038095Y-66857524D01*
X59133333Y-66952762D01*
X59276191Y-67000381D01*
X59514286Y-67000381D01*
X57990476Y-67000381D02*
X58561905Y-67000381D01*
X58276191Y-67000381D02*
X58276191Y-66000381D01*
X58371429Y-66143238D01*
X58466667Y-66238476D01*
X58561905Y-66286095D01*
X57371429Y-66000381D02*
X57276190Y-66000381D01*
X57180952Y-66048000D01*
X57133333Y-66095619D01*
X57085714Y-66190857D01*
X57038095Y-66381333D01*
X57038095Y-66619429D01*
X57085714Y-66809905D01*
X57133333Y-66905143D01*
X57180952Y-66952762D01*
X57276190Y-67000381D01*
X57371429Y-67000381D01*
X57466667Y-66952762D01*
X57514286Y-66905143D01*
X57561905Y-66809905D01*
X57609524Y-66619429D01*
X57609524Y-66381333D01*
X57561905Y-66190857D01*
X57514286Y-66095619D01*
X57466667Y-66048000D01*
X57371429Y-66000381D01*
X43495238Y-32747619D02*
X43590476Y-32700000D01*
X43685714Y-32604762D01*
X43828571Y-32461905D01*
X43923810Y-32414286D01*
X44019048Y-32414286D01*
X43971429Y-32652381D02*
X44066667Y-32604762D01*
X44161905Y-32509524D01*
X44209524Y-32319048D01*
X44209524Y-31985714D01*
X44161905Y-31795238D01*
X44066667Y-31700000D01*
X43971429Y-31652381D01*
X43780952Y-31652381D01*
X43685714Y-31700000D01*
X43590476Y-31795238D01*
X43542857Y-31985714D01*
X43542857Y-32319048D01*
X43590476Y-32509524D01*
X43685714Y-32604762D01*
X43780952Y-32652381D01*
X43971429Y-32652381D01*
X42590476Y-32652381D02*
X43161905Y-32652381D01*
X42876191Y-32652381D02*
X42876191Y-31652381D01*
X42971429Y-31795238D01*
X43066667Y-31890476D01*
X43161905Y-31938095D01*
X40166666Y-43152381D02*
X40500000Y-42676190D01*
X40738095Y-43152381D02*
X40738095Y-42152381D01*
X40357142Y-42152381D01*
X40261904Y-42200000D01*
X40214285Y-42247619D01*
X40166666Y-42342857D01*
X40166666Y-42485714D01*
X40214285Y-42580952D01*
X40261904Y-42628571D01*
X40357142Y-42676190D01*
X40738095Y-42676190D01*
X39214285Y-43152381D02*
X39785714Y-43152381D01*
X39500000Y-43152381D02*
X39500000Y-42152381D01*
X39595238Y-42295238D01*
X39690476Y-42390476D01*
X39785714Y-42438095D01*
X40166666Y-45852381D02*
X40500000Y-45376190D01*
X40738095Y-45852381D02*
X40738095Y-44852381D01*
X40357142Y-44852381D01*
X40261904Y-44900000D01*
X40214285Y-44947619D01*
X40166666Y-45042857D01*
X40166666Y-45185714D01*
X40214285Y-45280952D01*
X40261904Y-45328571D01*
X40357142Y-45376190D01*
X40738095Y-45376190D01*
X39785714Y-44947619D02*
X39738095Y-44900000D01*
X39642857Y-44852381D01*
X39404761Y-44852381D01*
X39309523Y-44900000D01*
X39261904Y-44947619D01*
X39214285Y-45042857D01*
X39214285Y-45138095D01*
X39261904Y-45280952D01*
X39833333Y-45852381D01*
X39214285Y-45852381D01*
X40266666Y-48552381D02*
X40600000Y-48076190D01*
X40838095Y-48552381D02*
X40838095Y-47552381D01*
X40457142Y-47552381D01*
X40361904Y-47600000D01*
X40314285Y-47647619D01*
X40266666Y-47742857D01*
X40266666Y-47885714D01*
X40314285Y-47980952D01*
X40361904Y-48028571D01*
X40457142Y-48076190D01*
X40838095Y-48076190D01*
X39933333Y-47552381D02*
X39314285Y-47552381D01*
X39647619Y-47933333D01*
X39504761Y-47933333D01*
X39409523Y-47980952D01*
X39361904Y-48028571D01*
X39314285Y-48123810D01*
X39314285Y-48361905D01*
X39361904Y-48457143D01*
X39409523Y-48504762D01*
X39504761Y-48552381D01*
X39790476Y-48552381D01*
X39885714Y-48504762D01*
X39933333Y-48457143D01*
X40266666Y-51052381D02*
X40600000Y-50576190D01*
X40838095Y-51052381D02*
X40838095Y-50052381D01*
X40457142Y-50052381D01*
X40361904Y-50100000D01*
X40314285Y-50147619D01*
X40266666Y-50242857D01*
X40266666Y-50385714D01*
X40314285Y-50480952D01*
X40361904Y-50528571D01*
X40457142Y-50576190D01*
X40838095Y-50576190D01*
X39409523Y-50385714D02*
X39409523Y-51052381D01*
X39647619Y-50004762D02*
X39885714Y-50719048D01*
X39266666Y-50719048D01*
X33542857Y-57352381D02*
X33876191Y-56876190D01*
X34114286Y-57352381D02*
X34114286Y-56352381D01*
X33733333Y-56352381D01*
X33638095Y-56400000D01*
X33590476Y-56447619D01*
X33542857Y-56542857D01*
X33542857Y-56685714D01*
X33590476Y-56780952D01*
X33638095Y-56828571D01*
X33733333Y-56876190D01*
X34114286Y-56876190D01*
X33161905Y-56447619D02*
X33114286Y-56400000D01*
X33019048Y-56352381D01*
X32780952Y-56352381D01*
X32685714Y-56400000D01*
X32638095Y-56447619D01*
X32590476Y-56542857D01*
X32590476Y-56638095D01*
X32638095Y-56780952D01*
X33209524Y-57352381D01*
X32590476Y-57352381D01*
X32257143Y-56352381D02*
X31638095Y-56352381D01*
X31971429Y-56733333D01*
X31828571Y-56733333D01*
X31733333Y-56780952D01*
X31685714Y-56828571D01*
X31638095Y-56923810D01*
X31638095Y-57161905D01*
X31685714Y-57257143D01*
X31733333Y-57304762D01*
X31828571Y-57352381D01*
X32114286Y-57352381D01*
X32209524Y-57304762D01*
X32257143Y-57257143D01*
X47242857Y-57252381D02*
X47576191Y-56776190D01*
X47814286Y-57252381D02*
X47814286Y-56252381D01*
X47433333Y-56252381D01*
X47338095Y-56300000D01*
X47290476Y-56347619D01*
X47242857Y-56442857D01*
X47242857Y-56585714D01*
X47290476Y-56680952D01*
X47338095Y-56728571D01*
X47433333Y-56776190D01*
X47814286Y-56776190D01*
X46861905Y-56347619D02*
X46814286Y-56300000D01*
X46719048Y-56252381D01*
X46480952Y-56252381D01*
X46385714Y-56300000D01*
X46338095Y-56347619D01*
X46290476Y-56442857D01*
X46290476Y-56538095D01*
X46338095Y-56680952D01*
X46909524Y-57252381D01*
X46290476Y-57252381D01*
X45433333Y-56585714D02*
X45433333Y-57252381D01*
X45671429Y-56204762D02*
X45909524Y-56919048D01*
X45290476Y-56919048D01*
X40442857Y-56152381D02*
X40776191Y-55676190D01*
X41014286Y-56152381D02*
X41014286Y-55152381D01*
X40633333Y-55152381D01*
X40538095Y-55200000D01*
X40490476Y-55247619D01*
X40442857Y-55342857D01*
X40442857Y-55485714D01*
X40490476Y-55580952D01*
X40538095Y-55628571D01*
X40633333Y-55676190D01*
X41014286Y-55676190D01*
X40061905Y-55247619D02*
X40014286Y-55200000D01*
X39919048Y-55152381D01*
X39680952Y-55152381D01*
X39585714Y-55200000D01*
X39538095Y-55247619D01*
X39490476Y-55342857D01*
X39490476Y-55438095D01*
X39538095Y-55580952D01*
X40109524Y-56152381D01*
X39490476Y-56152381D01*
X38585714Y-55152381D02*
X39061905Y-55152381D01*
X39109524Y-55628571D01*
X39061905Y-55580952D01*
X38966667Y-55533333D01*
X38728571Y-55533333D01*
X38633333Y-55580952D01*
X38585714Y-55628571D01*
X38538095Y-55723810D01*
X38538095Y-55961905D01*
X38585714Y-56057143D01*
X38633333Y-56104762D01*
X38728571Y-56152381D01*
X38966667Y-56152381D01*
X39061905Y-56104762D01*
X39109524Y-56057143D01*
X69776191Y-47776190D02*
X69776191Y-48252381D01*
X70109524Y-47252381D02*
X69776191Y-47776190D01*
X69442857Y-47252381D01*
X68585714Y-48252381D02*
X69157143Y-48252381D01*
X68871429Y-48252381D02*
X68871429Y-47252381D01*
X68966667Y-47395238D01*
X69061905Y-47490476D01*
X69157143Y-47538095D01*
M02*
