M48
;DRILL file {KiCad (2015-06-25 BZR 5821)-product} date Thu 25 Jun 2015 01:49:02 PM EDT
;FORMAT={2:4/ absolute / inch / keep zeros}
FMAT,2
INCH,TZ
T1C0.015
T2C0.031
T3C0.040
T4C0.047
T5C0.108
%
G90
G05
M72
T1
X012953Y-018465
X013425Y-022835
X013543Y-013976
X013780Y-011063
X014291Y-023622
X014900Y-013250
X014950Y-011550
X015108Y-016834
X015118Y-017874
X015118Y-018937
X015118Y-019961
X015630Y-021496
X015900Y-011700
X016457Y-019921
X016499Y-013186
X016614Y-011260
X016732Y-021417
X016921Y-012235
X016929Y-023583
X017110Y-024690
X017323Y-011890
X017402Y-017717
X017638Y-019921
X017835Y-011811
X018107Y-018855
X018228Y-009016
X018306Y-012909
X018516Y-014424
X018750Y-025250
X018850Y-022950
X019088Y-017971
X019209Y-009843
X019317Y-011629
X019528Y-014291
X019764Y-012913
X019961Y-014882
X020039Y-019173
X020350Y-025600
X020787Y-023031
X020984Y-012874
X020984Y-020394
X021181Y-010709
X021850Y-021496
X022441Y-022795
X022526Y-020777
X022795Y-022008
X022800Y-025700
X023031Y-020709
X023110Y-023071
X023545Y-024408
X023717Y-024983
X024961Y-024567
X025315Y-022913
X025945Y-022953
X026220Y-009016
X026350Y-015200
X027100Y-024200
X027750Y-016750
X027874Y-025748
X027950Y-026250
X028976Y-025748
X031417Y-021732
X033228Y-009843
X034409Y-010866
T2
X022881Y-019050
X024850Y-019050
T3
X012300Y-024050
X012300Y-025550
X012400Y-012750
X012400Y-013750
X013300Y-024050
X013300Y-025550
X013650Y-015050
X014650Y-015050
X014713Y-009343
X014713Y-010343
X015713Y-009343
X015713Y-010343
X016713Y-009343
X016713Y-010343
X017713Y-009343
X017713Y-010343
X018713Y-009343
X018713Y-010343
X019713Y-009343
X019713Y-010343
X020050Y-018050
X020713Y-009343
X020713Y-010343
X021050Y-018050
X021713Y-009343
X021713Y-010343
X022713Y-009343
X022713Y-010343
X023713Y-009343
X023713Y-010343
X024713Y-009343
X024713Y-010343
X025713Y-009343
X025713Y-010343
X026713Y-009343
X026713Y-010343
X027713Y-009343
X027713Y-010343
X028713Y-009343
X028713Y-010343
X029713Y-009343
X029713Y-010343
X030713Y-009343
X030713Y-010343
X031713Y-009343
X031713Y-010343
X032713Y-009343
X032713Y-010343
X033713Y-009343
X033713Y-010343
T4
X015400Y-028800
X016778Y-028800
X018156Y-028800
X018800Y-013581
X018800Y-015550
X019534Y-028800
X020912Y-028800
X022290Y-028800
X023668Y-028800
X025046Y-028800
X028094Y-028800
X029472Y-028800
X030850Y-028800
X032228Y-028800
X035500Y-016950
X035500Y-018328
X035500Y-019706
X035500Y-021084
X035500Y-022462
X035500Y-023840
X035500Y-025218
X035500Y-026596
X035512Y-012283
X035512Y-013661
T5
X012795Y-009843
X012795Y-029134
X035630Y-009843
X035630Y-029134
T0
M30
