G04 #@! TF.FileFunction,Copper,L1,Top,Signal*
%FSLAX46Y46*%
G04 Gerber Fmt 4.6, Leading zero omitted, Abs format (unit mm)*
G04 Created by KiCad (PCBNEW (2015-06-25 BZR 5821)-product) date Thu 25 Jun 2015 01:48:58 PM EDT*
%MOMM*%
G01*
G04 APERTURE LIST*
%ADD10C,0.200000*%
%ADD11R,1.500000X1.300000*%
%ADD12R,10.200000X3.500000*%
%ADD13C,1.700000*%
%ADD14R,1.700000X1.700000*%
%ADD15R,1.300000X1.300000*%
%ADD16C,1.300000*%
%ADD17R,1.500000X1.250000*%
%ADD18R,1.250000X1.500000*%
%ADD19R,1.198880X1.198880*%
%ADD20R,3.500120X2.301240*%
%ADD21O,3.000000X1.600000*%
%ADD22R,1.727200X1.727200*%
%ADD23O,1.727200X1.727200*%
%ADD24R,2.032000X2.032000*%
%ADD25O,2.032000X2.032000*%
%ADD26R,1.060000X0.650000*%
%ADD27R,1.300000X1.500000*%
%ADD28R,2.286000X1.143000*%
%ADD29R,10.410000X10.800000*%
%ADD30R,0.600000X1.500000*%
%ADD31R,0.600000X1.550000*%
%ADD32O,1.600000X3.000000*%
%ADD33C,2.750000*%
%ADD34C,0.889000*%
%ADD35C,0.254000*%
%ADD36C,1.270000*%
%ADD37C,0.635000*%
%ADD38C,0.127000*%
G04 APERTURE END LIST*
D10*
D11*
X62750000Y-57900000D03*
X60050000Y-57900000D03*
D12*
X79629000Y-42188000D03*
X79629000Y-32488000D03*
D13*
X47752000Y-39497000D03*
D14*
X47752000Y-34497000D03*
D15*
X63119000Y-48387000D03*
D16*
X58119000Y-48387000D03*
D17*
X83332000Y-53848000D03*
X85832000Y-53848000D03*
D18*
X83312000Y-58400000D03*
X83312000Y-55900000D03*
D19*
X36630020Y-42758000D03*
X34531980Y-42758000D03*
X36630020Y-45425000D03*
X34531980Y-45425000D03*
X36630020Y-48092000D03*
X34531980Y-48092000D03*
X36630020Y-50759000D03*
X34531980Y-50759000D03*
D20*
X77309980Y-51562000D03*
X82710020Y-51562000D03*
D21*
X90200000Y-31200000D03*
X90200000Y-34700000D03*
D22*
X37370000Y-26270000D03*
D23*
X37370000Y-23730000D03*
X39910000Y-26270000D03*
X39910000Y-23730000D03*
X42450000Y-26270000D03*
X42450000Y-23730000D03*
X44990000Y-26270000D03*
X44990000Y-23730000D03*
X47530000Y-26270000D03*
X47530000Y-23730000D03*
X50070000Y-26270000D03*
X50070000Y-23730000D03*
X52610000Y-26270000D03*
X52610000Y-23730000D03*
X55150000Y-26270000D03*
X55150000Y-23730000D03*
X57690000Y-26270000D03*
X57690000Y-23730000D03*
X60230000Y-26270000D03*
X60230000Y-23730000D03*
X62770000Y-26270000D03*
X62770000Y-23730000D03*
X65310000Y-26270000D03*
X65310000Y-23730000D03*
X67850000Y-26270000D03*
X67850000Y-23730000D03*
X70390000Y-26270000D03*
X70390000Y-23730000D03*
X72930000Y-26270000D03*
X72930000Y-23730000D03*
X75470000Y-26270000D03*
X75470000Y-23730000D03*
X78010000Y-26270000D03*
X78010000Y-23730000D03*
X80550000Y-26270000D03*
X80550000Y-23730000D03*
X83090000Y-26270000D03*
X83090000Y-23730000D03*
X85630000Y-26270000D03*
X85630000Y-23730000D03*
D24*
X33782000Y-61087000D03*
D25*
X31242000Y-61087000D03*
D26*
X37000000Y-30546000D03*
X37000000Y-31496000D03*
X37000000Y-32446000D03*
X39200000Y-32446000D03*
X39200000Y-30546000D03*
X39200000Y-31496000D03*
D27*
X34544000Y-30908000D03*
X34544000Y-33608000D03*
D11*
X39196000Y-34544000D03*
X36496000Y-34544000D03*
D27*
X39370000Y-68152000D03*
X39370000Y-65452000D03*
X46482000Y-68152000D03*
X46482000Y-65452000D03*
X53086000Y-67898000D03*
X53086000Y-65198000D03*
X59690000Y-67898000D03*
X59690000Y-65198000D03*
X41783000Y-65452000D03*
X41783000Y-68152000D03*
X48895000Y-65452000D03*
X48895000Y-68152000D03*
X55372000Y-65198000D03*
X55372000Y-67898000D03*
X61976000Y-65198000D03*
X61976000Y-67898000D03*
D11*
X60050000Y-55000000D03*
X62750000Y-55000000D03*
D24*
X50927000Y-45847000D03*
D25*
X53467000Y-45847000D03*
D24*
X37211000Y-38227000D03*
D25*
X34671000Y-38227000D03*
D24*
X31496000Y-32385000D03*
D25*
X31496000Y-34925000D03*
D24*
X33782000Y-64897000D03*
D25*
X31242000Y-64897000D03*
D28*
X68904000Y-38529260D03*
D29*
X60579000Y-36830000D03*
D28*
X68904000Y-35130740D03*
X68904000Y-36830000D03*
X68904000Y-40231060D03*
X68904000Y-33428940D03*
D26*
X78656000Y-56454000D03*
X78656000Y-57404000D03*
X78656000Y-58354000D03*
X80856000Y-58354000D03*
X80856000Y-56454000D03*
D30*
X46609000Y-62136000D03*
X47879000Y-62136000D03*
X49149000Y-62136000D03*
X50419000Y-62136000D03*
X51689000Y-62136000D03*
X52959000Y-62136000D03*
X54229000Y-62136000D03*
X55499000Y-62136000D03*
X55499000Y-56736000D03*
X54229000Y-56736000D03*
X52959000Y-56736000D03*
X51689000Y-56736000D03*
X50419000Y-56736000D03*
X49149000Y-56736000D03*
X47879000Y-56736000D03*
X46609000Y-56736000D03*
D31*
X37846000Y-61374000D03*
X39116000Y-61374000D03*
X40386000Y-61374000D03*
X41656000Y-61374000D03*
X41656000Y-55974000D03*
X40386000Y-55974000D03*
X39116000Y-55974000D03*
X37846000Y-55974000D03*
D30*
X76327000Y-58977000D03*
X75057000Y-58977000D03*
X73787000Y-58977000D03*
X72517000Y-58977000D03*
X71247000Y-58977000D03*
X69977000Y-58977000D03*
X68707000Y-58977000D03*
X67437000Y-58977000D03*
X67437000Y-68277000D03*
X68707000Y-68277000D03*
X69977000Y-68277000D03*
X71247000Y-68277000D03*
X72517000Y-68277000D03*
X73787000Y-68277000D03*
X75057000Y-68277000D03*
X76327000Y-68277000D03*
D21*
X90170000Y-57053000D03*
X90170000Y-60553000D03*
X90170000Y-64053000D03*
X90170000Y-67553000D03*
X90170000Y-53553000D03*
X90170000Y-50053000D03*
X90170000Y-46553000D03*
X90170000Y-43053000D03*
D32*
X53116000Y-73152000D03*
X56616000Y-73152000D03*
X60116000Y-73152000D03*
X63616000Y-73152000D03*
X49616000Y-73152000D03*
X46116000Y-73152000D03*
X42616000Y-73152000D03*
X39116000Y-73152000D03*
X71359000Y-73152000D03*
X74859000Y-73152000D03*
X78359000Y-73152000D03*
X81859000Y-73152000D03*
D33*
X32500000Y-25000000D03*
X90500000Y-25000000D03*
X90500000Y-74000000D03*
X32500000Y-74000000D03*
D34*
X46300000Y-22900000D03*
X55500000Y-54600000D03*
X53800000Y-27200000D03*
X43000000Y-59900000D03*
X66600000Y-22900000D03*
X40386000Y-29718000D03*
X34100000Y-58000000D03*
X63400000Y-62400000D03*
X36300000Y-60000000D03*
X57000000Y-57900000D03*
X68834000Y-61468000D03*
X47879000Y-58293000D03*
X70993000Y-66675000D03*
X38375000Y-42758000D03*
X38400000Y-45400000D03*
X38400000Y-48100000D03*
X38400000Y-50700000D03*
X70485000Y-42545000D03*
X66929000Y-38608000D03*
X43460642Y-62711358D03*
X47625000Y-64135000D03*
X51689000Y-65024000D03*
X57912000Y-65278000D03*
X87400000Y-27600000D03*
X37973000Y-29337000D03*
X42978908Y-31076240D03*
X47031672Y-36636859D03*
X44000000Y-30200000D03*
X64300000Y-58200000D03*
X49065275Y-29538237D03*
X52800000Y-58500000D03*
X41906979Y-33491453D03*
X58700000Y-58600000D03*
X44200000Y-45000000D03*
X60242408Y-63456726D03*
X45992841Y-47892841D03*
X45300000Y-30000000D03*
X46496220Y-32789412D03*
X53300000Y-51800000D03*
X59804729Y-61995271D03*
X65900000Y-58300000D03*
X50700000Y-37800000D03*
X50900000Y-48700000D03*
X42500000Y-54400000D03*
X42200000Y-28600000D03*
X39700000Y-54600000D03*
X35000000Y-28100000D03*
X48789818Y-25000000D03*
X34400000Y-35500000D03*
X32900000Y-46900000D03*
X84400000Y-25000000D03*
X53300000Y-32700000D03*
X50200000Y-32800000D03*
X49600000Y-36300000D03*
X48483584Y-45645542D03*
X44800000Y-50600000D03*
X41800000Y-50600000D03*
X37846000Y-33655000D03*
X57900000Y-55900000D03*
X57216775Y-52772338D03*
X58500000Y-52600000D03*
X79800000Y-55200000D03*
X73600000Y-65400000D03*
X70800000Y-65400000D03*
D35*
X47530000Y-26270000D02*
X46386999Y-25126999D01*
X46386999Y-25126999D02*
X46386999Y-22986999D01*
X46386999Y-22986999D02*
X46300000Y-22900000D01*
X55499000Y-56736000D02*
X55499000Y-54601000D01*
X55499000Y-54601000D02*
X55500000Y-54600000D01*
X51286999Y-27413001D02*
X53586999Y-27413001D01*
X53586999Y-27413001D02*
X53800000Y-27200000D01*
X47530000Y-26270000D02*
X47430000Y-26270000D01*
X41656000Y-61374000D02*
X41656000Y-61244000D01*
X41656000Y-61244000D02*
X43000000Y-59900000D01*
X60230000Y-23730000D02*
X61093599Y-22866401D01*
X66286999Y-22586999D02*
X66600000Y-22900000D01*
X61941957Y-22866401D02*
X62221359Y-22586999D01*
X61093599Y-22866401D02*
X61941957Y-22866401D01*
X62221359Y-22586999D02*
X66286999Y-22586999D01*
X47530000Y-26270000D02*
X48673001Y-27413001D01*
X48673001Y-27413001D02*
X51286999Y-27413001D01*
X51689000Y-62136000D02*
X55499000Y-62136000D01*
D36*
X47752000Y-32674726D02*
X50581726Y-29845000D01*
X70616000Y-29845000D02*
X73259000Y-32488000D01*
X50581726Y-29845000D02*
X70616000Y-29845000D01*
X73259000Y-32488000D02*
X79629000Y-32488000D01*
X47752000Y-34497000D02*
X47752000Y-32674726D01*
D37*
X47752000Y-31308044D02*
X47752000Y-33012000D01*
X47752000Y-33012000D02*
X47752000Y-34497000D01*
X46248230Y-29301327D02*
X46248230Y-29804274D01*
X45812990Y-28866087D02*
X46248230Y-29301327D01*
X43777111Y-28866087D02*
X45812990Y-28866087D01*
X40386000Y-29718000D02*
X42925198Y-29718000D01*
X46248230Y-29804274D02*
X47752000Y-31308044D01*
X42925198Y-29718000D02*
X43777111Y-28866087D01*
D36*
X47752000Y-34497000D02*
X49872000Y-34497000D01*
X49872000Y-34497000D02*
X53467000Y-38092000D01*
X53467000Y-38092000D02*
X53467000Y-44410160D01*
X53467000Y-44410160D02*
X53467000Y-45847000D01*
D37*
X40386000Y-29718000D02*
X40028000Y-29718000D01*
X40028000Y-29718000D02*
X39200000Y-30546000D01*
D36*
X75970000Y-32488000D02*
X73327260Y-35130740D01*
X73327260Y-35130740D02*
X68904000Y-35130740D01*
X79629000Y-32488000D02*
X75970000Y-32488000D01*
X90200000Y-34700000D02*
X90200000Y-36770000D01*
X70437870Y-44400000D02*
X68430880Y-44400000D01*
X90200000Y-36770000D02*
X87000000Y-39970000D01*
X87000000Y-39970000D02*
X87000000Y-44400000D01*
X87000000Y-44400000D02*
X85700000Y-45700000D01*
X71737870Y-45700000D02*
X70437870Y-44400000D01*
X85700000Y-45700000D02*
X71737870Y-45700000D01*
X68430880Y-44400000D02*
X66808440Y-42777560D01*
X63119000Y-48387000D02*
X63119000Y-46467000D01*
X66808440Y-42777560D02*
X68199000Y-42777560D01*
X63119000Y-46467000D02*
X66808440Y-42777560D01*
X68904000Y-40231060D02*
X68904000Y-42072560D01*
X68904000Y-42072560D02*
X68199000Y-42777560D01*
D35*
X80856000Y-58354000D02*
X83266000Y-58354000D01*
X83266000Y-58354000D02*
X83312000Y-58400000D01*
X57000000Y-57900000D02*
X57600000Y-57300000D01*
X57600000Y-57300000D02*
X59450000Y-57300000D01*
X59450000Y-57300000D02*
X60050000Y-57900000D01*
X37370000Y-26270000D02*
X37370000Y-27387600D01*
X37370000Y-27387600D02*
X35357600Y-29400000D01*
X35357600Y-29400000D02*
X30800000Y-29400000D01*
X30800000Y-29400000D02*
X29900000Y-30300000D01*
X29900000Y-30300000D02*
X29900000Y-53800000D01*
X29900000Y-53800000D02*
X34100000Y-58000000D01*
X60050000Y-57900000D02*
X60050000Y-59050000D01*
X60050000Y-59050000D02*
X63400000Y-62400000D01*
X36300000Y-60000000D02*
X37846000Y-58454000D01*
X37846000Y-58454000D02*
X37846000Y-55974000D01*
X46609000Y-56736000D02*
X47879000Y-56736000D01*
X60050000Y-57900000D02*
X60150000Y-57900000D01*
X60150000Y-57900000D02*
X62750000Y-55300000D01*
X62750000Y-55300000D02*
X62750000Y-55000000D01*
X68834000Y-61468000D02*
X68834000Y-59104000D01*
X68834000Y-59104000D02*
X68707000Y-58977000D01*
X47879000Y-56736000D02*
X47879000Y-58293000D01*
X80856000Y-56454000D02*
X80856000Y-55444000D01*
X80856000Y-55444000D02*
X82500000Y-53800000D01*
X82500000Y-53800000D02*
X82548000Y-53848000D01*
X82548000Y-53848000D02*
X83332000Y-53848000D01*
X70993000Y-66675000D02*
X72263000Y-66675000D01*
X72263000Y-66675000D02*
X72517000Y-66421000D01*
X80856000Y-56454000D02*
X81061000Y-56454000D01*
X83332000Y-54183000D02*
X83332000Y-53848000D01*
X73914000Y-62865000D02*
X72263000Y-64516000D01*
X72263000Y-64516000D02*
X72263000Y-66167000D01*
X75819000Y-62865000D02*
X73914000Y-62865000D01*
X79756000Y-58928000D02*
X75819000Y-62865000D01*
X79756000Y-58133000D02*
X79756000Y-58928000D01*
X80856000Y-56454000D02*
X80856000Y-57033000D01*
X80856000Y-57033000D02*
X79756000Y-58133000D01*
X72517000Y-68277000D02*
X72517000Y-66421000D01*
X72517000Y-66421000D02*
X72263000Y-66167000D01*
X83332000Y-53848000D02*
X83332000Y-52183980D01*
X83332000Y-52183980D02*
X82710020Y-51562000D01*
X37483460Y-42758000D02*
X38375000Y-42758000D01*
X36630020Y-42758000D02*
X37483460Y-42758000D01*
X36630020Y-45425000D02*
X38375000Y-45425000D01*
X38375000Y-45425000D02*
X38400000Y-45400000D01*
X38400000Y-48100000D02*
X36638020Y-48100000D01*
X36638020Y-48100000D02*
X36630020Y-48092000D01*
X36630020Y-50759000D02*
X38341000Y-50759000D01*
X38341000Y-50759000D02*
X38400000Y-50700000D01*
D36*
X79629000Y-42188000D02*
X70842000Y-42188000D01*
X70842000Y-42188000D02*
X70485000Y-42545000D01*
X68904000Y-38529260D02*
X67007740Y-38529260D01*
X67007740Y-38529260D02*
X66929000Y-38608000D01*
D35*
X43460642Y-62711358D02*
X42291000Y-63881000D01*
X44036000Y-62136000D02*
X43460642Y-62711358D01*
X43460642Y-62711358D02*
X43207613Y-62964387D01*
X39370000Y-65452000D02*
X41783000Y-65452000D01*
X41783000Y-65452000D02*
X41783000Y-64389000D01*
X41783000Y-64389000D02*
X42291000Y-63881000D01*
X46609000Y-62136000D02*
X44036000Y-62136000D01*
X46482000Y-65452000D02*
X46482000Y-65278000D01*
X46482000Y-65278000D02*
X47625000Y-64135000D01*
X46482000Y-65452000D02*
X48895000Y-65452000D01*
X47879000Y-62136000D02*
X47879000Y-63881000D01*
X47879000Y-63881000D02*
X47625000Y-64135000D01*
X51689000Y-65024000D02*
X52912000Y-65024000D01*
X52912000Y-65024000D02*
X53086000Y-65198000D01*
X55372000Y-65198000D02*
X53086000Y-65198000D01*
X49149000Y-62136000D02*
X49149000Y-62586000D01*
X49149000Y-62586000D02*
X51587000Y-65024000D01*
X51587000Y-65024000D02*
X51689000Y-65024000D01*
X59690000Y-65198000D02*
X57992000Y-65198000D01*
X57992000Y-65198000D02*
X57912000Y-65278000D01*
X61976000Y-65198000D02*
X59690000Y-65198000D01*
X50779000Y-63500000D02*
X56134000Y-63500000D01*
X56134000Y-63500000D02*
X57912000Y-65278000D01*
X50419000Y-62136000D02*
X50419000Y-63140000D01*
X50419000Y-63140000D02*
X50779000Y-63500000D01*
X78010000Y-26270000D02*
X79340000Y-27600000D01*
X79340000Y-27600000D02*
X87400000Y-27600000D01*
X75470000Y-26270000D02*
X77600000Y-28400000D01*
X77600000Y-28400000D02*
X91200000Y-28400000D01*
X92700000Y-29900000D02*
X92700000Y-46469000D01*
X92700000Y-46469000D02*
X90170000Y-48999000D01*
X91200000Y-28400000D02*
X92700000Y-29900000D01*
X90170000Y-48999000D02*
X90170000Y-50053000D01*
X72930000Y-26270000D02*
X76060000Y-29400000D01*
X76060000Y-29400000D02*
X91200000Y-29400000D01*
X91200000Y-29400000D02*
X92200000Y-30400000D01*
X92200000Y-30400000D02*
X92200000Y-39969000D01*
X92200000Y-39969000D02*
X90170000Y-41999000D01*
X90170000Y-41999000D02*
X90170000Y-43053000D01*
X53116000Y-73152000D02*
X53116000Y-67928000D01*
X53116000Y-67928000D02*
X53086000Y-67898000D01*
X60116000Y-73152000D02*
X60116000Y-68324000D01*
X60116000Y-68324000D02*
X59690000Y-67898000D01*
X46116000Y-73152000D02*
X46116000Y-68518000D01*
X46116000Y-68518000D02*
X46482000Y-68152000D01*
X39116000Y-73152000D02*
X39116000Y-68406000D01*
X39116000Y-68406000D02*
X39370000Y-68152000D01*
X38700000Y-25060000D02*
X38700000Y-28610000D01*
X39200000Y-31496000D02*
X38416000Y-31496000D01*
X38416000Y-31496000D02*
X37973000Y-31053000D01*
X37973000Y-31053000D02*
X37973000Y-29965617D01*
X37973000Y-29965617D02*
X37973000Y-29337000D01*
X38700000Y-28610000D02*
X37973000Y-29337000D01*
X37370000Y-23730000D02*
X38700000Y-25060000D01*
X41200000Y-27200000D02*
X41200000Y-25020000D01*
X41200000Y-25020000D02*
X39910000Y-23730000D01*
X39507499Y-28892501D02*
X41200000Y-27200000D01*
X37973000Y-29337000D02*
X38417499Y-28892501D01*
X38417499Y-28892501D02*
X39507499Y-28892501D01*
D37*
X37370000Y-23730000D02*
X39910000Y-23730000D01*
D35*
X39910000Y-23730000D02*
X39986000Y-23730000D01*
X42996619Y-42018217D02*
X42996619Y-31087027D01*
X72517000Y-58977000D02*
X72517000Y-58527000D01*
X51978402Y-51000000D02*
X42996619Y-42018217D01*
X42996619Y-31087027D02*
X42993285Y-31083693D01*
X64990000Y-51000000D02*
X51978402Y-51000000D01*
X72517000Y-58527000D02*
X64990000Y-51000000D01*
X47000000Y-36600000D02*
X44100000Y-33700000D01*
X44100000Y-33700000D02*
X44100000Y-30300000D01*
X44100000Y-30300000D02*
X44000000Y-30200000D01*
X62750000Y-57900000D02*
X64000000Y-57900000D01*
X64000000Y-57900000D02*
X64300000Y-58200000D01*
X49741624Y-28861888D02*
X49509774Y-29093738D01*
X49509774Y-29093738D02*
X49065275Y-29538237D01*
X57638112Y-28861888D02*
X49741624Y-28861888D01*
X60230000Y-26270000D02*
X57638112Y-28861888D01*
X52959000Y-58341000D02*
X52800000Y-58500000D01*
X52959000Y-56736000D02*
X52959000Y-58341000D01*
X41906979Y-33491453D02*
X41906979Y-34120070D01*
X41906979Y-34120070D02*
X42110631Y-34323722D01*
X42110631Y-34323722D02*
X42110631Y-41706979D01*
X42110631Y-41706979D02*
X52959000Y-52555348D01*
X52959000Y-52555348D02*
X52959000Y-52759000D01*
X52959000Y-52759000D02*
X52959000Y-56736000D01*
X53000000Y-56777000D02*
X52959000Y-56736000D01*
X58255501Y-59044499D02*
X58700000Y-58600000D01*
X58076099Y-59223901D02*
X58255501Y-59044499D01*
X51689000Y-56736000D02*
X51689000Y-58460374D01*
X52452527Y-59223901D02*
X58076099Y-59223901D01*
X51689000Y-58460374D02*
X52452527Y-59223901D01*
X44644499Y-45444499D02*
X44200000Y-45000000D01*
X51689000Y-56736000D02*
X51689000Y-52489000D01*
X51689000Y-52489000D02*
X44644499Y-45444499D01*
X52284187Y-59630311D02*
X56415993Y-59630311D01*
X50419000Y-57765124D02*
X52284187Y-59630311D01*
X50419000Y-56736000D02*
X50419000Y-57765124D01*
X59797909Y-63012227D02*
X60242408Y-63456726D01*
X56415993Y-59630311D02*
X59797909Y-63012227D01*
X50419000Y-56736000D02*
X50419000Y-52319000D01*
X50419000Y-52319000D02*
X46437340Y-48337340D01*
X46437340Y-48337340D02*
X45992841Y-47892841D01*
X45300000Y-30000000D02*
X44855501Y-30444499D01*
X46051721Y-32344913D02*
X46496220Y-32789412D01*
X44855501Y-30444499D02*
X44855501Y-31148693D01*
X44855501Y-31148693D02*
X46051721Y-32344913D01*
X54229000Y-56736000D02*
X54229000Y-52729000D01*
X54229000Y-52729000D02*
X53300000Y-51800000D01*
X65310000Y-23730000D02*
X65386000Y-23730000D01*
X64300000Y-63400000D02*
X61209458Y-63400000D01*
X60249228Y-62439770D02*
X59804729Y-61995271D01*
X65900000Y-61800000D02*
X64300000Y-63400000D01*
X65900000Y-58300000D02*
X65900000Y-61800000D01*
X61209458Y-63400000D02*
X60249228Y-62439770D01*
X49400000Y-44100000D02*
X50700000Y-42800000D01*
X50700000Y-42800000D02*
X50700000Y-37800000D01*
X49400000Y-47200000D02*
X49400000Y-44100000D01*
X50900000Y-48700000D02*
X49400000Y-47200000D01*
X41656000Y-55974000D02*
X41656000Y-55244000D01*
X41656000Y-55244000D02*
X42500000Y-54400000D01*
X44423901Y-22176099D02*
X43700000Y-22900000D01*
X46647473Y-22176099D02*
X44423901Y-22176099D01*
X62057509Y-22176099D02*
X62033608Y-22200000D01*
X46671374Y-22200000D02*
X46647473Y-22176099D01*
X68836099Y-22176099D02*
X62057509Y-22176099D01*
X62033608Y-22200000D02*
X46671374Y-22200000D01*
X70390000Y-23730000D02*
X68836099Y-22176099D01*
X43700000Y-22900000D02*
X43700000Y-27100000D01*
X42644499Y-28155501D02*
X42200000Y-28600000D01*
X43700000Y-27100000D02*
X42644499Y-28155501D01*
X40386000Y-55974000D02*
X40386000Y-55286000D01*
X40386000Y-55286000D02*
X39700000Y-54600000D01*
X37000000Y-21700000D02*
X78520000Y-21700000D01*
X78520000Y-21700000D02*
X80550000Y-23730000D01*
X36200000Y-22500000D02*
X37000000Y-21700000D01*
X36200000Y-26900000D02*
X36200000Y-22500000D01*
X35000000Y-28100000D02*
X36200000Y-26900000D01*
X48789818Y-25000000D02*
X81820000Y-25000000D01*
X81820000Y-25000000D02*
X83090000Y-23730000D01*
X32900000Y-46900000D02*
X32900000Y-37000000D01*
X32900000Y-37000000D02*
X34400000Y-35500000D01*
X48500000Y-45000509D02*
X48500000Y-43600000D01*
X48500000Y-43600000D02*
X49155501Y-42944499D01*
X48483584Y-45645542D02*
X48483584Y-45016925D01*
X48483584Y-45016925D02*
X48500000Y-45000509D01*
X49600000Y-36300000D02*
X49155501Y-36744499D01*
X49155501Y-36744499D02*
X49155501Y-42944499D01*
X85630000Y-23730000D02*
X85630000Y-23770000D01*
X85630000Y-23770000D02*
X84400000Y-25000000D01*
X50200000Y-32800000D02*
X53200000Y-32800000D01*
X53200000Y-32800000D02*
X53300000Y-32700000D01*
X41800000Y-50600000D02*
X44800000Y-50600000D01*
X69977000Y-68277000D02*
X69977000Y-69324000D01*
X69977000Y-69324000D02*
X73805000Y-73152000D01*
X73805000Y-73152000D02*
X74859000Y-73152000D01*
X77573000Y-70612000D02*
X73132000Y-70612000D01*
X73132000Y-70612000D02*
X71247000Y-68727000D01*
X71247000Y-68727000D02*
X71247000Y-68277000D01*
X78359000Y-73152000D02*
X78359000Y-71398000D01*
X78359000Y-71398000D02*
X77573000Y-70612000D01*
D37*
X37211000Y-38227000D02*
X38862000Y-38227000D01*
X38862000Y-38227000D02*
X39196000Y-37893000D01*
X39196000Y-37893000D02*
X39196000Y-34544000D01*
X39196000Y-34544000D02*
X39196000Y-32450000D01*
X39196000Y-32450000D02*
X39200000Y-32446000D01*
X37846000Y-33655000D02*
X38307000Y-33655000D01*
X38307000Y-33655000D02*
X39196000Y-34544000D01*
D35*
X38862000Y-34878000D02*
X39196000Y-34544000D01*
D37*
X37000000Y-31496000D02*
X37000000Y-32446000D01*
X37000000Y-30546000D02*
X37000000Y-31496000D01*
X34544000Y-30908000D02*
X36638000Y-30908000D01*
X36638000Y-30908000D02*
X37000000Y-30546000D01*
X31496000Y-32385000D02*
X33067000Y-32385000D01*
X33067000Y-32385000D02*
X34544000Y-30908000D01*
D35*
X34210000Y-31242000D02*
X34544000Y-30908000D01*
X60050000Y-55000000D02*
X58800000Y-55000000D01*
X58800000Y-55000000D02*
X57900000Y-55900000D01*
X57216775Y-52772338D02*
X57216775Y-53316775D01*
X57216775Y-53316775D02*
X57253480Y-53353480D01*
X57253480Y-53353480D02*
X64803480Y-53353480D01*
X64803480Y-53353480D02*
X69977000Y-58527000D01*
X69977000Y-58527000D02*
X69977000Y-58977000D01*
X71247000Y-58977000D02*
X71247000Y-58527000D01*
X71247000Y-58527000D02*
X65320000Y-52600000D01*
X65320000Y-52600000D02*
X59128617Y-52600000D01*
X59128617Y-52600000D02*
X58500000Y-52600000D01*
X33782000Y-64897000D02*
X33782000Y-61087000D01*
X36900000Y-54500000D02*
X38117000Y-54500000D01*
X38117000Y-54500000D02*
X39116000Y-55499000D01*
X39116000Y-55499000D02*
X39116000Y-55974000D01*
X35200000Y-56200000D02*
X36900000Y-54500000D01*
X35200000Y-58399000D02*
X35200000Y-56200000D01*
X33782000Y-61087000D02*
X33782000Y-59817000D01*
X33782000Y-59817000D02*
X35200000Y-58399000D01*
X83312000Y-55900000D02*
X83312000Y-56025000D01*
X83312000Y-56025000D02*
X84139001Y-56852001D01*
X84139001Y-56852001D02*
X84152001Y-56852001D01*
X84152001Y-56852001D02*
X84700000Y-57400000D01*
X79600000Y-65400000D02*
X74228617Y-65400000D01*
X84700000Y-57400000D02*
X84700000Y-60300000D01*
X84700000Y-60300000D02*
X79600000Y-65400000D01*
X74228617Y-65400000D02*
X73600000Y-65400000D01*
X85832000Y-53848000D02*
X85832000Y-54727000D01*
X85832000Y-54727000D02*
X84659000Y-55900000D01*
X84659000Y-55900000D02*
X84191000Y-55900000D01*
X84191000Y-55900000D02*
X83312000Y-55900000D01*
X79800000Y-55200000D02*
X79800000Y-57044000D01*
X79800000Y-57044000D02*
X79440000Y-57404000D01*
X79440000Y-57404000D02*
X78656000Y-57404000D01*
X67437000Y-68277000D02*
X67437000Y-68727000D01*
X67437000Y-68727000D02*
X71359000Y-72649000D01*
X71359000Y-72649000D02*
X71359000Y-73152000D01*
X76327000Y-68277000D02*
X76327000Y-67827000D01*
X76327000Y-67827000D02*
X73900000Y-65400000D01*
X73900000Y-65400000D02*
X73600000Y-65400000D01*
X67437000Y-68277000D02*
X67437000Y-67827000D01*
X69864000Y-65400000D02*
X70800000Y-65400000D01*
X67437000Y-67827000D02*
X69864000Y-65400000D01*
D37*
X77491000Y-56454000D02*
X78656000Y-56454000D01*
X77216000Y-56729000D02*
X77491000Y-56454000D01*
X77216000Y-57912000D02*
X77216000Y-56729000D01*
X77724000Y-58420000D02*
X77216000Y-57912000D01*
X78067778Y-58420000D02*
X77724000Y-58420000D01*
X78133778Y-58354000D02*
X78067778Y-58420000D01*
X78656000Y-58354000D02*
X78133778Y-58354000D01*
X77309980Y-51562000D02*
X77309980Y-55107980D01*
X77309980Y-55107980D02*
X78656000Y-56454000D01*
X87200000Y-51600000D02*
X87200000Y-65676000D01*
X87200000Y-65676000D02*
X81859000Y-71017000D01*
X81859000Y-71017000D02*
X81859000Y-73152000D01*
X84000000Y-48400000D02*
X87200000Y-51600000D01*
X78686360Y-48400000D02*
X84000000Y-48400000D01*
X77309980Y-51562000D02*
X77309980Y-49776380D01*
X77309980Y-49776380D02*
X78686360Y-48400000D01*
D36*
X68904000Y-36830000D02*
X60579000Y-36830000D01*
D38*
G36*
X91945352Y-21717719D02*
X92746782Y-22253218D01*
X93282281Y-23054648D01*
X93480500Y-24051167D01*
X93480500Y-74448833D01*
X93282281Y-75445352D01*
X92746782Y-76246782D01*
X91945352Y-76782281D01*
X90948834Y-76980500D01*
X32051167Y-76980500D01*
X31054648Y-76782281D01*
X30253218Y-76246782D01*
X29717719Y-75445352D01*
X29519500Y-74448834D01*
X29519500Y-72456604D01*
X31470683Y-72456604D01*
X31390647Y-72536500D01*
X31100000Y-72536500D01*
X31075700Y-72541334D01*
X31055099Y-72555099D01*
X31041334Y-72575700D01*
X31036500Y-72600000D01*
X31036500Y-72890028D01*
X30958402Y-72967990D01*
X30680817Y-73636491D01*
X30680185Y-74360333D01*
X30956604Y-75029317D01*
X31036500Y-75109353D01*
X31036500Y-75400000D01*
X31041334Y-75424300D01*
X31055099Y-75444901D01*
X31075700Y-75458666D01*
X31100000Y-75463500D01*
X31390028Y-75463500D01*
X31467990Y-75541598D01*
X32136491Y-75819183D01*
X32860333Y-75819815D01*
X33529317Y-75543396D01*
X33609353Y-75463500D01*
X33900000Y-75463500D01*
X33924300Y-75458666D01*
X33944901Y-75444901D01*
X33958666Y-75424300D01*
X33963500Y-75400000D01*
X89036500Y-75400000D01*
X33963500Y-75400000D01*
X33963500Y-75400000D01*
X89036500Y-75400000D01*
X89041334Y-75424300D01*
X89055099Y-75444901D01*
X89075700Y-75458666D01*
X89100000Y-75463500D01*
X89390028Y-75463500D01*
X89467990Y-75541598D01*
X90136491Y-75819183D01*
X90860333Y-75819815D01*
X91529317Y-75543396D01*
X91609353Y-75463500D01*
X91900000Y-75463500D01*
X91924300Y-75458666D01*
X91944901Y-75444901D01*
X91958666Y-75424300D01*
X91963500Y-75400000D01*
X91963500Y-75109972D01*
X92041598Y-75032010D01*
X92319183Y-74363509D01*
X92319815Y-73639667D01*
X92043396Y-72970683D01*
X91963500Y-72890647D01*
X91963500Y-72600000D01*
X91958666Y-72575700D01*
X91944901Y-72555099D01*
X91924300Y-72541334D01*
X91900000Y-72536500D01*
X91609972Y-72536500D01*
X91532010Y-72458402D01*
X90863509Y-72180817D01*
X90139667Y-72180185D01*
X89470683Y-72456604D01*
X83103500Y-72456604D01*
X83103500Y-72413905D01*
X83008768Y-71937655D01*
X82738994Y-71533911D01*
X82621000Y-71455070D01*
X82621000Y-71332630D01*
X86210130Y-67743500D01*
X88256233Y-67743500D01*
X88158318Y-67953625D01*
X88365499Y-68388094D01*
X88769151Y-68747200D01*
X89279500Y-68924500D01*
X89979500Y-68924500D01*
X89979500Y-67743500D01*
X90360500Y-67743500D01*
X90360500Y-68924500D01*
X91060500Y-68924500D01*
X91570849Y-68747200D01*
X91974501Y-68388094D01*
X92181682Y-67953625D01*
X92083767Y-67743500D01*
X90360500Y-67743500D01*
X89979500Y-67743500D01*
X89979500Y-67743500D01*
X88256233Y-67743500D01*
X86210130Y-67743500D01*
X87738816Y-66214815D01*
X87761076Y-66181500D01*
X89279500Y-66181500D01*
X88769151Y-66358800D01*
X88365499Y-66717906D01*
X88158318Y-67152375D01*
X88256233Y-67362500D01*
X89979500Y-67362500D01*
X89979500Y-66181500D01*
X90360500Y-66181500D01*
X90360500Y-67362500D01*
X92083767Y-67362500D01*
X92181682Y-67152375D01*
X91974501Y-66717906D01*
X91570849Y-66358800D01*
X91060500Y-66181500D01*
X90360500Y-66181500D01*
X89979500Y-66181500D01*
X89979500Y-66181500D01*
X89279500Y-66181500D01*
X87761076Y-66181500D01*
X87837834Y-66066623D01*
X87903996Y-65967605D01*
X87962000Y-65676000D01*
X87962000Y-62808500D01*
X89431905Y-62808500D01*
X88955655Y-62903232D01*
X88551911Y-63173006D01*
X88282137Y-63576750D01*
X88187405Y-64053000D01*
X88282137Y-64529250D01*
X88551911Y-64932994D01*
X88955655Y-65202768D01*
X89431905Y-65297500D01*
X90908095Y-65297500D01*
X91384345Y-65202768D01*
X91788089Y-64932994D01*
X92057863Y-64529250D01*
X92152595Y-64053000D01*
X92057863Y-63576750D01*
X91788089Y-63173006D01*
X91384345Y-62903232D01*
X90908095Y-62808500D01*
X89431905Y-62808500D01*
X87962000Y-62808500D01*
X87962000Y-60743500D01*
X88256233Y-60743500D01*
X88158318Y-60953625D01*
X88365499Y-61388094D01*
X88769151Y-61747200D01*
X89279500Y-61924500D01*
X89979500Y-61924500D01*
X89979500Y-60743500D01*
X90360500Y-60743500D01*
X90360500Y-61924500D01*
X91060500Y-61924500D01*
X91570849Y-61747200D01*
X91974501Y-61388094D01*
X92181682Y-60953625D01*
X92083767Y-60743500D01*
X90360500Y-60743500D01*
X89979500Y-60743500D01*
X89979500Y-60743500D01*
X88256233Y-60743500D01*
X87962000Y-60743500D01*
X87962000Y-59181500D01*
X89279500Y-59181500D01*
X88769151Y-59358800D01*
X88365499Y-59717906D01*
X88158318Y-60152375D01*
X88256233Y-60362500D01*
X89979500Y-60362500D01*
X89979500Y-59181500D01*
X90360500Y-59181500D01*
X89979500Y-59181500D01*
X89979500Y-59181500D01*
X90360500Y-59181500D01*
X90360500Y-60362500D01*
X92083767Y-60362500D01*
X92181682Y-60152375D01*
X91974501Y-59717906D01*
X91570849Y-59358800D01*
X91060500Y-59181500D01*
X90360500Y-59181500D01*
X89979500Y-59181500D01*
X89979500Y-59181500D01*
X89279500Y-59181500D01*
X87962000Y-59181500D01*
X87962000Y-55808500D01*
X89431905Y-55808500D01*
X88955655Y-55903232D01*
X88551911Y-56173006D01*
X88282137Y-56576750D01*
X88187405Y-57053000D01*
X88282137Y-57529250D01*
X88551911Y-57932994D01*
X88955655Y-58202768D01*
X89431905Y-58297500D01*
X90908095Y-58297500D01*
X91384345Y-58202768D01*
X91788089Y-57932994D01*
X92057863Y-57529250D01*
X92152595Y-57053000D01*
X92057863Y-56576750D01*
X91788089Y-56173006D01*
X91384345Y-55903232D01*
X90908095Y-55808500D01*
X89431905Y-55808500D01*
X87962000Y-55808500D01*
X87962000Y-53743500D01*
X88256233Y-53743500D01*
X88158318Y-53953625D01*
X88365499Y-54388094D01*
X88769151Y-54747200D01*
X89279500Y-54924500D01*
X89979500Y-54924500D01*
X89979500Y-53743500D01*
X90360500Y-53743500D01*
X90360500Y-54924500D01*
X91060500Y-54924500D01*
X91570849Y-54747200D01*
X91974501Y-54388094D01*
X92181682Y-53953625D01*
X92083767Y-53743500D01*
X90360500Y-53743500D01*
X89979500Y-53743500D01*
X89979500Y-53743500D01*
X88256233Y-53743500D01*
X87962000Y-53743500D01*
X87962000Y-52181500D01*
X89279500Y-52181500D01*
X88769151Y-52358800D01*
X88365499Y-52717906D01*
X88158318Y-53152375D01*
X88256233Y-53362500D01*
X89979500Y-53362500D01*
X89979500Y-52181500D01*
X90360500Y-52181500D01*
X90360500Y-53362500D01*
X92083767Y-53362500D01*
X92181682Y-53152375D01*
X91974501Y-52717906D01*
X91570849Y-52358800D01*
X91060500Y-52181500D01*
X90360500Y-52181500D01*
X89979500Y-52181500D01*
X89979500Y-52181500D01*
X89279500Y-52181500D01*
X87962000Y-52181500D01*
X87962000Y-51600000D01*
X87903996Y-51308395D01*
X87833418Y-51202768D01*
X87738815Y-51061184D01*
X84538815Y-47861185D01*
X84473714Y-47817686D01*
X84291605Y-47696004D01*
X84000000Y-47638000D01*
X78686360Y-47638000D01*
X78435557Y-47687888D01*
X78394755Y-47696004D01*
X78147544Y-47861185D01*
X76771165Y-49237565D01*
X76605984Y-49484775D01*
X76547980Y-49776380D01*
X76547980Y-49958172D01*
X75559920Y-49958172D01*
X75390434Y-49991056D01*
X75241471Y-50088909D01*
X75141756Y-50236632D01*
X75106712Y-50411380D01*
X75106712Y-52712620D01*
X75139596Y-52882106D01*
X75237449Y-53031069D01*
X75385172Y-53130784D01*
X75559920Y-53165828D01*
X76547980Y-53165828D01*
X76547980Y-55107980D01*
X76605984Y-55399585D01*
X76758941Y-55628500D01*
X76771165Y-55646795D01*
X77004559Y-55880189D01*
X76952185Y-55915184D01*
X76677185Y-56190185D01*
X76512004Y-56437395D01*
X76454000Y-56729000D01*
X76454000Y-57773792D01*
X76027000Y-57773792D01*
X75857514Y-57806676D01*
X75789546Y-57851324D01*
X75680729Y-57742506D01*
X75470679Y-57655500D01*
X75349875Y-57655500D01*
X75207000Y-57798375D01*
X75207000Y-58786500D01*
X75267500Y-58786500D01*
X75267500Y-59167500D01*
X75207000Y-59167500D01*
X75207000Y-60155625D01*
X75349875Y-60298500D01*
X75470679Y-60298500D01*
X75680729Y-60211494D01*
X75789450Y-60102772D01*
X75852252Y-60145164D01*
X76027000Y-60180208D01*
X76627000Y-60180208D01*
X76796486Y-60147324D01*
X76945449Y-60049471D01*
X77045164Y-59901748D01*
X77080208Y-59727000D01*
X77080208Y-58853839D01*
X77185184Y-58958815D01*
X77334839Y-59058811D01*
X77432395Y-59123996D01*
X77724000Y-59182000D01*
X78067778Y-59182000D01*
X78318099Y-59132208D01*
X78743569Y-59132208D01*
X75582276Y-62293500D01*
X73914005Y-62293500D01*
X73914000Y-62293499D01*
X73695297Y-62337002D01*
X73643667Y-62371500D01*
X73509888Y-62460888D01*
X73509886Y-62460891D01*
X71858888Y-64111888D01*
X71735003Y-64297296D01*
X71735003Y-64297297D01*
X71691499Y-64516000D01*
X71691500Y-64516005D01*
X71691500Y-66103500D01*
X71678637Y-66103500D01*
X71516405Y-65940985D01*
X71553218Y-65904236D01*
X71688846Y-65577609D01*
X71689154Y-65223943D01*
X71554097Y-64897080D01*
X71304236Y-64646782D01*
X70977609Y-64511154D01*
X70623943Y-64510846D01*
X70297080Y-64645903D01*
X70114164Y-64828500D01*
X69864000Y-64828500D01*
X69645296Y-64872003D01*
X69459888Y-64995888D01*
X69459886Y-64995891D01*
X67381984Y-67073792D01*
X67137000Y-67073792D01*
X66967514Y-67106676D01*
X66818551Y-67204529D01*
X66718836Y-67352252D01*
X66683792Y-67527000D01*
X66683792Y-69027000D01*
X66716676Y-69196486D01*
X66814529Y-69345449D01*
X66962252Y-69445164D01*
X67137000Y-69480208D01*
X67381984Y-69480208D01*
X70147878Y-72246101D01*
X70114500Y-72413905D01*
X70114500Y-73890095D01*
X70209232Y-74366345D01*
X70479006Y-74770089D01*
X70882750Y-75039863D01*
X71359000Y-75134595D01*
X71835250Y-75039863D01*
X72238994Y-74770089D01*
X72508768Y-74366345D01*
X72603500Y-73890095D01*
X72603500Y-72758723D01*
X73400886Y-73556109D01*
X73400888Y-73556112D01*
X73521184Y-73636491D01*
X73586297Y-73679998D01*
X73614500Y-73685608D01*
X73614500Y-73890095D01*
X73709232Y-74366345D01*
X73979006Y-74770089D01*
X74382750Y-75039863D01*
X74859000Y-75134595D01*
X75335250Y-75039863D01*
X75738994Y-74770089D01*
X76008768Y-74366345D01*
X76103500Y-73890095D01*
X76103500Y-72413905D01*
X76008768Y-71937655D01*
X75738994Y-71533911D01*
X75335250Y-71264137D01*
X74929860Y-71183500D01*
X77336276Y-71183500D01*
X77603502Y-71450725D01*
X77479006Y-71533911D01*
X77209232Y-71937655D01*
X77114500Y-72413905D01*
X77114500Y-73890095D01*
X77209232Y-74366345D01*
X77479006Y-74770089D01*
X77882750Y-75039863D01*
X78359000Y-75134595D01*
X78835250Y-75039863D01*
X79238994Y-74770089D01*
X79508768Y-74366345D01*
X79603500Y-73890095D01*
X79603500Y-72413905D01*
X79508768Y-71937655D01*
X79238994Y-71533911D01*
X78914392Y-71317018D01*
X78886997Y-71179297D01*
X78886997Y-71179296D01*
X78763112Y-70993888D01*
X78763109Y-70993886D01*
X77977112Y-70207888D01*
X77791704Y-70084003D01*
X77755418Y-70076785D01*
X77573000Y-70040499D01*
X77572995Y-70040500D01*
X73368723Y-70040500D01*
X72808431Y-69480208D01*
X72817000Y-69480208D01*
X72986486Y-69447324D01*
X73135449Y-69349471D01*
X73151526Y-69325654D01*
X73164529Y-69345449D01*
X73312252Y-69445164D01*
X73487000Y-69480208D01*
X74087000Y-69480208D01*
X74256486Y-69447324D01*
X74405449Y-69349471D01*
X74421526Y-69325654D01*
X74434529Y-69345449D01*
X74582252Y-69445164D01*
X74757000Y-69480208D01*
X75357000Y-69480208D01*
X75526486Y-69447324D01*
X75675449Y-69349471D01*
X75691526Y-69325654D01*
X75704529Y-69345449D01*
X75852252Y-69445164D01*
X76027000Y-69480208D01*
X76627000Y-69480208D01*
X76796486Y-69447324D01*
X76945449Y-69349471D01*
X77045164Y-69201748D01*
X77080208Y-69027000D01*
X77080208Y-67527000D01*
X77047324Y-67357514D01*
X76949471Y-67208551D01*
X76801748Y-67108836D01*
X76627000Y-67073792D01*
X76382015Y-67073792D01*
X75279724Y-65971500D01*
X79599995Y-65971500D01*
X79600000Y-65971501D01*
X79782418Y-65935215D01*
X79818704Y-65927997D01*
X80004112Y-65804112D01*
X85104109Y-60704114D01*
X85104112Y-60704112D01*
X85227997Y-60518704D01*
X85250791Y-60404112D01*
X85271501Y-60300000D01*
X85271500Y-60299995D01*
X85271500Y-57400005D01*
X85271501Y-57400000D01*
X85227998Y-57181297D01*
X85180924Y-57110846D01*
X85104112Y-56995888D01*
X85104109Y-56995886D01*
X84579724Y-56471500D01*
X84658995Y-56471500D01*
X84659000Y-56471501D01*
X84841418Y-56435215D01*
X84877704Y-56427997D01*
X85063112Y-56304112D01*
X86236109Y-55131114D01*
X86236112Y-55131112D01*
X86359997Y-54945704D01*
X86359998Y-54945703D01*
X86363876Y-54926208D01*
X86438000Y-54926208D01*
X86438000Y-65360369D01*
X81320185Y-70478185D01*
X81155004Y-70725395D01*
X81097000Y-71017000D01*
X81097000Y-71455070D01*
X80979006Y-71533911D01*
X80709232Y-71937655D01*
X80614500Y-72413905D01*
X80614500Y-73890095D01*
X80709232Y-74366345D01*
X80979006Y-74770089D01*
X81382750Y-75039863D01*
X81859000Y-75134595D01*
X82335250Y-75039863D01*
X82738994Y-74770089D01*
X83008768Y-74366345D01*
X83103500Y-73890095D01*
X83103500Y-72456604D01*
X89470683Y-72456604D01*
X83103500Y-72456604D01*
X83103500Y-72456604D01*
X89470683Y-72456604D01*
X89390647Y-72536500D01*
X89100000Y-72536500D01*
X89075700Y-72541334D01*
X89055099Y-72555099D01*
X89041334Y-72575700D01*
X89036500Y-72600000D01*
X89036500Y-72890028D01*
X88958402Y-72967990D01*
X88680817Y-73636491D01*
X88680185Y-74360333D01*
X88956604Y-75029317D01*
X89036500Y-75109353D01*
X89036500Y-75400000D01*
X33963500Y-75400000D01*
X33963500Y-75400000D01*
X33963500Y-75163682D01*
X42215375Y-75163682D01*
X42425500Y-75065767D01*
X42425500Y-73342500D01*
X42806500Y-73342500D01*
X42806500Y-75065767D01*
X43016625Y-75163682D01*
X49215375Y-75163682D01*
X49425500Y-75065767D01*
X49425500Y-73342500D01*
X49806500Y-73342500D01*
X49425500Y-73342500D01*
X49425500Y-73342500D01*
X49806500Y-73342500D01*
X49806500Y-75065767D01*
X50016625Y-75163682D01*
X56215375Y-75163682D01*
X50016625Y-75163682D01*
X50016625Y-75163682D01*
X56215375Y-75163682D01*
X56425500Y-75065767D01*
X56425500Y-73342500D01*
X56806500Y-73342500D01*
X56806500Y-75065767D01*
X57016625Y-75163682D01*
X63215375Y-75163682D01*
X57016625Y-75163682D01*
X57016625Y-75163682D01*
X63215375Y-75163682D01*
X63425500Y-75065767D01*
X63425500Y-73342500D01*
X63806500Y-73342500D01*
X63806500Y-75065767D01*
X64016625Y-75163682D01*
X64451094Y-74956501D01*
X64810200Y-74552849D01*
X64987500Y-74042500D01*
X64987500Y-73342500D01*
X63806500Y-73342500D01*
X63425500Y-73342500D01*
X63425500Y-73342500D01*
X62244500Y-73342500D01*
X61360500Y-73342500D01*
X61360500Y-72413905D01*
X61265768Y-71937655D01*
X60995994Y-71533911D01*
X60717010Y-71347499D01*
X62780906Y-71347499D01*
X62421800Y-71751151D01*
X62244500Y-72261500D01*
X62244500Y-72961500D01*
X63425500Y-72961500D01*
X63425500Y-71238233D01*
X63806500Y-71238233D01*
X63806500Y-72961500D01*
X64987500Y-72961500D01*
X64987500Y-72261500D01*
X64810200Y-71751151D01*
X64451094Y-71347499D01*
X64016625Y-71140318D01*
X63806500Y-71238233D01*
X63425500Y-71238233D01*
X63425500Y-71238233D01*
X63215375Y-71140318D01*
X62780906Y-71347499D01*
X60717010Y-71347499D01*
X60687500Y-71327781D01*
X60687500Y-68927433D01*
X60758164Y-68822748D01*
X60765221Y-68787560D01*
X60841506Y-68971728D01*
X61002271Y-69132494D01*
X61212321Y-69219500D01*
X61642625Y-69219500D01*
X61785500Y-69076625D01*
X61785500Y-68088500D01*
X62166500Y-68088500D01*
X62166500Y-69076625D01*
X62309375Y-69219500D01*
X62739679Y-69219500D01*
X62949729Y-69132494D01*
X63110494Y-68971728D01*
X63197500Y-68761678D01*
X63197500Y-68231375D01*
X63054625Y-68088500D01*
X62166500Y-68088500D01*
X61785500Y-68088500D01*
X61785500Y-68088500D01*
X61765500Y-68088500D01*
X61765500Y-67707500D01*
X61785500Y-67707500D01*
X61785500Y-66719375D01*
X61642625Y-66576500D01*
X62309375Y-66576500D01*
X62166500Y-66719375D01*
X62166500Y-67707500D01*
X63054625Y-67707500D01*
X63197500Y-67564625D01*
X63197500Y-67034322D01*
X63110494Y-66824272D01*
X62949729Y-66663506D01*
X62739679Y-66576500D01*
X62309375Y-66576500D01*
X61642625Y-66576500D01*
X61642625Y-66576500D01*
X61212321Y-66576500D01*
X61002271Y-66663506D01*
X60841506Y-66824272D01*
X60765840Y-67006945D01*
X60760324Y-66978514D01*
X60662471Y-66829551D01*
X60514748Y-66729836D01*
X60340000Y-66694792D01*
X59040000Y-66694792D01*
X58870514Y-66727676D01*
X58721551Y-66825529D01*
X58621836Y-66973252D01*
X58586792Y-67148000D01*
X58586792Y-68648000D01*
X58619676Y-68817486D01*
X58717529Y-68966449D01*
X58865252Y-69066164D01*
X59040000Y-69101208D01*
X59544500Y-69101208D01*
X59544500Y-71327781D01*
X59236006Y-71533911D01*
X58966232Y-71937655D01*
X58871500Y-72413905D01*
X58871500Y-73890095D01*
X58966232Y-74366345D01*
X59236006Y-74770089D01*
X59639750Y-75039863D01*
X60116000Y-75134595D01*
X60592250Y-75039863D01*
X60995994Y-74770089D01*
X61265768Y-74366345D01*
X61360500Y-73890095D01*
X61360500Y-73342500D01*
X62244500Y-73342500D01*
X61360500Y-73342500D01*
X61360500Y-73342500D01*
X62244500Y-73342500D01*
X62244500Y-74042500D01*
X62421800Y-74552849D01*
X62780906Y-74956501D01*
X63215375Y-75163682D01*
X57016625Y-75163682D01*
X57016625Y-75163682D01*
X57451094Y-74956501D01*
X57810200Y-74552849D01*
X57987500Y-74042500D01*
X57987500Y-73342500D01*
X56806500Y-73342500D01*
X56425500Y-73342500D01*
X56425500Y-73342500D01*
X55244500Y-73342500D01*
X54360500Y-73342500D01*
X54360500Y-72413905D01*
X54265768Y-71937655D01*
X53995994Y-71533911D01*
X53717010Y-71347499D01*
X55780906Y-71347499D01*
X55421800Y-71751151D01*
X55244500Y-72261500D01*
X55244500Y-72961500D01*
X56425500Y-72961500D01*
X56425500Y-71238233D01*
X56806500Y-71238233D01*
X56806500Y-72961500D01*
X57987500Y-72961500D01*
X57987500Y-72261500D01*
X57810200Y-71751151D01*
X57451094Y-71347499D01*
X57016625Y-71140318D01*
X56806500Y-71238233D01*
X56425500Y-71238233D01*
X56425500Y-71238233D01*
X56215375Y-71140318D01*
X55780906Y-71347499D01*
X53717010Y-71347499D01*
X53687500Y-71327781D01*
X53687500Y-69101208D01*
X53736000Y-69101208D01*
X53905486Y-69068324D01*
X54054449Y-68970471D01*
X54154164Y-68822748D01*
X54161221Y-68787560D01*
X54237506Y-68971728D01*
X54398271Y-69132494D01*
X54608321Y-69219500D01*
X55038625Y-69219500D01*
X55181500Y-69076625D01*
X55181500Y-68088500D01*
X55562500Y-68088500D01*
X55562500Y-69076625D01*
X55705375Y-69219500D01*
X56135679Y-69219500D01*
X56345729Y-69132494D01*
X56506494Y-68971728D01*
X56593500Y-68761678D01*
X56593500Y-68231375D01*
X56450625Y-68088500D01*
X55562500Y-68088500D01*
X55181500Y-68088500D01*
X55181500Y-68088500D01*
X55161500Y-68088500D01*
X55161500Y-67707500D01*
X55181500Y-67707500D01*
X55181500Y-66719375D01*
X55038625Y-66576500D01*
X55705375Y-66576500D01*
X55562500Y-66719375D01*
X55562500Y-67707500D01*
X56450625Y-67707500D01*
X56593500Y-67564625D01*
X56593500Y-67034322D01*
X56506494Y-66824272D01*
X56345729Y-66663506D01*
X56135679Y-66576500D01*
X55705375Y-66576500D01*
X55038625Y-66576500D01*
X55038625Y-66576500D01*
X54608321Y-66576500D01*
X54398271Y-66663506D01*
X54237506Y-66824272D01*
X54161840Y-67006945D01*
X54156324Y-66978514D01*
X54058471Y-66829551D01*
X53910748Y-66729836D01*
X53736000Y-66694792D01*
X52436000Y-66694792D01*
X52266514Y-66727676D01*
X52117551Y-66825529D01*
X52017836Y-66973252D01*
X51982792Y-67148000D01*
X51982792Y-68648000D01*
X52015676Y-68817486D01*
X52113529Y-68966449D01*
X52261252Y-69066164D01*
X52436000Y-69101208D01*
X52544500Y-69101208D01*
X52544500Y-71327781D01*
X52236006Y-71533911D01*
X51966232Y-71937655D01*
X51871500Y-72413905D01*
X51871500Y-73890095D01*
X51966232Y-74366345D01*
X52236006Y-74770089D01*
X52639750Y-75039863D01*
X53116000Y-75134595D01*
X53592250Y-75039863D01*
X53995994Y-74770089D01*
X54265768Y-74366345D01*
X54360500Y-73890095D01*
X54360500Y-73342500D01*
X55244500Y-73342500D01*
X54360500Y-73342500D01*
X54360500Y-73342500D01*
X55244500Y-73342500D01*
X55244500Y-74042500D01*
X55421800Y-74552849D01*
X55780906Y-74956501D01*
X56215375Y-75163682D01*
X50016625Y-75163682D01*
X50016625Y-75163682D01*
X50451094Y-74956501D01*
X50810200Y-74552849D01*
X50987500Y-74042500D01*
X50987500Y-73342500D01*
X49806500Y-73342500D01*
X49425500Y-73342500D01*
X49425500Y-73342500D01*
X48244500Y-73342500D01*
X47360500Y-73342500D01*
X47360500Y-72413905D01*
X47265768Y-71937655D01*
X46995994Y-71533911D01*
X46717010Y-71347499D01*
X48780906Y-71347499D01*
X48421800Y-71751151D01*
X48244500Y-72261500D01*
X48244500Y-72961500D01*
X49425500Y-72961500D01*
X49425500Y-71238233D01*
X49806500Y-71238233D01*
X49425500Y-71238233D01*
X49425500Y-71238233D01*
X49806500Y-71238233D01*
X49806500Y-72961500D01*
X50987500Y-72961500D01*
X50987500Y-72261500D01*
X50810200Y-71751151D01*
X50451094Y-71347499D01*
X50016625Y-71140318D01*
X49806500Y-71238233D01*
X49425500Y-71238233D01*
X49425500Y-71238233D01*
X49215375Y-71140318D01*
X48780906Y-71347499D01*
X46717010Y-71347499D01*
X46687500Y-71327781D01*
X46687500Y-69355208D01*
X47132000Y-69355208D01*
X47301486Y-69322324D01*
X47450449Y-69224471D01*
X47550164Y-69076748D01*
X47585208Y-68902000D01*
X47585208Y-68342500D01*
X47816375Y-68342500D01*
X47673500Y-68485375D01*
X47673500Y-69015678D01*
X47760506Y-69225728D01*
X47921271Y-69386494D01*
X48131321Y-69473500D01*
X48561625Y-69473500D01*
X48704500Y-69330625D01*
X48704500Y-68342500D01*
X49085500Y-68342500D01*
X49085500Y-69330625D01*
X49228375Y-69473500D01*
X49658679Y-69473500D01*
X49868729Y-69386494D01*
X50029494Y-69225728D01*
X50116500Y-69015678D01*
X50116500Y-68485375D01*
X49973625Y-68342500D01*
X49085500Y-68342500D01*
X48704500Y-68342500D01*
X48704500Y-68342500D01*
X47816375Y-68342500D01*
X47585208Y-68342500D01*
X47585208Y-67402000D01*
X47552324Y-67232514D01*
X47454471Y-67083551D01*
X47446651Y-67078272D01*
X47760506Y-67078272D01*
X47673500Y-67288322D01*
X47673500Y-67818625D01*
X47816375Y-67961500D01*
X48704500Y-67961500D01*
X48704500Y-66973375D01*
X48561625Y-66830500D01*
X49228375Y-66830500D01*
X49085500Y-66973375D01*
X49085500Y-67961500D01*
X49973625Y-67961500D01*
X50116500Y-67818625D01*
X50116500Y-67288322D01*
X50029494Y-67078272D01*
X49868729Y-66917506D01*
X49658679Y-66830500D01*
X49228375Y-66830500D01*
X48561625Y-66830500D01*
X48561625Y-66830500D01*
X48131321Y-66830500D01*
X42546679Y-66830500D01*
X42546679Y-66830500D01*
X42116375Y-66830500D01*
X41973500Y-66973375D01*
X41973500Y-67961500D01*
X42861625Y-67961500D01*
X43004500Y-67818625D01*
X43004500Y-67288322D01*
X42917494Y-67078272D01*
X42756729Y-66917506D01*
X42546679Y-66830500D01*
X48131321Y-66830500D01*
X42546679Y-66830500D01*
X42546679Y-66830500D01*
X48131321Y-66830500D01*
X47921271Y-66917506D01*
X47760506Y-67078272D01*
X47446651Y-67078272D01*
X47306748Y-66983836D01*
X47132000Y-66948792D01*
X45832000Y-66948792D01*
X45662514Y-66981676D01*
X45513551Y-67079529D01*
X45413836Y-67227252D01*
X45378792Y-67402000D01*
X45378792Y-68902000D01*
X45411676Y-69071486D01*
X45509529Y-69220449D01*
X45544500Y-69244055D01*
X45544500Y-71327781D01*
X45236006Y-71533911D01*
X44966232Y-71937655D01*
X44871500Y-72413905D01*
X44871500Y-73890095D01*
X44966232Y-74366345D01*
X45236006Y-74770089D01*
X45639750Y-75039863D01*
X46116000Y-75134595D01*
X46592250Y-75039863D01*
X46995994Y-74770089D01*
X47265768Y-74366345D01*
X47360500Y-73890095D01*
X47360500Y-73342500D01*
X48244500Y-73342500D01*
X47360500Y-73342500D01*
X47360500Y-73342500D01*
X48244500Y-73342500D01*
X48244500Y-74042500D01*
X48421800Y-74552849D01*
X48780906Y-74956501D01*
X49215375Y-75163682D01*
X43016625Y-75163682D01*
X43016625Y-75163682D01*
X43451094Y-74956501D01*
X43810200Y-74552849D01*
X43987500Y-74042500D01*
X43987500Y-73342500D01*
X42806500Y-73342500D01*
X42425500Y-73342500D01*
X42425500Y-73342500D01*
X41244500Y-73342500D01*
X40360500Y-73342500D01*
X40360500Y-72413905D01*
X40265768Y-71937655D01*
X39995994Y-71533911D01*
X39717010Y-71347499D01*
X41780906Y-71347499D01*
X41421800Y-71751151D01*
X41244500Y-72261500D01*
X41244500Y-72961500D01*
X42425500Y-72961500D01*
X42425500Y-71238233D01*
X42806500Y-71238233D01*
X42425500Y-71238233D01*
X42425500Y-71238233D01*
X42806500Y-71238233D01*
X42806500Y-72961500D01*
X43987500Y-72961500D01*
X43987500Y-72261500D01*
X43810200Y-71751151D01*
X43451094Y-71347499D01*
X43016625Y-71140318D01*
X42806500Y-71238233D01*
X42425500Y-71238233D01*
X42425500Y-71238233D01*
X42215375Y-71140318D01*
X41780906Y-71347499D01*
X39717010Y-71347499D01*
X39687500Y-71327781D01*
X39687500Y-69355208D01*
X40020000Y-69355208D01*
X40189486Y-69322324D01*
X40338449Y-69224471D01*
X40438164Y-69076748D01*
X40473208Y-68902000D01*
X40473208Y-68342500D01*
X40704375Y-68342500D01*
X40561500Y-68485375D01*
X40561500Y-69015678D01*
X40648506Y-69225728D01*
X40809271Y-69386494D01*
X41019321Y-69473500D01*
X41449625Y-69473500D01*
X41592500Y-69330625D01*
X41592500Y-68342500D01*
X41973500Y-68342500D01*
X41973500Y-69330625D01*
X42116375Y-69473500D01*
X42546679Y-69473500D01*
X42756729Y-69386494D01*
X42917494Y-69225728D01*
X43004500Y-69015678D01*
X43004500Y-68485375D01*
X42861625Y-68342500D01*
X41973500Y-68342500D01*
X41592500Y-68342500D01*
X41592500Y-68342500D01*
X40704375Y-68342500D01*
X40473208Y-68342500D01*
X40473208Y-67402000D01*
X40440324Y-67232514D01*
X40342471Y-67083551D01*
X40194748Y-66983836D01*
X40020000Y-66948792D01*
X38720000Y-66948792D01*
X38550514Y-66981676D01*
X38401551Y-67079529D01*
X38301836Y-67227252D01*
X38266792Y-67402000D01*
X38266792Y-68902000D01*
X38299676Y-69071486D01*
X38397529Y-69220449D01*
X38544500Y-69319656D01*
X38544500Y-71327781D01*
X38236006Y-71533911D01*
X37966232Y-71937655D01*
X37871500Y-72413905D01*
X37871500Y-73890095D01*
X37966232Y-74366345D01*
X38236006Y-74770089D01*
X38639750Y-75039863D01*
X39116000Y-75134595D01*
X39592250Y-75039863D01*
X39995994Y-74770089D01*
X40265768Y-74366345D01*
X40360500Y-73890095D01*
X40360500Y-73342500D01*
X41244500Y-73342500D01*
X40360500Y-73342500D01*
X40360500Y-73342500D01*
X41244500Y-73342500D01*
X41244500Y-74042500D01*
X41421800Y-74552849D01*
X41780906Y-74956501D01*
X42215375Y-75163682D01*
X33963500Y-75163682D01*
X33963500Y-75109972D01*
X34041598Y-75032010D01*
X34319183Y-74363509D01*
X34319815Y-73639667D01*
X34043396Y-72970683D01*
X33963500Y-72890647D01*
X33963500Y-72600000D01*
X33958666Y-72575700D01*
X33944901Y-72555099D01*
X33924300Y-72541334D01*
X33900000Y-72536500D01*
X33609972Y-72536500D01*
X33532010Y-72458402D01*
X32863509Y-72180817D01*
X32139667Y-72180185D01*
X31470683Y-72456604D01*
X29519500Y-72456604D01*
X29519500Y-66830500D01*
X41019321Y-66830500D01*
X40809271Y-66917506D01*
X40648506Y-67078272D01*
X40561500Y-67288322D01*
X40561500Y-67818625D01*
X40704375Y-67961500D01*
X41592500Y-67961500D01*
X41592500Y-66973375D01*
X41449625Y-66830500D01*
X41019321Y-66830500D01*
X29519500Y-66830500D01*
X29519500Y-65087500D01*
X29808833Y-65087500D01*
X29715162Y-65331702D01*
X29997739Y-65882908D01*
X30469743Y-66284018D01*
X30807300Y-66423825D01*
X31051500Y-66329009D01*
X31051500Y-65087500D01*
X29808833Y-65087500D01*
X29519500Y-65087500D01*
X29519500Y-63509982D01*
X30469743Y-63509982D01*
X29997739Y-63911092D01*
X29715162Y-64462298D01*
X29808833Y-64706500D01*
X31051500Y-64706500D01*
X31051500Y-63464991D01*
X30807300Y-63370175D01*
X30469743Y-63509982D01*
X29519500Y-63509982D01*
X29519500Y-61277500D01*
X29808833Y-61277500D01*
X29715162Y-61521702D01*
X29997739Y-62072908D01*
X30469743Y-62474018D01*
X30807300Y-62613825D01*
X31051500Y-62519009D01*
X31051500Y-61277500D01*
X29808833Y-61277500D01*
X29519500Y-61277500D01*
X29519500Y-59699982D01*
X30469743Y-59699982D01*
X29997739Y-60101092D01*
X29715162Y-60652298D01*
X29808833Y-60896500D01*
X31051500Y-60896500D01*
X31051500Y-59654991D01*
X30807300Y-59560175D01*
X30469743Y-59699982D01*
X29519500Y-59699982D01*
X29519500Y-54227724D01*
X33211070Y-57919293D01*
X33210846Y-58176057D01*
X33345903Y-58502920D01*
X33595764Y-58753218D01*
X33907934Y-58882843D01*
X33377888Y-59412888D01*
X33254003Y-59598296D01*
X33250125Y-59617792D01*
X32766000Y-59617792D01*
X32596514Y-59650676D01*
X32447551Y-59748529D01*
X32347836Y-59896252D01*
X32332894Y-59970760D01*
X32014257Y-59699982D01*
X31676700Y-59560175D01*
X31432500Y-59654991D01*
X31432500Y-60896500D01*
X31452500Y-60896500D01*
X31452500Y-61277500D01*
X31432500Y-61277500D01*
X31432500Y-62519009D01*
X31676700Y-62613825D01*
X32014257Y-62474018D01*
X32332333Y-62203716D01*
X32345676Y-62272486D01*
X32443529Y-62421449D01*
X32591252Y-62521164D01*
X32766000Y-62556208D01*
X33210500Y-62556208D01*
X33210500Y-63427792D01*
X32766000Y-63427792D01*
X32596514Y-63460676D01*
X32447551Y-63558529D01*
X32347836Y-63706252D01*
X32332894Y-63780760D01*
X32014257Y-63509982D01*
X31676700Y-63370175D01*
X31432500Y-63464991D01*
X31432500Y-64706500D01*
X31452500Y-64706500D01*
X31452500Y-65087500D01*
X31432500Y-65087500D01*
X31432500Y-66329009D01*
X31676700Y-66423825D01*
X32014257Y-66284018D01*
X32332333Y-66013716D01*
X32345676Y-66082486D01*
X32443529Y-66231449D01*
X32591252Y-66331164D01*
X32766000Y-66366208D01*
X34798000Y-66366208D01*
X34967486Y-66333324D01*
X35116449Y-66235471D01*
X35216164Y-66087748D01*
X35251208Y-65913000D01*
X35251208Y-63881000D01*
X35218324Y-63711514D01*
X35120471Y-63562551D01*
X34972748Y-63462836D01*
X34798000Y-63427792D01*
X34353500Y-63427792D01*
X34353500Y-62556208D01*
X34798000Y-62556208D01*
X34967486Y-62523324D01*
X35116449Y-62425471D01*
X35216164Y-62277748D01*
X35251208Y-62103000D01*
X35251208Y-61564500D01*
X37117375Y-61564500D01*
X36974500Y-61707375D01*
X36974500Y-62262678D01*
X37061506Y-62472728D01*
X37222271Y-62633494D01*
X37432321Y-62720500D01*
X37553125Y-62720500D01*
X37696000Y-62577625D01*
X37696000Y-61564500D01*
X37996000Y-61564500D01*
X37996000Y-62577625D01*
X38138875Y-62720500D01*
X38259679Y-62720500D01*
X38469729Y-62633494D01*
X38481000Y-62622223D01*
X38492271Y-62633494D01*
X38702321Y-62720500D01*
X38823125Y-62720500D01*
X38966000Y-62577625D01*
X38966000Y-61564500D01*
X39266000Y-61564500D01*
X38966000Y-61564500D01*
X38966000Y-61564500D01*
X39266000Y-61564500D01*
X39266000Y-62577625D01*
X39408875Y-62720500D01*
X39529679Y-62720500D01*
X39739729Y-62633494D01*
X39751000Y-62622223D01*
X39762271Y-62633494D01*
X39972321Y-62720500D01*
X40093125Y-62720500D01*
X40236000Y-62577625D01*
X40236000Y-61564500D01*
X40536000Y-61564500D01*
X40236000Y-61564500D01*
X40236000Y-61564500D01*
X40536000Y-61564500D01*
X40536000Y-62577625D01*
X40678875Y-62720500D01*
X40799679Y-62720500D01*
X41009729Y-62633494D01*
X41021000Y-62622223D01*
X41032271Y-62633494D01*
X41242321Y-62720500D01*
X41363125Y-62720500D01*
X41506000Y-62577625D01*
X41506000Y-61564500D01*
X41806000Y-61564500D01*
X41806000Y-62577625D01*
X41948875Y-62720500D01*
X42069679Y-62720500D01*
X42279729Y-62633494D01*
X42440494Y-62472728D01*
X42527500Y-62262678D01*
X42527500Y-61707375D01*
X42384625Y-61564500D01*
X41806000Y-61564500D01*
X41506000Y-61564500D01*
X41506000Y-61564500D01*
X40536000Y-61564500D01*
X40236000Y-61564500D01*
X40236000Y-61564500D01*
X39266000Y-61564500D01*
X38966000Y-61564500D01*
X38966000Y-61564500D01*
X37996000Y-61564500D01*
X37696000Y-61564500D01*
X37696000Y-61564500D01*
X37117375Y-61564500D01*
X35251208Y-61564500D01*
X35251208Y-60071000D01*
X35218324Y-59901514D01*
X35120471Y-59752551D01*
X34972748Y-59652836D01*
X34798000Y-59617792D01*
X34789432Y-59617792D01*
X35604109Y-58803114D01*
X35604112Y-58803112D01*
X35727997Y-58617704D01*
X35736292Y-58576003D01*
X35771501Y-58399000D01*
X35771500Y-58398995D01*
X35771500Y-56436724D01*
X37113755Y-55094468D01*
X37092792Y-55199000D01*
X37092792Y-56749000D01*
X37125676Y-56918486D01*
X37223529Y-57067449D01*
X37274500Y-57101855D01*
X37274500Y-58217277D01*
X36380707Y-59111070D01*
X36123943Y-59110846D01*
X35797080Y-59245903D01*
X35546782Y-59495764D01*
X35411154Y-59822391D01*
X35410846Y-60176057D01*
X35545903Y-60502920D01*
X35795764Y-60753218D01*
X36122391Y-60888846D01*
X36476057Y-60889154D01*
X36802920Y-60754097D01*
X36974500Y-60582817D01*
X36974500Y-61040625D01*
X37117375Y-61183500D01*
X37696000Y-61183500D01*
X37696000Y-60170375D01*
X37553125Y-60027500D01*
X38138875Y-60027500D01*
X37996000Y-60170375D01*
X37996000Y-61183500D01*
X38966000Y-61183500D01*
X38966000Y-60170375D01*
X38823125Y-60027500D01*
X39408875Y-60027500D01*
X39266000Y-60170375D01*
X39266000Y-61183500D01*
X40236000Y-61183500D01*
X40236000Y-60170375D01*
X40093125Y-60027500D01*
X40678875Y-60027500D01*
X40093125Y-60027500D01*
X40093125Y-60027500D01*
X40678875Y-60027500D01*
X40536000Y-60170375D01*
X40536000Y-61183500D01*
X41506000Y-61183500D01*
X41506000Y-60170375D01*
X41363125Y-60027500D01*
X41948875Y-60027500D01*
X41806000Y-60170375D01*
X41806000Y-61183500D01*
X42384625Y-61183500D01*
X42527500Y-61040625D01*
X42527500Y-60485322D01*
X42440494Y-60275272D01*
X42279729Y-60114506D01*
X42069679Y-60027500D01*
X41948875Y-60027500D01*
X41363125Y-60027500D01*
X41363125Y-60027500D01*
X41242321Y-60027500D01*
X41032271Y-60114506D01*
X41021000Y-60125777D01*
X41009729Y-60114506D01*
X40799679Y-60027500D01*
X40678875Y-60027500D01*
X40093125Y-60027500D01*
X40093125Y-60027500D01*
X39972321Y-60027500D01*
X39762271Y-60114506D01*
X39751000Y-60125777D01*
X39739729Y-60114506D01*
X39529679Y-60027500D01*
X39408875Y-60027500D01*
X38823125Y-60027500D01*
X38823125Y-60027500D01*
X38702321Y-60027500D01*
X38492271Y-60114506D01*
X38481000Y-60125777D01*
X38469729Y-60114506D01*
X38259679Y-60027500D01*
X38138875Y-60027500D01*
X37553125Y-60027500D01*
X37553125Y-60027500D01*
X37432321Y-60027500D01*
X37222271Y-60114506D01*
X37188872Y-60147905D01*
X37189071Y-59919153D01*
X38250109Y-58858114D01*
X38250112Y-58858112D01*
X38373997Y-58672704D01*
X38381215Y-58636418D01*
X38417501Y-58454000D01*
X38417500Y-58453995D01*
X38417500Y-57102312D01*
X38464449Y-57071471D01*
X38480526Y-57047654D01*
X38493529Y-57067449D01*
X38641252Y-57167164D01*
X38816000Y-57202208D01*
X39416000Y-57202208D01*
X39585486Y-57169324D01*
X39734449Y-57071471D01*
X39750526Y-57047654D01*
X39763529Y-57067449D01*
X39911252Y-57167164D01*
X40086000Y-57202208D01*
X40686000Y-57202208D01*
X40855486Y-57169324D01*
X41004449Y-57071471D01*
X41020526Y-57047654D01*
X41033529Y-57067449D01*
X41181252Y-57167164D01*
X41356000Y-57202208D01*
X41956000Y-57202208D01*
X42125486Y-57169324D01*
X42274449Y-57071471D01*
X42374164Y-56923748D01*
X42409208Y-56749000D01*
X42409208Y-55414500D01*
X48735321Y-55414500D01*
X48525271Y-55501506D01*
X48416550Y-55610228D01*
X48353748Y-55567836D01*
X48179000Y-55532792D01*
X47579000Y-55532792D01*
X47409514Y-55565676D01*
X47260551Y-55663529D01*
X47244474Y-55687346D01*
X47231471Y-55667551D01*
X47083748Y-55567836D01*
X46909000Y-55532792D01*
X46309000Y-55532792D01*
X46139514Y-55565676D01*
X45990551Y-55663529D01*
X45890836Y-55811252D01*
X45855792Y-55986000D01*
X45855792Y-57486000D01*
X45888676Y-57655486D01*
X45986529Y-57804449D01*
X46134252Y-57904164D01*
X46309000Y-57939208D01*
X46909000Y-57939208D01*
X47076833Y-57906645D01*
X46990154Y-58115391D01*
X46989846Y-58469057D01*
X47124903Y-58795920D01*
X47374764Y-59046218D01*
X47701391Y-59181846D01*
X48055057Y-59182154D01*
X48381920Y-59047097D01*
X48632218Y-58797236D01*
X48767846Y-58470609D01*
X48768154Y-58116943D01*
X48743593Y-58057500D01*
X48856125Y-58057500D01*
X48999000Y-57914625D01*
X48999000Y-56926500D01*
X48938500Y-56926500D01*
X48938500Y-56545500D01*
X48999000Y-56545500D01*
X48999000Y-55557375D01*
X48856125Y-55414500D01*
X48735321Y-55414500D01*
X42409208Y-55414500D01*
X42409208Y-55299016D01*
X42419293Y-55288930D01*
X42676057Y-55289154D01*
X43002920Y-55154097D01*
X43253218Y-54904236D01*
X43388846Y-54577609D01*
X43389154Y-54223943D01*
X43254097Y-53897080D01*
X43004236Y-53646782D01*
X42677609Y-53511154D01*
X42323943Y-53510846D01*
X41997080Y-53645903D01*
X41746782Y-53895764D01*
X41611154Y-54222391D01*
X41610929Y-54480848D01*
X41343573Y-54748203D01*
X41186514Y-54778676D01*
X41037551Y-54876529D01*
X41021474Y-54900346D01*
X41008471Y-54880551D01*
X40860748Y-54780836D01*
X40686000Y-54745792D01*
X40654015Y-54745792D01*
X40588930Y-54680707D01*
X40589154Y-54423943D01*
X40454097Y-54097080D01*
X40204236Y-53846782D01*
X39877609Y-53711154D01*
X39523943Y-53710846D01*
X39197080Y-53845903D01*
X38946782Y-54095764D01*
X38821852Y-54396628D01*
X38521112Y-54095888D01*
X38424824Y-54031551D01*
X38335704Y-53972003D01*
X38299418Y-53964785D01*
X38117000Y-53928499D01*
X38116995Y-53928500D01*
X36900005Y-53928500D01*
X36900000Y-53928499D01*
X36717582Y-53964785D01*
X36681296Y-53972003D01*
X36495888Y-54095888D01*
X36495886Y-54095891D01*
X34795888Y-55795888D01*
X34672003Y-55981296D01*
X34672003Y-55981297D01*
X34628499Y-56200000D01*
X34628500Y-56200005D01*
X34628500Y-57271088D01*
X34604236Y-57246782D01*
X34277609Y-57111154D01*
X34019152Y-57110929D01*
X30471500Y-53563276D01*
X30471500Y-50949500D01*
X33503915Y-50949500D01*
X33361040Y-51092375D01*
X33361040Y-51472119D01*
X33448046Y-51682169D01*
X33608812Y-51842934D01*
X33818862Y-51929940D01*
X34198605Y-51929940D01*
X34341480Y-51787065D01*
X34341480Y-50949500D01*
X34722480Y-50949500D01*
X34341480Y-50949500D01*
X34341480Y-50949500D01*
X34722480Y-50949500D01*
X34722480Y-51787065D01*
X34865355Y-51929940D01*
X35245098Y-51929940D01*
X35455148Y-51842934D01*
X35615914Y-51682169D01*
X35652909Y-51592857D01*
X35708109Y-51676889D01*
X35855832Y-51776604D01*
X36030580Y-51811648D01*
X37229460Y-51811648D01*
X37398946Y-51778764D01*
X37547909Y-51680911D01*
X37647624Y-51533188D01*
X37682668Y-51358440D01*
X37682668Y-51330500D01*
X37773260Y-51330500D01*
X37895764Y-51453218D01*
X38222391Y-51588846D01*
X38576057Y-51589154D01*
X38902920Y-51454097D01*
X39153218Y-51204236D01*
X39288846Y-50877609D01*
X39289154Y-50523943D01*
X39154097Y-50197080D01*
X38904236Y-49946782D01*
X38577609Y-49811154D01*
X38223943Y-49810846D01*
X37897080Y-49945903D01*
X37682668Y-50159941D01*
X37682668Y-50159560D01*
X37649784Y-49990074D01*
X37551931Y-49841111D01*
X37404208Y-49741396D01*
X37251870Y-49710846D01*
X41623943Y-49710846D01*
X41297080Y-49845903D01*
X41046782Y-50095764D01*
X40911154Y-50422391D01*
X40910846Y-50776057D01*
X41045903Y-51102920D01*
X41295764Y-51353218D01*
X41622391Y-51488846D01*
X41976057Y-51489154D01*
X42302920Y-51354097D01*
X42485836Y-51171500D01*
X44114363Y-51171500D01*
X44295764Y-51353218D01*
X44622391Y-51488846D01*
X44976057Y-51489154D01*
X45302920Y-51354097D01*
X45553218Y-51104236D01*
X45688846Y-50777609D01*
X45689154Y-50423943D01*
X45554097Y-50097080D01*
X45304236Y-49846782D01*
X44977609Y-49711154D01*
X44623943Y-49710846D01*
X44297080Y-49845903D01*
X44114164Y-50028500D01*
X42485637Y-50028500D01*
X42304236Y-49846782D01*
X41977609Y-49711154D01*
X41623943Y-49710846D01*
X37251870Y-49710846D01*
X37229460Y-49706352D01*
X36030580Y-49706352D01*
X35861094Y-49739236D01*
X35712131Y-49837089D01*
X35652827Y-49924946D01*
X35615914Y-49835831D01*
X35455148Y-49675066D01*
X35245098Y-49588060D01*
X34865355Y-49588060D01*
X34198605Y-49588060D01*
X34198605Y-49588060D01*
X33818862Y-49588060D01*
X33608812Y-49675066D01*
X33448046Y-49835831D01*
X33361040Y-50045881D01*
X33361040Y-50425625D01*
X33503915Y-50568500D01*
X34341480Y-50568500D01*
X34341480Y-49730935D01*
X34198605Y-49588060D01*
X34865355Y-49588060D01*
X34198605Y-49588060D01*
X34198605Y-49588060D01*
X34865355Y-49588060D01*
X34722480Y-49730935D01*
X34722480Y-50568500D01*
X34742480Y-50568500D01*
X34742480Y-50949500D01*
X34722480Y-50949500D01*
X34341480Y-50949500D01*
X34341480Y-50949500D01*
X33503915Y-50949500D01*
X30471500Y-50949500D01*
X30471500Y-48282500D01*
X33503915Y-48282500D01*
X33361040Y-48425375D01*
X33361040Y-48805119D01*
X33448046Y-49015169D01*
X33608812Y-49175934D01*
X33818862Y-49262940D01*
X34198605Y-49262940D01*
X34341480Y-49120065D01*
X34341480Y-48282500D01*
X34722480Y-48282500D01*
X34341480Y-48282500D01*
X34341480Y-48282500D01*
X34722480Y-48282500D01*
X34722480Y-49120065D01*
X34865355Y-49262940D01*
X35245098Y-49262940D01*
X35455148Y-49175934D01*
X35615914Y-49015169D01*
X35652909Y-48925857D01*
X35708109Y-49009889D01*
X35855832Y-49109604D01*
X36030580Y-49144648D01*
X37229460Y-49144648D01*
X37398946Y-49111764D01*
X37547909Y-49013911D01*
X37647624Y-48866188D01*
X37682668Y-48691440D01*
X37682668Y-48671500D01*
X37714363Y-48671500D01*
X37895764Y-48853218D01*
X38222391Y-48988846D01*
X38576057Y-48989154D01*
X38902920Y-48854097D01*
X39153218Y-48604236D01*
X39288846Y-48277609D01*
X39289154Y-47923943D01*
X39154097Y-47597080D01*
X38904236Y-47346782D01*
X38577609Y-47211154D01*
X38223943Y-47210846D01*
X37897080Y-47345903D01*
X37714164Y-47528500D01*
X37682668Y-47528500D01*
X37682668Y-47492560D01*
X37649784Y-47323074D01*
X37551931Y-47174111D01*
X37404208Y-47074396D01*
X37229460Y-47039352D01*
X36030580Y-47039352D01*
X35861094Y-47072236D01*
X35712131Y-47170089D01*
X35652827Y-47257946D01*
X35615914Y-47168831D01*
X35455148Y-47008066D01*
X35245098Y-46921060D01*
X34865355Y-46921060D01*
X34198605Y-46921060D01*
X34198605Y-46921060D01*
X33818862Y-46921060D01*
X33788972Y-46933441D01*
X33789154Y-46723943D01*
X33719209Y-46554662D01*
X33818862Y-46595940D01*
X34198605Y-46595940D01*
X34341480Y-46453065D01*
X34341480Y-45615500D01*
X34321480Y-45615500D01*
X34321480Y-45234500D01*
X34341480Y-45234500D01*
X34341480Y-44396935D01*
X34198605Y-44254060D01*
X34865355Y-44254060D01*
X34722480Y-44396935D01*
X34722480Y-45234500D01*
X34742480Y-45234500D01*
X34742480Y-45615500D01*
X34722480Y-45615500D01*
X34722480Y-46453065D01*
X34865355Y-46595940D01*
X35245098Y-46595940D01*
X35455148Y-46508934D01*
X35615914Y-46348169D01*
X35652909Y-46258857D01*
X35708109Y-46342889D01*
X35855832Y-46442604D01*
X36030580Y-46477648D01*
X37229460Y-46477648D01*
X37398946Y-46444764D01*
X37547909Y-46346911D01*
X37647624Y-46199188D01*
X37682668Y-46024440D01*
X37682668Y-45996500D01*
X37739320Y-45996500D01*
X37895764Y-46153218D01*
X38222391Y-46288846D01*
X38576057Y-46289154D01*
X38902920Y-46154097D01*
X39153218Y-45904236D01*
X39288846Y-45577609D01*
X39289154Y-45223943D01*
X39154097Y-44897080D01*
X38904236Y-44646782D01*
X38577609Y-44511154D01*
X38223943Y-44510846D01*
X37897080Y-44645903D01*
X37689120Y-44853500D01*
X37682668Y-44853500D01*
X37682668Y-44825560D01*
X37649784Y-44656074D01*
X37551931Y-44507111D01*
X37404208Y-44407396D01*
X37229460Y-44372352D01*
X36030580Y-44372352D01*
X35861094Y-44405236D01*
X35712131Y-44503089D01*
X35652827Y-44590946D01*
X35615914Y-44501831D01*
X35455148Y-44341066D01*
X35245098Y-44254060D01*
X34865355Y-44254060D01*
X34198605Y-44254060D01*
X34198605Y-44254060D01*
X33818862Y-44254060D01*
X33608812Y-44341066D01*
X33471500Y-44478377D01*
X33471500Y-43704623D01*
X33608812Y-43841934D01*
X33818862Y-43928940D01*
X34198605Y-43928940D01*
X34341480Y-43786065D01*
X34341480Y-42948500D01*
X34321480Y-42948500D01*
X34321480Y-42567500D01*
X34341480Y-42567500D01*
X34341480Y-41729935D01*
X34198605Y-41587060D01*
X34865355Y-41587060D01*
X34722480Y-41729935D01*
X34722480Y-42567500D01*
X34742480Y-42567500D01*
X34742480Y-42948500D01*
X34722480Y-42948500D01*
X34722480Y-43786065D01*
X34865355Y-43928940D01*
X35245098Y-43928940D01*
X35455148Y-43841934D01*
X35615914Y-43681169D01*
X35652909Y-43591857D01*
X35708109Y-43675889D01*
X35855832Y-43775604D01*
X36030580Y-43810648D01*
X37229460Y-43810648D01*
X37398946Y-43777764D01*
X37547909Y-43679911D01*
X37647624Y-43532188D01*
X37682668Y-43357440D01*
X37682668Y-43329500D01*
X37689363Y-43329500D01*
X37870764Y-43511218D01*
X38197391Y-43646846D01*
X38551057Y-43647154D01*
X38877920Y-43512097D01*
X39128218Y-43262236D01*
X39263846Y-42935609D01*
X39264154Y-42581943D01*
X39129097Y-42255080D01*
X38879236Y-42004782D01*
X38552609Y-41869154D01*
X38198943Y-41868846D01*
X37872080Y-42003903D01*
X37689164Y-42186500D01*
X37682668Y-42186500D01*
X37682668Y-42158560D01*
X37649784Y-41989074D01*
X37551931Y-41840111D01*
X37404208Y-41740396D01*
X37229460Y-41705352D01*
X36030580Y-41705352D01*
X35861094Y-41738236D01*
X35712131Y-41836089D01*
X35652827Y-41923946D01*
X35615914Y-41834831D01*
X35455148Y-41674066D01*
X35245098Y-41587060D01*
X34865355Y-41587060D01*
X34198605Y-41587060D01*
X34198605Y-41587060D01*
X33818862Y-41587060D01*
X33608812Y-41674066D01*
X33471500Y-41811377D01*
X33471500Y-39250946D01*
X33898743Y-39614018D01*
X34236300Y-39753825D01*
X34480500Y-39659009D01*
X34480500Y-38417500D01*
X34460500Y-38417500D01*
X34460500Y-38036500D01*
X34480500Y-38036500D01*
X34480500Y-36794991D01*
X34236300Y-36700175D01*
X33898743Y-36839982D01*
X33695669Y-37012555D01*
X34319293Y-36388930D01*
X34576057Y-36389154D01*
X34902920Y-36254097D01*
X35153218Y-36004236D01*
X35288846Y-35677609D01*
X35288961Y-35545184D01*
X35422272Y-35678494D01*
X35632322Y-35765500D01*
X36162625Y-35765500D01*
X36305500Y-35622625D01*
X36305500Y-34734500D01*
X36686500Y-34734500D01*
X36686500Y-35622625D01*
X36829375Y-35765500D01*
X37359678Y-35765500D01*
X37569728Y-35678494D01*
X37730494Y-35517729D01*
X37817500Y-35307679D01*
X37817500Y-34877375D01*
X37674625Y-34734500D01*
X36686500Y-34734500D01*
X36305500Y-34734500D01*
X36305500Y-34734500D01*
X36285500Y-34734500D01*
X36285500Y-34353500D01*
X36305500Y-34353500D01*
X36305500Y-33465375D01*
X36162625Y-33322500D01*
X35717625Y-33322500D01*
X35765500Y-33274625D01*
X35765500Y-32744322D01*
X35678494Y-32534272D01*
X35517729Y-32373506D01*
X35307679Y-32286500D01*
X34877375Y-32286500D01*
X34734500Y-32429375D01*
X34734500Y-33417500D01*
X34754500Y-33417500D01*
X34754500Y-33798500D01*
X34734500Y-33798500D01*
X34734500Y-33818500D01*
X34353500Y-33818500D01*
X34353500Y-33798500D01*
X33465375Y-33798500D01*
X33322500Y-33941375D01*
X33322500Y-34471678D01*
X33409506Y-34681728D01*
X33570271Y-34842494D01*
X33732857Y-34909840D01*
X33646782Y-34995764D01*
X33511154Y-35322391D01*
X33510929Y-35580848D01*
X32495888Y-36595888D01*
X32372003Y-36781296D01*
X32372003Y-36781297D01*
X32328499Y-37000000D01*
X32328500Y-37000005D01*
X32328500Y-46214363D01*
X32146782Y-46395764D01*
X32011154Y-46722391D01*
X32010846Y-47076057D01*
X32145903Y-47402920D01*
X32395764Y-47653218D01*
X32722391Y-47788846D01*
X33076057Y-47789154D01*
X33361040Y-47671401D01*
X33361040Y-47758625D01*
X33503915Y-47901500D01*
X34341480Y-47901500D01*
X34341480Y-47063935D01*
X34198605Y-46921060D01*
X34865355Y-46921060D01*
X34198605Y-46921060D01*
X34198605Y-46921060D01*
X34865355Y-46921060D01*
X34722480Y-47063935D01*
X34722480Y-47901500D01*
X34742480Y-47901500D01*
X34742480Y-48282500D01*
X34722480Y-48282500D01*
X34341480Y-48282500D01*
X34341480Y-48282500D01*
X33503915Y-48282500D01*
X30471500Y-48282500D01*
X30471500Y-36123848D01*
X30510092Y-36169261D01*
X31061298Y-36451838D01*
X31305500Y-36358167D01*
X31305500Y-35115500D01*
X31686500Y-35115500D01*
X31686500Y-36358167D01*
X31930702Y-36451838D01*
X32481908Y-36169261D01*
X32883018Y-35697257D01*
X33022825Y-35359700D01*
X32928009Y-35115500D01*
X31686500Y-35115500D01*
X31305500Y-35115500D01*
X31305500Y-35115500D01*
X31285500Y-35115500D01*
X31285500Y-34734500D01*
X31305500Y-34734500D01*
X31305500Y-34714500D01*
X31686500Y-34714500D01*
X31686500Y-34734500D01*
X32928009Y-34734500D01*
X33022825Y-34490300D01*
X32883018Y-34152743D01*
X32612716Y-33834667D01*
X32681486Y-33821324D01*
X32830449Y-33723471D01*
X32930164Y-33575748D01*
X32965208Y-33401000D01*
X32965208Y-33147000D01*
X33067000Y-33147000D01*
X33322500Y-33096178D01*
X33322500Y-33274625D01*
X33465375Y-33417500D01*
X34353500Y-33417500D01*
X34353500Y-32429375D01*
X34226878Y-32302753D01*
X34418423Y-32111208D01*
X35194000Y-32111208D01*
X35363486Y-32078324D01*
X35512449Y-31980471D01*
X35612164Y-31832748D01*
X35644802Y-31670000D01*
X36016792Y-31670000D01*
X36016792Y-31821000D01*
X36046376Y-31973478D01*
X36016792Y-32121000D01*
X36016792Y-32771000D01*
X36049676Y-32940486D01*
X36147529Y-33089449D01*
X36295252Y-33189164D01*
X36470000Y-33224208D01*
X37062285Y-33224208D01*
X37021471Y-33322500D01*
X36829375Y-33322500D01*
X36686500Y-33465375D01*
X36686500Y-34353500D01*
X37287142Y-34353500D01*
X37341764Y-34408218D01*
X37668391Y-34543846D01*
X37992792Y-34544129D01*
X37992792Y-35194000D01*
X38025676Y-35363486D01*
X38123529Y-35512449D01*
X38271252Y-35612164D01*
X38434000Y-35644802D01*
X38434000Y-36814607D01*
X38401748Y-36792836D01*
X38227000Y-36757792D01*
X36195000Y-36757792D01*
X36025514Y-36790676D01*
X35876551Y-36888529D01*
X35776836Y-37036252D01*
X35761894Y-37110760D01*
X35443257Y-36839982D01*
X35105700Y-36700175D01*
X34861500Y-36794991D01*
X34861500Y-38036500D01*
X34881500Y-38036500D01*
X34881500Y-38417500D01*
X34861500Y-38417500D01*
X34861500Y-39659009D01*
X35105700Y-39753825D01*
X35443257Y-39614018D01*
X35761333Y-39343716D01*
X35774676Y-39412486D01*
X35872529Y-39561449D01*
X36020252Y-39661164D01*
X36195000Y-39696208D01*
X38227000Y-39696208D01*
X38396486Y-39663324D01*
X38545449Y-39565471D01*
X38645164Y-39417748D01*
X38680208Y-39243000D01*
X38680208Y-38989000D01*
X38862000Y-38989000D01*
X39153605Y-38930996D01*
X39400815Y-38765815D01*
X39734815Y-38431816D01*
X39899996Y-38184605D01*
X39915290Y-38107715D01*
X39958000Y-37893000D01*
X39958000Y-35644880D01*
X40115486Y-35614324D01*
X40264449Y-35516471D01*
X40364164Y-35368748D01*
X40399208Y-35194000D01*
X40399208Y-33894000D01*
X40366324Y-33724514D01*
X40268471Y-33575551D01*
X40120748Y-33475836D01*
X39958000Y-33443198D01*
X39958000Y-33152886D01*
X40048449Y-33093471D01*
X40148164Y-32945748D01*
X40183208Y-32771000D01*
X40183208Y-32121000D01*
X40153624Y-31968522D01*
X40183208Y-31821000D01*
X40183208Y-31171000D01*
X40153624Y-31018522D01*
X40183208Y-30871000D01*
X40183208Y-30640422D01*
X40216777Y-30606853D01*
X40562057Y-30607154D01*
X40869793Y-30480000D01*
X42317855Y-30480000D01*
X42225690Y-30572004D01*
X42090062Y-30898631D01*
X42089754Y-31252297D01*
X42224811Y-31579160D01*
X42425119Y-31779818D01*
X42425119Y-32752163D01*
X42411215Y-32738235D01*
X42084588Y-32602607D01*
X41730922Y-32602299D01*
X41404059Y-32737356D01*
X41153761Y-32987217D01*
X41018133Y-33313844D01*
X41017825Y-33667510D01*
X41152882Y-33994373D01*
X41349692Y-34191527D01*
X41361800Y-34252395D01*
X41378982Y-34338774D01*
X41480228Y-34490300D01*
X41502867Y-34524182D01*
X41539131Y-34560446D01*
X41539131Y-41706974D01*
X41539130Y-41706979D01*
X41571328Y-41868846D01*
X41582634Y-41925683D01*
X41660408Y-42042080D01*
X41706519Y-42111091D01*
X43799155Y-44203727D01*
X43697080Y-44245903D01*
X43446782Y-44495764D01*
X43311154Y-44822391D01*
X43310846Y-45176057D01*
X43445903Y-45502920D01*
X43695764Y-45753218D01*
X44022391Y-45888846D01*
X44280847Y-45889071D01*
X45518650Y-47126874D01*
X45489921Y-47138744D01*
X45239623Y-47388605D01*
X45103995Y-47715232D01*
X45103687Y-48068898D01*
X45238744Y-48395761D01*
X45488605Y-48646059D01*
X45815232Y-48781687D01*
X46073688Y-48781912D01*
X49847500Y-52555723D01*
X49847500Y-55576277D01*
X49772729Y-55501506D01*
X49562679Y-55414500D01*
X49441875Y-55414500D01*
X49299000Y-55557375D01*
X49299000Y-56545500D01*
X49359500Y-56545500D01*
X49359500Y-56926500D01*
X49299000Y-56926500D01*
X49299000Y-57914625D01*
X49441875Y-58057500D01*
X49562679Y-58057500D01*
X49772729Y-57970494D01*
X49869167Y-57874055D01*
X49883785Y-57947542D01*
X49891003Y-57983828D01*
X49987599Y-58128395D01*
X50014888Y-58169236D01*
X51880073Y-60034420D01*
X51880075Y-60034423D01*
X51979853Y-60101092D01*
X52065484Y-60158309D01*
X52284187Y-60201812D01*
X52284192Y-60201811D01*
X56179269Y-60201811D01*
X59353478Y-63376019D01*
X59353254Y-63632783D01*
X59488311Y-63959646D01*
X59523396Y-63994792D01*
X59040000Y-63994792D01*
X58870514Y-64027676D01*
X58721551Y-64125529D01*
X58621836Y-64273252D01*
X58586792Y-64448000D01*
X58586792Y-64626500D01*
X58517776Y-64626500D01*
X58416236Y-64524782D01*
X58089609Y-64389154D01*
X57831152Y-64388929D01*
X56538112Y-63095888D01*
X56485521Y-63060748D01*
X56370500Y-62983894D01*
X56370500Y-62469375D01*
X56227625Y-62326500D01*
X55649000Y-62326500D01*
X55649000Y-62346500D01*
X55349000Y-62346500D01*
X55349000Y-62326500D01*
X54379000Y-62326500D01*
X54379000Y-62346500D01*
X54079000Y-62346500D01*
X54079000Y-62326500D01*
X53109000Y-62326500D01*
X53109000Y-62346500D01*
X52809000Y-62346500D01*
X52809000Y-62326500D01*
X51839000Y-62326500D01*
X51839000Y-62346500D01*
X51539000Y-62346500D01*
X51539000Y-62326500D01*
X51478500Y-62326500D01*
X51478500Y-61945500D01*
X51539000Y-61945500D01*
X51539000Y-60957375D01*
X51396125Y-60814500D01*
X51981875Y-60814500D01*
X51839000Y-60957375D01*
X51839000Y-61945500D01*
X52809000Y-61945500D01*
X52809000Y-60957375D01*
X52666125Y-60814500D01*
X53251875Y-60814500D01*
X53109000Y-60957375D01*
X53109000Y-61945500D01*
X54079000Y-61945500D01*
X54079000Y-60957375D01*
X53936125Y-60814500D01*
X54521875Y-60814500D01*
X54379000Y-60957375D01*
X54379000Y-61945500D01*
X55349000Y-61945500D01*
X55349000Y-60957375D01*
X55206125Y-60814500D01*
X55791875Y-60814500D01*
X55649000Y-60957375D01*
X55649000Y-61945500D01*
X56227625Y-61945500D01*
X56370500Y-61802625D01*
X56370500Y-61272322D01*
X56283494Y-61062272D01*
X56122729Y-60901506D01*
X55912679Y-60814500D01*
X55791875Y-60814500D01*
X55206125Y-60814500D01*
X55206125Y-60814500D01*
X55085321Y-60814500D01*
X54875271Y-60901506D01*
X54864000Y-60912777D01*
X54852729Y-60901506D01*
X54642679Y-60814500D01*
X54521875Y-60814500D01*
X53936125Y-60814500D01*
X53936125Y-60814500D01*
X53815321Y-60814500D01*
X53605271Y-60901506D01*
X53594000Y-60912777D01*
X53582729Y-60901506D01*
X53372679Y-60814500D01*
X53251875Y-60814500D01*
X52666125Y-60814500D01*
X52666125Y-60814500D01*
X52545321Y-60814500D01*
X52335271Y-60901506D01*
X52324000Y-60912777D01*
X52312729Y-60901506D01*
X52102679Y-60814500D01*
X51981875Y-60814500D01*
X51396125Y-60814500D01*
X51396125Y-60814500D01*
X51275321Y-60814500D01*
X51065271Y-60901506D01*
X50956550Y-61010228D01*
X50893748Y-60967836D01*
X50719000Y-60932792D01*
X50119000Y-60932792D01*
X49949514Y-60965676D01*
X49800551Y-61063529D01*
X49784474Y-61087346D01*
X49771471Y-61067551D01*
X49623748Y-60967836D01*
X49449000Y-60932792D01*
X48849000Y-60932792D01*
X48679514Y-60965676D01*
X48530551Y-61063529D01*
X48514474Y-61087346D01*
X48501471Y-61067551D01*
X48353748Y-60967836D01*
X48179000Y-60932792D01*
X47579000Y-60932792D01*
X47409514Y-60965676D01*
X47260551Y-61063529D01*
X47244474Y-61087346D01*
X47231471Y-61067551D01*
X47083748Y-60967836D01*
X46909000Y-60932792D01*
X46309000Y-60932792D01*
X46139514Y-60965676D01*
X45990551Y-61063529D01*
X45890836Y-61211252D01*
X45855792Y-61386000D01*
X45855792Y-61564500D01*
X44036005Y-61564500D01*
X44036000Y-61564499D01*
X43853582Y-61600785D01*
X43817296Y-61608003D01*
X43631888Y-61731888D01*
X43631886Y-61731891D01*
X43541349Y-61822428D01*
X43284585Y-61822204D01*
X42957722Y-61957261D01*
X42707424Y-62207122D01*
X42571796Y-62533749D01*
X42571571Y-62792206D01*
X41886888Y-63476888D01*
X41886886Y-63476891D01*
X41378888Y-63984888D01*
X41255003Y-64170296D01*
X41255003Y-64170297D01*
X41239389Y-64248792D01*
X41133000Y-64248792D01*
X40963514Y-64281676D01*
X40814551Y-64379529D01*
X40714836Y-64527252D01*
X40679792Y-64702000D01*
X40679792Y-64880500D01*
X40473208Y-64880500D01*
X40473208Y-64702000D01*
X40440324Y-64532514D01*
X40342471Y-64383551D01*
X40194748Y-64283836D01*
X40020000Y-64248792D01*
X38720000Y-64248792D01*
X38550514Y-64281676D01*
X38401551Y-64379529D01*
X38301836Y-64527252D01*
X38266792Y-64702000D01*
X38266792Y-66202000D01*
X38299676Y-66371486D01*
X38397529Y-66520449D01*
X38545252Y-66620164D01*
X38720000Y-66655208D01*
X40020000Y-66655208D01*
X40189486Y-66622324D01*
X40338449Y-66524471D01*
X40438164Y-66376748D01*
X40473208Y-66202000D01*
X40473208Y-66023500D01*
X40679792Y-66023500D01*
X40679792Y-66202000D01*
X40712676Y-66371486D01*
X40810529Y-66520449D01*
X40958252Y-66620164D01*
X41133000Y-66655208D01*
X42433000Y-66655208D01*
X42602486Y-66622324D01*
X42751449Y-66524471D01*
X42851164Y-66376748D01*
X42886208Y-66202000D01*
X42886208Y-64702000D01*
X42853324Y-64532514D01*
X42755471Y-64383551D01*
X42660666Y-64319557D01*
X42695109Y-64285114D01*
X42695112Y-64285112D01*
X43379935Y-63600288D01*
X43636699Y-63600512D01*
X43963562Y-63465455D01*
X44213860Y-63215594D01*
X44349488Y-62888967D01*
X44349646Y-62707500D01*
X45855792Y-62707500D01*
X45855792Y-62886000D01*
X45888676Y-63055486D01*
X45986529Y-63204449D01*
X46134252Y-63304164D01*
X46309000Y-63339208D01*
X46909000Y-63339208D01*
X47078486Y-63306324D01*
X47227449Y-63208471D01*
X47243526Y-63184654D01*
X47256529Y-63204449D01*
X47307500Y-63238855D01*
X47307500Y-63304289D01*
X47122080Y-63380903D01*
X46871782Y-63630764D01*
X46736154Y-63957391D01*
X46735929Y-64215848D01*
X46702985Y-64248792D01*
X45832000Y-64248792D01*
X45662514Y-64281676D01*
X45513551Y-64379529D01*
X45413836Y-64527252D01*
X45378792Y-64702000D01*
X45378792Y-66202000D01*
X45411676Y-66371486D01*
X45509529Y-66520449D01*
X45657252Y-66620164D01*
X45832000Y-66655208D01*
X47132000Y-66655208D01*
X47301486Y-66622324D01*
X47450449Y-66524471D01*
X47550164Y-66376748D01*
X47585208Y-66202000D01*
X47585208Y-66023500D01*
X47791792Y-66023500D01*
X47791792Y-66202000D01*
X47824676Y-66371486D01*
X47922529Y-66520449D01*
X48070252Y-66620164D01*
X48245000Y-66655208D01*
X49545000Y-66655208D01*
X49714486Y-66622324D01*
X49863449Y-66524471D01*
X49963164Y-66376748D01*
X49998208Y-66202000D01*
X49998208Y-64702000D01*
X49965324Y-64532514D01*
X49867471Y-64383551D01*
X49719748Y-64283836D01*
X49545000Y-64248792D01*
X48513902Y-64248792D01*
X48514154Y-63958943D01*
X48450500Y-63804889D01*
X48450500Y-63239312D01*
X48497449Y-63208471D01*
X48513526Y-63184654D01*
X48526529Y-63204449D01*
X48674252Y-63304164D01*
X48849000Y-63339208D01*
X49093984Y-63339208D01*
X50799981Y-65045204D01*
X50799846Y-65200057D01*
X50934903Y-65526920D01*
X51184764Y-65777218D01*
X51511391Y-65912846D01*
X51865057Y-65913154D01*
X51982792Y-65864507D01*
X51982792Y-65948000D01*
X52015676Y-66117486D01*
X52113529Y-66266449D01*
X52261252Y-66366164D01*
X52436000Y-66401208D01*
X53736000Y-66401208D01*
X53905486Y-66368324D01*
X54054449Y-66270471D01*
X54154164Y-66122748D01*
X54189208Y-65948000D01*
X54189208Y-65769500D01*
X54268792Y-65769500D01*
X54268792Y-65948000D01*
X54301676Y-66117486D01*
X54399529Y-66266449D01*
X54547252Y-66366164D01*
X54722000Y-66401208D01*
X56022000Y-66401208D01*
X56191486Y-66368324D01*
X56340449Y-66270471D01*
X56440164Y-66122748D01*
X56475208Y-65948000D01*
X56475208Y-64649432D01*
X57023070Y-65197293D01*
X57022846Y-65454057D01*
X57157903Y-65780920D01*
X57407764Y-66031218D01*
X57734391Y-66166846D01*
X58088057Y-66167154D01*
X58414920Y-66032097D01*
X58586792Y-65860525D01*
X58586792Y-65948000D01*
X58619676Y-66117486D01*
X58717529Y-66266449D01*
X58865252Y-66366164D01*
X59040000Y-66401208D01*
X60340000Y-66401208D01*
X60509486Y-66368324D01*
X60658449Y-66270471D01*
X60758164Y-66122748D01*
X60793208Y-65948000D01*
X60793208Y-65769500D01*
X60872792Y-65769500D01*
X60872792Y-65948000D01*
X60905676Y-66117486D01*
X61003529Y-66266449D01*
X61151252Y-66366164D01*
X61326000Y-66401208D01*
X62626000Y-66401208D01*
X62795486Y-66368324D01*
X62944449Y-66270471D01*
X63044164Y-66122748D01*
X63079208Y-65948000D01*
X63079208Y-64448000D01*
X63046324Y-64278514D01*
X62948471Y-64129551D01*
X62800748Y-64029836D01*
X62626000Y-63994792D01*
X61326000Y-63994792D01*
X61156514Y-64027676D01*
X61007551Y-64125529D01*
X60907836Y-64273252D01*
X60872792Y-64448000D01*
X60872792Y-64626500D01*
X60793208Y-64626500D01*
X60793208Y-64448000D01*
X60760324Y-64278514D01*
X60722149Y-64220400D01*
X60745328Y-64210823D01*
X60995626Y-63960962D01*
X61007898Y-63931407D01*
X61209458Y-63971500D01*
X64299995Y-63971500D01*
X64300000Y-63971501D01*
X64482418Y-63935215D01*
X64518704Y-63927997D01*
X64704112Y-63804112D01*
X64704113Y-63804111D01*
X66304109Y-62204114D01*
X66304112Y-62204112D01*
X66391779Y-62072908D01*
X66427998Y-62018703D01*
X66471501Y-61800000D01*
X66471500Y-61799995D01*
X66471500Y-59167500D01*
X66708375Y-59167500D01*
X66565500Y-59310375D01*
X66565500Y-59840678D01*
X66652506Y-60050728D01*
X66813271Y-60211494D01*
X67023321Y-60298500D01*
X67144125Y-60298500D01*
X67287000Y-60155625D01*
X67287000Y-59167500D01*
X66708375Y-59167500D01*
X66471500Y-59167500D01*
X66471500Y-58985637D01*
X66653218Y-58804236D01*
X66674605Y-58752730D01*
X66708375Y-58786500D01*
X67287000Y-58786500D01*
X67287000Y-57798375D01*
X67144125Y-57655500D01*
X67023321Y-57655500D01*
X66813271Y-57742506D01*
X66684680Y-57871097D01*
X66654097Y-57797080D01*
X66404236Y-57546782D01*
X66077609Y-57411154D01*
X65723943Y-57410846D01*
X65397080Y-57545903D01*
X65146782Y-57795764D01*
X65120763Y-57858424D01*
X65054097Y-57697080D01*
X64804236Y-57446782D01*
X64477609Y-57311154D01*
X64123943Y-57310846D01*
X64054825Y-57339405D01*
X64000000Y-57328499D01*
X63999995Y-57328500D01*
X63953208Y-57328500D01*
X63953208Y-57250000D01*
X63920324Y-57080514D01*
X63822471Y-56931551D01*
X63674748Y-56831836D01*
X63500000Y-56796792D01*
X62061431Y-56796792D01*
X62755015Y-56103208D01*
X63500000Y-56103208D01*
X63669486Y-56070324D01*
X63818449Y-55972471D01*
X63918164Y-55824748D01*
X63953208Y-55650000D01*
X63953208Y-54350000D01*
X63920324Y-54180514D01*
X63822471Y-54031551D01*
X63674748Y-53931836D01*
X63640560Y-53924980D01*
X64566756Y-53924980D01*
X68415569Y-57773792D01*
X68407000Y-57773792D01*
X68237514Y-57806676D01*
X68169546Y-57851324D01*
X68060729Y-57742506D01*
X67850679Y-57655500D01*
X67729875Y-57655500D01*
X67587000Y-57798375D01*
X67587000Y-58786500D01*
X67647500Y-58786500D01*
X67647500Y-59167500D01*
X67587000Y-59167500D01*
X67587000Y-60155625D01*
X67729875Y-60298500D01*
X67850679Y-60298500D01*
X68060729Y-60211494D01*
X68169450Y-60102772D01*
X68232252Y-60145164D01*
X68262500Y-60151230D01*
X68262500Y-60782363D01*
X68080782Y-60963764D01*
X67945154Y-61290391D01*
X67944846Y-61644057D01*
X68079903Y-61970920D01*
X68329764Y-62221218D01*
X68656391Y-62356846D01*
X69010057Y-62357154D01*
X69336920Y-62222097D01*
X69587218Y-61972236D01*
X69722846Y-61645609D01*
X69723154Y-61291943D01*
X69588097Y-60965080D01*
X69405500Y-60782164D01*
X69405500Y-60079855D01*
X69502252Y-60145164D01*
X69677000Y-60180208D01*
X70277000Y-60180208D01*
X70446486Y-60147324D01*
X70595449Y-60049471D01*
X70611526Y-60025654D01*
X70624529Y-60045449D01*
X70772252Y-60145164D01*
X70947000Y-60180208D01*
X71547000Y-60180208D01*
X71716486Y-60147324D01*
X71865449Y-60049471D01*
X71881526Y-60025654D01*
X71894529Y-60045449D01*
X72042252Y-60145164D01*
X72217000Y-60180208D01*
X72817000Y-60180208D01*
X72986486Y-60147324D01*
X73054454Y-60102676D01*
X73163271Y-60211494D01*
X73373321Y-60298500D01*
X73494125Y-60298500D01*
X73637000Y-60155625D01*
X73637000Y-59167500D01*
X73937000Y-59167500D01*
X73937000Y-60155625D01*
X74079875Y-60298500D01*
X74200679Y-60298500D01*
X74410729Y-60211494D01*
X74422000Y-60200223D01*
X74433271Y-60211494D01*
X74643321Y-60298500D01*
X74764125Y-60298500D01*
X74907000Y-60155625D01*
X74907000Y-59167500D01*
X73937000Y-59167500D01*
X73637000Y-59167500D01*
X73637000Y-59167500D01*
X73576500Y-59167500D01*
X73576500Y-58786500D01*
X73637000Y-58786500D01*
X73637000Y-57798375D01*
X73494125Y-57655500D01*
X74079875Y-57655500D01*
X73937000Y-57798375D01*
X73937000Y-58786500D01*
X74907000Y-58786500D01*
X74907000Y-57798375D01*
X74764125Y-57655500D01*
X74643321Y-57655500D01*
X74433271Y-57742506D01*
X74422000Y-57753777D01*
X74410729Y-57742506D01*
X74200679Y-57655500D01*
X74079875Y-57655500D01*
X73494125Y-57655500D01*
X73494125Y-57655500D01*
X73373321Y-57655500D01*
X73163271Y-57742506D01*
X73054550Y-57851228D01*
X72991748Y-57808836D01*
X72817000Y-57773792D01*
X72572015Y-57773792D01*
X65394112Y-50595888D01*
X65353123Y-50568500D01*
X65208704Y-50472003D01*
X65172418Y-50464785D01*
X64990000Y-50428499D01*
X64989995Y-50428500D01*
X52215125Y-50428500D01*
X51288146Y-49501521D01*
X51402920Y-49454097D01*
X51567701Y-49289603D01*
X57485804Y-49289603D01*
X57549686Y-49494691D01*
X58016918Y-49628240D01*
X58499691Y-49572821D01*
X58688314Y-49494691D01*
X58752196Y-49289603D01*
X58119000Y-48656408D01*
X57485804Y-49289603D01*
X51567701Y-49289603D01*
X51653218Y-49204236D01*
X51788846Y-48877609D01*
X51789154Y-48523943D01*
X51654097Y-48197080D01*
X51404236Y-47946782D01*
X51093340Y-47817686D01*
X57011309Y-47817686D01*
X56877760Y-48284918D01*
X56933179Y-48767691D01*
X57011309Y-48956314D01*
X57216397Y-49020196D01*
X57849592Y-48387000D01*
X58388408Y-48387000D01*
X59021603Y-49020196D01*
X59226691Y-48956314D01*
X59360240Y-48489082D01*
X59304821Y-48006309D01*
X59226691Y-47817686D01*
X59021603Y-47753804D01*
X58388408Y-48387000D01*
X57849592Y-48387000D01*
X57849592Y-48387000D01*
X57216397Y-47753804D01*
X57011309Y-47817686D01*
X51093340Y-47817686D01*
X51077609Y-47811154D01*
X50819152Y-47810929D01*
X50442724Y-47434500D01*
X50593625Y-47434500D01*
X50736500Y-47291625D01*
X50736500Y-46037500D01*
X50716500Y-46037500D01*
X50716500Y-45656500D01*
X50736500Y-45656500D01*
X50736500Y-44402375D01*
X50593625Y-44259500D01*
X50048724Y-44259500D01*
X51104109Y-43204114D01*
X51104112Y-43204112D01*
X51227997Y-43018704D01*
X51227998Y-43018703D01*
X51271501Y-42800000D01*
X51271500Y-42799995D01*
X51271500Y-38485637D01*
X51453218Y-38304236D01*
X51588846Y-37977609D01*
X51589052Y-37740696D01*
X52387500Y-38539144D01*
X52387500Y-44467278D01*
X52266729Y-44346506D01*
X52056679Y-44259500D01*
X51260375Y-44259500D01*
X51117500Y-44402375D01*
X51117500Y-45656500D01*
X51137500Y-45656500D01*
X51137500Y-46037500D01*
X51117500Y-46037500D01*
X51117500Y-47291625D01*
X51260375Y-47434500D01*
X52056679Y-47434500D01*
X52266729Y-47347494D01*
X52427494Y-47186728D01*
X52514500Y-46976678D01*
X52514500Y-46961949D01*
X52908091Y-47224939D01*
X53467000Y-47336113D01*
X54025909Y-47224939D01*
X54061468Y-47201179D01*
X57738309Y-47201179D01*
X57549686Y-47279309D01*
X57485804Y-47484397D01*
X58119000Y-48117592D01*
X58752196Y-47484397D01*
X58688314Y-47279309D01*
X58221082Y-47145760D01*
X57738309Y-47201179D01*
X54061468Y-47201179D01*
X54499729Y-46908342D01*
X54816326Y-46434522D01*
X54927500Y-45875613D01*
X54927500Y-45818387D01*
X54816326Y-45259478D01*
X54546500Y-44855656D01*
X54546500Y-38092000D01*
X54464328Y-37678893D01*
X54230322Y-37328678D01*
X50635322Y-33733678D01*
X50495083Y-33639973D01*
X50702920Y-33554097D01*
X50885836Y-33371500D01*
X52714189Y-33371500D01*
X52795764Y-33453218D01*
X53122391Y-33588846D01*
X53476057Y-33589154D01*
X53802920Y-33454097D01*
X54053218Y-33204236D01*
X54188846Y-32877609D01*
X54189154Y-32523943D01*
X54054097Y-32197080D01*
X53804236Y-31946782D01*
X53477609Y-31811154D01*
X53123943Y-31810846D01*
X52797080Y-31945903D01*
X52546782Y-32195764D01*
X52533189Y-32228500D01*
X50885637Y-32228500D01*
X50704236Y-32046782D01*
X50377609Y-31911154D01*
X50042508Y-31910862D01*
X51028870Y-30924500D01*
X70168856Y-30924500D01*
X72495676Y-33251319D01*
X72495678Y-33251322D01*
X72845893Y-33485328D01*
X73259000Y-33567500D01*
X73363856Y-33567500D01*
X72880116Y-34051240D01*
X70618500Y-34051240D01*
X70618500Y-33762315D01*
X70475625Y-33619440D01*
X69094500Y-33619440D01*
X69094500Y-33639440D01*
X68713500Y-33639440D01*
X68713500Y-33619440D01*
X67332375Y-33619440D01*
X67189500Y-33762315D01*
X67189500Y-34114118D01*
X67276506Y-34324168D01*
X67341833Y-34389495D01*
X67307792Y-34559240D01*
X67307792Y-35702240D01*
X67317155Y-35750500D01*
X66237208Y-35750500D01*
X66237208Y-32285940D01*
X67647321Y-32285940D01*
X67437271Y-32372946D01*
X67276506Y-32533712D01*
X67189500Y-32743762D01*
X67189500Y-33095565D01*
X67332375Y-33238440D01*
X68713500Y-33238440D01*
X68713500Y-32428815D01*
X68570625Y-32285940D01*
X69237375Y-32285940D01*
X68570625Y-32285940D01*
X68570625Y-32285940D01*
X69237375Y-32285940D01*
X69094500Y-32428815D01*
X69094500Y-33238440D01*
X70475625Y-33238440D01*
X70618500Y-33095565D01*
X70618500Y-32743762D01*
X70531494Y-32533712D01*
X70370729Y-32372946D01*
X70160679Y-32285940D01*
X69237375Y-32285940D01*
X68570625Y-32285940D01*
X68570625Y-32285940D01*
X67647321Y-32285940D01*
X66237208Y-32285940D01*
X66237208Y-31430000D01*
X66204324Y-31260514D01*
X66106471Y-31111551D01*
X65958748Y-31011836D01*
X65784000Y-30976792D01*
X55374000Y-30976792D01*
X55204514Y-31009676D01*
X55055551Y-31107529D01*
X54955836Y-31255252D01*
X54920792Y-31430000D01*
X54920792Y-42230000D01*
X54953676Y-42399486D01*
X55051529Y-42548449D01*
X55199252Y-42648164D01*
X55374000Y-42683208D01*
X65376148Y-42683208D01*
X62355678Y-45703678D01*
X62121672Y-46053893D01*
X62039500Y-46467000D01*
X62039500Y-47618779D01*
X62015792Y-47737000D01*
X62015792Y-49037000D01*
X62048676Y-49206486D01*
X62146529Y-49355449D01*
X62294252Y-49455164D01*
X62469000Y-49490208D01*
X63769000Y-49490208D01*
X63938486Y-49457324D01*
X64087449Y-49359471D01*
X64187164Y-49211748D01*
X64222208Y-49037000D01*
X64222208Y-47737000D01*
X64198500Y-47614808D01*
X64198500Y-46914144D01*
X66808440Y-44304204D01*
X67667558Y-45163322D01*
X68017773Y-45397328D01*
X68068851Y-45407488D01*
X68430880Y-45479501D01*
X68430885Y-45479500D01*
X69990726Y-45479500D01*
X70974548Y-46463322D01*
X71324763Y-46697328D01*
X71393303Y-46710961D01*
X71737870Y-46779501D01*
X71737875Y-46779500D01*
X85700000Y-46779500D01*
X85880984Y-46743500D01*
X88256233Y-46743500D01*
X88158318Y-46953625D01*
X88365499Y-47388094D01*
X88769151Y-47747200D01*
X89279500Y-47924500D01*
X89979500Y-47924500D01*
X89979500Y-46743500D01*
X88256233Y-46743500D01*
X85880984Y-46743500D01*
X86113107Y-46697328D01*
X86463322Y-46463322D01*
X87745144Y-45181500D01*
X89279500Y-45181500D01*
X88769151Y-45358800D01*
X88365499Y-45717906D01*
X88158318Y-46152375D01*
X88256233Y-46362500D01*
X89979500Y-46362500D01*
X89979500Y-45181500D01*
X89279500Y-45181500D01*
X87745144Y-45181500D01*
X87763322Y-45163322D01*
X87875197Y-44995889D01*
X87997328Y-44813107D01*
X88028564Y-44656074D01*
X88079501Y-44400000D01*
X88079500Y-44399995D01*
X88079500Y-40417144D01*
X90963319Y-37533324D01*
X90963322Y-37533322D01*
X91197328Y-37183107D01*
X91279500Y-36770000D01*
X91279500Y-35876590D01*
X91414345Y-35849768D01*
X91628500Y-35706674D01*
X91628500Y-39732277D01*
X89765888Y-41594888D01*
X89642003Y-41780296D01*
X89642003Y-41780297D01*
X89636393Y-41808500D01*
X89431905Y-41808500D01*
X88955655Y-41903232D01*
X88551911Y-42173006D01*
X88282137Y-42576750D01*
X88187405Y-43053000D01*
X88282137Y-43529250D01*
X88551911Y-43932994D01*
X88955655Y-44202768D01*
X89431905Y-44297500D01*
X90908095Y-44297500D01*
X91384345Y-44202768D01*
X91788089Y-43932994D01*
X92057863Y-43529250D01*
X92128500Y-43174134D01*
X92128500Y-46040850D01*
X91974501Y-45717906D01*
X91570849Y-45358800D01*
X91060500Y-45181500D01*
X90360500Y-45181500D01*
X90360500Y-46362500D01*
X90380500Y-46362500D01*
X90380500Y-46743500D01*
X90360500Y-46743500D01*
X90360500Y-47924500D01*
X90436276Y-47924500D01*
X89765888Y-48594888D01*
X89642003Y-48780296D01*
X89641665Y-48781995D01*
X89636393Y-48808500D01*
X89431905Y-48808500D01*
X88955655Y-48903232D01*
X88551911Y-49173006D01*
X88282137Y-49576750D01*
X88187405Y-50053000D01*
X88282137Y-50529250D01*
X88551911Y-50932994D01*
X88955655Y-51202768D01*
X89431905Y-51297500D01*
X90908095Y-51297500D01*
X91384345Y-51202768D01*
X91788089Y-50932994D01*
X92057863Y-50529250D01*
X92152595Y-50053000D01*
X92057863Y-49576750D01*
X91788089Y-49173006D01*
X91384345Y-48903232D01*
X91125483Y-48851741D01*
X93104109Y-46873114D01*
X93104112Y-46873112D01*
X93227997Y-46687704D01*
X93271500Y-46469000D01*
X93271500Y-29900000D01*
X93227997Y-29681296D01*
X93104112Y-29495888D01*
X93104109Y-29495886D01*
X91604112Y-27995888D01*
X91418704Y-27872003D01*
X91382418Y-27864785D01*
X91200000Y-27828499D01*
X91199995Y-27828500D01*
X88267714Y-27828500D01*
X88288846Y-27777609D01*
X88289154Y-27423943D01*
X88154097Y-27097080D01*
X87904236Y-26846782D01*
X87577609Y-26711154D01*
X87223943Y-26710846D01*
X86923462Y-26835002D01*
X87005102Y-26680669D01*
X86909540Y-26460500D01*
X85820500Y-26460500D01*
X85820500Y-26480500D01*
X85439500Y-26480500D01*
X85439500Y-26460500D01*
X85419500Y-26460500D01*
X85419500Y-26079500D01*
X85439500Y-26079500D01*
X85439500Y-26059500D01*
X85820500Y-26059500D01*
X85820500Y-26079500D01*
X86909540Y-26079500D01*
X87005102Y-25859331D01*
X86743272Y-25364363D01*
X86311957Y-25007270D01*
X86160153Y-24944399D01*
X86554966Y-24680593D01*
X86838527Y-24256215D01*
X86938100Y-23755627D01*
X86938100Y-23704373D01*
X86888816Y-23456604D01*
X89470683Y-23456604D01*
X89390647Y-23536500D01*
X89100000Y-23536500D01*
X89075700Y-23541334D01*
X89055099Y-23555099D01*
X89041334Y-23575700D01*
X89036500Y-23600000D01*
X89036500Y-23890028D01*
X88958402Y-23967990D01*
X88680817Y-24636491D01*
X88680185Y-25360333D01*
X88956604Y-26029317D01*
X89036500Y-26109353D01*
X89036500Y-26400000D01*
X89041334Y-26424300D01*
X89055099Y-26444901D01*
X89075700Y-26458666D01*
X89100000Y-26463500D01*
X89390028Y-26463500D01*
X89467990Y-26541598D01*
X90136491Y-26819183D01*
X90860333Y-26819815D01*
X91529317Y-26543396D01*
X91609353Y-26463500D01*
X91900000Y-26463500D01*
X91924300Y-26458666D01*
X91944901Y-26444901D01*
X91958666Y-26424300D01*
X91963500Y-26400000D01*
X91963500Y-26109972D01*
X92041598Y-26032010D01*
X92319183Y-25363509D01*
X92319815Y-24639667D01*
X92043396Y-23970683D01*
X91963500Y-23890647D01*
X91963500Y-23600000D01*
X91958666Y-23575700D01*
X91944901Y-23555099D01*
X91924300Y-23541334D01*
X91900000Y-23536500D01*
X91609972Y-23536500D01*
X91532010Y-23458402D01*
X90863509Y-23180817D01*
X90139667Y-23180185D01*
X89470683Y-23456604D01*
X86888816Y-23456604D01*
X86838527Y-23203785D01*
X86554966Y-22779407D01*
X86130588Y-22495846D01*
X85630000Y-22396273D01*
X85129412Y-22495846D01*
X84705034Y-22779407D01*
X84421473Y-23203785D01*
X84360000Y-23512831D01*
X84298527Y-23203785D01*
X84014966Y-22779407D01*
X83590588Y-22495846D01*
X83090000Y-22396273D01*
X82589412Y-22495846D01*
X82165034Y-22779407D01*
X81881473Y-23203785D01*
X81820000Y-23512831D01*
X81758527Y-23203785D01*
X81474966Y-22779407D01*
X81050588Y-22495846D01*
X80550000Y-22396273D01*
X80111683Y-22483460D01*
X79147724Y-21519500D01*
X90948834Y-21519500D01*
X91945352Y-21717719D01*
X91945352Y-21717719D01*
G37*
X91945352Y-21717719D02*
X92746782Y-22253218D01*
X93282281Y-23054648D01*
X93480500Y-24051167D01*
X93480500Y-74448833D01*
X93282281Y-75445352D01*
X92746782Y-76246782D01*
X91945352Y-76782281D01*
X90948834Y-76980500D01*
X32051167Y-76980500D01*
X31054648Y-76782281D01*
X30253218Y-76246782D01*
X29717719Y-75445352D01*
X29519500Y-74448834D01*
X29519500Y-72456604D01*
X31470683Y-72456604D01*
X31390647Y-72536500D01*
X31100000Y-72536500D01*
X31075700Y-72541334D01*
X31055099Y-72555099D01*
X31041334Y-72575700D01*
X31036500Y-72600000D01*
X31036500Y-72890028D01*
X30958402Y-72967990D01*
X30680817Y-73636491D01*
X30680185Y-74360333D01*
X30956604Y-75029317D01*
X31036500Y-75109353D01*
X31036500Y-75400000D01*
X31041334Y-75424300D01*
X31055099Y-75444901D01*
X31075700Y-75458666D01*
X31100000Y-75463500D01*
X31390028Y-75463500D01*
X31467990Y-75541598D01*
X32136491Y-75819183D01*
X32860333Y-75819815D01*
X33529317Y-75543396D01*
X33609353Y-75463500D01*
X33900000Y-75463500D01*
X33924300Y-75458666D01*
X33944901Y-75444901D01*
X33958666Y-75424300D01*
X33963500Y-75400000D01*
X89036500Y-75400000D01*
X33963500Y-75400000D01*
X33963500Y-75400000D01*
X89036500Y-75400000D01*
X89041334Y-75424300D01*
X89055099Y-75444901D01*
X89075700Y-75458666D01*
X89100000Y-75463500D01*
X89390028Y-75463500D01*
X89467990Y-75541598D01*
X90136491Y-75819183D01*
X90860333Y-75819815D01*
X91529317Y-75543396D01*
X91609353Y-75463500D01*
X91900000Y-75463500D01*
X91924300Y-75458666D01*
X91944901Y-75444901D01*
X91958666Y-75424300D01*
X91963500Y-75400000D01*
X91963500Y-75109972D01*
X92041598Y-75032010D01*
X92319183Y-74363509D01*
X92319815Y-73639667D01*
X92043396Y-72970683D01*
X91963500Y-72890647D01*
X91963500Y-72600000D01*
X91958666Y-72575700D01*
X91944901Y-72555099D01*
X91924300Y-72541334D01*
X91900000Y-72536500D01*
X91609972Y-72536500D01*
X91532010Y-72458402D01*
X90863509Y-72180817D01*
X90139667Y-72180185D01*
X89470683Y-72456604D01*
X83103500Y-72456604D01*
X83103500Y-72413905D01*
X83008768Y-71937655D01*
X82738994Y-71533911D01*
X82621000Y-71455070D01*
X82621000Y-71332630D01*
X86210130Y-67743500D01*
X88256233Y-67743500D01*
X88158318Y-67953625D01*
X88365499Y-68388094D01*
X88769151Y-68747200D01*
X89279500Y-68924500D01*
X89979500Y-68924500D01*
X89979500Y-67743500D01*
X90360500Y-67743500D01*
X90360500Y-68924500D01*
X91060500Y-68924500D01*
X91570849Y-68747200D01*
X91974501Y-68388094D01*
X92181682Y-67953625D01*
X92083767Y-67743500D01*
X90360500Y-67743500D01*
X89979500Y-67743500D01*
X89979500Y-67743500D01*
X88256233Y-67743500D01*
X86210130Y-67743500D01*
X87738816Y-66214815D01*
X87761076Y-66181500D01*
X89279500Y-66181500D01*
X88769151Y-66358800D01*
X88365499Y-66717906D01*
X88158318Y-67152375D01*
X88256233Y-67362500D01*
X89979500Y-67362500D01*
X89979500Y-66181500D01*
X90360500Y-66181500D01*
X90360500Y-67362500D01*
X92083767Y-67362500D01*
X92181682Y-67152375D01*
X91974501Y-66717906D01*
X91570849Y-66358800D01*
X91060500Y-66181500D01*
X90360500Y-66181500D01*
X89979500Y-66181500D01*
X89979500Y-66181500D01*
X89279500Y-66181500D01*
X87761076Y-66181500D01*
X87837834Y-66066623D01*
X87903996Y-65967605D01*
X87962000Y-65676000D01*
X87962000Y-62808500D01*
X89431905Y-62808500D01*
X88955655Y-62903232D01*
X88551911Y-63173006D01*
X88282137Y-63576750D01*
X88187405Y-64053000D01*
X88282137Y-64529250D01*
X88551911Y-64932994D01*
X88955655Y-65202768D01*
X89431905Y-65297500D01*
X90908095Y-65297500D01*
X91384345Y-65202768D01*
X91788089Y-64932994D01*
X92057863Y-64529250D01*
X92152595Y-64053000D01*
X92057863Y-63576750D01*
X91788089Y-63173006D01*
X91384345Y-62903232D01*
X90908095Y-62808500D01*
X89431905Y-62808500D01*
X87962000Y-62808500D01*
X87962000Y-60743500D01*
X88256233Y-60743500D01*
X88158318Y-60953625D01*
X88365499Y-61388094D01*
X88769151Y-61747200D01*
X89279500Y-61924500D01*
X89979500Y-61924500D01*
X89979500Y-60743500D01*
X90360500Y-60743500D01*
X90360500Y-61924500D01*
X91060500Y-61924500D01*
X91570849Y-61747200D01*
X91974501Y-61388094D01*
X92181682Y-60953625D01*
X92083767Y-60743500D01*
X90360500Y-60743500D01*
X89979500Y-60743500D01*
X89979500Y-60743500D01*
X88256233Y-60743500D01*
X87962000Y-60743500D01*
X87962000Y-59181500D01*
X89279500Y-59181500D01*
X88769151Y-59358800D01*
X88365499Y-59717906D01*
X88158318Y-60152375D01*
X88256233Y-60362500D01*
X89979500Y-60362500D01*
X89979500Y-59181500D01*
X90360500Y-59181500D01*
X89979500Y-59181500D01*
X89979500Y-59181500D01*
X90360500Y-59181500D01*
X90360500Y-60362500D01*
X92083767Y-60362500D01*
X92181682Y-60152375D01*
X91974501Y-59717906D01*
X91570849Y-59358800D01*
X91060500Y-59181500D01*
X90360500Y-59181500D01*
X89979500Y-59181500D01*
X89979500Y-59181500D01*
X89279500Y-59181500D01*
X87962000Y-59181500D01*
X87962000Y-55808500D01*
X89431905Y-55808500D01*
X88955655Y-55903232D01*
X88551911Y-56173006D01*
X88282137Y-56576750D01*
X88187405Y-57053000D01*
X88282137Y-57529250D01*
X88551911Y-57932994D01*
X88955655Y-58202768D01*
X89431905Y-58297500D01*
X90908095Y-58297500D01*
X91384345Y-58202768D01*
X91788089Y-57932994D01*
X92057863Y-57529250D01*
X92152595Y-57053000D01*
X92057863Y-56576750D01*
X91788089Y-56173006D01*
X91384345Y-55903232D01*
X90908095Y-55808500D01*
X89431905Y-55808500D01*
X87962000Y-55808500D01*
X87962000Y-53743500D01*
X88256233Y-53743500D01*
X88158318Y-53953625D01*
X88365499Y-54388094D01*
X88769151Y-54747200D01*
X89279500Y-54924500D01*
X89979500Y-54924500D01*
X89979500Y-53743500D01*
X90360500Y-53743500D01*
X90360500Y-54924500D01*
X91060500Y-54924500D01*
X91570849Y-54747200D01*
X91974501Y-54388094D01*
X92181682Y-53953625D01*
X92083767Y-53743500D01*
X90360500Y-53743500D01*
X89979500Y-53743500D01*
X89979500Y-53743500D01*
X88256233Y-53743500D01*
X87962000Y-53743500D01*
X87962000Y-52181500D01*
X89279500Y-52181500D01*
X88769151Y-52358800D01*
X88365499Y-52717906D01*
X88158318Y-53152375D01*
X88256233Y-53362500D01*
X89979500Y-53362500D01*
X89979500Y-52181500D01*
X90360500Y-52181500D01*
X90360500Y-53362500D01*
X92083767Y-53362500D01*
X92181682Y-53152375D01*
X91974501Y-52717906D01*
X91570849Y-52358800D01*
X91060500Y-52181500D01*
X90360500Y-52181500D01*
X89979500Y-52181500D01*
X89979500Y-52181500D01*
X89279500Y-52181500D01*
X87962000Y-52181500D01*
X87962000Y-51600000D01*
X87903996Y-51308395D01*
X87833418Y-51202768D01*
X87738815Y-51061184D01*
X84538815Y-47861185D01*
X84473714Y-47817686D01*
X84291605Y-47696004D01*
X84000000Y-47638000D01*
X78686360Y-47638000D01*
X78435557Y-47687888D01*
X78394755Y-47696004D01*
X78147544Y-47861185D01*
X76771165Y-49237565D01*
X76605984Y-49484775D01*
X76547980Y-49776380D01*
X76547980Y-49958172D01*
X75559920Y-49958172D01*
X75390434Y-49991056D01*
X75241471Y-50088909D01*
X75141756Y-50236632D01*
X75106712Y-50411380D01*
X75106712Y-52712620D01*
X75139596Y-52882106D01*
X75237449Y-53031069D01*
X75385172Y-53130784D01*
X75559920Y-53165828D01*
X76547980Y-53165828D01*
X76547980Y-55107980D01*
X76605984Y-55399585D01*
X76758941Y-55628500D01*
X76771165Y-55646795D01*
X77004559Y-55880189D01*
X76952185Y-55915184D01*
X76677185Y-56190185D01*
X76512004Y-56437395D01*
X76454000Y-56729000D01*
X76454000Y-57773792D01*
X76027000Y-57773792D01*
X75857514Y-57806676D01*
X75789546Y-57851324D01*
X75680729Y-57742506D01*
X75470679Y-57655500D01*
X75349875Y-57655500D01*
X75207000Y-57798375D01*
X75207000Y-58786500D01*
X75267500Y-58786500D01*
X75267500Y-59167500D01*
X75207000Y-59167500D01*
X75207000Y-60155625D01*
X75349875Y-60298500D01*
X75470679Y-60298500D01*
X75680729Y-60211494D01*
X75789450Y-60102772D01*
X75852252Y-60145164D01*
X76027000Y-60180208D01*
X76627000Y-60180208D01*
X76796486Y-60147324D01*
X76945449Y-60049471D01*
X77045164Y-59901748D01*
X77080208Y-59727000D01*
X77080208Y-58853839D01*
X77185184Y-58958815D01*
X77334839Y-59058811D01*
X77432395Y-59123996D01*
X77724000Y-59182000D01*
X78067778Y-59182000D01*
X78318099Y-59132208D01*
X78743569Y-59132208D01*
X75582276Y-62293500D01*
X73914005Y-62293500D01*
X73914000Y-62293499D01*
X73695297Y-62337002D01*
X73643667Y-62371500D01*
X73509888Y-62460888D01*
X73509886Y-62460891D01*
X71858888Y-64111888D01*
X71735003Y-64297296D01*
X71735003Y-64297297D01*
X71691499Y-64516000D01*
X71691500Y-64516005D01*
X71691500Y-66103500D01*
X71678637Y-66103500D01*
X71516405Y-65940985D01*
X71553218Y-65904236D01*
X71688846Y-65577609D01*
X71689154Y-65223943D01*
X71554097Y-64897080D01*
X71304236Y-64646782D01*
X70977609Y-64511154D01*
X70623943Y-64510846D01*
X70297080Y-64645903D01*
X70114164Y-64828500D01*
X69864000Y-64828500D01*
X69645296Y-64872003D01*
X69459888Y-64995888D01*
X69459886Y-64995891D01*
X67381984Y-67073792D01*
X67137000Y-67073792D01*
X66967514Y-67106676D01*
X66818551Y-67204529D01*
X66718836Y-67352252D01*
X66683792Y-67527000D01*
X66683792Y-69027000D01*
X66716676Y-69196486D01*
X66814529Y-69345449D01*
X66962252Y-69445164D01*
X67137000Y-69480208D01*
X67381984Y-69480208D01*
X70147878Y-72246101D01*
X70114500Y-72413905D01*
X70114500Y-73890095D01*
X70209232Y-74366345D01*
X70479006Y-74770089D01*
X70882750Y-75039863D01*
X71359000Y-75134595D01*
X71835250Y-75039863D01*
X72238994Y-74770089D01*
X72508768Y-74366345D01*
X72603500Y-73890095D01*
X72603500Y-72758723D01*
X73400886Y-73556109D01*
X73400888Y-73556112D01*
X73521184Y-73636491D01*
X73586297Y-73679998D01*
X73614500Y-73685608D01*
X73614500Y-73890095D01*
X73709232Y-74366345D01*
X73979006Y-74770089D01*
X74382750Y-75039863D01*
X74859000Y-75134595D01*
X75335250Y-75039863D01*
X75738994Y-74770089D01*
X76008768Y-74366345D01*
X76103500Y-73890095D01*
X76103500Y-72413905D01*
X76008768Y-71937655D01*
X75738994Y-71533911D01*
X75335250Y-71264137D01*
X74929860Y-71183500D01*
X77336276Y-71183500D01*
X77603502Y-71450725D01*
X77479006Y-71533911D01*
X77209232Y-71937655D01*
X77114500Y-72413905D01*
X77114500Y-73890095D01*
X77209232Y-74366345D01*
X77479006Y-74770089D01*
X77882750Y-75039863D01*
X78359000Y-75134595D01*
X78835250Y-75039863D01*
X79238994Y-74770089D01*
X79508768Y-74366345D01*
X79603500Y-73890095D01*
X79603500Y-72413905D01*
X79508768Y-71937655D01*
X79238994Y-71533911D01*
X78914392Y-71317018D01*
X78886997Y-71179297D01*
X78886997Y-71179296D01*
X78763112Y-70993888D01*
X78763109Y-70993886D01*
X77977112Y-70207888D01*
X77791704Y-70084003D01*
X77755418Y-70076785D01*
X77573000Y-70040499D01*
X77572995Y-70040500D01*
X73368723Y-70040500D01*
X72808431Y-69480208D01*
X72817000Y-69480208D01*
X72986486Y-69447324D01*
X73135449Y-69349471D01*
X73151526Y-69325654D01*
X73164529Y-69345449D01*
X73312252Y-69445164D01*
X73487000Y-69480208D01*
X74087000Y-69480208D01*
X74256486Y-69447324D01*
X74405449Y-69349471D01*
X74421526Y-69325654D01*
X74434529Y-69345449D01*
X74582252Y-69445164D01*
X74757000Y-69480208D01*
X75357000Y-69480208D01*
X75526486Y-69447324D01*
X75675449Y-69349471D01*
X75691526Y-69325654D01*
X75704529Y-69345449D01*
X75852252Y-69445164D01*
X76027000Y-69480208D01*
X76627000Y-69480208D01*
X76796486Y-69447324D01*
X76945449Y-69349471D01*
X77045164Y-69201748D01*
X77080208Y-69027000D01*
X77080208Y-67527000D01*
X77047324Y-67357514D01*
X76949471Y-67208551D01*
X76801748Y-67108836D01*
X76627000Y-67073792D01*
X76382015Y-67073792D01*
X75279724Y-65971500D01*
X79599995Y-65971500D01*
X79600000Y-65971501D01*
X79782418Y-65935215D01*
X79818704Y-65927997D01*
X80004112Y-65804112D01*
X85104109Y-60704114D01*
X85104112Y-60704112D01*
X85227997Y-60518704D01*
X85250791Y-60404112D01*
X85271501Y-60300000D01*
X85271500Y-60299995D01*
X85271500Y-57400005D01*
X85271501Y-57400000D01*
X85227998Y-57181297D01*
X85180924Y-57110846D01*
X85104112Y-56995888D01*
X85104109Y-56995886D01*
X84579724Y-56471500D01*
X84658995Y-56471500D01*
X84659000Y-56471501D01*
X84841418Y-56435215D01*
X84877704Y-56427997D01*
X85063112Y-56304112D01*
X86236109Y-55131114D01*
X86236112Y-55131112D01*
X86359997Y-54945704D01*
X86359998Y-54945703D01*
X86363876Y-54926208D01*
X86438000Y-54926208D01*
X86438000Y-65360369D01*
X81320185Y-70478185D01*
X81155004Y-70725395D01*
X81097000Y-71017000D01*
X81097000Y-71455070D01*
X80979006Y-71533911D01*
X80709232Y-71937655D01*
X80614500Y-72413905D01*
X80614500Y-73890095D01*
X80709232Y-74366345D01*
X80979006Y-74770089D01*
X81382750Y-75039863D01*
X81859000Y-75134595D01*
X82335250Y-75039863D01*
X82738994Y-74770089D01*
X83008768Y-74366345D01*
X83103500Y-73890095D01*
X83103500Y-72456604D01*
X89470683Y-72456604D01*
X83103500Y-72456604D01*
X83103500Y-72456604D01*
X89470683Y-72456604D01*
X89390647Y-72536500D01*
X89100000Y-72536500D01*
X89075700Y-72541334D01*
X89055099Y-72555099D01*
X89041334Y-72575700D01*
X89036500Y-72600000D01*
X89036500Y-72890028D01*
X88958402Y-72967990D01*
X88680817Y-73636491D01*
X88680185Y-74360333D01*
X88956604Y-75029317D01*
X89036500Y-75109353D01*
X89036500Y-75400000D01*
X33963500Y-75400000D01*
X33963500Y-75400000D01*
X33963500Y-75163682D01*
X42215375Y-75163682D01*
X42425500Y-75065767D01*
X42425500Y-73342500D01*
X42806500Y-73342500D01*
X42806500Y-75065767D01*
X43016625Y-75163682D01*
X49215375Y-75163682D01*
X49425500Y-75065767D01*
X49425500Y-73342500D01*
X49806500Y-73342500D01*
X49425500Y-73342500D01*
X49425500Y-73342500D01*
X49806500Y-73342500D01*
X49806500Y-75065767D01*
X50016625Y-75163682D01*
X56215375Y-75163682D01*
X50016625Y-75163682D01*
X50016625Y-75163682D01*
X56215375Y-75163682D01*
X56425500Y-75065767D01*
X56425500Y-73342500D01*
X56806500Y-73342500D01*
X56806500Y-75065767D01*
X57016625Y-75163682D01*
X63215375Y-75163682D01*
X57016625Y-75163682D01*
X57016625Y-75163682D01*
X63215375Y-75163682D01*
X63425500Y-75065767D01*
X63425500Y-73342500D01*
X63806500Y-73342500D01*
X63806500Y-75065767D01*
X64016625Y-75163682D01*
X64451094Y-74956501D01*
X64810200Y-74552849D01*
X64987500Y-74042500D01*
X64987500Y-73342500D01*
X63806500Y-73342500D01*
X63425500Y-73342500D01*
X63425500Y-73342500D01*
X62244500Y-73342500D01*
X61360500Y-73342500D01*
X61360500Y-72413905D01*
X61265768Y-71937655D01*
X60995994Y-71533911D01*
X60717010Y-71347499D01*
X62780906Y-71347499D01*
X62421800Y-71751151D01*
X62244500Y-72261500D01*
X62244500Y-72961500D01*
X63425500Y-72961500D01*
X63425500Y-71238233D01*
X63806500Y-71238233D01*
X63806500Y-72961500D01*
X64987500Y-72961500D01*
X64987500Y-72261500D01*
X64810200Y-71751151D01*
X64451094Y-71347499D01*
X64016625Y-71140318D01*
X63806500Y-71238233D01*
X63425500Y-71238233D01*
X63425500Y-71238233D01*
X63215375Y-71140318D01*
X62780906Y-71347499D01*
X60717010Y-71347499D01*
X60687500Y-71327781D01*
X60687500Y-68927433D01*
X60758164Y-68822748D01*
X60765221Y-68787560D01*
X60841506Y-68971728D01*
X61002271Y-69132494D01*
X61212321Y-69219500D01*
X61642625Y-69219500D01*
X61785500Y-69076625D01*
X61785500Y-68088500D01*
X62166500Y-68088500D01*
X62166500Y-69076625D01*
X62309375Y-69219500D01*
X62739679Y-69219500D01*
X62949729Y-69132494D01*
X63110494Y-68971728D01*
X63197500Y-68761678D01*
X63197500Y-68231375D01*
X63054625Y-68088500D01*
X62166500Y-68088500D01*
X61785500Y-68088500D01*
X61785500Y-68088500D01*
X61765500Y-68088500D01*
X61765500Y-67707500D01*
X61785500Y-67707500D01*
X61785500Y-66719375D01*
X61642625Y-66576500D01*
X62309375Y-66576500D01*
X62166500Y-66719375D01*
X62166500Y-67707500D01*
X63054625Y-67707500D01*
X63197500Y-67564625D01*
X63197500Y-67034322D01*
X63110494Y-66824272D01*
X62949729Y-66663506D01*
X62739679Y-66576500D01*
X62309375Y-66576500D01*
X61642625Y-66576500D01*
X61642625Y-66576500D01*
X61212321Y-66576500D01*
X61002271Y-66663506D01*
X60841506Y-66824272D01*
X60765840Y-67006945D01*
X60760324Y-66978514D01*
X60662471Y-66829551D01*
X60514748Y-66729836D01*
X60340000Y-66694792D01*
X59040000Y-66694792D01*
X58870514Y-66727676D01*
X58721551Y-66825529D01*
X58621836Y-66973252D01*
X58586792Y-67148000D01*
X58586792Y-68648000D01*
X58619676Y-68817486D01*
X58717529Y-68966449D01*
X58865252Y-69066164D01*
X59040000Y-69101208D01*
X59544500Y-69101208D01*
X59544500Y-71327781D01*
X59236006Y-71533911D01*
X58966232Y-71937655D01*
X58871500Y-72413905D01*
X58871500Y-73890095D01*
X58966232Y-74366345D01*
X59236006Y-74770089D01*
X59639750Y-75039863D01*
X60116000Y-75134595D01*
X60592250Y-75039863D01*
X60995994Y-74770089D01*
X61265768Y-74366345D01*
X61360500Y-73890095D01*
X61360500Y-73342500D01*
X62244500Y-73342500D01*
X61360500Y-73342500D01*
X61360500Y-73342500D01*
X62244500Y-73342500D01*
X62244500Y-74042500D01*
X62421800Y-74552849D01*
X62780906Y-74956501D01*
X63215375Y-75163682D01*
X57016625Y-75163682D01*
X57016625Y-75163682D01*
X57451094Y-74956501D01*
X57810200Y-74552849D01*
X57987500Y-74042500D01*
X57987500Y-73342500D01*
X56806500Y-73342500D01*
X56425500Y-73342500D01*
X56425500Y-73342500D01*
X55244500Y-73342500D01*
X54360500Y-73342500D01*
X54360500Y-72413905D01*
X54265768Y-71937655D01*
X53995994Y-71533911D01*
X53717010Y-71347499D01*
X55780906Y-71347499D01*
X55421800Y-71751151D01*
X55244500Y-72261500D01*
X55244500Y-72961500D01*
X56425500Y-72961500D01*
X56425500Y-71238233D01*
X56806500Y-71238233D01*
X56806500Y-72961500D01*
X57987500Y-72961500D01*
X57987500Y-72261500D01*
X57810200Y-71751151D01*
X57451094Y-71347499D01*
X57016625Y-71140318D01*
X56806500Y-71238233D01*
X56425500Y-71238233D01*
X56425500Y-71238233D01*
X56215375Y-71140318D01*
X55780906Y-71347499D01*
X53717010Y-71347499D01*
X53687500Y-71327781D01*
X53687500Y-69101208D01*
X53736000Y-69101208D01*
X53905486Y-69068324D01*
X54054449Y-68970471D01*
X54154164Y-68822748D01*
X54161221Y-68787560D01*
X54237506Y-68971728D01*
X54398271Y-69132494D01*
X54608321Y-69219500D01*
X55038625Y-69219500D01*
X55181500Y-69076625D01*
X55181500Y-68088500D01*
X55562500Y-68088500D01*
X55562500Y-69076625D01*
X55705375Y-69219500D01*
X56135679Y-69219500D01*
X56345729Y-69132494D01*
X56506494Y-68971728D01*
X56593500Y-68761678D01*
X56593500Y-68231375D01*
X56450625Y-68088500D01*
X55562500Y-68088500D01*
X55181500Y-68088500D01*
X55181500Y-68088500D01*
X55161500Y-68088500D01*
X55161500Y-67707500D01*
X55181500Y-67707500D01*
X55181500Y-66719375D01*
X55038625Y-66576500D01*
X55705375Y-66576500D01*
X55562500Y-66719375D01*
X55562500Y-67707500D01*
X56450625Y-67707500D01*
X56593500Y-67564625D01*
X56593500Y-67034322D01*
X56506494Y-66824272D01*
X56345729Y-66663506D01*
X56135679Y-66576500D01*
X55705375Y-66576500D01*
X55038625Y-66576500D01*
X55038625Y-66576500D01*
X54608321Y-66576500D01*
X54398271Y-66663506D01*
X54237506Y-66824272D01*
X54161840Y-67006945D01*
X54156324Y-66978514D01*
X54058471Y-66829551D01*
X53910748Y-66729836D01*
X53736000Y-66694792D01*
X52436000Y-66694792D01*
X52266514Y-66727676D01*
X52117551Y-66825529D01*
X52017836Y-66973252D01*
X51982792Y-67148000D01*
X51982792Y-68648000D01*
X52015676Y-68817486D01*
X52113529Y-68966449D01*
X52261252Y-69066164D01*
X52436000Y-69101208D01*
X52544500Y-69101208D01*
X52544500Y-71327781D01*
X52236006Y-71533911D01*
X51966232Y-71937655D01*
X51871500Y-72413905D01*
X51871500Y-73890095D01*
X51966232Y-74366345D01*
X52236006Y-74770089D01*
X52639750Y-75039863D01*
X53116000Y-75134595D01*
X53592250Y-75039863D01*
X53995994Y-74770089D01*
X54265768Y-74366345D01*
X54360500Y-73890095D01*
X54360500Y-73342500D01*
X55244500Y-73342500D01*
X54360500Y-73342500D01*
X54360500Y-73342500D01*
X55244500Y-73342500D01*
X55244500Y-74042500D01*
X55421800Y-74552849D01*
X55780906Y-74956501D01*
X56215375Y-75163682D01*
X50016625Y-75163682D01*
X50016625Y-75163682D01*
X50451094Y-74956501D01*
X50810200Y-74552849D01*
X50987500Y-74042500D01*
X50987500Y-73342500D01*
X49806500Y-73342500D01*
X49425500Y-73342500D01*
X49425500Y-73342500D01*
X48244500Y-73342500D01*
X47360500Y-73342500D01*
X47360500Y-72413905D01*
X47265768Y-71937655D01*
X46995994Y-71533911D01*
X46717010Y-71347499D01*
X48780906Y-71347499D01*
X48421800Y-71751151D01*
X48244500Y-72261500D01*
X48244500Y-72961500D01*
X49425500Y-72961500D01*
X49425500Y-71238233D01*
X49806500Y-71238233D01*
X49425500Y-71238233D01*
X49425500Y-71238233D01*
X49806500Y-71238233D01*
X49806500Y-72961500D01*
X50987500Y-72961500D01*
X50987500Y-72261500D01*
X50810200Y-71751151D01*
X50451094Y-71347499D01*
X50016625Y-71140318D01*
X49806500Y-71238233D01*
X49425500Y-71238233D01*
X49425500Y-71238233D01*
X49215375Y-71140318D01*
X48780906Y-71347499D01*
X46717010Y-71347499D01*
X46687500Y-71327781D01*
X46687500Y-69355208D01*
X47132000Y-69355208D01*
X47301486Y-69322324D01*
X47450449Y-69224471D01*
X47550164Y-69076748D01*
X47585208Y-68902000D01*
X47585208Y-68342500D01*
X47816375Y-68342500D01*
X47673500Y-68485375D01*
X47673500Y-69015678D01*
X47760506Y-69225728D01*
X47921271Y-69386494D01*
X48131321Y-69473500D01*
X48561625Y-69473500D01*
X48704500Y-69330625D01*
X48704500Y-68342500D01*
X49085500Y-68342500D01*
X49085500Y-69330625D01*
X49228375Y-69473500D01*
X49658679Y-69473500D01*
X49868729Y-69386494D01*
X50029494Y-69225728D01*
X50116500Y-69015678D01*
X50116500Y-68485375D01*
X49973625Y-68342500D01*
X49085500Y-68342500D01*
X48704500Y-68342500D01*
X48704500Y-68342500D01*
X47816375Y-68342500D01*
X47585208Y-68342500D01*
X47585208Y-67402000D01*
X47552324Y-67232514D01*
X47454471Y-67083551D01*
X47446651Y-67078272D01*
X47760506Y-67078272D01*
X47673500Y-67288322D01*
X47673500Y-67818625D01*
X47816375Y-67961500D01*
X48704500Y-67961500D01*
X48704500Y-66973375D01*
X48561625Y-66830500D01*
X49228375Y-66830500D01*
X49085500Y-66973375D01*
X49085500Y-67961500D01*
X49973625Y-67961500D01*
X50116500Y-67818625D01*
X50116500Y-67288322D01*
X50029494Y-67078272D01*
X49868729Y-66917506D01*
X49658679Y-66830500D01*
X49228375Y-66830500D01*
X48561625Y-66830500D01*
X48561625Y-66830500D01*
X48131321Y-66830500D01*
X42546679Y-66830500D01*
X42546679Y-66830500D01*
X42116375Y-66830500D01*
X41973500Y-66973375D01*
X41973500Y-67961500D01*
X42861625Y-67961500D01*
X43004500Y-67818625D01*
X43004500Y-67288322D01*
X42917494Y-67078272D01*
X42756729Y-66917506D01*
X42546679Y-66830500D01*
X48131321Y-66830500D01*
X42546679Y-66830500D01*
X42546679Y-66830500D01*
X48131321Y-66830500D01*
X47921271Y-66917506D01*
X47760506Y-67078272D01*
X47446651Y-67078272D01*
X47306748Y-66983836D01*
X47132000Y-66948792D01*
X45832000Y-66948792D01*
X45662514Y-66981676D01*
X45513551Y-67079529D01*
X45413836Y-67227252D01*
X45378792Y-67402000D01*
X45378792Y-68902000D01*
X45411676Y-69071486D01*
X45509529Y-69220449D01*
X45544500Y-69244055D01*
X45544500Y-71327781D01*
X45236006Y-71533911D01*
X44966232Y-71937655D01*
X44871500Y-72413905D01*
X44871500Y-73890095D01*
X44966232Y-74366345D01*
X45236006Y-74770089D01*
X45639750Y-75039863D01*
X46116000Y-75134595D01*
X46592250Y-75039863D01*
X46995994Y-74770089D01*
X47265768Y-74366345D01*
X47360500Y-73890095D01*
X47360500Y-73342500D01*
X48244500Y-73342500D01*
X47360500Y-73342500D01*
X47360500Y-73342500D01*
X48244500Y-73342500D01*
X48244500Y-74042500D01*
X48421800Y-74552849D01*
X48780906Y-74956501D01*
X49215375Y-75163682D01*
X43016625Y-75163682D01*
X43016625Y-75163682D01*
X43451094Y-74956501D01*
X43810200Y-74552849D01*
X43987500Y-74042500D01*
X43987500Y-73342500D01*
X42806500Y-73342500D01*
X42425500Y-73342500D01*
X42425500Y-73342500D01*
X41244500Y-73342500D01*
X40360500Y-73342500D01*
X40360500Y-72413905D01*
X40265768Y-71937655D01*
X39995994Y-71533911D01*
X39717010Y-71347499D01*
X41780906Y-71347499D01*
X41421800Y-71751151D01*
X41244500Y-72261500D01*
X41244500Y-72961500D01*
X42425500Y-72961500D01*
X42425500Y-71238233D01*
X42806500Y-71238233D01*
X42425500Y-71238233D01*
X42425500Y-71238233D01*
X42806500Y-71238233D01*
X42806500Y-72961500D01*
X43987500Y-72961500D01*
X43987500Y-72261500D01*
X43810200Y-71751151D01*
X43451094Y-71347499D01*
X43016625Y-71140318D01*
X42806500Y-71238233D01*
X42425500Y-71238233D01*
X42425500Y-71238233D01*
X42215375Y-71140318D01*
X41780906Y-71347499D01*
X39717010Y-71347499D01*
X39687500Y-71327781D01*
X39687500Y-69355208D01*
X40020000Y-69355208D01*
X40189486Y-69322324D01*
X40338449Y-69224471D01*
X40438164Y-69076748D01*
X40473208Y-68902000D01*
X40473208Y-68342500D01*
X40704375Y-68342500D01*
X40561500Y-68485375D01*
X40561500Y-69015678D01*
X40648506Y-69225728D01*
X40809271Y-69386494D01*
X41019321Y-69473500D01*
X41449625Y-69473500D01*
X41592500Y-69330625D01*
X41592500Y-68342500D01*
X41973500Y-68342500D01*
X41973500Y-69330625D01*
X42116375Y-69473500D01*
X42546679Y-69473500D01*
X42756729Y-69386494D01*
X42917494Y-69225728D01*
X43004500Y-69015678D01*
X43004500Y-68485375D01*
X42861625Y-68342500D01*
X41973500Y-68342500D01*
X41592500Y-68342500D01*
X41592500Y-68342500D01*
X40704375Y-68342500D01*
X40473208Y-68342500D01*
X40473208Y-67402000D01*
X40440324Y-67232514D01*
X40342471Y-67083551D01*
X40194748Y-66983836D01*
X40020000Y-66948792D01*
X38720000Y-66948792D01*
X38550514Y-66981676D01*
X38401551Y-67079529D01*
X38301836Y-67227252D01*
X38266792Y-67402000D01*
X38266792Y-68902000D01*
X38299676Y-69071486D01*
X38397529Y-69220449D01*
X38544500Y-69319656D01*
X38544500Y-71327781D01*
X38236006Y-71533911D01*
X37966232Y-71937655D01*
X37871500Y-72413905D01*
X37871500Y-73890095D01*
X37966232Y-74366345D01*
X38236006Y-74770089D01*
X38639750Y-75039863D01*
X39116000Y-75134595D01*
X39592250Y-75039863D01*
X39995994Y-74770089D01*
X40265768Y-74366345D01*
X40360500Y-73890095D01*
X40360500Y-73342500D01*
X41244500Y-73342500D01*
X40360500Y-73342500D01*
X40360500Y-73342500D01*
X41244500Y-73342500D01*
X41244500Y-74042500D01*
X41421800Y-74552849D01*
X41780906Y-74956501D01*
X42215375Y-75163682D01*
X33963500Y-75163682D01*
X33963500Y-75109972D01*
X34041598Y-75032010D01*
X34319183Y-74363509D01*
X34319815Y-73639667D01*
X34043396Y-72970683D01*
X33963500Y-72890647D01*
X33963500Y-72600000D01*
X33958666Y-72575700D01*
X33944901Y-72555099D01*
X33924300Y-72541334D01*
X33900000Y-72536500D01*
X33609972Y-72536500D01*
X33532010Y-72458402D01*
X32863509Y-72180817D01*
X32139667Y-72180185D01*
X31470683Y-72456604D01*
X29519500Y-72456604D01*
X29519500Y-66830500D01*
X41019321Y-66830500D01*
X40809271Y-66917506D01*
X40648506Y-67078272D01*
X40561500Y-67288322D01*
X40561500Y-67818625D01*
X40704375Y-67961500D01*
X41592500Y-67961500D01*
X41592500Y-66973375D01*
X41449625Y-66830500D01*
X41019321Y-66830500D01*
X29519500Y-66830500D01*
X29519500Y-65087500D01*
X29808833Y-65087500D01*
X29715162Y-65331702D01*
X29997739Y-65882908D01*
X30469743Y-66284018D01*
X30807300Y-66423825D01*
X31051500Y-66329009D01*
X31051500Y-65087500D01*
X29808833Y-65087500D01*
X29519500Y-65087500D01*
X29519500Y-63509982D01*
X30469743Y-63509982D01*
X29997739Y-63911092D01*
X29715162Y-64462298D01*
X29808833Y-64706500D01*
X31051500Y-64706500D01*
X31051500Y-63464991D01*
X30807300Y-63370175D01*
X30469743Y-63509982D01*
X29519500Y-63509982D01*
X29519500Y-61277500D01*
X29808833Y-61277500D01*
X29715162Y-61521702D01*
X29997739Y-62072908D01*
X30469743Y-62474018D01*
X30807300Y-62613825D01*
X31051500Y-62519009D01*
X31051500Y-61277500D01*
X29808833Y-61277500D01*
X29519500Y-61277500D01*
X29519500Y-59699982D01*
X30469743Y-59699982D01*
X29997739Y-60101092D01*
X29715162Y-60652298D01*
X29808833Y-60896500D01*
X31051500Y-60896500D01*
X31051500Y-59654991D01*
X30807300Y-59560175D01*
X30469743Y-59699982D01*
X29519500Y-59699982D01*
X29519500Y-54227724D01*
X33211070Y-57919293D01*
X33210846Y-58176057D01*
X33345903Y-58502920D01*
X33595764Y-58753218D01*
X33907934Y-58882843D01*
X33377888Y-59412888D01*
X33254003Y-59598296D01*
X33250125Y-59617792D01*
X32766000Y-59617792D01*
X32596514Y-59650676D01*
X32447551Y-59748529D01*
X32347836Y-59896252D01*
X32332894Y-59970760D01*
X32014257Y-59699982D01*
X31676700Y-59560175D01*
X31432500Y-59654991D01*
X31432500Y-60896500D01*
X31452500Y-60896500D01*
X31452500Y-61277500D01*
X31432500Y-61277500D01*
X31432500Y-62519009D01*
X31676700Y-62613825D01*
X32014257Y-62474018D01*
X32332333Y-62203716D01*
X32345676Y-62272486D01*
X32443529Y-62421449D01*
X32591252Y-62521164D01*
X32766000Y-62556208D01*
X33210500Y-62556208D01*
X33210500Y-63427792D01*
X32766000Y-63427792D01*
X32596514Y-63460676D01*
X32447551Y-63558529D01*
X32347836Y-63706252D01*
X32332894Y-63780760D01*
X32014257Y-63509982D01*
X31676700Y-63370175D01*
X31432500Y-63464991D01*
X31432500Y-64706500D01*
X31452500Y-64706500D01*
X31452500Y-65087500D01*
X31432500Y-65087500D01*
X31432500Y-66329009D01*
X31676700Y-66423825D01*
X32014257Y-66284018D01*
X32332333Y-66013716D01*
X32345676Y-66082486D01*
X32443529Y-66231449D01*
X32591252Y-66331164D01*
X32766000Y-66366208D01*
X34798000Y-66366208D01*
X34967486Y-66333324D01*
X35116449Y-66235471D01*
X35216164Y-66087748D01*
X35251208Y-65913000D01*
X35251208Y-63881000D01*
X35218324Y-63711514D01*
X35120471Y-63562551D01*
X34972748Y-63462836D01*
X34798000Y-63427792D01*
X34353500Y-63427792D01*
X34353500Y-62556208D01*
X34798000Y-62556208D01*
X34967486Y-62523324D01*
X35116449Y-62425471D01*
X35216164Y-62277748D01*
X35251208Y-62103000D01*
X35251208Y-61564500D01*
X37117375Y-61564500D01*
X36974500Y-61707375D01*
X36974500Y-62262678D01*
X37061506Y-62472728D01*
X37222271Y-62633494D01*
X37432321Y-62720500D01*
X37553125Y-62720500D01*
X37696000Y-62577625D01*
X37696000Y-61564500D01*
X37996000Y-61564500D01*
X37996000Y-62577625D01*
X38138875Y-62720500D01*
X38259679Y-62720500D01*
X38469729Y-62633494D01*
X38481000Y-62622223D01*
X38492271Y-62633494D01*
X38702321Y-62720500D01*
X38823125Y-62720500D01*
X38966000Y-62577625D01*
X38966000Y-61564500D01*
X39266000Y-61564500D01*
X38966000Y-61564500D01*
X38966000Y-61564500D01*
X39266000Y-61564500D01*
X39266000Y-62577625D01*
X39408875Y-62720500D01*
X39529679Y-62720500D01*
X39739729Y-62633494D01*
X39751000Y-62622223D01*
X39762271Y-62633494D01*
X39972321Y-62720500D01*
X40093125Y-62720500D01*
X40236000Y-62577625D01*
X40236000Y-61564500D01*
X40536000Y-61564500D01*
X40236000Y-61564500D01*
X40236000Y-61564500D01*
X40536000Y-61564500D01*
X40536000Y-62577625D01*
X40678875Y-62720500D01*
X40799679Y-62720500D01*
X41009729Y-62633494D01*
X41021000Y-62622223D01*
X41032271Y-62633494D01*
X41242321Y-62720500D01*
X41363125Y-62720500D01*
X41506000Y-62577625D01*
X41506000Y-61564500D01*
X41806000Y-61564500D01*
X41806000Y-62577625D01*
X41948875Y-62720500D01*
X42069679Y-62720500D01*
X42279729Y-62633494D01*
X42440494Y-62472728D01*
X42527500Y-62262678D01*
X42527500Y-61707375D01*
X42384625Y-61564500D01*
X41806000Y-61564500D01*
X41506000Y-61564500D01*
X41506000Y-61564500D01*
X40536000Y-61564500D01*
X40236000Y-61564500D01*
X40236000Y-61564500D01*
X39266000Y-61564500D01*
X38966000Y-61564500D01*
X38966000Y-61564500D01*
X37996000Y-61564500D01*
X37696000Y-61564500D01*
X37696000Y-61564500D01*
X37117375Y-61564500D01*
X35251208Y-61564500D01*
X35251208Y-60071000D01*
X35218324Y-59901514D01*
X35120471Y-59752551D01*
X34972748Y-59652836D01*
X34798000Y-59617792D01*
X34789432Y-59617792D01*
X35604109Y-58803114D01*
X35604112Y-58803112D01*
X35727997Y-58617704D01*
X35736292Y-58576003D01*
X35771501Y-58399000D01*
X35771500Y-58398995D01*
X35771500Y-56436724D01*
X37113755Y-55094468D01*
X37092792Y-55199000D01*
X37092792Y-56749000D01*
X37125676Y-56918486D01*
X37223529Y-57067449D01*
X37274500Y-57101855D01*
X37274500Y-58217277D01*
X36380707Y-59111070D01*
X36123943Y-59110846D01*
X35797080Y-59245903D01*
X35546782Y-59495764D01*
X35411154Y-59822391D01*
X35410846Y-60176057D01*
X35545903Y-60502920D01*
X35795764Y-60753218D01*
X36122391Y-60888846D01*
X36476057Y-60889154D01*
X36802920Y-60754097D01*
X36974500Y-60582817D01*
X36974500Y-61040625D01*
X37117375Y-61183500D01*
X37696000Y-61183500D01*
X37696000Y-60170375D01*
X37553125Y-60027500D01*
X38138875Y-60027500D01*
X37996000Y-60170375D01*
X37996000Y-61183500D01*
X38966000Y-61183500D01*
X38966000Y-60170375D01*
X38823125Y-60027500D01*
X39408875Y-60027500D01*
X39266000Y-60170375D01*
X39266000Y-61183500D01*
X40236000Y-61183500D01*
X40236000Y-60170375D01*
X40093125Y-60027500D01*
X40678875Y-60027500D01*
X40093125Y-60027500D01*
X40093125Y-60027500D01*
X40678875Y-60027500D01*
X40536000Y-60170375D01*
X40536000Y-61183500D01*
X41506000Y-61183500D01*
X41506000Y-60170375D01*
X41363125Y-60027500D01*
X41948875Y-60027500D01*
X41806000Y-60170375D01*
X41806000Y-61183500D01*
X42384625Y-61183500D01*
X42527500Y-61040625D01*
X42527500Y-60485322D01*
X42440494Y-60275272D01*
X42279729Y-60114506D01*
X42069679Y-60027500D01*
X41948875Y-60027500D01*
X41363125Y-60027500D01*
X41363125Y-60027500D01*
X41242321Y-60027500D01*
X41032271Y-60114506D01*
X41021000Y-60125777D01*
X41009729Y-60114506D01*
X40799679Y-60027500D01*
X40678875Y-60027500D01*
X40093125Y-60027500D01*
X40093125Y-60027500D01*
X39972321Y-60027500D01*
X39762271Y-60114506D01*
X39751000Y-60125777D01*
X39739729Y-60114506D01*
X39529679Y-60027500D01*
X39408875Y-60027500D01*
X38823125Y-60027500D01*
X38823125Y-60027500D01*
X38702321Y-60027500D01*
X38492271Y-60114506D01*
X38481000Y-60125777D01*
X38469729Y-60114506D01*
X38259679Y-60027500D01*
X38138875Y-60027500D01*
X37553125Y-60027500D01*
X37553125Y-60027500D01*
X37432321Y-60027500D01*
X37222271Y-60114506D01*
X37188872Y-60147905D01*
X37189071Y-59919153D01*
X38250109Y-58858114D01*
X38250112Y-58858112D01*
X38373997Y-58672704D01*
X38381215Y-58636418D01*
X38417501Y-58454000D01*
X38417500Y-58453995D01*
X38417500Y-57102312D01*
X38464449Y-57071471D01*
X38480526Y-57047654D01*
X38493529Y-57067449D01*
X38641252Y-57167164D01*
X38816000Y-57202208D01*
X39416000Y-57202208D01*
X39585486Y-57169324D01*
X39734449Y-57071471D01*
X39750526Y-57047654D01*
X39763529Y-57067449D01*
X39911252Y-57167164D01*
X40086000Y-57202208D01*
X40686000Y-57202208D01*
X40855486Y-57169324D01*
X41004449Y-57071471D01*
X41020526Y-57047654D01*
X41033529Y-57067449D01*
X41181252Y-57167164D01*
X41356000Y-57202208D01*
X41956000Y-57202208D01*
X42125486Y-57169324D01*
X42274449Y-57071471D01*
X42374164Y-56923748D01*
X42409208Y-56749000D01*
X42409208Y-55414500D01*
X48735321Y-55414500D01*
X48525271Y-55501506D01*
X48416550Y-55610228D01*
X48353748Y-55567836D01*
X48179000Y-55532792D01*
X47579000Y-55532792D01*
X47409514Y-55565676D01*
X47260551Y-55663529D01*
X47244474Y-55687346D01*
X47231471Y-55667551D01*
X47083748Y-55567836D01*
X46909000Y-55532792D01*
X46309000Y-55532792D01*
X46139514Y-55565676D01*
X45990551Y-55663529D01*
X45890836Y-55811252D01*
X45855792Y-55986000D01*
X45855792Y-57486000D01*
X45888676Y-57655486D01*
X45986529Y-57804449D01*
X46134252Y-57904164D01*
X46309000Y-57939208D01*
X46909000Y-57939208D01*
X47076833Y-57906645D01*
X46990154Y-58115391D01*
X46989846Y-58469057D01*
X47124903Y-58795920D01*
X47374764Y-59046218D01*
X47701391Y-59181846D01*
X48055057Y-59182154D01*
X48381920Y-59047097D01*
X48632218Y-58797236D01*
X48767846Y-58470609D01*
X48768154Y-58116943D01*
X48743593Y-58057500D01*
X48856125Y-58057500D01*
X48999000Y-57914625D01*
X48999000Y-56926500D01*
X48938500Y-56926500D01*
X48938500Y-56545500D01*
X48999000Y-56545500D01*
X48999000Y-55557375D01*
X48856125Y-55414500D01*
X48735321Y-55414500D01*
X42409208Y-55414500D01*
X42409208Y-55299016D01*
X42419293Y-55288930D01*
X42676057Y-55289154D01*
X43002920Y-55154097D01*
X43253218Y-54904236D01*
X43388846Y-54577609D01*
X43389154Y-54223943D01*
X43254097Y-53897080D01*
X43004236Y-53646782D01*
X42677609Y-53511154D01*
X42323943Y-53510846D01*
X41997080Y-53645903D01*
X41746782Y-53895764D01*
X41611154Y-54222391D01*
X41610929Y-54480848D01*
X41343573Y-54748203D01*
X41186514Y-54778676D01*
X41037551Y-54876529D01*
X41021474Y-54900346D01*
X41008471Y-54880551D01*
X40860748Y-54780836D01*
X40686000Y-54745792D01*
X40654015Y-54745792D01*
X40588930Y-54680707D01*
X40589154Y-54423943D01*
X40454097Y-54097080D01*
X40204236Y-53846782D01*
X39877609Y-53711154D01*
X39523943Y-53710846D01*
X39197080Y-53845903D01*
X38946782Y-54095764D01*
X38821852Y-54396628D01*
X38521112Y-54095888D01*
X38424824Y-54031551D01*
X38335704Y-53972003D01*
X38299418Y-53964785D01*
X38117000Y-53928499D01*
X38116995Y-53928500D01*
X36900005Y-53928500D01*
X36900000Y-53928499D01*
X36717582Y-53964785D01*
X36681296Y-53972003D01*
X36495888Y-54095888D01*
X36495886Y-54095891D01*
X34795888Y-55795888D01*
X34672003Y-55981296D01*
X34672003Y-55981297D01*
X34628499Y-56200000D01*
X34628500Y-56200005D01*
X34628500Y-57271088D01*
X34604236Y-57246782D01*
X34277609Y-57111154D01*
X34019152Y-57110929D01*
X30471500Y-53563276D01*
X30471500Y-50949500D01*
X33503915Y-50949500D01*
X33361040Y-51092375D01*
X33361040Y-51472119D01*
X33448046Y-51682169D01*
X33608812Y-51842934D01*
X33818862Y-51929940D01*
X34198605Y-51929940D01*
X34341480Y-51787065D01*
X34341480Y-50949500D01*
X34722480Y-50949500D01*
X34341480Y-50949500D01*
X34341480Y-50949500D01*
X34722480Y-50949500D01*
X34722480Y-51787065D01*
X34865355Y-51929940D01*
X35245098Y-51929940D01*
X35455148Y-51842934D01*
X35615914Y-51682169D01*
X35652909Y-51592857D01*
X35708109Y-51676889D01*
X35855832Y-51776604D01*
X36030580Y-51811648D01*
X37229460Y-51811648D01*
X37398946Y-51778764D01*
X37547909Y-51680911D01*
X37647624Y-51533188D01*
X37682668Y-51358440D01*
X37682668Y-51330500D01*
X37773260Y-51330500D01*
X37895764Y-51453218D01*
X38222391Y-51588846D01*
X38576057Y-51589154D01*
X38902920Y-51454097D01*
X39153218Y-51204236D01*
X39288846Y-50877609D01*
X39289154Y-50523943D01*
X39154097Y-50197080D01*
X38904236Y-49946782D01*
X38577609Y-49811154D01*
X38223943Y-49810846D01*
X37897080Y-49945903D01*
X37682668Y-50159941D01*
X37682668Y-50159560D01*
X37649784Y-49990074D01*
X37551931Y-49841111D01*
X37404208Y-49741396D01*
X37251870Y-49710846D01*
X41623943Y-49710846D01*
X41297080Y-49845903D01*
X41046782Y-50095764D01*
X40911154Y-50422391D01*
X40910846Y-50776057D01*
X41045903Y-51102920D01*
X41295764Y-51353218D01*
X41622391Y-51488846D01*
X41976057Y-51489154D01*
X42302920Y-51354097D01*
X42485836Y-51171500D01*
X44114363Y-51171500D01*
X44295764Y-51353218D01*
X44622391Y-51488846D01*
X44976057Y-51489154D01*
X45302920Y-51354097D01*
X45553218Y-51104236D01*
X45688846Y-50777609D01*
X45689154Y-50423943D01*
X45554097Y-50097080D01*
X45304236Y-49846782D01*
X44977609Y-49711154D01*
X44623943Y-49710846D01*
X44297080Y-49845903D01*
X44114164Y-50028500D01*
X42485637Y-50028500D01*
X42304236Y-49846782D01*
X41977609Y-49711154D01*
X41623943Y-49710846D01*
X37251870Y-49710846D01*
X37229460Y-49706352D01*
X36030580Y-49706352D01*
X35861094Y-49739236D01*
X35712131Y-49837089D01*
X35652827Y-49924946D01*
X35615914Y-49835831D01*
X35455148Y-49675066D01*
X35245098Y-49588060D01*
X34865355Y-49588060D01*
X34198605Y-49588060D01*
X34198605Y-49588060D01*
X33818862Y-49588060D01*
X33608812Y-49675066D01*
X33448046Y-49835831D01*
X33361040Y-50045881D01*
X33361040Y-50425625D01*
X33503915Y-50568500D01*
X34341480Y-50568500D01*
X34341480Y-49730935D01*
X34198605Y-49588060D01*
X34865355Y-49588060D01*
X34198605Y-49588060D01*
X34198605Y-49588060D01*
X34865355Y-49588060D01*
X34722480Y-49730935D01*
X34722480Y-50568500D01*
X34742480Y-50568500D01*
X34742480Y-50949500D01*
X34722480Y-50949500D01*
X34341480Y-50949500D01*
X34341480Y-50949500D01*
X33503915Y-50949500D01*
X30471500Y-50949500D01*
X30471500Y-48282500D01*
X33503915Y-48282500D01*
X33361040Y-48425375D01*
X33361040Y-48805119D01*
X33448046Y-49015169D01*
X33608812Y-49175934D01*
X33818862Y-49262940D01*
X34198605Y-49262940D01*
X34341480Y-49120065D01*
X34341480Y-48282500D01*
X34722480Y-48282500D01*
X34341480Y-48282500D01*
X34341480Y-48282500D01*
X34722480Y-48282500D01*
X34722480Y-49120065D01*
X34865355Y-49262940D01*
X35245098Y-49262940D01*
X35455148Y-49175934D01*
X35615914Y-49015169D01*
X35652909Y-48925857D01*
X35708109Y-49009889D01*
X35855832Y-49109604D01*
X36030580Y-49144648D01*
X37229460Y-49144648D01*
X37398946Y-49111764D01*
X37547909Y-49013911D01*
X37647624Y-48866188D01*
X37682668Y-48691440D01*
X37682668Y-48671500D01*
X37714363Y-48671500D01*
X37895764Y-48853218D01*
X38222391Y-48988846D01*
X38576057Y-48989154D01*
X38902920Y-48854097D01*
X39153218Y-48604236D01*
X39288846Y-48277609D01*
X39289154Y-47923943D01*
X39154097Y-47597080D01*
X38904236Y-47346782D01*
X38577609Y-47211154D01*
X38223943Y-47210846D01*
X37897080Y-47345903D01*
X37714164Y-47528500D01*
X37682668Y-47528500D01*
X37682668Y-47492560D01*
X37649784Y-47323074D01*
X37551931Y-47174111D01*
X37404208Y-47074396D01*
X37229460Y-47039352D01*
X36030580Y-47039352D01*
X35861094Y-47072236D01*
X35712131Y-47170089D01*
X35652827Y-47257946D01*
X35615914Y-47168831D01*
X35455148Y-47008066D01*
X35245098Y-46921060D01*
X34865355Y-46921060D01*
X34198605Y-46921060D01*
X34198605Y-46921060D01*
X33818862Y-46921060D01*
X33788972Y-46933441D01*
X33789154Y-46723943D01*
X33719209Y-46554662D01*
X33818862Y-46595940D01*
X34198605Y-46595940D01*
X34341480Y-46453065D01*
X34341480Y-45615500D01*
X34321480Y-45615500D01*
X34321480Y-45234500D01*
X34341480Y-45234500D01*
X34341480Y-44396935D01*
X34198605Y-44254060D01*
X34865355Y-44254060D01*
X34722480Y-44396935D01*
X34722480Y-45234500D01*
X34742480Y-45234500D01*
X34742480Y-45615500D01*
X34722480Y-45615500D01*
X34722480Y-46453065D01*
X34865355Y-46595940D01*
X35245098Y-46595940D01*
X35455148Y-46508934D01*
X35615914Y-46348169D01*
X35652909Y-46258857D01*
X35708109Y-46342889D01*
X35855832Y-46442604D01*
X36030580Y-46477648D01*
X37229460Y-46477648D01*
X37398946Y-46444764D01*
X37547909Y-46346911D01*
X37647624Y-46199188D01*
X37682668Y-46024440D01*
X37682668Y-45996500D01*
X37739320Y-45996500D01*
X37895764Y-46153218D01*
X38222391Y-46288846D01*
X38576057Y-46289154D01*
X38902920Y-46154097D01*
X39153218Y-45904236D01*
X39288846Y-45577609D01*
X39289154Y-45223943D01*
X39154097Y-44897080D01*
X38904236Y-44646782D01*
X38577609Y-44511154D01*
X38223943Y-44510846D01*
X37897080Y-44645903D01*
X37689120Y-44853500D01*
X37682668Y-44853500D01*
X37682668Y-44825560D01*
X37649784Y-44656074D01*
X37551931Y-44507111D01*
X37404208Y-44407396D01*
X37229460Y-44372352D01*
X36030580Y-44372352D01*
X35861094Y-44405236D01*
X35712131Y-44503089D01*
X35652827Y-44590946D01*
X35615914Y-44501831D01*
X35455148Y-44341066D01*
X35245098Y-44254060D01*
X34865355Y-44254060D01*
X34198605Y-44254060D01*
X34198605Y-44254060D01*
X33818862Y-44254060D01*
X33608812Y-44341066D01*
X33471500Y-44478377D01*
X33471500Y-43704623D01*
X33608812Y-43841934D01*
X33818862Y-43928940D01*
X34198605Y-43928940D01*
X34341480Y-43786065D01*
X34341480Y-42948500D01*
X34321480Y-42948500D01*
X34321480Y-42567500D01*
X34341480Y-42567500D01*
X34341480Y-41729935D01*
X34198605Y-41587060D01*
X34865355Y-41587060D01*
X34722480Y-41729935D01*
X34722480Y-42567500D01*
X34742480Y-42567500D01*
X34742480Y-42948500D01*
X34722480Y-42948500D01*
X34722480Y-43786065D01*
X34865355Y-43928940D01*
X35245098Y-43928940D01*
X35455148Y-43841934D01*
X35615914Y-43681169D01*
X35652909Y-43591857D01*
X35708109Y-43675889D01*
X35855832Y-43775604D01*
X36030580Y-43810648D01*
X37229460Y-43810648D01*
X37398946Y-43777764D01*
X37547909Y-43679911D01*
X37647624Y-43532188D01*
X37682668Y-43357440D01*
X37682668Y-43329500D01*
X37689363Y-43329500D01*
X37870764Y-43511218D01*
X38197391Y-43646846D01*
X38551057Y-43647154D01*
X38877920Y-43512097D01*
X39128218Y-43262236D01*
X39263846Y-42935609D01*
X39264154Y-42581943D01*
X39129097Y-42255080D01*
X38879236Y-42004782D01*
X38552609Y-41869154D01*
X38198943Y-41868846D01*
X37872080Y-42003903D01*
X37689164Y-42186500D01*
X37682668Y-42186500D01*
X37682668Y-42158560D01*
X37649784Y-41989074D01*
X37551931Y-41840111D01*
X37404208Y-41740396D01*
X37229460Y-41705352D01*
X36030580Y-41705352D01*
X35861094Y-41738236D01*
X35712131Y-41836089D01*
X35652827Y-41923946D01*
X35615914Y-41834831D01*
X35455148Y-41674066D01*
X35245098Y-41587060D01*
X34865355Y-41587060D01*
X34198605Y-41587060D01*
X34198605Y-41587060D01*
X33818862Y-41587060D01*
X33608812Y-41674066D01*
X33471500Y-41811377D01*
X33471500Y-39250946D01*
X33898743Y-39614018D01*
X34236300Y-39753825D01*
X34480500Y-39659009D01*
X34480500Y-38417500D01*
X34460500Y-38417500D01*
X34460500Y-38036500D01*
X34480500Y-38036500D01*
X34480500Y-36794991D01*
X34236300Y-36700175D01*
X33898743Y-36839982D01*
X33695669Y-37012555D01*
X34319293Y-36388930D01*
X34576057Y-36389154D01*
X34902920Y-36254097D01*
X35153218Y-36004236D01*
X35288846Y-35677609D01*
X35288961Y-35545184D01*
X35422272Y-35678494D01*
X35632322Y-35765500D01*
X36162625Y-35765500D01*
X36305500Y-35622625D01*
X36305500Y-34734500D01*
X36686500Y-34734500D01*
X36686500Y-35622625D01*
X36829375Y-35765500D01*
X37359678Y-35765500D01*
X37569728Y-35678494D01*
X37730494Y-35517729D01*
X37817500Y-35307679D01*
X37817500Y-34877375D01*
X37674625Y-34734500D01*
X36686500Y-34734500D01*
X36305500Y-34734500D01*
X36305500Y-34734500D01*
X36285500Y-34734500D01*
X36285500Y-34353500D01*
X36305500Y-34353500D01*
X36305500Y-33465375D01*
X36162625Y-33322500D01*
X35717625Y-33322500D01*
X35765500Y-33274625D01*
X35765500Y-32744322D01*
X35678494Y-32534272D01*
X35517729Y-32373506D01*
X35307679Y-32286500D01*
X34877375Y-32286500D01*
X34734500Y-32429375D01*
X34734500Y-33417500D01*
X34754500Y-33417500D01*
X34754500Y-33798500D01*
X34734500Y-33798500D01*
X34734500Y-33818500D01*
X34353500Y-33818500D01*
X34353500Y-33798500D01*
X33465375Y-33798500D01*
X33322500Y-33941375D01*
X33322500Y-34471678D01*
X33409506Y-34681728D01*
X33570271Y-34842494D01*
X33732857Y-34909840D01*
X33646782Y-34995764D01*
X33511154Y-35322391D01*
X33510929Y-35580848D01*
X32495888Y-36595888D01*
X32372003Y-36781296D01*
X32372003Y-36781297D01*
X32328499Y-37000000D01*
X32328500Y-37000005D01*
X32328500Y-46214363D01*
X32146782Y-46395764D01*
X32011154Y-46722391D01*
X32010846Y-47076057D01*
X32145903Y-47402920D01*
X32395764Y-47653218D01*
X32722391Y-47788846D01*
X33076057Y-47789154D01*
X33361040Y-47671401D01*
X33361040Y-47758625D01*
X33503915Y-47901500D01*
X34341480Y-47901500D01*
X34341480Y-47063935D01*
X34198605Y-46921060D01*
X34865355Y-46921060D01*
X34198605Y-46921060D01*
X34198605Y-46921060D01*
X34865355Y-46921060D01*
X34722480Y-47063935D01*
X34722480Y-47901500D01*
X34742480Y-47901500D01*
X34742480Y-48282500D01*
X34722480Y-48282500D01*
X34341480Y-48282500D01*
X34341480Y-48282500D01*
X33503915Y-48282500D01*
X30471500Y-48282500D01*
X30471500Y-36123848D01*
X30510092Y-36169261D01*
X31061298Y-36451838D01*
X31305500Y-36358167D01*
X31305500Y-35115500D01*
X31686500Y-35115500D01*
X31686500Y-36358167D01*
X31930702Y-36451838D01*
X32481908Y-36169261D01*
X32883018Y-35697257D01*
X33022825Y-35359700D01*
X32928009Y-35115500D01*
X31686500Y-35115500D01*
X31305500Y-35115500D01*
X31305500Y-35115500D01*
X31285500Y-35115500D01*
X31285500Y-34734500D01*
X31305500Y-34734500D01*
X31305500Y-34714500D01*
X31686500Y-34714500D01*
X31686500Y-34734500D01*
X32928009Y-34734500D01*
X33022825Y-34490300D01*
X32883018Y-34152743D01*
X32612716Y-33834667D01*
X32681486Y-33821324D01*
X32830449Y-33723471D01*
X32930164Y-33575748D01*
X32965208Y-33401000D01*
X32965208Y-33147000D01*
X33067000Y-33147000D01*
X33322500Y-33096178D01*
X33322500Y-33274625D01*
X33465375Y-33417500D01*
X34353500Y-33417500D01*
X34353500Y-32429375D01*
X34226878Y-32302753D01*
X34418423Y-32111208D01*
X35194000Y-32111208D01*
X35363486Y-32078324D01*
X35512449Y-31980471D01*
X35612164Y-31832748D01*
X35644802Y-31670000D01*
X36016792Y-31670000D01*
X36016792Y-31821000D01*
X36046376Y-31973478D01*
X36016792Y-32121000D01*
X36016792Y-32771000D01*
X36049676Y-32940486D01*
X36147529Y-33089449D01*
X36295252Y-33189164D01*
X36470000Y-33224208D01*
X37062285Y-33224208D01*
X37021471Y-33322500D01*
X36829375Y-33322500D01*
X36686500Y-33465375D01*
X36686500Y-34353500D01*
X37287142Y-34353500D01*
X37341764Y-34408218D01*
X37668391Y-34543846D01*
X37992792Y-34544129D01*
X37992792Y-35194000D01*
X38025676Y-35363486D01*
X38123529Y-35512449D01*
X38271252Y-35612164D01*
X38434000Y-35644802D01*
X38434000Y-36814607D01*
X38401748Y-36792836D01*
X38227000Y-36757792D01*
X36195000Y-36757792D01*
X36025514Y-36790676D01*
X35876551Y-36888529D01*
X35776836Y-37036252D01*
X35761894Y-37110760D01*
X35443257Y-36839982D01*
X35105700Y-36700175D01*
X34861500Y-36794991D01*
X34861500Y-38036500D01*
X34881500Y-38036500D01*
X34881500Y-38417500D01*
X34861500Y-38417500D01*
X34861500Y-39659009D01*
X35105700Y-39753825D01*
X35443257Y-39614018D01*
X35761333Y-39343716D01*
X35774676Y-39412486D01*
X35872529Y-39561449D01*
X36020252Y-39661164D01*
X36195000Y-39696208D01*
X38227000Y-39696208D01*
X38396486Y-39663324D01*
X38545449Y-39565471D01*
X38645164Y-39417748D01*
X38680208Y-39243000D01*
X38680208Y-38989000D01*
X38862000Y-38989000D01*
X39153605Y-38930996D01*
X39400815Y-38765815D01*
X39734815Y-38431816D01*
X39899996Y-38184605D01*
X39915290Y-38107715D01*
X39958000Y-37893000D01*
X39958000Y-35644880D01*
X40115486Y-35614324D01*
X40264449Y-35516471D01*
X40364164Y-35368748D01*
X40399208Y-35194000D01*
X40399208Y-33894000D01*
X40366324Y-33724514D01*
X40268471Y-33575551D01*
X40120748Y-33475836D01*
X39958000Y-33443198D01*
X39958000Y-33152886D01*
X40048449Y-33093471D01*
X40148164Y-32945748D01*
X40183208Y-32771000D01*
X40183208Y-32121000D01*
X40153624Y-31968522D01*
X40183208Y-31821000D01*
X40183208Y-31171000D01*
X40153624Y-31018522D01*
X40183208Y-30871000D01*
X40183208Y-30640422D01*
X40216777Y-30606853D01*
X40562057Y-30607154D01*
X40869793Y-30480000D01*
X42317855Y-30480000D01*
X42225690Y-30572004D01*
X42090062Y-30898631D01*
X42089754Y-31252297D01*
X42224811Y-31579160D01*
X42425119Y-31779818D01*
X42425119Y-32752163D01*
X42411215Y-32738235D01*
X42084588Y-32602607D01*
X41730922Y-32602299D01*
X41404059Y-32737356D01*
X41153761Y-32987217D01*
X41018133Y-33313844D01*
X41017825Y-33667510D01*
X41152882Y-33994373D01*
X41349692Y-34191527D01*
X41361800Y-34252395D01*
X41378982Y-34338774D01*
X41480228Y-34490300D01*
X41502867Y-34524182D01*
X41539131Y-34560446D01*
X41539131Y-41706974D01*
X41539130Y-41706979D01*
X41571328Y-41868846D01*
X41582634Y-41925683D01*
X41660408Y-42042080D01*
X41706519Y-42111091D01*
X43799155Y-44203727D01*
X43697080Y-44245903D01*
X43446782Y-44495764D01*
X43311154Y-44822391D01*
X43310846Y-45176057D01*
X43445903Y-45502920D01*
X43695764Y-45753218D01*
X44022391Y-45888846D01*
X44280847Y-45889071D01*
X45518650Y-47126874D01*
X45489921Y-47138744D01*
X45239623Y-47388605D01*
X45103995Y-47715232D01*
X45103687Y-48068898D01*
X45238744Y-48395761D01*
X45488605Y-48646059D01*
X45815232Y-48781687D01*
X46073688Y-48781912D01*
X49847500Y-52555723D01*
X49847500Y-55576277D01*
X49772729Y-55501506D01*
X49562679Y-55414500D01*
X49441875Y-55414500D01*
X49299000Y-55557375D01*
X49299000Y-56545500D01*
X49359500Y-56545500D01*
X49359500Y-56926500D01*
X49299000Y-56926500D01*
X49299000Y-57914625D01*
X49441875Y-58057500D01*
X49562679Y-58057500D01*
X49772729Y-57970494D01*
X49869167Y-57874055D01*
X49883785Y-57947542D01*
X49891003Y-57983828D01*
X49987599Y-58128395D01*
X50014888Y-58169236D01*
X51880073Y-60034420D01*
X51880075Y-60034423D01*
X51979853Y-60101092D01*
X52065484Y-60158309D01*
X52284187Y-60201812D01*
X52284192Y-60201811D01*
X56179269Y-60201811D01*
X59353478Y-63376019D01*
X59353254Y-63632783D01*
X59488311Y-63959646D01*
X59523396Y-63994792D01*
X59040000Y-63994792D01*
X58870514Y-64027676D01*
X58721551Y-64125529D01*
X58621836Y-64273252D01*
X58586792Y-64448000D01*
X58586792Y-64626500D01*
X58517776Y-64626500D01*
X58416236Y-64524782D01*
X58089609Y-64389154D01*
X57831152Y-64388929D01*
X56538112Y-63095888D01*
X56485521Y-63060748D01*
X56370500Y-62983894D01*
X56370500Y-62469375D01*
X56227625Y-62326500D01*
X55649000Y-62326500D01*
X55649000Y-62346500D01*
X55349000Y-62346500D01*
X55349000Y-62326500D01*
X54379000Y-62326500D01*
X54379000Y-62346500D01*
X54079000Y-62346500D01*
X54079000Y-62326500D01*
X53109000Y-62326500D01*
X53109000Y-62346500D01*
X52809000Y-62346500D01*
X52809000Y-62326500D01*
X51839000Y-62326500D01*
X51839000Y-62346500D01*
X51539000Y-62346500D01*
X51539000Y-62326500D01*
X51478500Y-62326500D01*
X51478500Y-61945500D01*
X51539000Y-61945500D01*
X51539000Y-60957375D01*
X51396125Y-60814500D01*
X51981875Y-60814500D01*
X51839000Y-60957375D01*
X51839000Y-61945500D01*
X52809000Y-61945500D01*
X52809000Y-60957375D01*
X52666125Y-60814500D01*
X53251875Y-60814500D01*
X53109000Y-60957375D01*
X53109000Y-61945500D01*
X54079000Y-61945500D01*
X54079000Y-60957375D01*
X53936125Y-60814500D01*
X54521875Y-60814500D01*
X54379000Y-60957375D01*
X54379000Y-61945500D01*
X55349000Y-61945500D01*
X55349000Y-60957375D01*
X55206125Y-60814500D01*
X55791875Y-60814500D01*
X55649000Y-60957375D01*
X55649000Y-61945500D01*
X56227625Y-61945500D01*
X56370500Y-61802625D01*
X56370500Y-61272322D01*
X56283494Y-61062272D01*
X56122729Y-60901506D01*
X55912679Y-60814500D01*
X55791875Y-60814500D01*
X55206125Y-60814500D01*
X55206125Y-60814500D01*
X55085321Y-60814500D01*
X54875271Y-60901506D01*
X54864000Y-60912777D01*
X54852729Y-60901506D01*
X54642679Y-60814500D01*
X54521875Y-60814500D01*
X53936125Y-60814500D01*
X53936125Y-60814500D01*
X53815321Y-60814500D01*
X53605271Y-60901506D01*
X53594000Y-60912777D01*
X53582729Y-60901506D01*
X53372679Y-60814500D01*
X53251875Y-60814500D01*
X52666125Y-60814500D01*
X52666125Y-60814500D01*
X52545321Y-60814500D01*
X52335271Y-60901506D01*
X52324000Y-60912777D01*
X52312729Y-60901506D01*
X52102679Y-60814500D01*
X51981875Y-60814500D01*
X51396125Y-60814500D01*
X51396125Y-60814500D01*
X51275321Y-60814500D01*
X51065271Y-60901506D01*
X50956550Y-61010228D01*
X50893748Y-60967836D01*
X50719000Y-60932792D01*
X50119000Y-60932792D01*
X49949514Y-60965676D01*
X49800551Y-61063529D01*
X49784474Y-61087346D01*
X49771471Y-61067551D01*
X49623748Y-60967836D01*
X49449000Y-60932792D01*
X48849000Y-60932792D01*
X48679514Y-60965676D01*
X48530551Y-61063529D01*
X48514474Y-61087346D01*
X48501471Y-61067551D01*
X48353748Y-60967836D01*
X48179000Y-60932792D01*
X47579000Y-60932792D01*
X47409514Y-60965676D01*
X47260551Y-61063529D01*
X47244474Y-61087346D01*
X47231471Y-61067551D01*
X47083748Y-60967836D01*
X46909000Y-60932792D01*
X46309000Y-60932792D01*
X46139514Y-60965676D01*
X45990551Y-61063529D01*
X45890836Y-61211252D01*
X45855792Y-61386000D01*
X45855792Y-61564500D01*
X44036005Y-61564500D01*
X44036000Y-61564499D01*
X43853582Y-61600785D01*
X43817296Y-61608003D01*
X43631888Y-61731888D01*
X43631886Y-61731891D01*
X43541349Y-61822428D01*
X43284585Y-61822204D01*
X42957722Y-61957261D01*
X42707424Y-62207122D01*
X42571796Y-62533749D01*
X42571571Y-62792206D01*
X41886888Y-63476888D01*
X41886886Y-63476891D01*
X41378888Y-63984888D01*
X41255003Y-64170296D01*
X41255003Y-64170297D01*
X41239389Y-64248792D01*
X41133000Y-64248792D01*
X40963514Y-64281676D01*
X40814551Y-64379529D01*
X40714836Y-64527252D01*
X40679792Y-64702000D01*
X40679792Y-64880500D01*
X40473208Y-64880500D01*
X40473208Y-64702000D01*
X40440324Y-64532514D01*
X40342471Y-64383551D01*
X40194748Y-64283836D01*
X40020000Y-64248792D01*
X38720000Y-64248792D01*
X38550514Y-64281676D01*
X38401551Y-64379529D01*
X38301836Y-64527252D01*
X38266792Y-64702000D01*
X38266792Y-66202000D01*
X38299676Y-66371486D01*
X38397529Y-66520449D01*
X38545252Y-66620164D01*
X38720000Y-66655208D01*
X40020000Y-66655208D01*
X40189486Y-66622324D01*
X40338449Y-66524471D01*
X40438164Y-66376748D01*
X40473208Y-66202000D01*
X40473208Y-66023500D01*
X40679792Y-66023500D01*
X40679792Y-66202000D01*
X40712676Y-66371486D01*
X40810529Y-66520449D01*
X40958252Y-66620164D01*
X41133000Y-66655208D01*
X42433000Y-66655208D01*
X42602486Y-66622324D01*
X42751449Y-66524471D01*
X42851164Y-66376748D01*
X42886208Y-66202000D01*
X42886208Y-64702000D01*
X42853324Y-64532514D01*
X42755471Y-64383551D01*
X42660666Y-64319557D01*
X42695109Y-64285114D01*
X42695112Y-64285112D01*
X43379935Y-63600288D01*
X43636699Y-63600512D01*
X43963562Y-63465455D01*
X44213860Y-63215594D01*
X44349488Y-62888967D01*
X44349646Y-62707500D01*
X45855792Y-62707500D01*
X45855792Y-62886000D01*
X45888676Y-63055486D01*
X45986529Y-63204449D01*
X46134252Y-63304164D01*
X46309000Y-63339208D01*
X46909000Y-63339208D01*
X47078486Y-63306324D01*
X47227449Y-63208471D01*
X47243526Y-63184654D01*
X47256529Y-63204449D01*
X47307500Y-63238855D01*
X47307500Y-63304289D01*
X47122080Y-63380903D01*
X46871782Y-63630764D01*
X46736154Y-63957391D01*
X46735929Y-64215848D01*
X46702985Y-64248792D01*
X45832000Y-64248792D01*
X45662514Y-64281676D01*
X45513551Y-64379529D01*
X45413836Y-64527252D01*
X45378792Y-64702000D01*
X45378792Y-66202000D01*
X45411676Y-66371486D01*
X45509529Y-66520449D01*
X45657252Y-66620164D01*
X45832000Y-66655208D01*
X47132000Y-66655208D01*
X47301486Y-66622324D01*
X47450449Y-66524471D01*
X47550164Y-66376748D01*
X47585208Y-66202000D01*
X47585208Y-66023500D01*
X47791792Y-66023500D01*
X47791792Y-66202000D01*
X47824676Y-66371486D01*
X47922529Y-66520449D01*
X48070252Y-66620164D01*
X48245000Y-66655208D01*
X49545000Y-66655208D01*
X49714486Y-66622324D01*
X49863449Y-66524471D01*
X49963164Y-66376748D01*
X49998208Y-66202000D01*
X49998208Y-64702000D01*
X49965324Y-64532514D01*
X49867471Y-64383551D01*
X49719748Y-64283836D01*
X49545000Y-64248792D01*
X48513902Y-64248792D01*
X48514154Y-63958943D01*
X48450500Y-63804889D01*
X48450500Y-63239312D01*
X48497449Y-63208471D01*
X48513526Y-63184654D01*
X48526529Y-63204449D01*
X48674252Y-63304164D01*
X48849000Y-63339208D01*
X49093984Y-63339208D01*
X50799981Y-65045204D01*
X50799846Y-65200057D01*
X50934903Y-65526920D01*
X51184764Y-65777218D01*
X51511391Y-65912846D01*
X51865057Y-65913154D01*
X51982792Y-65864507D01*
X51982792Y-65948000D01*
X52015676Y-66117486D01*
X52113529Y-66266449D01*
X52261252Y-66366164D01*
X52436000Y-66401208D01*
X53736000Y-66401208D01*
X53905486Y-66368324D01*
X54054449Y-66270471D01*
X54154164Y-66122748D01*
X54189208Y-65948000D01*
X54189208Y-65769500D01*
X54268792Y-65769500D01*
X54268792Y-65948000D01*
X54301676Y-66117486D01*
X54399529Y-66266449D01*
X54547252Y-66366164D01*
X54722000Y-66401208D01*
X56022000Y-66401208D01*
X56191486Y-66368324D01*
X56340449Y-66270471D01*
X56440164Y-66122748D01*
X56475208Y-65948000D01*
X56475208Y-64649432D01*
X57023070Y-65197293D01*
X57022846Y-65454057D01*
X57157903Y-65780920D01*
X57407764Y-66031218D01*
X57734391Y-66166846D01*
X58088057Y-66167154D01*
X58414920Y-66032097D01*
X58586792Y-65860525D01*
X58586792Y-65948000D01*
X58619676Y-66117486D01*
X58717529Y-66266449D01*
X58865252Y-66366164D01*
X59040000Y-66401208D01*
X60340000Y-66401208D01*
X60509486Y-66368324D01*
X60658449Y-66270471D01*
X60758164Y-66122748D01*
X60793208Y-65948000D01*
X60793208Y-65769500D01*
X60872792Y-65769500D01*
X60872792Y-65948000D01*
X60905676Y-66117486D01*
X61003529Y-66266449D01*
X61151252Y-66366164D01*
X61326000Y-66401208D01*
X62626000Y-66401208D01*
X62795486Y-66368324D01*
X62944449Y-66270471D01*
X63044164Y-66122748D01*
X63079208Y-65948000D01*
X63079208Y-64448000D01*
X63046324Y-64278514D01*
X62948471Y-64129551D01*
X62800748Y-64029836D01*
X62626000Y-63994792D01*
X61326000Y-63994792D01*
X61156514Y-64027676D01*
X61007551Y-64125529D01*
X60907836Y-64273252D01*
X60872792Y-64448000D01*
X60872792Y-64626500D01*
X60793208Y-64626500D01*
X60793208Y-64448000D01*
X60760324Y-64278514D01*
X60722149Y-64220400D01*
X60745328Y-64210823D01*
X60995626Y-63960962D01*
X61007898Y-63931407D01*
X61209458Y-63971500D01*
X64299995Y-63971500D01*
X64300000Y-63971501D01*
X64482418Y-63935215D01*
X64518704Y-63927997D01*
X64704112Y-63804112D01*
X64704113Y-63804111D01*
X66304109Y-62204114D01*
X66304112Y-62204112D01*
X66391779Y-62072908D01*
X66427998Y-62018703D01*
X66471501Y-61800000D01*
X66471500Y-61799995D01*
X66471500Y-59167500D01*
X66708375Y-59167500D01*
X66565500Y-59310375D01*
X66565500Y-59840678D01*
X66652506Y-60050728D01*
X66813271Y-60211494D01*
X67023321Y-60298500D01*
X67144125Y-60298500D01*
X67287000Y-60155625D01*
X67287000Y-59167500D01*
X66708375Y-59167500D01*
X66471500Y-59167500D01*
X66471500Y-58985637D01*
X66653218Y-58804236D01*
X66674605Y-58752730D01*
X66708375Y-58786500D01*
X67287000Y-58786500D01*
X67287000Y-57798375D01*
X67144125Y-57655500D01*
X67023321Y-57655500D01*
X66813271Y-57742506D01*
X66684680Y-57871097D01*
X66654097Y-57797080D01*
X66404236Y-57546782D01*
X66077609Y-57411154D01*
X65723943Y-57410846D01*
X65397080Y-57545903D01*
X65146782Y-57795764D01*
X65120763Y-57858424D01*
X65054097Y-57697080D01*
X64804236Y-57446782D01*
X64477609Y-57311154D01*
X64123943Y-57310846D01*
X64054825Y-57339405D01*
X64000000Y-57328499D01*
X63999995Y-57328500D01*
X63953208Y-57328500D01*
X63953208Y-57250000D01*
X63920324Y-57080514D01*
X63822471Y-56931551D01*
X63674748Y-56831836D01*
X63500000Y-56796792D01*
X62061431Y-56796792D01*
X62755015Y-56103208D01*
X63500000Y-56103208D01*
X63669486Y-56070324D01*
X63818449Y-55972471D01*
X63918164Y-55824748D01*
X63953208Y-55650000D01*
X63953208Y-54350000D01*
X63920324Y-54180514D01*
X63822471Y-54031551D01*
X63674748Y-53931836D01*
X63640560Y-53924980D01*
X64566756Y-53924980D01*
X68415569Y-57773792D01*
X68407000Y-57773792D01*
X68237514Y-57806676D01*
X68169546Y-57851324D01*
X68060729Y-57742506D01*
X67850679Y-57655500D01*
X67729875Y-57655500D01*
X67587000Y-57798375D01*
X67587000Y-58786500D01*
X67647500Y-58786500D01*
X67647500Y-59167500D01*
X67587000Y-59167500D01*
X67587000Y-60155625D01*
X67729875Y-60298500D01*
X67850679Y-60298500D01*
X68060729Y-60211494D01*
X68169450Y-60102772D01*
X68232252Y-60145164D01*
X68262500Y-60151230D01*
X68262500Y-60782363D01*
X68080782Y-60963764D01*
X67945154Y-61290391D01*
X67944846Y-61644057D01*
X68079903Y-61970920D01*
X68329764Y-62221218D01*
X68656391Y-62356846D01*
X69010057Y-62357154D01*
X69336920Y-62222097D01*
X69587218Y-61972236D01*
X69722846Y-61645609D01*
X69723154Y-61291943D01*
X69588097Y-60965080D01*
X69405500Y-60782164D01*
X69405500Y-60079855D01*
X69502252Y-60145164D01*
X69677000Y-60180208D01*
X70277000Y-60180208D01*
X70446486Y-60147324D01*
X70595449Y-60049471D01*
X70611526Y-60025654D01*
X70624529Y-60045449D01*
X70772252Y-60145164D01*
X70947000Y-60180208D01*
X71547000Y-60180208D01*
X71716486Y-60147324D01*
X71865449Y-60049471D01*
X71881526Y-60025654D01*
X71894529Y-60045449D01*
X72042252Y-60145164D01*
X72217000Y-60180208D01*
X72817000Y-60180208D01*
X72986486Y-60147324D01*
X73054454Y-60102676D01*
X73163271Y-60211494D01*
X73373321Y-60298500D01*
X73494125Y-60298500D01*
X73637000Y-60155625D01*
X73637000Y-59167500D01*
X73937000Y-59167500D01*
X73937000Y-60155625D01*
X74079875Y-60298500D01*
X74200679Y-60298500D01*
X74410729Y-60211494D01*
X74422000Y-60200223D01*
X74433271Y-60211494D01*
X74643321Y-60298500D01*
X74764125Y-60298500D01*
X74907000Y-60155625D01*
X74907000Y-59167500D01*
X73937000Y-59167500D01*
X73637000Y-59167500D01*
X73637000Y-59167500D01*
X73576500Y-59167500D01*
X73576500Y-58786500D01*
X73637000Y-58786500D01*
X73637000Y-57798375D01*
X73494125Y-57655500D01*
X74079875Y-57655500D01*
X73937000Y-57798375D01*
X73937000Y-58786500D01*
X74907000Y-58786500D01*
X74907000Y-57798375D01*
X74764125Y-57655500D01*
X74643321Y-57655500D01*
X74433271Y-57742506D01*
X74422000Y-57753777D01*
X74410729Y-57742506D01*
X74200679Y-57655500D01*
X74079875Y-57655500D01*
X73494125Y-57655500D01*
X73494125Y-57655500D01*
X73373321Y-57655500D01*
X73163271Y-57742506D01*
X73054550Y-57851228D01*
X72991748Y-57808836D01*
X72817000Y-57773792D01*
X72572015Y-57773792D01*
X65394112Y-50595888D01*
X65353123Y-50568500D01*
X65208704Y-50472003D01*
X65172418Y-50464785D01*
X64990000Y-50428499D01*
X64989995Y-50428500D01*
X52215125Y-50428500D01*
X51288146Y-49501521D01*
X51402920Y-49454097D01*
X51567701Y-49289603D01*
X57485804Y-49289603D01*
X57549686Y-49494691D01*
X58016918Y-49628240D01*
X58499691Y-49572821D01*
X58688314Y-49494691D01*
X58752196Y-49289603D01*
X58119000Y-48656408D01*
X57485804Y-49289603D01*
X51567701Y-49289603D01*
X51653218Y-49204236D01*
X51788846Y-48877609D01*
X51789154Y-48523943D01*
X51654097Y-48197080D01*
X51404236Y-47946782D01*
X51093340Y-47817686D01*
X57011309Y-47817686D01*
X56877760Y-48284918D01*
X56933179Y-48767691D01*
X57011309Y-48956314D01*
X57216397Y-49020196D01*
X57849592Y-48387000D01*
X58388408Y-48387000D01*
X59021603Y-49020196D01*
X59226691Y-48956314D01*
X59360240Y-48489082D01*
X59304821Y-48006309D01*
X59226691Y-47817686D01*
X59021603Y-47753804D01*
X58388408Y-48387000D01*
X57849592Y-48387000D01*
X57849592Y-48387000D01*
X57216397Y-47753804D01*
X57011309Y-47817686D01*
X51093340Y-47817686D01*
X51077609Y-47811154D01*
X50819152Y-47810929D01*
X50442724Y-47434500D01*
X50593625Y-47434500D01*
X50736500Y-47291625D01*
X50736500Y-46037500D01*
X50716500Y-46037500D01*
X50716500Y-45656500D01*
X50736500Y-45656500D01*
X50736500Y-44402375D01*
X50593625Y-44259500D01*
X50048724Y-44259500D01*
X51104109Y-43204114D01*
X51104112Y-43204112D01*
X51227997Y-43018704D01*
X51227998Y-43018703D01*
X51271501Y-42800000D01*
X51271500Y-42799995D01*
X51271500Y-38485637D01*
X51453218Y-38304236D01*
X51588846Y-37977609D01*
X51589052Y-37740696D01*
X52387500Y-38539144D01*
X52387500Y-44467278D01*
X52266729Y-44346506D01*
X52056679Y-44259500D01*
X51260375Y-44259500D01*
X51117500Y-44402375D01*
X51117500Y-45656500D01*
X51137500Y-45656500D01*
X51137500Y-46037500D01*
X51117500Y-46037500D01*
X51117500Y-47291625D01*
X51260375Y-47434500D01*
X52056679Y-47434500D01*
X52266729Y-47347494D01*
X52427494Y-47186728D01*
X52514500Y-46976678D01*
X52514500Y-46961949D01*
X52908091Y-47224939D01*
X53467000Y-47336113D01*
X54025909Y-47224939D01*
X54061468Y-47201179D01*
X57738309Y-47201179D01*
X57549686Y-47279309D01*
X57485804Y-47484397D01*
X58119000Y-48117592D01*
X58752196Y-47484397D01*
X58688314Y-47279309D01*
X58221082Y-47145760D01*
X57738309Y-47201179D01*
X54061468Y-47201179D01*
X54499729Y-46908342D01*
X54816326Y-46434522D01*
X54927500Y-45875613D01*
X54927500Y-45818387D01*
X54816326Y-45259478D01*
X54546500Y-44855656D01*
X54546500Y-38092000D01*
X54464328Y-37678893D01*
X54230322Y-37328678D01*
X50635322Y-33733678D01*
X50495083Y-33639973D01*
X50702920Y-33554097D01*
X50885836Y-33371500D01*
X52714189Y-33371500D01*
X52795764Y-33453218D01*
X53122391Y-33588846D01*
X53476057Y-33589154D01*
X53802920Y-33454097D01*
X54053218Y-33204236D01*
X54188846Y-32877609D01*
X54189154Y-32523943D01*
X54054097Y-32197080D01*
X53804236Y-31946782D01*
X53477609Y-31811154D01*
X53123943Y-31810846D01*
X52797080Y-31945903D01*
X52546782Y-32195764D01*
X52533189Y-32228500D01*
X50885637Y-32228500D01*
X50704236Y-32046782D01*
X50377609Y-31911154D01*
X50042508Y-31910862D01*
X51028870Y-30924500D01*
X70168856Y-30924500D01*
X72495676Y-33251319D01*
X72495678Y-33251322D01*
X72845893Y-33485328D01*
X73259000Y-33567500D01*
X73363856Y-33567500D01*
X72880116Y-34051240D01*
X70618500Y-34051240D01*
X70618500Y-33762315D01*
X70475625Y-33619440D01*
X69094500Y-33619440D01*
X69094500Y-33639440D01*
X68713500Y-33639440D01*
X68713500Y-33619440D01*
X67332375Y-33619440D01*
X67189500Y-33762315D01*
X67189500Y-34114118D01*
X67276506Y-34324168D01*
X67341833Y-34389495D01*
X67307792Y-34559240D01*
X67307792Y-35702240D01*
X67317155Y-35750500D01*
X66237208Y-35750500D01*
X66237208Y-32285940D01*
X67647321Y-32285940D01*
X67437271Y-32372946D01*
X67276506Y-32533712D01*
X67189500Y-32743762D01*
X67189500Y-33095565D01*
X67332375Y-33238440D01*
X68713500Y-33238440D01*
X68713500Y-32428815D01*
X68570625Y-32285940D01*
X69237375Y-32285940D01*
X68570625Y-32285940D01*
X68570625Y-32285940D01*
X69237375Y-32285940D01*
X69094500Y-32428815D01*
X69094500Y-33238440D01*
X70475625Y-33238440D01*
X70618500Y-33095565D01*
X70618500Y-32743762D01*
X70531494Y-32533712D01*
X70370729Y-32372946D01*
X70160679Y-32285940D01*
X69237375Y-32285940D01*
X68570625Y-32285940D01*
X68570625Y-32285940D01*
X67647321Y-32285940D01*
X66237208Y-32285940D01*
X66237208Y-31430000D01*
X66204324Y-31260514D01*
X66106471Y-31111551D01*
X65958748Y-31011836D01*
X65784000Y-30976792D01*
X55374000Y-30976792D01*
X55204514Y-31009676D01*
X55055551Y-31107529D01*
X54955836Y-31255252D01*
X54920792Y-31430000D01*
X54920792Y-42230000D01*
X54953676Y-42399486D01*
X55051529Y-42548449D01*
X55199252Y-42648164D01*
X55374000Y-42683208D01*
X65376148Y-42683208D01*
X62355678Y-45703678D01*
X62121672Y-46053893D01*
X62039500Y-46467000D01*
X62039500Y-47618779D01*
X62015792Y-47737000D01*
X62015792Y-49037000D01*
X62048676Y-49206486D01*
X62146529Y-49355449D01*
X62294252Y-49455164D01*
X62469000Y-49490208D01*
X63769000Y-49490208D01*
X63938486Y-49457324D01*
X64087449Y-49359471D01*
X64187164Y-49211748D01*
X64222208Y-49037000D01*
X64222208Y-47737000D01*
X64198500Y-47614808D01*
X64198500Y-46914144D01*
X66808440Y-44304204D01*
X67667558Y-45163322D01*
X68017773Y-45397328D01*
X68068851Y-45407488D01*
X68430880Y-45479501D01*
X68430885Y-45479500D01*
X69990726Y-45479500D01*
X70974548Y-46463322D01*
X71324763Y-46697328D01*
X71393303Y-46710961D01*
X71737870Y-46779501D01*
X71737875Y-46779500D01*
X85700000Y-46779500D01*
X85880984Y-46743500D01*
X88256233Y-46743500D01*
X88158318Y-46953625D01*
X88365499Y-47388094D01*
X88769151Y-47747200D01*
X89279500Y-47924500D01*
X89979500Y-47924500D01*
X89979500Y-46743500D01*
X88256233Y-46743500D01*
X85880984Y-46743500D01*
X86113107Y-46697328D01*
X86463322Y-46463322D01*
X87745144Y-45181500D01*
X89279500Y-45181500D01*
X88769151Y-45358800D01*
X88365499Y-45717906D01*
X88158318Y-46152375D01*
X88256233Y-46362500D01*
X89979500Y-46362500D01*
X89979500Y-45181500D01*
X89279500Y-45181500D01*
X87745144Y-45181500D01*
X87763322Y-45163322D01*
X87875197Y-44995889D01*
X87997328Y-44813107D01*
X88028564Y-44656074D01*
X88079501Y-44400000D01*
X88079500Y-44399995D01*
X88079500Y-40417144D01*
X90963319Y-37533324D01*
X90963322Y-37533322D01*
X91197328Y-37183107D01*
X91279500Y-36770000D01*
X91279500Y-35876590D01*
X91414345Y-35849768D01*
X91628500Y-35706674D01*
X91628500Y-39732277D01*
X89765888Y-41594888D01*
X89642003Y-41780296D01*
X89642003Y-41780297D01*
X89636393Y-41808500D01*
X89431905Y-41808500D01*
X88955655Y-41903232D01*
X88551911Y-42173006D01*
X88282137Y-42576750D01*
X88187405Y-43053000D01*
X88282137Y-43529250D01*
X88551911Y-43932994D01*
X88955655Y-44202768D01*
X89431905Y-44297500D01*
X90908095Y-44297500D01*
X91384345Y-44202768D01*
X91788089Y-43932994D01*
X92057863Y-43529250D01*
X92128500Y-43174134D01*
X92128500Y-46040850D01*
X91974501Y-45717906D01*
X91570849Y-45358800D01*
X91060500Y-45181500D01*
X90360500Y-45181500D01*
X90360500Y-46362500D01*
X90380500Y-46362500D01*
X90380500Y-46743500D01*
X90360500Y-46743500D01*
X90360500Y-47924500D01*
X90436276Y-47924500D01*
X89765888Y-48594888D01*
X89642003Y-48780296D01*
X89641665Y-48781995D01*
X89636393Y-48808500D01*
X89431905Y-48808500D01*
X88955655Y-48903232D01*
X88551911Y-49173006D01*
X88282137Y-49576750D01*
X88187405Y-50053000D01*
X88282137Y-50529250D01*
X88551911Y-50932994D01*
X88955655Y-51202768D01*
X89431905Y-51297500D01*
X90908095Y-51297500D01*
X91384345Y-51202768D01*
X91788089Y-50932994D01*
X92057863Y-50529250D01*
X92152595Y-50053000D01*
X92057863Y-49576750D01*
X91788089Y-49173006D01*
X91384345Y-48903232D01*
X91125483Y-48851741D01*
X93104109Y-46873114D01*
X93104112Y-46873112D01*
X93227997Y-46687704D01*
X93271500Y-46469000D01*
X93271500Y-29900000D01*
X93227997Y-29681296D01*
X93104112Y-29495888D01*
X93104109Y-29495886D01*
X91604112Y-27995888D01*
X91418704Y-27872003D01*
X91382418Y-27864785D01*
X91200000Y-27828499D01*
X91199995Y-27828500D01*
X88267714Y-27828500D01*
X88288846Y-27777609D01*
X88289154Y-27423943D01*
X88154097Y-27097080D01*
X87904236Y-26846782D01*
X87577609Y-26711154D01*
X87223943Y-26710846D01*
X86923462Y-26835002D01*
X87005102Y-26680669D01*
X86909540Y-26460500D01*
X85820500Y-26460500D01*
X85820500Y-26480500D01*
X85439500Y-26480500D01*
X85439500Y-26460500D01*
X85419500Y-26460500D01*
X85419500Y-26079500D01*
X85439500Y-26079500D01*
X85439500Y-26059500D01*
X85820500Y-26059500D01*
X85820500Y-26079500D01*
X86909540Y-26079500D01*
X87005102Y-25859331D01*
X86743272Y-25364363D01*
X86311957Y-25007270D01*
X86160153Y-24944399D01*
X86554966Y-24680593D01*
X86838527Y-24256215D01*
X86938100Y-23755627D01*
X86938100Y-23704373D01*
X86888816Y-23456604D01*
X89470683Y-23456604D01*
X89390647Y-23536500D01*
X89100000Y-23536500D01*
X89075700Y-23541334D01*
X89055099Y-23555099D01*
X89041334Y-23575700D01*
X89036500Y-23600000D01*
X89036500Y-23890028D01*
X88958402Y-23967990D01*
X88680817Y-24636491D01*
X88680185Y-25360333D01*
X88956604Y-26029317D01*
X89036500Y-26109353D01*
X89036500Y-26400000D01*
X89041334Y-26424300D01*
X89055099Y-26444901D01*
X89075700Y-26458666D01*
X89100000Y-26463500D01*
X89390028Y-26463500D01*
X89467990Y-26541598D01*
X90136491Y-26819183D01*
X90860333Y-26819815D01*
X91529317Y-26543396D01*
X91609353Y-26463500D01*
X91900000Y-26463500D01*
X91924300Y-26458666D01*
X91944901Y-26444901D01*
X91958666Y-26424300D01*
X91963500Y-26400000D01*
X91963500Y-26109972D01*
X92041598Y-26032010D01*
X92319183Y-25363509D01*
X92319815Y-24639667D01*
X92043396Y-23970683D01*
X91963500Y-23890647D01*
X91963500Y-23600000D01*
X91958666Y-23575700D01*
X91944901Y-23555099D01*
X91924300Y-23541334D01*
X91900000Y-23536500D01*
X91609972Y-23536500D01*
X91532010Y-23458402D01*
X90863509Y-23180817D01*
X90139667Y-23180185D01*
X89470683Y-23456604D01*
X86888816Y-23456604D01*
X86838527Y-23203785D01*
X86554966Y-22779407D01*
X86130588Y-22495846D01*
X85630000Y-22396273D01*
X85129412Y-22495846D01*
X84705034Y-22779407D01*
X84421473Y-23203785D01*
X84360000Y-23512831D01*
X84298527Y-23203785D01*
X84014966Y-22779407D01*
X83590588Y-22495846D01*
X83090000Y-22396273D01*
X82589412Y-22495846D01*
X82165034Y-22779407D01*
X81881473Y-23203785D01*
X81820000Y-23512831D01*
X81758527Y-23203785D01*
X81474966Y-22779407D01*
X81050588Y-22495846D01*
X80550000Y-22396273D01*
X80111683Y-22483460D01*
X79147724Y-21519500D01*
X90948834Y-21519500D01*
X91945352Y-21717719D01*
G36*
X65210276Y-52028500D02*
X59185637Y-52028500D01*
X59004236Y-51846782D01*
X58677609Y-51711154D01*
X58323943Y-51710846D01*
X57997080Y-51845903D01*
X57772196Y-52070394D01*
X57721011Y-52019120D01*
X57394384Y-51883492D01*
X57040718Y-51883184D01*
X56713855Y-52018241D01*
X56463557Y-52268102D01*
X56327929Y-52594729D01*
X56327621Y-52948395D01*
X56462678Y-53275258D01*
X56680400Y-53493361D01*
X56688778Y-53535479D01*
X56751465Y-53629297D01*
X56812663Y-53720887D01*
X56849366Y-53757589D01*
X56849368Y-53757592D01*
X56955490Y-53828500D01*
X57034777Y-53881478D01*
X57253480Y-53924981D01*
X57253485Y-53924980D01*
X59154717Y-53924980D01*
X59130514Y-53929676D01*
X58981551Y-54027529D01*
X58881836Y-54175252D01*
X58846792Y-54350000D01*
X58846792Y-54428500D01*
X58800005Y-54428500D01*
X58800000Y-54428499D01*
X58617582Y-54464785D01*
X58581296Y-54472003D01*
X58395888Y-54595888D01*
X58395886Y-54595891D01*
X57980707Y-55011070D01*
X57723943Y-55010846D01*
X57397080Y-55145903D01*
X57146782Y-55395764D01*
X57011154Y-55722391D01*
X57010846Y-56076057D01*
X57145903Y-56402920D01*
X57395764Y-56653218D01*
X57584490Y-56731584D01*
X57417582Y-56764785D01*
X57381296Y-56772003D01*
X57195888Y-56895888D01*
X57195886Y-56895891D01*
X57080707Y-57011070D01*
X56823943Y-57010846D01*
X56497080Y-57145903D01*
X56370500Y-57272262D01*
X56370500Y-57069375D01*
X56227625Y-56926500D01*
X55649000Y-56926500D01*
X55649000Y-57914625D01*
X55791875Y-58057500D01*
X55912679Y-58057500D01*
X56110934Y-57975380D01*
X56110846Y-58076057D01*
X56245903Y-58402920D01*
X56494948Y-58652401D01*
X53688868Y-58652401D01*
X53689154Y-58323943D01*
X53554097Y-57997080D01*
X53530500Y-57973442D01*
X53530500Y-57839312D01*
X53577449Y-57808471D01*
X53593526Y-57784654D01*
X53606529Y-57804449D01*
X53754252Y-57904164D01*
X53929000Y-57939208D01*
X54529000Y-57939208D01*
X54698486Y-57906324D01*
X54766454Y-57861676D01*
X54875271Y-57970494D01*
X55085321Y-58057500D01*
X55206125Y-58057500D01*
X55349000Y-57914625D01*
X55349000Y-56926500D01*
X55288500Y-56926500D01*
X55288500Y-56545500D01*
X55349000Y-56545500D01*
X55349000Y-55557375D01*
X55206125Y-55414500D01*
X55791875Y-55414500D01*
X55649000Y-55557375D01*
X55649000Y-56545500D01*
X56227625Y-56545500D01*
X56370500Y-56402625D01*
X56370500Y-55872322D01*
X56283494Y-55662272D01*
X56122729Y-55501506D01*
X55912679Y-55414500D01*
X55791875Y-55414500D01*
X55206125Y-55414500D01*
X55206125Y-55414500D01*
X55085321Y-55414500D01*
X54875271Y-55501506D01*
X54800500Y-55576277D01*
X54800500Y-52729000D01*
X54756997Y-52510296D01*
X54633112Y-52324888D01*
X54633109Y-52324886D01*
X54188930Y-51880707D01*
X54189154Y-51623943D01*
X54167485Y-51571500D01*
X64753276Y-51571500D01*
X65210276Y-52028500D01*
X65210276Y-52028500D01*
G37*
X65210276Y-52028500D02*
X59185637Y-52028500D01*
X59004236Y-51846782D01*
X58677609Y-51711154D01*
X58323943Y-51710846D01*
X57997080Y-51845903D01*
X57772196Y-52070394D01*
X57721011Y-52019120D01*
X57394384Y-51883492D01*
X57040718Y-51883184D01*
X56713855Y-52018241D01*
X56463557Y-52268102D01*
X56327929Y-52594729D01*
X56327621Y-52948395D01*
X56462678Y-53275258D01*
X56680400Y-53493361D01*
X56688778Y-53535479D01*
X56751465Y-53629297D01*
X56812663Y-53720887D01*
X56849366Y-53757589D01*
X56849368Y-53757592D01*
X56955490Y-53828500D01*
X57034777Y-53881478D01*
X57253480Y-53924981D01*
X57253485Y-53924980D01*
X59154717Y-53924980D01*
X59130514Y-53929676D01*
X58981551Y-54027529D01*
X58881836Y-54175252D01*
X58846792Y-54350000D01*
X58846792Y-54428500D01*
X58800005Y-54428500D01*
X58800000Y-54428499D01*
X58617582Y-54464785D01*
X58581296Y-54472003D01*
X58395888Y-54595888D01*
X58395886Y-54595891D01*
X57980707Y-55011070D01*
X57723943Y-55010846D01*
X57397080Y-55145903D01*
X57146782Y-55395764D01*
X57011154Y-55722391D01*
X57010846Y-56076057D01*
X57145903Y-56402920D01*
X57395764Y-56653218D01*
X57584490Y-56731584D01*
X57417582Y-56764785D01*
X57381296Y-56772003D01*
X57195888Y-56895888D01*
X57195886Y-56895891D01*
X57080707Y-57011070D01*
X56823943Y-57010846D01*
X56497080Y-57145903D01*
X56370500Y-57272262D01*
X56370500Y-57069375D01*
X56227625Y-56926500D01*
X55649000Y-56926500D01*
X55649000Y-57914625D01*
X55791875Y-58057500D01*
X55912679Y-58057500D01*
X56110934Y-57975380D01*
X56110846Y-58076057D01*
X56245903Y-58402920D01*
X56494948Y-58652401D01*
X53688868Y-58652401D01*
X53689154Y-58323943D01*
X53554097Y-57997080D01*
X53530500Y-57973442D01*
X53530500Y-57839312D01*
X53577449Y-57808471D01*
X53593526Y-57784654D01*
X53606529Y-57804449D01*
X53754252Y-57904164D01*
X53929000Y-57939208D01*
X54529000Y-57939208D01*
X54698486Y-57906324D01*
X54766454Y-57861676D01*
X54875271Y-57970494D01*
X55085321Y-58057500D01*
X55206125Y-58057500D01*
X55349000Y-57914625D01*
X55349000Y-56926500D01*
X55288500Y-56926500D01*
X55288500Y-56545500D01*
X55349000Y-56545500D01*
X55349000Y-55557375D01*
X55206125Y-55414500D01*
X55791875Y-55414500D01*
X55649000Y-55557375D01*
X55649000Y-56545500D01*
X56227625Y-56545500D01*
X56370500Y-56402625D01*
X56370500Y-55872322D01*
X56283494Y-55662272D01*
X56122729Y-55501506D01*
X55912679Y-55414500D01*
X55791875Y-55414500D01*
X55206125Y-55414500D01*
X55206125Y-55414500D01*
X55085321Y-55414500D01*
X54875271Y-55501506D01*
X54800500Y-55576277D01*
X54800500Y-52729000D01*
X54756997Y-52510296D01*
X54633112Y-52324888D01*
X54633109Y-52324886D01*
X54188930Y-51880707D01*
X54189154Y-51623943D01*
X54167485Y-51571500D01*
X64753276Y-51571500D01*
X65210276Y-52028500D01*
G36*
X43572003Y-33918704D02*
X43637016Y-34016003D01*
X43695888Y-34104112D01*
X46142746Y-36550969D01*
X46142518Y-36812916D01*
X46277575Y-37139779D01*
X46527436Y-37390077D01*
X46854063Y-37525705D01*
X47207729Y-37526013D01*
X47534592Y-37390956D01*
X47784890Y-37141095D01*
X47920518Y-36814468D01*
X47920826Y-36460802D01*
X47785769Y-36133939D01*
X47535908Y-35883641D01*
X47334980Y-35800208D01*
X48602000Y-35800208D01*
X48771486Y-35767324D01*
X48920449Y-35669471D01*
X48983206Y-35576500D01*
X49066429Y-35576500D01*
X48846782Y-35795764D01*
X48711154Y-36122391D01*
X48710911Y-36400966D01*
X48627504Y-36525795D01*
X48627504Y-36525796D01*
X48584000Y-36744499D01*
X48584001Y-36744504D01*
X48584001Y-38395589D01*
X48531238Y-38448352D01*
X48442397Y-38222651D01*
X47902172Y-38055452D01*
X47339084Y-38107715D01*
X47061603Y-38222651D01*
X46972761Y-38448353D01*
X47752000Y-39227592D01*
X47766142Y-39213450D01*
X48035550Y-39482858D01*
X48021408Y-39497000D01*
X48035550Y-39511142D01*
X47766142Y-39780550D01*
X47752000Y-39766408D01*
X46972761Y-40545647D01*
X47061603Y-40771349D01*
X47601828Y-40938548D01*
X48164916Y-40886285D01*
X48442397Y-40771349D01*
X48531238Y-40545648D01*
X48584001Y-40598411D01*
X48584001Y-42707776D01*
X48095888Y-43195888D01*
X47972003Y-43381296D01*
X47972003Y-43381297D01*
X47928499Y-43600000D01*
X47928500Y-43600005D01*
X47928500Y-44934394D01*
X47926235Y-44945779D01*
X47730366Y-45141306D01*
X47594738Y-45467933D01*
X47594442Y-45807816D01*
X43568119Y-41781493D01*
X43568119Y-38806603D01*
X46477651Y-38806603D01*
X46310452Y-39346828D01*
X46362715Y-39909916D01*
X46477651Y-40187397D01*
X46703353Y-40276239D01*
X47482592Y-39497000D01*
X46703353Y-38717761D01*
X46477651Y-38806603D01*
X43568119Y-38806603D01*
X43568119Y-33899178D01*
X43572003Y-33918704D01*
X43572003Y-33918704D01*
G37*
X43572003Y-33918704D02*
X43637016Y-34016003D01*
X43695888Y-34104112D01*
X46142746Y-36550969D01*
X46142518Y-36812916D01*
X46277575Y-37139779D01*
X46527436Y-37390077D01*
X46854063Y-37525705D01*
X47207729Y-37526013D01*
X47534592Y-37390956D01*
X47784890Y-37141095D01*
X47920518Y-36814468D01*
X47920826Y-36460802D01*
X47785769Y-36133939D01*
X47535908Y-35883641D01*
X47334980Y-35800208D01*
X48602000Y-35800208D01*
X48771486Y-35767324D01*
X48920449Y-35669471D01*
X48983206Y-35576500D01*
X49066429Y-35576500D01*
X48846782Y-35795764D01*
X48711154Y-36122391D01*
X48710911Y-36400966D01*
X48627504Y-36525795D01*
X48627504Y-36525796D01*
X48584000Y-36744499D01*
X48584001Y-36744504D01*
X48584001Y-38395589D01*
X48531238Y-38448352D01*
X48442397Y-38222651D01*
X47902172Y-38055452D01*
X47339084Y-38107715D01*
X47061603Y-38222651D01*
X46972761Y-38448353D01*
X47752000Y-39227592D01*
X47766142Y-39213450D01*
X48035550Y-39482858D01*
X48021408Y-39497000D01*
X48035550Y-39511142D01*
X47766142Y-39780550D01*
X47752000Y-39766408D01*
X46972761Y-40545647D01*
X47061603Y-40771349D01*
X47601828Y-40938548D01*
X48164916Y-40886285D01*
X48442397Y-40771349D01*
X48531238Y-40545648D01*
X48584001Y-40598411D01*
X48584001Y-42707776D01*
X48095888Y-43195888D01*
X47972003Y-43381296D01*
X47972003Y-43381297D01*
X47928499Y-43600000D01*
X47928500Y-43600005D01*
X47928500Y-44934394D01*
X47926235Y-44945779D01*
X47730366Y-45141306D01*
X47594738Y-45467933D01*
X47594442Y-45807816D01*
X43568119Y-41781493D01*
X43568119Y-38806603D01*
X46477651Y-38806603D01*
X46310452Y-39346828D01*
X46362715Y-39909916D01*
X46477651Y-40187397D01*
X46703353Y-40276239D01*
X47482592Y-39497000D01*
X46703353Y-38717761D01*
X46477651Y-38806603D01*
X43568119Y-38806603D01*
X43568119Y-33899178D01*
X43572003Y-33918704D01*
G36*
X68040500Y-26079500D02*
X68060500Y-26079500D01*
X68060500Y-26460500D01*
X68040500Y-26460500D01*
X68040500Y-27548106D01*
X68260667Y-27645087D01*
X68531957Y-27532730D01*
X68963272Y-27175637D01*
X69176693Y-26772183D01*
X69181473Y-26796215D01*
X69465034Y-27220593D01*
X69889412Y-27504154D01*
X70390000Y-27603727D01*
X70890588Y-27504154D01*
X71314966Y-27220593D01*
X71598527Y-26796215D01*
X71660000Y-26487169D01*
X71721473Y-26796215D01*
X72005034Y-27220593D01*
X72429412Y-27504154D01*
X72930000Y-27603727D01*
X73368317Y-27516541D01*
X75655886Y-29804109D01*
X75655888Y-29804112D01*
X75841296Y-29927997D01*
X76060000Y-29971500D01*
X88897882Y-29971500D01*
X88799151Y-30005800D01*
X88395499Y-30364906D01*
X88188318Y-30799375D01*
X88286233Y-31009500D01*
X90009500Y-31009500D01*
X90009500Y-30989500D01*
X90390500Y-30989500D01*
X90390500Y-31009500D01*
X90410500Y-31009500D01*
X90410500Y-31390500D01*
X90390500Y-31390500D01*
X90390500Y-32571500D01*
X91090500Y-32571500D01*
X91600849Y-32394200D01*
X91628500Y-32369600D01*
X91628500Y-33693326D01*
X91414345Y-33550232D01*
X90938095Y-33455500D01*
X89461905Y-33455500D01*
X88985655Y-33550232D01*
X88581911Y-33820006D01*
X88312137Y-34223750D01*
X88217405Y-34700000D01*
X88312137Y-35176250D01*
X88581911Y-35579994D01*
X88985655Y-35849768D01*
X89120500Y-35876590D01*
X89120500Y-36322857D01*
X86236678Y-39206678D01*
X86002672Y-39556893D01*
X85920500Y-39970000D01*
X85920500Y-43952856D01*
X85252856Y-44620500D01*
X72185014Y-44620500D01*
X71201192Y-43636678D01*
X70979047Y-43488246D01*
X71248322Y-43308322D01*
X71289144Y-43267500D01*
X74075792Y-43267500D01*
X74075792Y-43938000D01*
X74108676Y-44107486D01*
X74206529Y-44256449D01*
X74354252Y-44356164D01*
X74529000Y-44391208D01*
X84729000Y-44391208D01*
X84898486Y-44358324D01*
X85047449Y-44260471D01*
X85147164Y-44112748D01*
X85182208Y-43938000D01*
X85182208Y-40438000D01*
X85149324Y-40268514D01*
X85051471Y-40119551D01*
X84903748Y-40019836D01*
X84863500Y-40011765D01*
X84863500Y-34665112D01*
X84898486Y-34658324D01*
X85047449Y-34560471D01*
X85147164Y-34412748D01*
X85182208Y-34238000D01*
X85182208Y-31390500D01*
X88286233Y-31390500D01*
X88188318Y-31600625D01*
X88395499Y-32035094D01*
X88799151Y-32394200D01*
X89309500Y-32571500D01*
X90009500Y-32571500D01*
X90009500Y-31390500D01*
X88286233Y-31390500D01*
X85182208Y-31390500D01*
X85182208Y-30738000D01*
X85149324Y-30568514D01*
X85051471Y-30419551D01*
X84903748Y-30319836D01*
X84729000Y-30284792D01*
X74529000Y-30284792D01*
X74359514Y-30317676D01*
X74210551Y-30415529D01*
X74110836Y-30563252D01*
X74075792Y-30738000D01*
X74075792Y-31408500D01*
X73706143Y-31408500D01*
X71379322Y-29081678D01*
X71029107Y-28847672D01*
X70616000Y-28765500D01*
X58542724Y-28765500D01*
X59791683Y-27516540D01*
X60230000Y-27603727D01*
X60730588Y-27504154D01*
X61154966Y-27220593D01*
X61438527Y-26796215D01*
X61500000Y-26487169D01*
X61561473Y-26796215D01*
X61845034Y-27220593D01*
X62269412Y-27504154D01*
X62770000Y-27603727D01*
X63270588Y-27504154D01*
X63694966Y-27220593D01*
X63978527Y-26796215D01*
X64040000Y-26487169D01*
X64101473Y-26796215D01*
X64385034Y-27220593D01*
X64809412Y-27504154D01*
X65310000Y-27603727D01*
X65810588Y-27504154D01*
X66234966Y-27220593D01*
X66518527Y-26796215D01*
X66523307Y-26772183D01*
X66736728Y-27175637D01*
X67168043Y-27532730D01*
X67439333Y-27645087D01*
X67659500Y-27548106D01*
X67659500Y-26460500D01*
X67639500Y-26460500D01*
X67639500Y-26079500D01*
X67659500Y-26079500D01*
X67659500Y-26059500D01*
X68040500Y-26059500D01*
X68040500Y-26079500D01*
X68040500Y-26079500D01*
G37*
X68040500Y-26079500D02*
X68060500Y-26079500D01*
X68060500Y-26460500D01*
X68040500Y-26460500D01*
X68040500Y-27548106D01*
X68260667Y-27645087D01*
X68531957Y-27532730D01*
X68963272Y-27175637D01*
X69176693Y-26772183D01*
X69181473Y-26796215D01*
X69465034Y-27220593D01*
X69889412Y-27504154D01*
X70390000Y-27603727D01*
X70890588Y-27504154D01*
X71314966Y-27220593D01*
X71598527Y-26796215D01*
X71660000Y-26487169D01*
X71721473Y-26796215D01*
X72005034Y-27220593D01*
X72429412Y-27504154D01*
X72930000Y-27603727D01*
X73368317Y-27516541D01*
X75655886Y-29804109D01*
X75655888Y-29804112D01*
X75841296Y-29927997D01*
X76060000Y-29971500D01*
X88897882Y-29971500D01*
X88799151Y-30005800D01*
X88395499Y-30364906D01*
X88188318Y-30799375D01*
X88286233Y-31009500D01*
X90009500Y-31009500D01*
X90009500Y-30989500D01*
X90390500Y-30989500D01*
X90390500Y-31009500D01*
X90410500Y-31009500D01*
X90410500Y-31390500D01*
X90390500Y-31390500D01*
X90390500Y-32571500D01*
X91090500Y-32571500D01*
X91600849Y-32394200D01*
X91628500Y-32369600D01*
X91628500Y-33693326D01*
X91414345Y-33550232D01*
X90938095Y-33455500D01*
X89461905Y-33455500D01*
X88985655Y-33550232D01*
X88581911Y-33820006D01*
X88312137Y-34223750D01*
X88217405Y-34700000D01*
X88312137Y-35176250D01*
X88581911Y-35579994D01*
X88985655Y-35849768D01*
X89120500Y-35876590D01*
X89120500Y-36322857D01*
X86236678Y-39206678D01*
X86002672Y-39556893D01*
X85920500Y-39970000D01*
X85920500Y-43952856D01*
X85252856Y-44620500D01*
X72185014Y-44620500D01*
X71201192Y-43636678D01*
X70979047Y-43488246D01*
X71248322Y-43308322D01*
X71289144Y-43267500D01*
X74075792Y-43267500D01*
X74075792Y-43938000D01*
X74108676Y-44107486D01*
X74206529Y-44256449D01*
X74354252Y-44356164D01*
X74529000Y-44391208D01*
X84729000Y-44391208D01*
X84898486Y-44358324D01*
X85047449Y-44260471D01*
X85147164Y-44112748D01*
X85182208Y-43938000D01*
X85182208Y-40438000D01*
X85149324Y-40268514D01*
X85051471Y-40119551D01*
X84903748Y-40019836D01*
X84863500Y-40011765D01*
X84863500Y-34665112D01*
X84898486Y-34658324D01*
X85047449Y-34560471D01*
X85147164Y-34412748D01*
X85182208Y-34238000D01*
X85182208Y-31390500D01*
X88286233Y-31390500D01*
X88188318Y-31600625D01*
X88395499Y-32035094D01*
X88799151Y-32394200D01*
X89309500Y-32571500D01*
X90009500Y-32571500D01*
X90009500Y-31390500D01*
X88286233Y-31390500D01*
X85182208Y-31390500D01*
X85182208Y-30738000D01*
X85149324Y-30568514D01*
X85051471Y-30419551D01*
X84903748Y-30319836D01*
X84729000Y-30284792D01*
X74529000Y-30284792D01*
X74359514Y-30317676D01*
X74210551Y-30415529D01*
X74110836Y-30563252D01*
X74075792Y-30738000D01*
X74075792Y-31408500D01*
X73706143Y-31408500D01*
X71379322Y-29081678D01*
X71029107Y-28847672D01*
X70616000Y-28765500D01*
X58542724Y-28765500D01*
X59791683Y-27516540D01*
X60230000Y-27603727D01*
X60730588Y-27504154D01*
X61154966Y-27220593D01*
X61438527Y-26796215D01*
X61500000Y-26487169D01*
X61561473Y-26796215D01*
X61845034Y-27220593D01*
X62269412Y-27504154D01*
X62770000Y-27603727D01*
X63270588Y-27504154D01*
X63694966Y-27220593D01*
X63978527Y-26796215D01*
X64040000Y-26487169D01*
X64101473Y-26796215D01*
X64385034Y-27220593D01*
X64809412Y-27504154D01*
X65310000Y-27603727D01*
X65810588Y-27504154D01*
X66234966Y-27220593D01*
X66518527Y-26796215D01*
X66523307Y-26772183D01*
X66736728Y-27175637D01*
X67168043Y-27532730D01*
X67439333Y-27645087D01*
X67659500Y-27548106D01*
X67659500Y-26460500D01*
X67639500Y-26460500D01*
X67639500Y-26079500D01*
X67659500Y-26079500D01*
X67659500Y-26059500D01*
X68040500Y-26059500D01*
X68040500Y-26079500D01*
G36*
X47720500Y-26079500D02*
X47740500Y-26079500D01*
X47740500Y-26460500D01*
X47720500Y-26460500D01*
X47720500Y-27548106D01*
X47940667Y-27645087D01*
X48211957Y-27532730D01*
X48643272Y-27175637D01*
X48856693Y-26772183D01*
X48861473Y-26796215D01*
X49145034Y-27220593D01*
X49569412Y-27504154D01*
X50070000Y-27603727D01*
X50570588Y-27504154D01*
X50994966Y-27220593D01*
X51278527Y-26796215D01*
X51340000Y-26487169D01*
X51401473Y-26796215D01*
X51685034Y-27220593D01*
X52109412Y-27504154D01*
X52610000Y-27603727D01*
X53110588Y-27504154D01*
X53534966Y-27220593D01*
X53818527Y-26796215D01*
X53880000Y-26487169D01*
X53941473Y-26796215D01*
X54225034Y-27220593D01*
X54649412Y-27504154D01*
X55150000Y-27603727D01*
X55650588Y-27504154D01*
X56074966Y-27220593D01*
X56358527Y-26796215D01*
X56420000Y-26487169D01*
X56481473Y-26796215D01*
X56765034Y-27220593D01*
X57189412Y-27504154D01*
X57690000Y-27603727D01*
X58186886Y-27504890D01*
X57401388Y-28290388D01*
X49741624Y-28290388D01*
X49522920Y-28333891D01*
X49337512Y-28457776D01*
X49337510Y-28457779D01*
X49145982Y-28649307D01*
X48889218Y-28649083D01*
X48562355Y-28784140D01*
X48312057Y-29034001D01*
X48176429Y-29360628D01*
X48176121Y-29714294D01*
X48311178Y-30041157D01*
X48561039Y-30291455D01*
X48594664Y-30305418D01*
X48210834Y-30689248D01*
X47010230Y-29488644D01*
X47010230Y-29301327D01*
X46952226Y-29009722D01*
X46938277Y-28988846D01*
X46787045Y-28762511D01*
X46351805Y-28327272D01*
X46277479Y-28277609D01*
X46104595Y-28162091D01*
X45812990Y-28104087D01*
X43777111Y-28104087D01*
X43485506Y-28162091D01*
X43366847Y-28241377D01*
X44104109Y-27504114D01*
X44104112Y-27504112D01*
X44223018Y-27326155D01*
X44489412Y-27504154D01*
X44990000Y-27603727D01*
X45490588Y-27504154D01*
X45914966Y-27220593D01*
X46198527Y-26796215D01*
X46203307Y-26772183D01*
X46416728Y-27175637D01*
X46848043Y-27532730D01*
X47119333Y-27645087D01*
X47339500Y-27548106D01*
X47339500Y-26460500D01*
X47319500Y-26460500D01*
X47319500Y-26079500D01*
X47339500Y-26079500D01*
X47339500Y-26059500D01*
X47720500Y-26059500D01*
X47720500Y-26079500D01*
X47720500Y-26079500D01*
G37*
X47720500Y-26079500D02*
X47740500Y-26079500D01*
X47740500Y-26460500D01*
X47720500Y-26460500D01*
X47720500Y-27548106D01*
X47940667Y-27645087D01*
X48211957Y-27532730D01*
X48643272Y-27175637D01*
X48856693Y-26772183D01*
X48861473Y-26796215D01*
X49145034Y-27220593D01*
X49569412Y-27504154D01*
X50070000Y-27603727D01*
X50570588Y-27504154D01*
X50994966Y-27220593D01*
X51278527Y-26796215D01*
X51340000Y-26487169D01*
X51401473Y-26796215D01*
X51685034Y-27220593D01*
X52109412Y-27504154D01*
X52610000Y-27603727D01*
X53110588Y-27504154D01*
X53534966Y-27220593D01*
X53818527Y-26796215D01*
X53880000Y-26487169D01*
X53941473Y-26796215D01*
X54225034Y-27220593D01*
X54649412Y-27504154D01*
X55150000Y-27603727D01*
X55650588Y-27504154D01*
X56074966Y-27220593D01*
X56358527Y-26796215D01*
X56420000Y-26487169D01*
X56481473Y-26796215D01*
X56765034Y-27220593D01*
X57189412Y-27504154D01*
X57690000Y-27603727D01*
X58186886Y-27504890D01*
X57401388Y-28290388D01*
X49741624Y-28290388D01*
X49522920Y-28333891D01*
X49337512Y-28457776D01*
X49337510Y-28457779D01*
X49145982Y-28649307D01*
X48889218Y-28649083D01*
X48562355Y-28784140D01*
X48312057Y-29034001D01*
X48176429Y-29360628D01*
X48176121Y-29714294D01*
X48311178Y-30041157D01*
X48561039Y-30291455D01*
X48594664Y-30305418D01*
X48210834Y-30689248D01*
X47010230Y-29488644D01*
X47010230Y-29301327D01*
X46952226Y-29009722D01*
X46938277Y-28988846D01*
X46787045Y-28762511D01*
X46351805Y-28327272D01*
X46277479Y-28277609D01*
X46104595Y-28162091D01*
X45812990Y-28104087D01*
X43777111Y-28104087D01*
X43485506Y-28162091D01*
X43366847Y-28241377D01*
X44104109Y-27504114D01*
X44104112Y-27504112D01*
X44223018Y-27326155D01*
X44489412Y-27504154D01*
X44990000Y-27603727D01*
X45490588Y-27504154D01*
X45914966Y-27220593D01*
X46198527Y-26796215D01*
X46203307Y-26772183D01*
X46416728Y-27175637D01*
X46848043Y-27532730D01*
X47119333Y-27645087D01*
X47339500Y-27548106D01*
X47339500Y-26460500D01*
X47319500Y-26460500D01*
X47319500Y-26079500D01*
X47339500Y-26079500D01*
X47339500Y-26059500D01*
X47720500Y-26059500D01*
X47720500Y-26079500D01*
G36*
X46321473Y-24256215D02*
X46605034Y-24680593D01*
X46999847Y-24944399D01*
X46848043Y-25007270D01*
X46416728Y-25364363D01*
X46203307Y-25767817D01*
X46198527Y-25743785D01*
X45914966Y-25319407D01*
X45490588Y-25035846D01*
X45310378Y-25000000D01*
X45490588Y-24964154D01*
X45914966Y-24680593D01*
X46198527Y-24256215D01*
X46260000Y-23947169D01*
X46321473Y-24256215D01*
X46321473Y-24256215D01*
G37*
X46321473Y-24256215D02*
X46605034Y-24680593D01*
X46999847Y-24944399D01*
X46848043Y-25007270D01*
X46416728Y-25364363D01*
X46203307Y-25767817D01*
X46198527Y-25743785D01*
X45914966Y-25319407D01*
X45490588Y-25035846D01*
X45310378Y-25000000D01*
X45490588Y-24964154D01*
X45914966Y-24680593D01*
X46198527Y-24256215D01*
X46260000Y-23947169D01*
X46321473Y-24256215D01*
G36*
X78383195Y-22371419D02*
X78200500Y-22451894D01*
X78200500Y-23539500D01*
X78220500Y-23539500D01*
X78220500Y-23920500D01*
X78200500Y-23920500D01*
X78200500Y-23940500D01*
X77819500Y-23940500D01*
X77819500Y-23920500D01*
X77799500Y-23920500D01*
X77799500Y-23539500D01*
X77819500Y-23539500D01*
X77819500Y-22451894D01*
X77599333Y-22354913D01*
X77328043Y-22467270D01*
X76896728Y-22824363D01*
X76683307Y-23227817D01*
X76678527Y-23203785D01*
X76394966Y-22779407D01*
X75970588Y-22495846D01*
X75470000Y-22396273D01*
X74969412Y-22495846D01*
X74545034Y-22779407D01*
X74261473Y-23203785D01*
X74256693Y-23227817D01*
X74043272Y-22824363D01*
X73611957Y-22467270D01*
X73340667Y-22354913D01*
X73120500Y-22451894D01*
X73120500Y-23539500D01*
X73140500Y-23539500D01*
X73140500Y-23920500D01*
X73120500Y-23920500D01*
X73120500Y-23940500D01*
X72739500Y-23940500D01*
X72739500Y-23920500D01*
X72719500Y-23920500D01*
X72719500Y-23539500D01*
X72739500Y-23539500D01*
X72739500Y-22451894D01*
X72519333Y-22354913D01*
X72248043Y-22467270D01*
X71816728Y-22824363D01*
X71603307Y-23227817D01*
X71598527Y-23203785D01*
X71314966Y-22779407D01*
X70890588Y-22495846D01*
X70390000Y-22396273D01*
X69951683Y-22483460D01*
X69739724Y-22271500D01*
X78283276Y-22271500D01*
X78383195Y-22371419D01*
X78383195Y-22371419D01*
G37*
X78383195Y-22371419D02*
X78200500Y-22451894D01*
X78200500Y-23539500D01*
X78220500Y-23539500D01*
X78220500Y-23920500D01*
X78200500Y-23920500D01*
X78200500Y-23940500D01*
X77819500Y-23940500D01*
X77819500Y-23920500D01*
X77799500Y-23920500D01*
X77799500Y-23539500D01*
X77819500Y-23539500D01*
X77819500Y-22451894D01*
X77599333Y-22354913D01*
X77328043Y-22467270D01*
X76896728Y-22824363D01*
X76683307Y-23227817D01*
X76678527Y-23203785D01*
X76394966Y-22779407D01*
X75970588Y-22495846D01*
X75470000Y-22396273D01*
X74969412Y-22495846D01*
X74545034Y-22779407D01*
X74261473Y-23203785D01*
X74256693Y-23227817D01*
X74043272Y-22824363D01*
X73611957Y-22467270D01*
X73340667Y-22354913D01*
X73120500Y-22451894D01*
X73120500Y-23539500D01*
X73140500Y-23539500D01*
X73140500Y-23920500D01*
X73120500Y-23920500D01*
X73120500Y-23940500D01*
X72739500Y-23940500D01*
X72739500Y-23920500D01*
X72719500Y-23920500D01*
X72719500Y-23539500D01*
X72739500Y-23539500D01*
X72739500Y-22451894D01*
X72519333Y-22354913D01*
X72248043Y-22467270D01*
X71816728Y-22824363D01*
X71603307Y-23227817D01*
X71598527Y-23203785D01*
X71314966Y-22779407D01*
X70890588Y-22495846D01*
X70390000Y-22396273D01*
X69951683Y-22483460D01*
X69739724Y-22271500D01*
X78283276Y-22271500D01*
X78383195Y-22371419D01*
G36*
X60420500Y-23539500D02*
X60440500Y-23539500D01*
X60440500Y-23920500D01*
X60420500Y-23920500D01*
X60420500Y-23940500D01*
X60039500Y-23940500D01*
X60039500Y-23920500D01*
X60019500Y-23920500D01*
X60019500Y-23539500D01*
X60039500Y-23539500D01*
X60039500Y-23519500D01*
X60420500Y-23519500D01*
X60420500Y-23539500D01*
X60420500Y-23539500D01*
G37*
X60420500Y-23539500D02*
X60440500Y-23539500D01*
X60440500Y-23920500D01*
X60420500Y-23920500D01*
X60420500Y-23940500D01*
X60039500Y-23940500D01*
X60039500Y-23920500D01*
X60019500Y-23920500D01*
X60019500Y-23539500D01*
X60039500Y-23539500D01*
X60039500Y-23519500D01*
X60420500Y-23519500D01*
X60420500Y-23539500D01*
G36*
X52800500Y-23539500D02*
X52820500Y-23539500D01*
X52820500Y-23920500D01*
X52800500Y-23920500D01*
X52800500Y-23940500D01*
X52419500Y-23940500D01*
X52419500Y-23920500D01*
X52399500Y-23920500D01*
X52399500Y-23539500D01*
X52419500Y-23539500D01*
X52419500Y-23519500D01*
X52800500Y-23519500D01*
X52800500Y-23539500D01*
X52800500Y-23539500D01*
G37*
X52800500Y-23539500D02*
X52820500Y-23539500D01*
X52820500Y-23920500D01*
X52800500Y-23920500D01*
X52800500Y-23940500D01*
X52419500Y-23940500D01*
X52419500Y-23920500D01*
X52399500Y-23920500D01*
X52399500Y-23539500D01*
X52419500Y-23539500D01*
X52419500Y-23519500D01*
X52800500Y-23519500D01*
X52800500Y-23539500D01*
G36*
X43295888Y-22495888D02*
X43249813Y-22564845D01*
X43131957Y-22467270D01*
X42860667Y-22354913D01*
X42640500Y-22451894D01*
X42640500Y-23539500D01*
X42660500Y-23539500D01*
X42660500Y-23920500D01*
X42640500Y-23920500D01*
X42640500Y-23940500D01*
X42259500Y-23940500D01*
X42259500Y-23920500D01*
X42239500Y-23920500D01*
X42239500Y-23539500D01*
X42259500Y-23539500D01*
X42259500Y-22451894D01*
X42039333Y-22354913D01*
X41768043Y-22467270D01*
X41336728Y-22824363D01*
X41123307Y-23227817D01*
X41118527Y-23203785D01*
X40834966Y-22779407D01*
X40410588Y-22495846D01*
X39910000Y-22396273D01*
X39409412Y-22495846D01*
X38985034Y-22779407D01*
X38859020Y-22968000D01*
X38420980Y-22968000D01*
X38294966Y-22779407D01*
X37870588Y-22495846D01*
X37370000Y-22396273D01*
X37047876Y-22460347D01*
X37236723Y-22271500D01*
X43520276Y-22271500D01*
X43295888Y-22495888D01*
X43295888Y-22495888D01*
G37*
X43295888Y-22495888D02*
X43249813Y-22564845D01*
X43131957Y-22467270D01*
X42860667Y-22354913D01*
X42640500Y-22451894D01*
X42640500Y-23539500D01*
X42660500Y-23539500D01*
X42660500Y-23920500D01*
X42640500Y-23920500D01*
X42640500Y-23940500D01*
X42259500Y-23940500D01*
X42259500Y-23920500D01*
X42239500Y-23920500D01*
X42239500Y-23539500D01*
X42259500Y-23539500D01*
X42259500Y-22451894D01*
X42039333Y-22354913D01*
X41768043Y-22467270D01*
X41336728Y-22824363D01*
X41123307Y-23227817D01*
X41118527Y-23203785D01*
X40834966Y-22779407D01*
X40410588Y-22495846D01*
X39910000Y-22396273D01*
X39409412Y-22495846D01*
X38985034Y-22779407D01*
X38859020Y-22968000D01*
X38420980Y-22968000D01*
X38294966Y-22779407D01*
X37870588Y-22495846D01*
X37370000Y-22396273D01*
X37047876Y-22460347D01*
X37236723Y-22271500D01*
X43520276Y-22271500D01*
X43295888Y-22495888D01*
G36*
X66925034Y-22779407D02*
X66641473Y-23203785D01*
X66580000Y-23512831D01*
X66518527Y-23203785D01*
X66234966Y-22779407D01*
X66187362Y-22747599D01*
X66972638Y-22747599D01*
X66925034Y-22779407D01*
X66925034Y-22779407D01*
G37*
X66925034Y-22779407D02*
X66641473Y-23203785D01*
X66580000Y-23512831D01*
X66518527Y-23203785D01*
X66234966Y-22779407D01*
X66187362Y-22747599D01*
X66972638Y-22747599D01*
X66925034Y-22779407D01*
G36*
X46629371Y-22763146D02*
X46605034Y-22779407D01*
X46321473Y-23203785D01*
X46260000Y-23512831D01*
X46198527Y-23203785D01*
X45914966Y-22779407D01*
X45867362Y-22747599D01*
X46551214Y-22747599D01*
X46629371Y-22763146D01*
X46629371Y-22763146D01*
G37*
X46629371Y-22763146D02*
X46605034Y-22779407D01*
X46321473Y-23203785D01*
X46260000Y-23512831D01*
X46198527Y-23203785D01*
X45914966Y-22779407D01*
X45867362Y-22747599D01*
X46551214Y-22747599D01*
X46629371Y-22763146D01*
M02*
