G04 #@! TF.FileFunction,Copper,L2,Bot,Signal*
%FSLAX46Y46*%
G04 Gerber Fmt 4.6, Leading zero omitted, Abs format (unit mm)*
G04 Created by KiCad (PCBNEW (2015-06-25 BZR 5821)-product) date Thu 25 Jun 2015 01:48:58 PM EDT*
%MOMM*%
G01*
G04 APERTURE LIST*
%ADD10C,0.200000*%
%ADD11R,1.500000X1.300000*%
%ADD12R,0.600000X2.000000*%
%ADD13R,1.250000X1.500000*%
%ADD14C,1.700000*%
%ADD15R,1.700000X1.700000*%
%ADD16R,1.300000X1.300000*%
%ADD17C,1.300000*%
%ADD18R,1.500000X1.250000*%
%ADD19R,2.301240X3.500120*%
%ADD20R,0.450000X0.590000*%
%ADD21O,3.000000X1.600000*%
%ADD22R,1.727200X1.727200*%
%ADD23O,1.727200X1.727200*%
%ADD24R,2.032000X2.032000*%
%ADD25O,2.032000X2.032000*%
%ADD26R,1.800860X0.800100*%
%ADD27R,1.300000X1.500000*%
%ADD28R,2.100580X5.600700*%
%ADD29O,1.600000X3.000000*%
%ADD30C,2.750000*%
%ADD31C,0.889000*%
%ADD32C,0.254000*%
%ADD33C,0.635000*%
%ADD34C,1.270000*%
%ADD35C,0.127000*%
G04 APERTURE END LIST*
D10*
D11*
X78359000Y-69977000D03*
X81059000Y-69977000D03*
X72103000Y-69850000D03*
X74803000Y-69850000D03*
D12*
X56642000Y-50799000D03*
X57912000Y-50799000D03*
X59182000Y-50799000D03*
X60452000Y-50799000D03*
X61722000Y-50799000D03*
X62992000Y-50799000D03*
X64262000Y-50799000D03*
X65532000Y-50799000D03*
X66802000Y-50799000D03*
X66802000Y-60199000D03*
X65532000Y-60199000D03*
X64262000Y-60199000D03*
X62992000Y-60199000D03*
X61722000Y-60199000D03*
X60452000Y-60199000D03*
X59182000Y-60199000D03*
X57912000Y-60199000D03*
X56642000Y-60199000D03*
D13*
X76800000Y-50650000D03*
X76800000Y-53150000D03*
D14*
X47752000Y-39497000D03*
D15*
X47752000Y-34497000D03*
D16*
X63119000Y-48387000D03*
D17*
X58119000Y-48387000D03*
D18*
X48026000Y-59690000D03*
X50526000Y-59690000D03*
X38628000Y-59690000D03*
X41128000Y-59690000D03*
D13*
X65278000Y-62377000D03*
X65278000Y-64877000D03*
X67945000Y-68052000D03*
X67945000Y-65552000D03*
X76800000Y-60350000D03*
X76800000Y-57850000D03*
X54200000Y-57100000D03*
X54200000Y-54600000D03*
D18*
X76900000Y-67000000D03*
X74400000Y-67000000D03*
D19*
X63881000Y-39403020D03*
X63881000Y-34002980D03*
D20*
X40513000Y-65874000D03*
X40513000Y-67984000D03*
X47625000Y-65874000D03*
X47625000Y-67984000D03*
X54229000Y-65493000D03*
X54229000Y-67603000D03*
X60833000Y-65493000D03*
X60833000Y-67603000D03*
D21*
X90200000Y-31200000D03*
X90200000Y-34700000D03*
D22*
X37370000Y-26270000D03*
D23*
X37370000Y-23730000D03*
X39910000Y-26270000D03*
X39910000Y-23730000D03*
X42450000Y-26270000D03*
X42450000Y-23730000D03*
X44990000Y-26270000D03*
X44990000Y-23730000D03*
X47530000Y-26270000D03*
X47530000Y-23730000D03*
X50070000Y-26270000D03*
X50070000Y-23730000D03*
X52610000Y-26270000D03*
X52610000Y-23730000D03*
X55150000Y-26270000D03*
X55150000Y-23730000D03*
X57690000Y-26270000D03*
X57690000Y-23730000D03*
X60230000Y-26270000D03*
X60230000Y-23730000D03*
X62770000Y-26270000D03*
X62770000Y-23730000D03*
X65310000Y-26270000D03*
X65310000Y-23730000D03*
X67850000Y-26270000D03*
X67850000Y-23730000D03*
X70390000Y-26270000D03*
X70390000Y-23730000D03*
X72930000Y-26270000D03*
X72930000Y-23730000D03*
X75470000Y-26270000D03*
X75470000Y-23730000D03*
X78010000Y-26270000D03*
X78010000Y-23730000D03*
X80550000Y-26270000D03*
X80550000Y-23730000D03*
X83090000Y-26270000D03*
X83090000Y-23730000D03*
X85630000Y-26270000D03*
X85630000Y-23730000D03*
D24*
X33782000Y-61087000D03*
D25*
X31242000Y-61087000D03*
D26*
X37868860Y-32446000D03*
X37868860Y-30546000D03*
X40871140Y-31496000D03*
D11*
X34231000Y-42758000D03*
X36931000Y-42758000D03*
X34231000Y-45425000D03*
X36931000Y-45425000D03*
X34231000Y-48092000D03*
X36931000Y-48092000D03*
X34250000Y-50800000D03*
X36950000Y-50800000D03*
D27*
X35600000Y-55450000D03*
X35600000Y-58150000D03*
X44000000Y-55450000D03*
X44000000Y-58150000D03*
D11*
X38528000Y-57658000D03*
X41228000Y-57658000D03*
D24*
X50927000Y-45847000D03*
D25*
X53467000Y-45847000D03*
D24*
X37211000Y-38227000D03*
D25*
X34671000Y-38227000D03*
D24*
X31496000Y-32385000D03*
D25*
X31496000Y-34925000D03*
D24*
X33782000Y-64897000D03*
D25*
X31242000Y-64897000D03*
D28*
X72390000Y-50650140D03*
X72390000Y-60347860D03*
D21*
X90170000Y-57053000D03*
X90170000Y-60553000D03*
X90170000Y-64053000D03*
X90170000Y-67553000D03*
X90170000Y-53553000D03*
X90170000Y-50053000D03*
X90170000Y-46553000D03*
X90170000Y-43053000D03*
D29*
X53116000Y-73152000D03*
X56616000Y-73152000D03*
X60116000Y-73152000D03*
X63616000Y-73152000D03*
X49616000Y-73152000D03*
X46116000Y-73152000D03*
X42616000Y-73152000D03*
X39116000Y-73152000D03*
X71359000Y-73152000D03*
X74859000Y-73152000D03*
X78359000Y-73152000D03*
X81859000Y-73152000D03*
D30*
X32500000Y-25000000D03*
X90500000Y-25000000D03*
X90500000Y-74000000D03*
X32500000Y-74000000D03*
D31*
X46300000Y-22900000D03*
X55500000Y-54600000D03*
X53800000Y-27200000D03*
X43000000Y-59900000D03*
X66600000Y-22900000D03*
X40386000Y-29718000D03*
X34100000Y-58000000D03*
X63400000Y-62400000D03*
X36300000Y-60000000D03*
X57000000Y-57900000D03*
X68834000Y-61468000D03*
X47879000Y-58293000D03*
X70993000Y-66675000D03*
X38375000Y-42758000D03*
X38400000Y-45400000D03*
X38400000Y-48100000D03*
X38400000Y-50700000D03*
X70485000Y-42545000D03*
X66929000Y-38608000D03*
X43460642Y-62711358D03*
X47625000Y-64135000D03*
X51689000Y-65024000D03*
X57912000Y-65278000D03*
X87400000Y-27600000D03*
X37973000Y-29337000D03*
X42978908Y-31076240D03*
X47031672Y-36636859D03*
X44000000Y-30200000D03*
X64300000Y-58200000D03*
X49065275Y-29538237D03*
X52800000Y-58500000D03*
X41906979Y-33491453D03*
X58700000Y-58600000D03*
X44200000Y-45000000D03*
X60242408Y-63456726D03*
X45992841Y-47892841D03*
X45300000Y-30000000D03*
X46496220Y-32789412D03*
X53300000Y-51800000D03*
X59804729Y-61995271D03*
X65900000Y-58300000D03*
X50700000Y-37800000D03*
X50900000Y-48700000D03*
X42500000Y-54400000D03*
X42200000Y-28600000D03*
X39700000Y-54600000D03*
X35000000Y-28100000D03*
X48789818Y-25000000D03*
X34400000Y-35500000D03*
X32900000Y-46900000D03*
X84400000Y-25000000D03*
X53300000Y-32700000D03*
X50200000Y-32800000D03*
X49600000Y-36300000D03*
X48483584Y-45645542D03*
X44800000Y-50600000D03*
X41800000Y-50600000D03*
X37846000Y-33655000D03*
X57900000Y-55900000D03*
X57216775Y-52772338D03*
X58500000Y-52600000D03*
X79800000Y-55200000D03*
X73600000Y-65400000D03*
X70800000Y-65400000D03*
D32*
X53800000Y-27200000D02*
X53800000Y-26571383D01*
X53800000Y-26571383D02*
X53880000Y-26491383D01*
X53880000Y-26491383D02*
X53880000Y-25000000D01*
X43000000Y-59900000D02*
X41338000Y-59900000D01*
X41338000Y-59900000D02*
X41128000Y-59690000D01*
X53880000Y-25000000D02*
X58960000Y-25000000D01*
X58960000Y-25000000D02*
X60230000Y-23730000D01*
X52610000Y-23730000D02*
X53880000Y-25000000D01*
X68700000Y-25100000D02*
X71560000Y-25100000D01*
X71560000Y-25100000D02*
X72930000Y-23730000D01*
X67850000Y-25950000D02*
X68700000Y-25100000D01*
X67850000Y-26270000D02*
X67850000Y-25950000D01*
D33*
X40871140Y-31496000D02*
X40871140Y-30203140D01*
X40871140Y-30203140D02*
X40386000Y-29718000D01*
D32*
X34100000Y-58000000D02*
X35450000Y-58000000D01*
X35450000Y-58000000D02*
X35600000Y-58150000D01*
X63400000Y-62400000D02*
X65255000Y-62400000D01*
X65255000Y-62400000D02*
X65278000Y-62377000D01*
X53321000Y-56096000D02*
X50076000Y-56096000D01*
X48323499Y-57848501D02*
X47879000Y-58293000D01*
X50076000Y-56096000D02*
X48323499Y-57848501D01*
X54200000Y-57100000D02*
X54200000Y-56975000D01*
X54200000Y-56975000D02*
X53321000Y-56096000D01*
X35600000Y-58150000D02*
X35600000Y-59300000D01*
X35600000Y-59300000D02*
X36300000Y-60000000D01*
X48026000Y-59690000D02*
X45440000Y-59690000D01*
X45440000Y-59690000D02*
X44000000Y-58250000D01*
X44000000Y-58250000D02*
X44000000Y-58150000D01*
X43200000Y-62000000D02*
X44000000Y-61200000D01*
X44000000Y-61200000D02*
X44000000Y-58150000D01*
X39700000Y-62000000D02*
X43200000Y-62000000D01*
X38628000Y-60928000D02*
X39700000Y-62000000D01*
X38628000Y-59690000D02*
X38628000Y-60928000D01*
X35600000Y-58150000D02*
X38036000Y-58150000D01*
X38036000Y-58150000D02*
X38528000Y-57658000D01*
X38628000Y-59690000D02*
X38628000Y-57758000D01*
X38628000Y-57758000D02*
X38528000Y-57658000D01*
X57000000Y-57900000D02*
X57000000Y-59841000D01*
X57000000Y-59841000D02*
X56642000Y-60199000D01*
X54200000Y-57100000D02*
X54200000Y-57225000D01*
X54200000Y-57225000D02*
X56642000Y-59667000D01*
X56642000Y-59667000D02*
X56642000Y-60199000D01*
X65278000Y-62377000D02*
X67925000Y-62377000D01*
X67925000Y-62377000D02*
X68834000Y-61468000D01*
X47879000Y-59543000D02*
X48026000Y-59690000D01*
X47879000Y-58293000D02*
X47879000Y-59543000D01*
X67945000Y-68052000D02*
X69616000Y-68052000D01*
X69616000Y-68052000D02*
X70993000Y-66675000D01*
X72390000Y-50650140D02*
X76799860Y-50650140D01*
X76799860Y-50650140D02*
X76800000Y-50650000D01*
X66800000Y-48600000D02*
X66800000Y-48831000D01*
X66800000Y-48831000D02*
X65532000Y-50099000D01*
X65532000Y-50099000D02*
X65532000Y-50799000D01*
X69035570Y-48600000D02*
X66800000Y-48600000D01*
X72390000Y-50650140D02*
X71085710Y-50650140D01*
X71085710Y-50650140D02*
X69035570Y-48600000D01*
X72390000Y-60347860D02*
X76797860Y-60347860D01*
X76797860Y-60347860D02*
X76800000Y-60350000D01*
X64262000Y-50799000D02*
X64262000Y-53524150D01*
X64262000Y-53524150D02*
X71085710Y-60347860D01*
X71085710Y-60347860D02*
X72390000Y-60347860D01*
X76900000Y-67000000D02*
X78986000Y-67000000D01*
X78986000Y-67000000D02*
X81059000Y-69073000D01*
X81059000Y-69073000D02*
X81059000Y-69977000D01*
X72649000Y-68400000D02*
X75375000Y-68400000D01*
X75375000Y-68400000D02*
X76775000Y-67000000D01*
X76775000Y-67000000D02*
X76900000Y-67000000D01*
X72103000Y-69850000D02*
X72103000Y-68946000D01*
X72103000Y-68946000D02*
X72649000Y-68400000D01*
X38375000Y-42758000D02*
X36931000Y-42758000D01*
X38400000Y-45400000D02*
X36956000Y-45400000D01*
X36956000Y-45400000D02*
X36931000Y-45425000D01*
X36931000Y-48092000D02*
X38392000Y-48092000D01*
X38392000Y-48092000D02*
X38400000Y-48100000D01*
X38400000Y-50700000D02*
X37050000Y-50700000D01*
X37050000Y-50700000D02*
X36950000Y-50800000D01*
D34*
X70485000Y-42545000D02*
X67022980Y-42545000D01*
X67022980Y-42545000D02*
X63881000Y-39403020D01*
X66929000Y-38608000D02*
X64676020Y-38608000D01*
X64676020Y-38608000D02*
X63881000Y-39403020D01*
D32*
X40513000Y-65874000D02*
X40513000Y-65804000D01*
X40513000Y-65804000D02*
X43460642Y-62856358D01*
X43460642Y-62856358D02*
X43460642Y-62711358D01*
X47625000Y-64135000D02*
X47625000Y-65874000D01*
X51689000Y-65024000D02*
X53760000Y-65024000D01*
X53760000Y-65024000D02*
X54229000Y-65493000D01*
X57912000Y-65278000D02*
X60618000Y-65278000D01*
X60618000Y-65278000D02*
X60833000Y-65493000D01*
X80550000Y-26270000D02*
X81800000Y-25020000D01*
X81800000Y-25020000D02*
X81800000Y-23100000D01*
X86676099Y-27252527D02*
X86676099Y-62313099D01*
X81800000Y-23100000D02*
X82900000Y-22000000D01*
X82900000Y-22000000D02*
X86100000Y-22000000D01*
X86100000Y-22000000D02*
X86773001Y-22673001D01*
X86773001Y-22673001D02*
X86773001Y-27155625D01*
X86773001Y-27155625D02*
X86676099Y-27252527D01*
X86676099Y-62313099D02*
X88416000Y-64053000D01*
X88416000Y-64053000D02*
X90170000Y-64053000D01*
X87400000Y-27600000D02*
X87400000Y-54983000D01*
X87400000Y-54983000D02*
X89470000Y-57053000D01*
X89470000Y-57053000D02*
X90170000Y-57053000D01*
D33*
X37973000Y-29337000D02*
X37973000Y-30441860D01*
X37973000Y-30441860D02*
X37868860Y-30546000D01*
D32*
X43276099Y-29323901D02*
X42978908Y-29621092D01*
X42978908Y-29621092D02*
X42978908Y-31076240D01*
X43313599Y-27133599D02*
X43276099Y-27171099D01*
X43276099Y-27171099D02*
X43276099Y-29323901D01*
X42450000Y-26270000D02*
X43313599Y-27133599D01*
X44000000Y-30200000D02*
X44990000Y-29210000D01*
X44990000Y-29210000D02*
X44990000Y-26270000D01*
X56900000Y-54600000D02*
X55200000Y-52900000D01*
X55200000Y-44805187D02*
X47476171Y-37081358D01*
X47476171Y-37081358D02*
X47031672Y-36636859D01*
X60700000Y-54600000D02*
X56900000Y-54600000D01*
X55200000Y-52900000D02*
X55200000Y-44805187D01*
X64300000Y-58200000D02*
X60700000Y-54600000D01*
X64300000Y-58200000D02*
X64300000Y-60161000D01*
X64300000Y-60161000D02*
X64262000Y-60199000D01*
X41906979Y-33491453D02*
X43432323Y-33491453D01*
X47385539Y-29538237D02*
X48436658Y-29538237D01*
X48436658Y-29538237D02*
X49065275Y-29538237D01*
X43432323Y-33491453D02*
X47385539Y-29538237D01*
X53244499Y-59244499D02*
X56719172Y-62719172D01*
X56719172Y-62719172D02*
X57419172Y-62719172D01*
X52800000Y-58500000D02*
X53244499Y-58944499D01*
X53244499Y-58944499D02*
X53244499Y-59244499D01*
X61722000Y-61453000D02*
X61722000Y-60199000D01*
X60455828Y-62719172D02*
X61722000Y-61453000D01*
X57419172Y-62719172D02*
X60455828Y-62719172D01*
X44200000Y-45000000D02*
X44200000Y-33395152D01*
X60840000Y-28200000D02*
X61906401Y-27133599D01*
X51474886Y-28200000D02*
X60840000Y-28200000D01*
X49412748Y-30262138D02*
X51474886Y-28200000D01*
X44200000Y-33395152D02*
X47333014Y-30262138D01*
X47333014Y-30262138D02*
X49412748Y-30262138D01*
X61906401Y-27133599D02*
X62770000Y-26270000D01*
X58700000Y-58600000D02*
X59553000Y-58600000D01*
X59553000Y-58600000D02*
X60452000Y-59499000D01*
X60452000Y-59499000D02*
X60452000Y-60199000D01*
X62780000Y-28800000D02*
X64446401Y-27133599D01*
X51449636Y-28800000D02*
X62780000Y-28800000D01*
X64446401Y-27133599D02*
X65310000Y-26270000D01*
X45542112Y-47442112D02*
X45542112Y-32696164D01*
X45992841Y-47892841D02*
X45542112Y-47442112D01*
X47569729Y-30668547D02*
X49581089Y-30668547D01*
X45542112Y-32696164D02*
X47569729Y-30668547D01*
X49581089Y-30668547D02*
X51449636Y-28800000D01*
X60434274Y-63456726D02*
X60242408Y-63456726D01*
X62992000Y-60899000D02*
X60434274Y-63456726D01*
X62992000Y-60199000D02*
X62992000Y-60899000D01*
X51466999Y-22933001D02*
X51813001Y-22586999D01*
X51813001Y-22586999D02*
X64166999Y-22586999D01*
X64166999Y-22586999D02*
X64446401Y-22866401D01*
X64446401Y-22866401D02*
X65310000Y-23730000D01*
X49685683Y-28814317D02*
X51466999Y-27033001D01*
X51466999Y-27033001D02*
X51466999Y-22933001D01*
X46300000Y-28814317D02*
X49685683Y-28814317D01*
X45411229Y-29888771D02*
X45411229Y-29703088D01*
X45300000Y-30000000D02*
X45411229Y-29888771D01*
X45411229Y-29703088D02*
X46300000Y-28814317D01*
X53300000Y-51800000D02*
X53300000Y-48800000D01*
X53300000Y-48800000D02*
X52400000Y-47900000D01*
X52400000Y-47900000D02*
X50445078Y-47900000D01*
X49400000Y-46854922D02*
X49400000Y-45490584D01*
X50445078Y-47900000D02*
X49400000Y-46854922D01*
X49400000Y-45490584D02*
X46901116Y-42991700D01*
X46901116Y-42991700D02*
X45954752Y-42991700D01*
X46393021Y-33384912D02*
X46393021Y-32892611D01*
X46393021Y-32892611D02*
X46496220Y-32789412D01*
X45948522Y-33829411D02*
X46393021Y-33384912D01*
X45948522Y-42991700D02*
X45948522Y-33829411D01*
X65310000Y-23844000D02*
X65310000Y-23730000D01*
X49111841Y-35340081D02*
X49111841Y-31712545D01*
X66986401Y-24593599D02*
X67850000Y-23730000D01*
X48804001Y-35647921D02*
X49111841Y-35340081D01*
X66600000Y-24980000D02*
X66986401Y-24593599D01*
X49111841Y-31712545D02*
X51424386Y-29400000D01*
X48804001Y-37204001D02*
X48804001Y-35647921D01*
X55900000Y-44300000D02*
X48804001Y-37204001D01*
X57000000Y-54000000D02*
X55900000Y-52900000D01*
X55900000Y-52900000D02*
X55900000Y-44300000D01*
X65900000Y-58300000D02*
X61600000Y-54000000D01*
X64700000Y-29400000D02*
X66600000Y-27500000D01*
X51424386Y-29400000D02*
X64700000Y-29400000D01*
X61600000Y-54000000D02*
X57000000Y-54000000D01*
X66600000Y-27500000D02*
X66600000Y-24980000D01*
X59804729Y-61521729D02*
X59804729Y-61995271D01*
X59182000Y-60899000D02*
X59804729Y-61521729D01*
X59182000Y-60199000D02*
X59182000Y-60899000D01*
X53800000Y-29900000D02*
X66760000Y-29900000D01*
X66760000Y-29900000D02*
X70390000Y-26270000D01*
X51144499Y-32555501D02*
X53800000Y-29900000D01*
X50700000Y-37800000D02*
X51144499Y-37355501D01*
X51144499Y-37355501D02*
X51144499Y-32555501D01*
X44000000Y-55450000D02*
X44000000Y-55350000D01*
X44000000Y-55350000D02*
X50650000Y-48700000D01*
X50650000Y-48700000D02*
X50900000Y-48700000D01*
X42500000Y-54400000D02*
X42950000Y-54400000D01*
X42950000Y-54400000D02*
X44000000Y-55450000D01*
X42100000Y-30600000D02*
X42100000Y-32300000D01*
X42100000Y-32300000D02*
X41973571Y-32426429D01*
X41755501Y-30255501D02*
X42100000Y-30600000D01*
X41755501Y-29044499D02*
X41755501Y-30255501D01*
X39700000Y-54600000D02*
X40556822Y-54600000D01*
X41473571Y-32426429D02*
X41973571Y-32426429D01*
X40556822Y-54600000D02*
X42900000Y-52256822D01*
X42900000Y-52256822D02*
X42900000Y-44000000D01*
X42900000Y-44000000D02*
X40900000Y-42000000D01*
X40900000Y-42000000D02*
X40900000Y-33000000D01*
X40900000Y-33000000D02*
X41473571Y-32426429D01*
X41755501Y-29044499D02*
X42200000Y-28600000D01*
X35600000Y-55100000D02*
X36100000Y-54600000D01*
X36100000Y-54600000D02*
X39700000Y-54600000D01*
X35600000Y-55450000D02*
X35600000Y-55100000D01*
X75470000Y-23730000D02*
X73440000Y-21700000D01*
X73440000Y-21700000D02*
X37000000Y-21700000D01*
X37000000Y-21700000D02*
X36200000Y-22500000D01*
X36200000Y-22500000D02*
X36200000Y-28300000D01*
X36200000Y-28300000D02*
X35100000Y-29400000D01*
X33375599Y-42002599D02*
X34131000Y-42758000D01*
X35100000Y-29400000D02*
X34700000Y-29400000D01*
X34700000Y-29400000D02*
X33375599Y-30724401D01*
X33375599Y-30724401D02*
X33375599Y-42002599D01*
X34131000Y-42758000D02*
X34231000Y-42758000D01*
X32900000Y-44194000D02*
X32900000Y-30200000D01*
X32900000Y-30200000D02*
X35000000Y-28100000D01*
X34231000Y-45425000D02*
X34131000Y-45425000D01*
X34131000Y-45425000D02*
X32900000Y-44194000D01*
X34400000Y-35500000D02*
X35400000Y-34500000D01*
X35400000Y-34500000D02*
X35400000Y-30000000D01*
X35400000Y-30000000D02*
X36100000Y-30000000D01*
X36100000Y-30000000D02*
X38700000Y-27400000D01*
X46272708Y-25000000D02*
X48789818Y-25000000D01*
X38700000Y-27400000D02*
X38700000Y-25788358D01*
X38700000Y-25788358D02*
X39488358Y-25000000D01*
X39488358Y-25000000D02*
X46272708Y-25000000D01*
X34231000Y-48092000D02*
X34092000Y-48092000D01*
X34092000Y-48092000D02*
X32900000Y-46900000D01*
X48400000Y-46400000D02*
X48483584Y-46316416D01*
X48483584Y-46316416D02*
X48483584Y-45645542D01*
X84400000Y-25000000D02*
X84400000Y-27100000D01*
X84400000Y-27100000D02*
X82900000Y-28600000D01*
X53800000Y-31500000D02*
X54500000Y-30800000D01*
X54500000Y-30800000D02*
X67100000Y-30800000D01*
X53800000Y-32200000D02*
X53800000Y-31500000D01*
X82900000Y-28600000D02*
X69300000Y-28600000D01*
X69300000Y-28600000D02*
X67100000Y-30800000D01*
X53800000Y-32200000D02*
X53300000Y-32700000D01*
X49600000Y-33500000D02*
X50200000Y-32900000D01*
X50200000Y-32900000D02*
X50200000Y-32800000D01*
X49600000Y-36300000D02*
X49600000Y-33500000D01*
X44800000Y-50600000D02*
X48400000Y-47000000D01*
X48400000Y-47000000D02*
X48400000Y-46400000D01*
X39900000Y-52600000D02*
X41800000Y-50700000D01*
X41800000Y-50700000D02*
X41800000Y-50600000D01*
X34800000Y-52600000D02*
X39900000Y-52600000D01*
X34250000Y-52050000D02*
X34800000Y-52600000D01*
X34250000Y-50800000D02*
X34250000Y-52050000D01*
X74803000Y-69850000D02*
X74803000Y-73096000D01*
X74803000Y-73096000D02*
X74859000Y-73152000D01*
X78359000Y-69977000D02*
X78359000Y-70881000D01*
X78359000Y-70881000D02*
X78359000Y-73152000D01*
D33*
X37868860Y-32446000D02*
X37868860Y-33632140D01*
X37868860Y-33632140D02*
X37846000Y-33655000D01*
D32*
X57900000Y-55900000D02*
X57900000Y-60187000D01*
X57900000Y-60187000D02*
X57912000Y-60199000D01*
X57912000Y-59499000D02*
X57912000Y-60199000D01*
X56642000Y-50799000D02*
X56642000Y-52197563D01*
X56642000Y-52197563D02*
X57216775Y-52772338D01*
X57912000Y-50799000D02*
X57912000Y-52012000D01*
X57912000Y-52012000D02*
X58500000Y-52600000D01*
X38335914Y-55900000D02*
X37700000Y-55900000D01*
X38466000Y-55900000D02*
X38335914Y-55900000D01*
X38335914Y-55900000D02*
X39370000Y-55900000D01*
X39370000Y-55900000D02*
X41128000Y-57658000D01*
X41128000Y-57658000D02*
X41228000Y-57658000D01*
X37700000Y-55900000D02*
X36900000Y-56700000D01*
X36900000Y-56700000D02*
X33700000Y-56700000D01*
X33700000Y-56700000D02*
X32800000Y-57600000D01*
X32800000Y-58835000D02*
X33782000Y-59817000D01*
X32800000Y-57600000D02*
X32800000Y-58835000D01*
X33782000Y-59817000D02*
X33782000Y-61087000D01*
X33782000Y-63627000D02*
X33782000Y-64897000D01*
X73600000Y-65400000D02*
X79800000Y-59200000D01*
X79800000Y-59200000D02*
X79800000Y-55200000D01*
X70800000Y-65400000D02*
X73679000Y-65400000D01*
X73679000Y-65400000D02*
X74400000Y-66121000D01*
X74400000Y-66121000D02*
X74400000Y-67000000D01*
X70800000Y-65400000D02*
X68097000Y-65400000D01*
X68097000Y-65400000D02*
X67945000Y-65552000D01*
D35*
G36*
X35795888Y-22095888D02*
X35672003Y-22281296D01*
X35664785Y-22317582D01*
X35628499Y-22500000D01*
X35628500Y-22500005D01*
X35628500Y-27471263D01*
X35504236Y-27346782D01*
X35177609Y-27211154D01*
X34823943Y-27210846D01*
X34497080Y-27345903D01*
X34246782Y-27595764D01*
X34111154Y-27922391D01*
X34110929Y-28180848D01*
X32495888Y-29795888D01*
X32372003Y-29981296D01*
X32372003Y-29981297D01*
X32328499Y-30200000D01*
X32328500Y-30200005D01*
X32328500Y-30915792D01*
X30480000Y-30915792D01*
X30310514Y-30948676D01*
X30161551Y-31046529D01*
X30061836Y-31194252D01*
X30026792Y-31369000D01*
X30026792Y-33401000D01*
X30059676Y-33570486D01*
X30157529Y-33719449D01*
X30305252Y-33819164D01*
X30379760Y-33834106D01*
X30108982Y-34152743D01*
X29969175Y-34490300D01*
X30063991Y-34734500D01*
X31305500Y-34734500D01*
X31305500Y-34714500D01*
X31686500Y-34714500D01*
X31686500Y-34734500D01*
X31706500Y-34734500D01*
X31706500Y-35115500D01*
X31686500Y-35115500D01*
X31686500Y-36358167D01*
X31930702Y-36451838D01*
X32328500Y-36247906D01*
X32328500Y-44193995D01*
X32328499Y-44194000D01*
X32353919Y-44321792D01*
X32372003Y-44412704D01*
X32495888Y-44598112D01*
X33027792Y-45130016D01*
X33027792Y-46011111D01*
X32723943Y-46010846D01*
X32397080Y-46145903D01*
X32146782Y-46395764D01*
X32011154Y-46722391D01*
X32010846Y-47076057D01*
X32145903Y-47402920D01*
X32395764Y-47653218D01*
X32722391Y-47788846D01*
X32980847Y-47789071D01*
X33027792Y-47836016D01*
X33027792Y-48742000D01*
X33060676Y-48911486D01*
X33158529Y-49060449D01*
X33306252Y-49160164D01*
X33481000Y-49195208D01*
X34981000Y-49195208D01*
X35150486Y-49162324D01*
X35299449Y-49064471D01*
X35399164Y-48916748D01*
X35434208Y-48742000D01*
X35434208Y-47442000D01*
X35401324Y-47272514D01*
X35303471Y-47123551D01*
X35155748Y-47023836D01*
X34981000Y-46988792D01*
X36181000Y-46988792D01*
X36011514Y-47021676D01*
X35862551Y-47119529D01*
X35762836Y-47267252D01*
X35727792Y-47442000D01*
X35727792Y-48742000D01*
X35760676Y-48911486D01*
X35858529Y-49060449D01*
X36006252Y-49160164D01*
X36181000Y-49195208D01*
X37681000Y-49195208D01*
X37850486Y-49162324D01*
X37999449Y-49064471D01*
X38088129Y-48933095D01*
X38222391Y-48988846D01*
X38576057Y-48989154D01*
X38902920Y-48854097D01*
X39153218Y-48604236D01*
X39288846Y-48277609D01*
X39289154Y-47923943D01*
X39154097Y-47597080D01*
X38904236Y-47346782D01*
X38577609Y-47211154D01*
X38223943Y-47210846D01*
X38095639Y-47263860D01*
X38003471Y-47123551D01*
X37855748Y-47023836D01*
X37681000Y-46988792D01*
X36181000Y-46988792D01*
X34981000Y-46988792D01*
X34981000Y-46988792D01*
X33797016Y-46988792D01*
X33788930Y-46980707D01*
X33789154Y-46723943D01*
X33708278Y-46528208D01*
X34981000Y-46528208D01*
X35150486Y-46495324D01*
X35299449Y-46397471D01*
X35399164Y-46249748D01*
X35434208Y-46075000D01*
X35434208Y-44775000D01*
X35401324Y-44605514D01*
X35303471Y-44456551D01*
X35155748Y-44356836D01*
X34981000Y-44321792D01*
X36181000Y-44321792D01*
X36011514Y-44354676D01*
X35862551Y-44452529D01*
X35762836Y-44600252D01*
X35727792Y-44775000D01*
X35727792Y-46075000D01*
X35760676Y-46244486D01*
X35858529Y-46393449D01*
X36006252Y-46493164D01*
X36181000Y-46528208D01*
X37681000Y-46528208D01*
X37850486Y-46495324D01*
X37999449Y-46397471D01*
X38099164Y-46249748D01*
X38101399Y-46238605D01*
X38222391Y-46288846D01*
X38576057Y-46289154D01*
X38902920Y-46154097D01*
X39153218Y-45904236D01*
X39288846Y-45577609D01*
X39289154Y-45223943D01*
X39154097Y-44897080D01*
X38904236Y-44646782D01*
X38577609Y-44511154D01*
X38223943Y-44510846D01*
X38078589Y-44570905D01*
X38003471Y-44456551D01*
X37855748Y-44356836D01*
X37681000Y-44321792D01*
X36181000Y-44321792D01*
X34981000Y-44321792D01*
X34981000Y-44321792D01*
X33836016Y-44321792D01*
X33471500Y-43957276D01*
X33471500Y-43859303D01*
X33481000Y-43861208D01*
X34981000Y-43861208D01*
X35150486Y-43828324D01*
X35299449Y-43730471D01*
X35399164Y-43582748D01*
X35434208Y-43408000D01*
X35434208Y-42108000D01*
X35401324Y-41938514D01*
X35303471Y-41789551D01*
X35155748Y-41689836D01*
X34981000Y-41654792D01*
X36181000Y-41654792D01*
X36011514Y-41687676D01*
X35862551Y-41785529D01*
X35762836Y-41933252D01*
X35727792Y-42108000D01*
X35727792Y-43408000D01*
X35760676Y-43577486D01*
X35858529Y-43726449D01*
X36006252Y-43826164D01*
X36181000Y-43861208D01*
X37681000Y-43861208D01*
X37850486Y-43828324D01*
X37999449Y-43730471D01*
X38086874Y-43600955D01*
X38197391Y-43646846D01*
X38551057Y-43647154D01*
X38877920Y-43512097D01*
X39128218Y-43262236D01*
X39263846Y-42935609D01*
X39264154Y-42581943D01*
X39129097Y-42255080D01*
X38879236Y-42004782D01*
X38552609Y-41869154D01*
X38198943Y-41868846D01*
X38086169Y-41915443D01*
X38003471Y-41789551D01*
X37855748Y-41689836D01*
X37681000Y-41654792D01*
X36181000Y-41654792D01*
X34981000Y-41654792D01*
X34981000Y-41654792D01*
X33947099Y-41654792D01*
X33947099Y-39634046D01*
X34236300Y-39753825D01*
X34480500Y-39659009D01*
X34480500Y-38417500D01*
X34460500Y-38417500D01*
X34460500Y-38036500D01*
X34480500Y-38036500D01*
X34480500Y-36794991D01*
X34861500Y-36794991D01*
X34861500Y-38036500D01*
X34881500Y-38036500D01*
X34881500Y-38417500D01*
X34861500Y-38417500D01*
X34861500Y-39659009D01*
X35105700Y-39753825D01*
X35443257Y-39614018D01*
X35761333Y-39343716D01*
X35774676Y-39412486D01*
X35872529Y-39561449D01*
X36020252Y-39661164D01*
X36195000Y-39696208D01*
X38227000Y-39696208D01*
X38396486Y-39663324D01*
X38545449Y-39565471D01*
X38645164Y-39417748D01*
X38680208Y-39243000D01*
X38680208Y-37211000D01*
X38647324Y-37041514D01*
X38549471Y-36892551D01*
X38401748Y-36792836D01*
X38227000Y-36757792D01*
X36195000Y-36757792D01*
X36025514Y-36790676D01*
X35876551Y-36888529D01*
X35776836Y-37036252D01*
X35761894Y-37110760D01*
X35443257Y-36839982D01*
X35105700Y-36700175D01*
X34861500Y-36794991D01*
X34480500Y-36794991D01*
X34480500Y-36794991D01*
X34236300Y-36700175D01*
X33947099Y-36819954D01*
X33947099Y-36274534D01*
X34222391Y-36388846D01*
X34576057Y-36389154D01*
X34902920Y-36254097D01*
X35153218Y-36004236D01*
X35288846Y-35677609D01*
X35289071Y-35419152D01*
X35804109Y-34904114D01*
X35804112Y-34904112D01*
X35927997Y-34718704D01*
X35927998Y-34718703D01*
X35971501Y-34500000D01*
X35971500Y-34499995D01*
X35971500Y-31592742D01*
X36968430Y-31592742D01*
X36798944Y-31625626D01*
X36649981Y-31723479D01*
X36550266Y-31871202D01*
X36515222Y-32045950D01*
X36515222Y-32846050D01*
X36548106Y-33015536D01*
X36645959Y-33164499D01*
X36793682Y-33264214D01*
X36968430Y-33299258D01*
X37031122Y-33299258D01*
X36957154Y-33477391D01*
X36956846Y-33831057D01*
X37091903Y-34157920D01*
X37341764Y-34408218D01*
X37668391Y-34543846D01*
X38022057Y-34544154D01*
X38348920Y-34409097D01*
X38599218Y-34159236D01*
X38734846Y-33832609D01*
X38735154Y-33478943D01*
X38660910Y-33299258D01*
X38769290Y-33299258D01*
X38938776Y-33266374D01*
X39087739Y-33168521D01*
X39187454Y-33020798D01*
X39222498Y-32846050D01*
X39222498Y-32045950D01*
X39189614Y-31876464D01*
X39091761Y-31727501D01*
X38944038Y-31627786D01*
X38769290Y-31592742D01*
X36968430Y-31592742D01*
X35971500Y-31592742D01*
X35971500Y-30571500D01*
X36099995Y-30571500D01*
X36100000Y-30571501D01*
X36282418Y-30535215D01*
X36318704Y-30527997D01*
X36504112Y-30404112D01*
X36515222Y-30393002D01*
X36515222Y-30946050D01*
X36548106Y-31115536D01*
X36645959Y-31264499D01*
X36793682Y-31364214D01*
X36968430Y-31399258D01*
X38769290Y-31399258D01*
X38938776Y-31366374D01*
X39087739Y-31268521D01*
X39187454Y-31120798D01*
X39222498Y-30946050D01*
X39222498Y-30145950D01*
X39189614Y-29976464D01*
X39091761Y-29827501D01*
X38944038Y-29727786D01*
X38786449Y-29696183D01*
X38861846Y-29514609D01*
X38862154Y-29160943D01*
X38727097Y-28834080D01*
X38477236Y-28583782D01*
X38369272Y-28538951D01*
X39104109Y-27804114D01*
X39104112Y-27804112D01*
X39227997Y-27618704D01*
X39269392Y-27410596D01*
X39409412Y-27504154D01*
X39910000Y-27603727D01*
X40410588Y-27504154D01*
X40834966Y-27220593D01*
X41118527Y-26796215D01*
X41180000Y-26487169D01*
X41241473Y-26796215D01*
X41525034Y-27220593D01*
X41949412Y-27504154D01*
X42450000Y-27603727D01*
X42704599Y-27553084D01*
X42704599Y-27847146D01*
X42704236Y-27846782D01*
X42377609Y-27711154D01*
X42023943Y-27710846D01*
X41697080Y-27845903D01*
X41446782Y-28095764D01*
X41311154Y-28422391D01*
X41310911Y-28700966D01*
X41227504Y-28825795D01*
X41227504Y-28825796D01*
X41184000Y-29044499D01*
X41184001Y-29044504D01*
X41184001Y-29321336D01*
X41140097Y-29215080D01*
X40890236Y-28964782D01*
X40563609Y-28829154D01*
X40209943Y-28828846D01*
X39883080Y-28963903D01*
X39632782Y-29213764D01*
X39497154Y-29540391D01*
X39496846Y-29894057D01*
X39631903Y-30220920D01*
X39881764Y-30471218D01*
X40109140Y-30565633D01*
X40109140Y-30642742D01*
X39970710Y-30642742D01*
X39801224Y-30675626D01*
X39652261Y-30773479D01*
X39552546Y-30921202D01*
X39517502Y-31095950D01*
X39517502Y-31896050D01*
X39550386Y-32065536D01*
X39648239Y-32214499D01*
X39795962Y-32314214D01*
X39970710Y-32349258D01*
X40742518Y-32349258D01*
X40495888Y-32595888D01*
X40372003Y-32781296D01*
X40372003Y-32781297D01*
X40328499Y-33000000D01*
X40328500Y-33000005D01*
X40328500Y-41999995D01*
X40328499Y-42000000D01*
X40354735Y-42131893D01*
X40372003Y-42218704D01*
X40396309Y-42255080D01*
X40495888Y-42404112D01*
X42328500Y-44236723D01*
X42328500Y-49871088D01*
X42304236Y-49846782D01*
X41977609Y-49711154D01*
X41623943Y-49710846D01*
X41297080Y-49845903D01*
X41046782Y-50095764D01*
X40911154Y-50422391D01*
X40910846Y-50776057D01*
X40912271Y-50779506D01*
X39663276Y-52028500D01*
X35036723Y-52028500D01*
X34911432Y-51903208D01*
X35000000Y-51903208D01*
X35169486Y-51870324D01*
X35318449Y-51772471D01*
X35418164Y-51624748D01*
X35453208Y-51450000D01*
X35453208Y-50150000D01*
X35420324Y-49980514D01*
X35322471Y-49831551D01*
X35174748Y-49731836D01*
X35000000Y-49696792D01*
X36200000Y-49696792D01*
X36030514Y-49729676D01*
X35881551Y-49827529D01*
X35781836Y-49975252D01*
X35746792Y-50150000D01*
X35746792Y-51450000D01*
X35779676Y-51619486D01*
X35877529Y-51768449D01*
X36025252Y-51868164D01*
X36200000Y-51903208D01*
X37700000Y-51903208D01*
X37869486Y-51870324D01*
X38018449Y-51772471D01*
X38118164Y-51624748D01*
X38132822Y-51551654D01*
X38222391Y-51588846D01*
X38576057Y-51589154D01*
X38902920Y-51454097D01*
X39153218Y-51204236D01*
X39288846Y-50877609D01*
X39289154Y-50523943D01*
X39154097Y-50197080D01*
X38904236Y-49946782D01*
X38577609Y-49811154D01*
X38223943Y-49810846D01*
X38054784Y-49880741D01*
X38022471Y-49831551D01*
X37874748Y-49731836D01*
X37700000Y-49696792D01*
X36200000Y-49696792D01*
X35000000Y-49696792D01*
X35000000Y-49696792D01*
X33500000Y-49696792D01*
X33330514Y-49729676D01*
X33181551Y-49827529D01*
X33081836Y-49975252D01*
X33046792Y-50150000D01*
X33046792Y-51450000D01*
X33079676Y-51619486D01*
X33177529Y-51768449D01*
X33325252Y-51868164D01*
X33500000Y-51903208D01*
X33678500Y-51903208D01*
X33678500Y-52049995D01*
X33678499Y-52050000D01*
X33704657Y-52181500D01*
X33722003Y-52268704D01*
X33761957Y-52328499D01*
X33845888Y-52454112D01*
X34395886Y-53004109D01*
X34395888Y-53004112D01*
X34581296Y-53127997D01*
X34800000Y-53171500D01*
X39899995Y-53171500D01*
X39900000Y-53171501D01*
X40082418Y-53135215D01*
X40118704Y-53127997D01*
X40304112Y-53004112D01*
X40304113Y-53004111D01*
X41819206Y-51489017D01*
X41976057Y-51489154D01*
X42302920Y-51354097D01*
X42328500Y-51328562D01*
X42328500Y-52020099D01*
X40352896Y-53995702D01*
X40204236Y-53846782D01*
X39877609Y-53711154D01*
X39523943Y-53710846D01*
X39197080Y-53845903D01*
X39014164Y-54028500D01*
X36100005Y-54028500D01*
X36100000Y-54028499D01*
X35917582Y-54064785D01*
X35881296Y-54072003D01*
X35695888Y-54195888D01*
X35695886Y-54195891D01*
X35644985Y-54246792D01*
X34950000Y-54246792D01*
X34780514Y-54279676D01*
X34631551Y-54377529D01*
X34531836Y-54525252D01*
X34496792Y-54700000D01*
X34496792Y-56128500D01*
X33700005Y-56128500D01*
X33700000Y-56128499D01*
X33517582Y-56164785D01*
X33481296Y-56172003D01*
X33295888Y-56295888D01*
X33295886Y-56295891D01*
X32395888Y-57195888D01*
X32272003Y-57381296D01*
X32272003Y-57381297D01*
X32228499Y-57600000D01*
X32228500Y-57600005D01*
X32228500Y-58834995D01*
X32228499Y-58835000D01*
X32262163Y-59004236D01*
X32272003Y-59053704D01*
X32384769Y-59222471D01*
X32395888Y-59239112D01*
X32774568Y-59617792D01*
X32766000Y-59617792D01*
X32596514Y-59650676D01*
X32447551Y-59748529D01*
X32347836Y-59896252D01*
X32332894Y-59970760D01*
X32014257Y-59699982D01*
X31676700Y-59560175D01*
X31432500Y-59654991D01*
X31432500Y-60896500D01*
X31452500Y-60896500D01*
X31452500Y-61277500D01*
X31432500Y-61277500D01*
X31432500Y-62519009D01*
X31676700Y-62613825D01*
X32014257Y-62474018D01*
X32332333Y-62203716D01*
X32345676Y-62272486D01*
X32443529Y-62421449D01*
X32591252Y-62521164D01*
X32766000Y-62556208D01*
X34798000Y-62556208D01*
X34967486Y-62523324D01*
X35116449Y-62425471D01*
X35216164Y-62277748D01*
X35251208Y-62103000D01*
X35251208Y-60071000D01*
X35218324Y-59901514D01*
X35120471Y-59752551D01*
X34972748Y-59652836D01*
X34798000Y-59617792D01*
X34313876Y-59617792D01*
X34309998Y-59598297D01*
X34242367Y-59497080D01*
X34186112Y-59412888D01*
X34186109Y-59412886D01*
X33371500Y-58598276D01*
X33371500Y-58528562D01*
X33595764Y-58753218D01*
X33922391Y-58888846D01*
X34276057Y-58889154D01*
X34496792Y-58797948D01*
X34496792Y-58900000D01*
X34529676Y-59069486D01*
X34627529Y-59218449D01*
X34775252Y-59318164D01*
X34950000Y-59353208D01*
X35039083Y-59353208D01*
X35053414Y-59425252D01*
X35072003Y-59518704D01*
X35186459Y-59690000D01*
X35195888Y-59704112D01*
X35411070Y-59919293D01*
X35410846Y-60176057D01*
X35545903Y-60502920D01*
X35795764Y-60753218D01*
X36122391Y-60888846D01*
X36476057Y-60889154D01*
X36802920Y-60754097D01*
X37053218Y-60504236D01*
X37188846Y-60177609D01*
X37189154Y-59823943D01*
X37054097Y-59497080D01*
X36804236Y-59246782D01*
X36607252Y-59164987D01*
X36668164Y-59074748D01*
X36703208Y-58900000D01*
X36703208Y-58721500D01*
X37591564Y-58721500D01*
X37559551Y-58742529D01*
X37459836Y-58890252D01*
X37424792Y-59065000D01*
X37424792Y-60315000D01*
X37457676Y-60484486D01*
X37555529Y-60633449D01*
X37703252Y-60733164D01*
X37878000Y-60768208D01*
X38056500Y-60768208D01*
X38056500Y-60927995D01*
X38056499Y-60928000D01*
X38080546Y-61048888D01*
X38100003Y-61146704D01*
X38204510Y-61303111D01*
X38223888Y-61332112D01*
X39295886Y-62404109D01*
X39295888Y-62404112D01*
X39481296Y-62527997D01*
X39500425Y-62531802D01*
X39700000Y-62571501D01*
X39700005Y-62571500D01*
X42571763Y-62571500D01*
X42571488Y-62887415D01*
X42586070Y-62922707D01*
X40382984Y-65125792D01*
X40288000Y-65125792D01*
X40118514Y-65158676D01*
X39969551Y-65256529D01*
X39869836Y-65404252D01*
X39834792Y-65579000D01*
X39834792Y-66169000D01*
X39867676Y-66338486D01*
X39965529Y-66487449D01*
X40113252Y-66587164D01*
X40288000Y-66622208D01*
X40738000Y-66622208D01*
X40907486Y-66589324D01*
X41056449Y-66491471D01*
X41156164Y-66343748D01*
X41191208Y-66169000D01*
X41191208Y-65934016D01*
X43524809Y-63600415D01*
X43636699Y-63600512D01*
X43963562Y-63465455D01*
X44048261Y-63380903D01*
X47122080Y-63380903D01*
X46871782Y-63630764D01*
X46736154Y-63957391D01*
X46735846Y-64311057D01*
X46870903Y-64637920D01*
X47053500Y-64820836D01*
X47053500Y-65298085D01*
X46981836Y-65404252D01*
X46946792Y-65579000D01*
X46946792Y-66169000D01*
X46979676Y-66338486D01*
X47077529Y-66487449D01*
X47225252Y-66587164D01*
X47400000Y-66622208D01*
X47850000Y-66622208D01*
X48019486Y-66589324D01*
X48168449Y-66491471D01*
X48268164Y-66343748D01*
X48303208Y-66169000D01*
X48303208Y-65579000D01*
X48270324Y-65409514D01*
X48196500Y-65297131D01*
X48196500Y-64820637D01*
X48378218Y-64639236D01*
X48513846Y-64312609D01*
X48513883Y-64269903D01*
X51186080Y-64269903D01*
X50935782Y-64519764D01*
X50800154Y-64846391D01*
X50799846Y-65200057D01*
X50934903Y-65526920D01*
X51184764Y-65777218D01*
X51511391Y-65912846D01*
X51865057Y-65913154D01*
X52191920Y-65778097D01*
X52374836Y-65595500D01*
X53523276Y-65595500D01*
X53550792Y-65623016D01*
X53550792Y-65788000D01*
X53583676Y-65957486D01*
X53681529Y-66106449D01*
X53829252Y-66206164D01*
X54004000Y-66241208D01*
X54454000Y-66241208D01*
X54623486Y-66208324D01*
X54772449Y-66110471D01*
X54872164Y-65962748D01*
X54907208Y-65788000D01*
X54907208Y-65198000D01*
X54874324Y-65028514D01*
X54776471Y-64879551D01*
X54628748Y-64779836D01*
X54454000Y-64744792D01*
X54289016Y-64744792D01*
X54164112Y-64619888D01*
X54020460Y-64523903D01*
X57409080Y-64523903D01*
X57158782Y-64773764D01*
X57023154Y-65100391D01*
X57022846Y-65454057D01*
X57157903Y-65780920D01*
X57407764Y-66031218D01*
X57734391Y-66166846D01*
X58088057Y-66167154D01*
X58414920Y-66032097D01*
X58597836Y-65849500D01*
X60166724Y-65849500D01*
X60187676Y-65957486D01*
X60285529Y-66106449D01*
X60433252Y-66206164D01*
X60608000Y-66241208D01*
X61058000Y-66241208D01*
X61227486Y-66208324D01*
X61376449Y-66110471D01*
X61476164Y-65962748D01*
X61511208Y-65788000D01*
X61511208Y-65198000D01*
X61485889Y-65067500D01*
X64224375Y-65067500D01*
X64081500Y-65210375D01*
X64081500Y-65740678D01*
X64168506Y-65950728D01*
X64329271Y-66111494D01*
X64539321Y-66198500D01*
X64944625Y-66198500D01*
X65087500Y-66055625D01*
X65087500Y-65067500D01*
X65468500Y-65067500D01*
X65468500Y-66055625D01*
X65611375Y-66198500D01*
X66016679Y-66198500D01*
X66226729Y-66111494D01*
X66387494Y-65950728D01*
X66474500Y-65740678D01*
X66474500Y-65210375D01*
X66331625Y-65067500D01*
X65468500Y-65067500D01*
X65087500Y-65067500D01*
X65087500Y-65067500D01*
X64224375Y-65067500D01*
X61485889Y-65067500D01*
X61478324Y-65028514D01*
X61380471Y-64879551D01*
X61232748Y-64779836D01*
X61058000Y-64744792D01*
X60810507Y-64744792D01*
X60800418Y-64742785D01*
X60618000Y-64706499D01*
X60617995Y-64706500D01*
X58597637Y-64706500D01*
X58416236Y-64524782D01*
X58089609Y-64389154D01*
X57735943Y-64388846D01*
X57409080Y-64523903D01*
X54020460Y-64523903D01*
X53978704Y-64496003D01*
X53916104Y-64483551D01*
X53760000Y-64452499D01*
X53759995Y-64452500D01*
X52374637Y-64452500D01*
X52193236Y-64270782D01*
X51866609Y-64135154D01*
X51512943Y-64134846D01*
X51186080Y-64269903D01*
X48513883Y-64269903D01*
X48514154Y-63958943D01*
X48379097Y-63632080D01*
X48129236Y-63381782D01*
X47802609Y-63246154D01*
X47448943Y-63245846D01*
X47122080Y-63380903D01*
X44048261Y-63380903D01*
X44213860Y-63215594D01*
X44349488Y-62888967D01*
X44349796Y-62535301D01*
X44214739Y-62208438D01*
X44007444Y-62000780D01*
X44404109Y-61604114D01*
X44404112Y-61604112D01*
X44527997Y-61418704D01*
X44537986Y-61368486D01*
X44571501Y-61200000D01*
X44571500Y-61199995D01*
X44571500Y-59629723D01*
X45035886Y-60094109D01*
X45035888Y-60094112D01*
X45135994Y-60161000D01*
X45221297Y-60217998D01*
X45440000Y-60261501D01*
X45440005Y-60261500D01*
X46822792Y-60261500D01*
X46822792Y-60315000D01*
X46855676Y-60484486D01*
X46953529Y-60633449D01*
X47101252Y-60733164D01*
X47276000Y-60768208D01*
X48776000Y-60768208D01*
X48945486Y-60735324D01*
X49094449Y-60637471D01*
X49194164Y-60489748D01*
X49205787Y-60431787D01*
X49291506Y-60638729D01*
X49452272Y-60799494D01*
X49662322Y-60886500D01*
X50192625Y-60886500D01*
X50335500Y-60743625D01*
X50335500Y-59880500D01*
X50716500Y-59880500D01*
X50716500Y-60743625D01*
X50859375Y-60886500D01*
X51389678Y-60886500D01*
X51599728Y-60799494D01*
X51760494Y-60638729D01*
X51847500Y-60428679D01*
X51847500Y-60023375D01*
X51704625Y-59880500D01*
X50716500Y-59880500D01*
X50335500Y-59880500D01*
X50335500Y-59880500D01*
X50315500Y-59880500D01*
X50315500Y-59499500D01*
X50335500Y-59499500D01*
X50335500Y-58636375D01*
X50192625Y-58493500D01*
X50859375Y-58493500D01*
X50716500Y-58636375D01*
X50716500Y-59499500D01*
X51704625Y-59499500D01*
X51847500Y-59356625D01*
X51847500Y-58951321D01*
X51760494Y-58741271D01*
X51599728Y-58580506D01*
X51389678Y-58493500D01*
X50859375Y-58493500D01*
X50192625Y-58493500D01*
X50192625Y-58493500D01*
X49662322Y-58493500D01*
X49452272Y-58580506D01*
X49291506Y-58741271D01*
X49206306Y-58946961D01*
X49196324Y-58895514D01*
X49098471Y-58746551D01*
X48950748Y-58646836D01*
X48776000Y-58611792D01*
X48709221Y-58611792D01*
X48767846Y-58470609D01*
X48768071Y-58212153D01*
X50312723Y-56667500D01*
X53084276Y-56667500D01*
X53121792Y-56705016D01*
X53121792Y-57671024D01*
X52977609Y-57611154D01*
X52623943Y-57610846D01*
X52297080Y-57745903D01*
X52046782Y-57995764D01*
X51911154Y-58322391D01*
X51910846Y-58676057D01*
X52045903Y-59002920D01*
X52295764Y-59253218D01*
X52622391Y-59388846D01*
X52701725Y-59388915D01*
X52716502Y-59463203D01*
X52819795Y-59617792D01*
X52840387Y-59648611D01*
X56315058Y-63123281D01*
X56315060Y-63123284D01*
X56389475Y-63173006D01*
X56500469Y-63247170D01*
X56719172Y-63290673D01*
X56719177Y-63290672D01*
X59353552Y-63290672D01*
X59353254Y-63632783D01*
X59488311Y-63959646D01*
X59738172Y-64209944D01*
X60064799Y-64345572D01*
X60418465Y-64345880D01*
X60745328Y-64210823D01*
X60995626Y-63960962D01*
X61131254Y-63634335D01*
X61131312Y-63567912D01*
X62535526Y-62163698D01*
X62511154Y-62222391D01*
X62510846Y-62576057D01*
X62645903Y-62902920D01*
X62895764Y-63153218D01*
X63222391Y-63288846D01*
X63576057Y-63289154D01*
X63902920Y-63154097D01*
X64085836Y-62971500D01*
X64199792Y-62971500D01*
X64199792Y-63127000D01*
X64232676Y-63296486D01*
X64330529Y-63445449D01*
X64478252Y-63545164D01*
X64536213Y-63556787D01*
X64329271Y-63642506D01*
X64168506Y-63803272D01*
X64081500Y-64013322D01*
X64081500Y-64543625D01*
X64224375Y-64686500D01*
X65087500Y-64686500D01*
X65087500Y-64666500D01*
X65468500Y-64666500D01*
X65468500Y-64686500D01*
X66331625Y-64686500D01*
X66474500Y-64543625D01*
X66474500Y-64013322D01*
X66387494Y-63803272D01*
X66226729Y-63642506D01*
X66021039Y-63557306D01*
X66072486Y-63547324D01*
X66221449Y-63449471D01*
X66321164Y-63301748D01*
X66356208Y-63127000D01*
X66356208Y-62948500D01*
X67924995Y-62948500D01*
X67925000Y-62948501D01*
X68107418Y-62912215D01*
X68143704Y-62904997D01*
X68329112Y-62781112D01*
X68329113Y-62781111D01*
X68753293Y-62356930D01*
X69010057Y-62357154D01*
X69336920Y-62222097D01*
X69587218Y-61972236D01*
X69722846Y-61645609D01*
X69723154Y-61291943D01*
X69588097Y-60965080D01*
X69338236Y-60714782D01*
X69011609Y-60579154D01*
X68657943Y-60578846D01*
X68331080Y-60713903D01*
X68080782Y-60963764D01*
X67945154Y-61290391D01*
X67944929Y-61548848D01*
X67688276Y-61805500D01*
X66356208Y-61805500D01*
X66356208Y-61627000D01*
X66355395Y-61622808D01*
X66502000Y-61652208D01*
X67102000Y-61652208D01*
X67271486Y-61619324D01*
X67420449Y-61521471D01*
X67520164Y-61373748D01*
X67555208Y-61199000D01*
X67555208Y-59199000D01*
X67522324Y-59029514D01*
X67424471Y-58880551D01*
X67276748Y-58780836D01*
X67102000Y-58745792D01*
X66677486Y-58745792D01*
X66788846Y-58477609D01*
X66789154Y-58123943D01*
X66654097Y-57797080D01*
X66404236Y-57546782D01*
X66077609Y-57411154D01*
X65819152Y-57410929D01*
X62004112Y-53595888D01*
X61818704Y-53472003D01*
X61782418Y-53464785D01*
X61600000Y-53428499D01*
X61599995Y-53428500D01*
X58822851Y-53428500D01*
X59002920Y-53354097D01*
X59253218Y-53104236D01*
X59388846Y-52777609D01*
X59389154Y-52423943D01*
X59318195Y-52252208D01*
X59482000Y-52252208D01*
X59651486Y-52219324D01*
X59800449Y-52121471D01*
X59816526Y-52097654D01*
X59829529Y-52117449D01*
X59977252Y-52217164D01*
X60152000Y-52252208D01*
X60752000Y-52252208D01*
X60921486Y-52219324D01*
X61070449Y-52121471D01*
X61086526Y-52097654D01*
X61099529Y-52117449D01*
X61247252Y-52217164D01*
X61422000Y-52252208D01*
X62022000Y-52252208D01*
X62191486Y-52219324D01*
X62340449Y-52121471D01*
X62356526Y-52097654D01*
X62369529Y-52117449D01*
X62517252Y-52217164D01*
X62692000Y-52252208D01*
X63292000Y-52252208D01*
X63461486Y-52219324D01*
X63610449Y-52121471D01*
X63626526Y-52097654D01*
X63639529Y-52117449D01*
X63690500Y-52151855D01*
X63690500Y-53524145D01*
X63690499Y-53524150D01*
X63714718Y-53645903D01*
X63734003Y-53742854D01*
X63819503Y-53870814D01*
X63857888Y-53928262D01*
X70681596Y-60751969D01*
X70681598Y-60751972D01*
X70867006Y-60875857D01*
X70886502Y-60879735D01*
X70886502Y-63148210D01*
X70919386Y-63317696D01*
X71017239Y-63466659D01*
X71164962Y-63566374D01*
X71339710Y-63601418D01*
X73440290Y-63601418D01*
X73609776Y-63568534D01*
X73758739Y-63470681D01*
X73858454Y-63322958D01*
X73893498Y-63148210D01*
X73893498Y-60919360D01*
X75721792Y-60919360D01*
X75721792Y-61100000D01*
X75754676Y-61269486D01*
X75852529Y-61418449D01*
X76000252Y-61518164D01*
X76175000Y-61553208D01*
X76638569Y-61553208D01*
X73680706Y-64511070D01*
X73423943Y-64510846D01*
X73097080Y-64645903D01*
X72914164Y-64828500D01*
X71485637Y-64828500D01*
X71304236Y-64646782D01*
X70977609Y-64511154D01*
X70623943Y-64510846D01*
X70297080Y-64645903D01*
X70114164Y-64828500D01*
X69023208Y-64828500D01*
X69023208Y-64802000D01*
X68990324Y-64632514D01*
X68892471Y-64483551D01*
X68744748Y-64383836D01*
X68570000Y-64348792D01*
X67320000Y-64348792D01*
X67150514Y-64381676D01*
X67001551Y-64479529D01*
X66901836Y-64627252D01*
X66866792Y-64802000D01*
X66866792Y-66302000D01*
X66899676Y-66471486D01*
X66997529Y-66620449D01*
X67145252Y-66720164D01*
X67320000Y-66755208D01*
X68570000Y-66755208D01*
X68739486Y-66722324D01*
X68888449Y-66624471D01*
X68988164Y-66476748D01*
X69023208Y-66302000D01*
X69023208Y-65971500D01*
X70114363Y-65971500D01*
X70276595Y-66134015D01*
X70239782Y-66170764D01*
X70104154Y-66497391D01*
X70103929Y-66755848D01*
X69379276Y-67480500D01*
X69023208Y-67480500D01*
X69023208Y-67302000D01*
X68990324Y-67132514D01*
X68892471Y-66983551D01*
X68744748Y-66883836D01*
X68570000Y-66848792D01*
X67320000Y-66848792D01*
X67150514Y-66881676D01*
X67001551Y-66979529D01*
X66901836Y-67127252D01*
X66866792Y-67302000D01*
X66866792Y-68802000D01*
X66899676Y-68971486D01*
X66997529Y-69120449D01*
X67145252Y-69220164D01*
X67320000Y-69255208D01*
X68570000Y-69255208D01*
X68739486Y-69222324D01*
X68888449Y-69124471D01*
X68988164Y-68976748D01*
X69023208Y-68802000D01*
X69023208Y-68623500D01*
X69615995Y-68623500D01*
X69616000Y-68623501D01*
X69798418Y-68587215D01*
X69834704Y-68579997D01*
X70020112Y-68456112D01*
X70912293Y-67563930D01*
X71169057Y-67564154D01*
X71495920Y-67429097D01*
X71746218Y-67179236D01*
X71881846Y-66852609D01*
X71882154Y-66498943D01*
X71747097Y-66172080D01*
X71546867Y-65971500D01*
X72914363Y-65971500D01*
X73095764Y-66153218D01*
X73230083Y-66208992D01*
X73196792Y-66375000D01*
X73196792Y-67625000D01*
X73229676Y-67794486D01*
X73252020Y-67828500D01*
X72649005Y-67828500D01*
X72649000Y-67828499D01*
X72430297Y-67872002D01*
X72430295Y-67872003D01*
X72430296Y-67872003D01*
X72244888Y-67995888D01*
X72244886Y-67995891D01*
X71698888Y-68541888D01*
X71575003Y-68727296D01*
X71575003Y-68727297D01*
X71571125Y-68746792D01*
X71353000Y-68746792D01*
X71183514Y-68779676D01*
X71034551Y-68877529D01*
X70934836Y-69025252D01*
X70899792Y-69200000D01*
X70899792Y-70500000D01*
X70932676Y-70669486D01*
X71030529Y-70818449D01*
X71178252Y-70918164D01*
X71353000Y-70953208D01*
X72853000Y-70953208D01*
X73022486Y-70920324D01*
X73171449Y-70822471D01*
X73271164Y-70674748D01*
X73306208Y-70500000D01*
X73306208Y-69200000D01*
X73273324Y-69030514D01*
X73234558Y-68971500D01*
X73671119Y-68971500D01*
X73634836Y-69025252D01*
X73599792Y-69200000D01*
X73599792Y-70500000D01*
X73632676Y-70669486D01*
X73730529Y-70818449D01*
X73878252Y-70918164D01*
X74053000Y-70953208D01*
X74231500Y-70953208D01*
X74231500Y-71365199D01*
X73979006Y-71533911D01*
X73709232Y-71937655D01*
X73614500Y-72413905D01*
X73614500Y-73890095D01*
X73709232Y-74366345D01*
X73979006Y-74770089D01*
X74382750Y-75039863D01*
X74859000Y-75134595D01*
X75335250Y-75039863D01*
X75738994Y-74770089D01*
X76008768Y-74366345D01*
X76103500Y-73890095D01*
X76103500Y-72413905D01*
X76008768Y-71937655D01*
X75738994Y-71533911D01*
X75374500Y-71290363D01*
X75374500Y-70953208D01*
X75553000Y-70953208D01*
X75722486Y-70920324D01*
X75871449Y-70822471D01*
X75971164Y-70674748D01*
X76006208Y-70500000D01*
X76006208Y-69200000D01*
X75973324Y-69030514D01*
X75875471Y-68881551D01*
X75863977Y-68873792D01*
X77609000Y-68873792D01*
X77439514Y-68906676D01*
X77290551Y-69004529D01*
X77190836Y-69152252D01*
X77155792Y-69327000D01*
X77155792Y-70627000D01*
X77188676Y-70796486D01*
X77286529Y-70945449D01*
X77434252Y-71045164D01*
X77609000Y-71080208D01*
X77787500Y-71080208D01*
X77787500Y-71327781D01*
X77479006Y-71533911D01*
X77209232Y-71937655D01*
X77114500Y-72413905D01*
X77114500Y-73890095D01*
X77209232Y-74366345D01*
X77479006Y-74770089D01*
X77882750Y-75039863D01*
X78359000Y-75134595D01*
X78835250Y-75039863D01*
X79238994Y-74770089D01*
X79508768Y-74366345D01*
X79603500Y-73890095D01*
X79603500Y-72413905D01*
X79508768Y-71937655D01*
X79238994Y-71533911D01*
X78930500Y-71327781D01*
X78930500Y-71080208D01*
X79109000Y-71080208D01*
X79278486Y-71047324D01*
X79427449Y-70949471D01*
X79527164Y-70801748D01*
X79562208Y-70627000D01*
X79562208Y-69327000D01*
X79529324Y-69157514D01*
X79431471Y-69008551D01*
X79283748Y-68908836D01*
X79109000Y-68873792D01*
X77609000Y-68873792D01*
X75863977Y-68873792D01*
X75769884Y-68810278D01*
X75779112Y-68804112D01*
X76505016Y-68078208D01*
X77650000Y-68078208D01*
X77819486Y-68045324D01*
X77968449Y-67947471D01*
X78068164Y-67799748D01*
X78103208Y-67625000D01*
X78103208Y-67571500D01*
X78749276Y-67571500D01*
X80106282Y-68928506D01*
X79990551Y-69004529D01*
X79890836Y-69152252D01*
X79855792Y-69327000D01*
X79855792Y-70627000D01*
X79888676Y-70796486D01*
X79986529Y-70945449D01*
X80134252Y-71045164D01*
X80309000Y-71080208D01*
X81809000Y-71080208D01*
X81978486Y-71047324D01*
X82127449Y-70949471D01*
X82227164Y-70801748D01*
X82262208Y-70627000D01*
X82262208Y-69327000D01*
X82229324Y-69157514D01*
X82131471Y-69008551D01*
X81983748Y-68908836D01*
X81809000Y-68873792D01*
X81590876Y-68873792D01*
X81586998Y-68854297D01*
X81515438Y-68747200D01*
X81463112Y-68668888D01*
X81463109Y-68668886D01*
X80537724Y-67743500D01*
X88256233Y-67743500D01*
X88158318Y-67953625D01*
X88365499Y-68388094D01*
X88769151Y-68747200D01*
X89279500Y-68924500D01*
X89979500Y-68924500D01*
X89979500Y-67743500D01*
X90360500Y-67743500D01*
X89979500Y-67743500D01*
X89979500Y-67743500D01*
X90360500Y-67743500D01*
X90360500Y-68924500D01*
X91060500Y-68924500D01*
X91570849Y-68747200D01*
X91974501Y-68388094D01*
X92181682Y-67953625D01*
X92083767Y-67743500D01*
X90360500Y-67743500D01*
X89979500Y-67743500D01*
X89979500Y-67743500D01*
X88256233Y-67743500D01*
X80537724Y-67743500D01*
X79390112Y-66595888D01*
X79380288Y-66589324D01*
X79204704Y-66472003D01*
X79168418Y-66464785D01*
X78986000Y-66428499D01*
X78985995Y-66428500D01*
X78103208Y-66428500D01*
X78103208Y-66375000D01*
X78070324Y-66205514D01*
X78054550Y-66181500D01*
X89279500Y-66181500D01*
X88769151Y-66358800D01*
X88365499Y-66717906D01*
X88158318Y-67152375D01*
X88256233Y-67362500D01*
X89979500Y-67362500D01*
X89979500Y-66181500D01*
X90360500Y-66181500D01*
X90360500Y-67362500D01*
X92083767Y-67362500D01*
X92181682Y-67152375D01*
X91974501Y-66717906D01*
X91570849Y-66358800D01*
X91060500Y-66181500D01*
X90360500Y-66181500D01*
X89979500Y-66181500D01*
X89979500Y-66181500D01*
X89279500Y-66181500D01*
X78054550Y-66181500D01*
X77972471Y-66056551D01*
X77824748Y-65956836D01*
X77650000Y-65921792D01*
X76150000Y-65921792D01*
X75980514Y-65954676D01*
X75831551Y-66052529D01*
X75731836Y-66200252D01*
X75696792Y-66375000D01*
X75696792Y-67269984D01*
X75603208Y-67363568D01*
X75603208Y-66375000D01*
X75570324Y-66205514D01*
X75472471Y-66056551D01*
X75324748Y-65956836D01*
X75150000Y-65921792D01*
X74931875Y-65921792D01*
X74930126Y-65913000D01*
X74927997Y-65902296D01*
X74804112Y-65716888D01*
X74488999Y-65401775D01*
X74489071Y-65319153D01*
X80204109Y-59604114D01*
X80204112Y-59604112D01*
X80327997Y-59418704D01*
X80341025Y-59353208D01*
X80371501Y-59200000D01*
X80371500Y-59199995D01*
X80371500Y-55885637D01*
X80553218Y-55704236D01*
X80688846Y-55377609D01*
X80689154Y-55023943D01*
X80554097Y-54697080D01*
X80304236Y-54446782D01*
X79977609Y-54311154D01*
X79623943Y-54310846D01*
X79297080Y-54445903D01*
X79046782Y-54695764D01*
X78911154Y-55022391D01*
X78910846Y-55376057D01*
X79045903Y-55702920D01*
X79228500Y-55885836D01*
X79228500Y-58963277D01*
X77878208Y-60313569D01*
X77878208Y-59600000D01*
X77845324Y-59430514D01*
X77747471Y-59281551D01*
X77599748Y-59181836D01*
X77541787Y-59170213D01*
X77748729Y-59084494D01*
X77909494Y-58923728D01*
X77996500Y-58713678D01*
X77996500Y-58183375D01*
X77853625Y-58040500D01*
X76990500Y-58040500D01*
X76990500Y-58060500D01*
X76609500Y-58060500D01*
X76609500Y-58040500D01*
X75746375Y-58040500D01*
X75603500Y-58183375D01*
X75603500Y-58713678D01*
X75690506Y-58923728D01*
X75851271Y-59084494D01*
X76056961Y-59169694D01*
X76005514Y-59179676D01*
X75856551Y-59277529D01*
X75756836Y-59425252D01*
X75721792Y-59600000D01*
X75721792Y-59776360D01*
X73893498Y-59776360D01*
X73893498Y-57547510D01*
X73860614Y-57378024D01*
X73762761Y-57229061D01*
X73615038Y-57129346D01*
X73440290Y-57094302D01*
X71339710Y-57094302D01*
X71170224Y-57127186D01*
X71021261Y-57225039D01*
X70921546Y-57372762D01*
X70886502Y-57547510D01*
X70886502Y-59340429D01*
X68074574Y-56528500D01*
X76061321Y-56528500D01*
X75851271Y-56615506D01*
X75690506Y-56776272D01*
X75603500Y-56986322D01*
X75603500Y-57516625D01*
X75746375Y-57659500D01*
X76609500Y-57659500D01*
X76609500Y-56671375D01*
X76466625Y-56528500D01*
X77133375Y-56528500D01*
X76466625Y-56528500D01*
X76466625Y-56528500D01*
X77133375Y-56528500D01*
X76990500Y-56671375D01*
X76990500Y-57659500D01*
X77853625Y-57659500D01*
X77996500Y-57516625D01*
X77996500Y-56986322D01*
X77909494Y-56776272D01*
X77748729Y-56615506D01*
X77538679Y-56528500D01*
X77133375Y-56528500D01*
X76466625Y-56528500D01*
X76466625Y-56528500D01*
X76061321Y-56528500D01*
X68074574Y-56528500D01*
X64833500Y-53287426D01*
X64833500Y-52152312D01*
X64880449Y-52121471D01*
X64896526Y-52097654D01*
X64909529Y-52117449D01*
X65057252Y-52217164D01*
X65232000Y-52252208D01*
X65832000Y-52252208D01*
X66001486Y-52219324D01*
X66069454Y-52174676D01*
X66178271Y-52283494D01*
X66388321Y-52370500D01*
X66509125Y-52370500D01*
X66652000Y-52227625D01*
X66652000Y-50989500D01*
X66952000Y-50989500D01*
X66952000Y-52227625D01*
X67094875Y-52370500D01*
X67215679Y-52370500D01*
X67425729Y-52283494D01*
X67586494Y-52122728D01*
X67673500Y-51912678D01*
X67673500Y-51132375D01*
X67530625Y-50989500D01*
X66952000Y-50989500D01*
X66652000Y-50989500D01*
X66652000Y-50989500D01*
X66591500Y-50989500D01*
X66591500Y-50608500D01*
X66652000Y-50608500D01*
X66652000Y-50588500D01*
X66952000Y-50588500D01*
X66952000Y-50608500D01*
X67530625Y-50608500D01*
X67673500Y-50465625D01*
X67673500Y-49685322D01*
X67586494Y-49475272D01*
X67425729Y-49314506D01*
X67215679Y-49227500D01*
X67209198Y-49227500D01*
X67246616Y-49171500D01*
X68798846Y-49171500D01*
X70681596Y-51054249D01*
X70681598Y-51054252D01*
X70867006Y-51178137D01*
X70886502Y-51182015D01*
X70886502Y-53450490D01*
X70919386Y-53619976D01*
X71017239Y-53768939D01*
X71164962Y-53868654D01*
X71339710Y-53903698D01*
X73440290Y-53903698D01*
X73609776Y-53870814D01*
X73758739Y-53772961D01*
X73858454Y-53625238D01*
X73893498Y-53450490D01*
X73893498Y-53340500D01*
X75746375Y-53340500D01*
X75603500Y-53483375D01*
X75603500Y-54013678D01*
X75690506Y-54223728D01*
X75851271Y-54384494D01*
X76061321Y-54471500D01*
X76466625Y-54471500D01*
X76609500Y-54328625D01*
X76609500Y-53340500D01*
X76990500Y-53340500D01*
X76609500Y-53340500D01*
X76609500Y-53340500D01*
X76990500Y-53340500D01*
X76990500Y-54328625D01*
X77133375Y-54471500D01*
X77538679Y-54471500D01*
X77748729Y-54384494D01*
X77909494Y-54223728D01*
X77996500Y-54013678D01*
X77996500Y-53483375D01*
X77853625Y-53340500D01*
X76990500Y-53340500D01*
X76609500Y-53340500D01*
X76609500Y-53340500D01*
X75746375Y-53340500D01*
X73893498Y-53340500D01*
X73893498Y-51221640D01*
X75721792Y-51221640D01*
X75721792Y-51400000D01*
X75754676Y-51569486D01*
X75852529Y-51718449D01*
X76000252Y-51818164D01*
X76058213Y-51829787D01*
X75851271Y-51915506D01*
X75690506Y-52076272D01*
X75603500Y-52286322D01*
X75603500Y-52816625D01*
X75746375Y-52959500D01*
X76609500Y-52959500D01*
X76609500Y-52939500D01*
X76990500Y-52939500D01*
X76990500Y-52959500D01*
X77853625Y-52959500D01*
X77996500Y-52816625D01*
X77996500Y-52286322D01*
X77909494Y-52076272D01*
X77748729Y-51915506D01*
X77543039Y-51830306D01*
X77594486Y-51820324D01*
X77743449Y-51722471D01*
X77843164Y-51574748D01*
X77878208Y-51400000D01*
X77878208Y-49900000D01*
X77845324Y-49730514D01*
X77747471Y-49581551D01*
X77599748Y-49481836D01*
X77425000Y-49446792D01*
X76175000Y-49446792D01*
X76005514Y-49479676D01*
X75856551Y-49577529D01*
X75756836Y-49725252D01*
X75721792Y-49900000D01*
X75721792Y-50078640D01*
X73893498Y-50078640D01*
X73893498Y-47849790D01*
X73860614Y-47680304D01*
X73762761Y-47531341D01*
X73615038Y-47431626D01*
X73440290Y-47396582D01*
X71339710Y-47396582D01*
X71170224Y-47429466D01*
X71021261Y-47527319D01*
X70921546Y-47675042D01*
X70886502Y-47849790D01*
X70886502Y-49642709D01*
X69439682Y-48195888D01*
X69338828Y-48128500D01*
X69254274Y-48072003D01*
X69217988Y-48064785D01*
X69035570Y-48028499D01*
X69035565Y-48028500D01*
X66800000Y-48028500D01*
X66581296Y-48072003D01*
X66395888Y-48195888D01*
X66272003Y-48381296D01*
X66229921Y-48592856D01*
X65476984Y-49345792D01*
X65232000Y-49345792D01*
X65062514Y-49378676D01*
X64913551Y-49476529D01*
X64897474Y-49500346D01*
X64884471Y-49480551D01*
X64736748Y-49380836D01*
X64562000Y-49345792D01*
X64096683Y-49345792D01*
X64187164Y-49211748D01*
X64222208Y-49037000D01*
X64222208Y-47737000D01*
X64189324Y-47567514D01*
X64091471Y-47418551D01*
X63943748Y-47318836D01*
X63769000Y-47283792D01*
X62469000Y-47283792D01*
X62299514Y-47316676D01*
X62150551Y-47414529D01*
X62050836Y-47562252D01*
X62015792Y-47737000D01*
X62015792Y-49037000D01*
X62048676Y-49206486D01*
X62146529Y-49355449D01*
X62178809Y-49377239D01*
X62022000Y-49345792D01*
X61422000Y-49345792D01*
X61252514Y-49378676D01*
X61103551Y-49476529D01*
X61087474Y-49500346D01*
X61074471Y-49480551D01*
X60926748Y-49380836D01*
X60752000Y-49345792D01*
X60152000Y-49345792D01*
X59982514Y-49378676D01*
X59833551Y-49476529D01*
X59817474Y-49500346D01*
X59804471Y-49480551D01*
X59656748Y-49380836D01*
X59482000Y-49345792D01*
X58882000Y-49345792D01*
X58725219Y-49376211D01*
X58752196Y-49289603D01*
X58482789Y-49020196D01*
X59021603Y-49020196D01*
X59226691Y-48956314D01*
X59360240Y-48489082D01*
X59304821Y-48006309D01*
X59226691Y-47817686D01*
X59021603Y-47753804D01*
X58388408Y-48387000D01*
X57849592Y-48387000D01*
X57849592Y-48387000D01*
X57216397Y-47753804D01*
X57011309Y-47817686D01*
X56877760Y-48284918D01*
X56933179Y-48767691D01*
X57011309Y-48956314D01*
X57216397Y-49020196D01*
X57849592Y-48387000D01*
X58388408Y-48387000D01*
X57849592Y-48387000D01*
X57849592Y-48387000D01*
X58388408Y-48387000D01*
X59021603Y-49020196D01*
X58482789Y-49020196D01*
X58119000Y-48656408D01*
X57485804Y-49289603D01*
X57509501Y-49365679D01*
X57442514Y-49378676D01*
X57293551Y-49476529D01*
X57277474Y-49500346D01*
X57264471Y-49480551D01*
X57116748Y-49380836D01*
X56942000Y-49345792D01*
X56471500Y-49345792D01*
X56471500Y-47201179D01*
X57738309Y-47201179D01*
X57549686Y-47279309D01*
X57485804Y-47484397D01*
X58119000Y-48117592D01*
X58752196Y-47484397D01*
X58688314Y-47279309D01*
X58221082Y-47145760D01*
X57738309Y-47201179D01*
X56471500Y-47201179D01*
X56471500Y-44300005D01*
X56471501Y-44300000D01*
X56427997Y-44081297D01*
X56427997Y-44081296D01*
X56304112Y-43895888D01*
X51032668Y-38624444D01*
X51202920Y-38554097D01*
X51453218Y-38304236D01*
X51588846Y-37977609D01*
X51589089Y-37699034D01*
X51649840Y-37608113D01*
X51672497Y-37574204D01*
X51716000Y-37355501D01*
X51715999Y-37355496D01*
X51715999Y-37199752D01*
X62730380Y-37199752D01*
X62560894Y-37232636D01*
X62411931Y-37330489D01*
X62312216Y-37478212D01*
X62277172Y-37652960D01*
X62277172Y-41153080D01*
X62310056Y-41322566D01*
X62407909Y-41471529D01*
X62555632Y-41571244D01*
X62730380Y-41606288D01*
X64557624Y-41606288D01*
X66259658Y-43308322D01*
X66609873Y-43542328D01*
X66678413Y-43555961D01*
X67022980Y-43624501D01*
X67022985Y-43624500D01*
X70485000Y-43624500D01*
X70898107Y-43542328D01*
X71248322Y-43308322D01*
X71482328Y-42958107D01*
X71564500Y-42545000D01*
X71482328Y-42131893D01*
X71248322Y-41781678D01*
X70898107Y-41547672D01*
X70485000Y-41465500D01*
X67470124Y-41465500D01*
X65692124Y-39687500D01*
X66929000Y-39687500D01*
X67342107Y-39605328D01*
X67692322Y-39371322D01*
X67926328Y-39021107D01*
X68008500Y-38608000D01*
X67926328Y-38194893D01*
X67692322Y-37844678D01*
X67342107Y-37610672D01*
X66929000Y-37528500D01*
X65460680Y-37528500D01*
X65451944Y-37483474D01*
X65354091Y-37334511D01*
X65206368Y-37234796D01*
X65031620Y-37199752D01*
X62730380Y-37199752D01*
X51715999Y-37199752D01*
X51715999Y-34193480D01*
X62301755Y-34193480D01*
X62158880Y-34336355D01*
X62158880Y-35866718D01*
X62245886Y-36076768D01*
X62406651Y-36237534D01*
X62616701Y-36324540D01*
X63547625Y-36324540D01*
X63690500Y-36181665D01*
X63690500Y-34193480D01*
X64071500Y-34193480D01*
X64071500Y-36181665D01*
X64214375Y-36324540D01*
X65145299Y-36324540D01*
X65355349Y-36237534D01*
X65516114Y-36076768D01*
X65603120Y-35866718D01*
X65603120Y-34336355D01*
X65460245Y-34193480D01*
X64071500Y-34193480D01*
X63690500Y-34193480D01*
X63690500Y-34193480D01*
X62301755Y-34193480D01*
X51715999Y-34193480D01*
X51715999Y-32792225D01*
X53362769Y-31145454D01*
X53272003Y-31281296D01*
X53272003Y-31281297D01*
X53228499Y-31500000D01*
X53228500Y-31500005D01*
X53228500Y-31810937D01*
X53123943Y-31810846D01*
X52797080Y-31945903D01*
X52546782Y-32195764D01*
X52411154Y-32522391D01*
X52410846Y-32876057D01*
X52545903Y-33202920D01*
X52795764Y-33453218D01*
X53122391Y-33588846D01*
X53476057Y-33589154D01*
X53802920Y-33454097D01*
X54053218Y-33204236D01*
X54188846Y-32877609D01*
X54189071Y-32619152D01*
X54204109Y-32604114D01*
X54204112Y-32604112D01*
X54327997Y-32418704D01*
X54344289Y-32336798D01*
X54371501Y-32200000D01*
X54371500Y-32199995D01*
X54371500Y-31736724D01*
X54426803Y-31681420D01*
X62616701Y-31681420D01*
X62406651Y-31768426D01*
X62245886Y-31929192D01*
X62158880Y-32139242D01*
X62158880Y-33669605D01*
X62301755Y-33812480D01*
X63690500Y-33812480D01*
X63690500Y-31824295D01*
X63547625Y-31681420D01*
X64214375Y-31681420D01*
X63547625Y-31681420D01*
X63547625Y-31681420D01*
X64214375Y-31681420D01*
X64071500Y-31824295D01*
X64071500Y-33812480D01*
X65460245Y-33812480D01*
X65603120Y-33669605D01*
X65603120Y-32139242D01*
X65516114Y-31929192D01*
X65355349Y-31768426D01*
X65145299Y-31681420D01*
X64214375Y-31681420D01*
X63547625Y-31681420D01*
X63547625Y-31681420D01*
X62616701Y-31681420D01*
X54426803Y-31681420D01*
X54736723Y-31371500D01*
X67099995Y-31371500D01*
X67100000Y-31371501D01*
X67282418Y-31335215D01*
X67318704Y-31327997D01*
X67504112Y-31204112D01*
X68071723Y-30636500D01*
X74500000Y-30636500D01*
X74475700Y-30641334D01*
X74455099Y-30655099D01*
X74441334Y-30675700D01*
X74436500Y-30700000D01*
X74436500Y-44000000D01*
X74441334Y-44024300D01*
X74455099Y-44044901D01*
X74475700Y-44058666D01*
X74500000Y-44063500D01*
X84800000Y-44063500D01*
X84824300Y-44058666D01*
X84844901Y-44044901D01*
X84858666Y-44024300D01*
X84863500Y-44000000D01*
X84863500Y-30700000D01*
X84858666Y-30675700D01*
X84844901Y-30655099D01*
X84824300Y-30641334D01*
X84800000Y-30636500D01*
X74500000Y-30636500D01*
X68071723Y-30636500D01*
X69536723Y-29171500D01*
X82899995Y-29171500D01*
X82900000Y-29171501D01*
X83082418Y-29135215D01*
X83118704Y-29127997D01*
X83304112Y-29004112D01*
X83304113Y-29004111D01*
X84804109Y-27504114D01*
X84804112Y-27504112D01*
X84843064Y-27445816D01*
X84948043Y-27532730D01*
X85219333Y-27645087D01*
X85439500Y-27548106D01*
X85439500Y-26460500D01*
X85419500Y-26460500D01*
X85419500Y-26079500D01*
X85439500Y-26079500D01*
X85439500Y-26059500D01*
X85820500Y-26059500D01*
X85820500Y-26079500D01*
X85840500Y-26079500D01*
X85840500Y-26460500D01*
X85820500Y-26460500D01*
X85820500Y-27548106D01*
X86040667Y-27645087D01*
X86104599Y-27618609D01*
X86104599Y-62313094D01*
X86104598Y-62313099D01*
X86126151Y-62421449D01*
X86148102Y-62531803D01*
X86206167Y-62618704D01*
X86271987Y-62717211D01*
X88011886Y-64457109D01*
X88011888Y-64457112D01*
X88113164Y-64524782D01*
X88197297Y-64580998D01*
X88335019Y-64608393D01*
X88551911Y-64932994D01*
X88955655Y-65202768D01*
X89431905Y-65297500D01*
X90908095Y-65297500D01*
X91384345Y-65202768D01*
X91788089Y-64932994D01*
X92057863Y-64529250D01*
X92152595Y-64053000D01*
X92057863Y-63576750D01*
X91788089Y-63173006D01*
X91384345Y-62903232D01*
X90908095Y-62808500D01*
X89431905Y-62808500D01*
X88955655Y-62903232D01*
X88551911Y-63173006D01*
X88468725Y-63297502D01*
X87247599Y-62076375D01*
X87247599Y-60743500D01*
X88256233Y-60743500D01*
X88158318Y-60953625D01*
X88365499Y-61388094D01*
X88769151Y-61747200D01*
X89279500Y-61924500D01*
X89979500Y-61924500D01*
X89979500Y-60743500D01*
X90360500Y-60743500D01*
X89979500Y-60743500D01*
X89979500Y-60743500D01*
X90360500Y-60743500D01*
X90360500Y-61924500D01*
X91060500Y-61924500D01*
X91570849Y-61747200D01*
X91974501Y-61388094D01*
X92181682Y-60953625D01*
X92083767Y-60743500D01*
X90360500Y-60743500D01*
X89979500Y-60743500D01*
X89979500Y-60743500D01*
X88256233Y-60743500D01*
X87247599Y-60743500D01*
X87247599Y-59181500D01*
X89279500Y-59181500D01*
X88769151Y-59358800D01*
X88365499Y-59717906D01*
X88158318Y-60152375D01*
X88256233Y-60362500D01*
X89979500Y-60362500D01*
X89979500Y-59181500D01*
X90360500Y-59181500D01*
X89979500Y-59181500D01*
X89979500Y-59181500D01*
X90360500Y-59181500D01*
X90360500Y-60362500D01*
X92083767Y-60362500D01*
X92181682Y-60152375D01*
X91974501Y-59717906D01*
X91570849Y-59358800D01*
X91060500Y-59181500D01*
X90360500Y-59181500D01*
X89979500Y-59181500D01*
X89979500Y-59181500D01*
X89279500Y-59181500D01*
X87247599Y-59181500D01*
X87247599Y-55638823D01*
X88266108Y-56657332D01*
X88187405Y-57053000D01*
X88282137Y-57529250D01*
X88551911Y-57932994D01*
X88955655Y-58202768D01*
X89431905Y-58297500D01*
X90908095Y-58297500D01*
X91384345Y-58202768D01*
X91788089Y-57932994D01*
X92057863Y-57529250D01*
X92152595Y-57053000D01*
X92057863Y-56576750D01*
X91788089Y-56173006D01*
X91384345Y-55903232D01*
X90908095Y-55808500D01*
X89431905Y-55808500D01*
X89099786Y-55874563D01*
X87971500Y-54746276D01*
X87971500Y-53743500D01*
X88256233Y-53743500D01*
X88158318Y-53953625D01*
X88365499Y-54388094D01*
X88769151Y-54747200D01*
X89279500Y-54924500D01*
X89979500Y-54924500D01*
X89979500Y-53743500D01*
X90360500Y-53743500D01*
X89979500Y-53743500D01*
X89979500Y-53743500D01*
X90360500Y-53743500D01*
X90360500Y-54924500D01*
X91060500Y-54924500D01*
X91570849Y-54747200D01*
X91974501Y-54388094D01*
X92181682Y-53953625D01*
X92083767Y-53743500D01*
X90360500Y-53743500D01*
X89979500Y-53743500D01*
X89979500Y-53743500D01*
X88256233Y-53743500D01*
X87971500Y-53743500D01*
X87971500Y-52181500D01*
X89279500Y-52181500D01*
X88769151Y-52358800D01*
X88365499Y-52717906D01*
X88158318Y-53152375D01*
X88256233Y-53362500D01*
X89979500Y-53362500D01*
X89979500Y-52181500D01*
X90360500Y-52181500D01*
X90360500Y-53362500D01*
X92083767Y-53362500D01*
X92181682Y-53152375D01*
X91974501Y-52717906D01*
X91570849Y-52358800D01*
X91060500Y-52181500D01*
X90360500Y-52181500D01*
X89979500Y-52181500D01*
X89979500Y-52181500D01*
X89279500Y-52181500D01*
X87971500Y-52181500D01*
X87971500Y-48808500D01*
X89431905Y-48808500D01*
X88955655Y-48903232D01*
X88551911Y-49173006D01*
X88282137Y-49576750D01*
X88187405Y-50053000D01*
X88282137Y-50529250D01*
X88551911Y-50932994D01*
X88955655Y-51202768D01*
X89431905Y-51297500D01*
X90908095Y-51297500D01*
X91384345Y-51202768D01*
X91788089Y-50932994D01*
X92057863Y-50529250D01*
X92152595Y-50053000D01*
X92057863Y-49576750D01*
X91788089Y-49173006D01*
X91384345Y-48903232D01*
X90908095Y-48808500D01*
X89431905Y-48808500D01*
X87971500Y-48808500D01*
X87971500Y-46743500D01*
X88256233Y-46743500D01*
X88158318Y-46953625D01*
X88365499Y-47388094D01*
X88769151Y-47747200D01*
X89279500Y-47924500D01*
X89979500Y-47924500D01*
X89979500Y-46743500D01*
X90360500Y-46743500D01*
X90360500Y-47924500D01*
X91060500Y-47924500D01*
X91570849Y-47747200D01*
X91974501Y-47388094D01*
X92181682Y-46953625D01*
X92083767Y-46743500D01*
X90360500Y-46743500D01*
X89979500Y-46743500D01*
X89979500Y-46743500D01*
X88256233Y-46743500D01*
X87971500Y-46743500D01*
X87971500Y-45181500D01*
X89279500Y-45181500D01*
X88769151Y-45358800D01*
X88365499Y-45717906D01*
X88158318Y-46152375D01*
X88256233Y-46362500D01*
X89979500Y-46362500D01*
X89979500Y-45181500D01*
X90360500Y-45181500D01*
X89979500Y-45181500D01*
X89979500Y-45181500D01*
X90360500Y-45181500D01*
X90360500Y-46362500D01*
X92083767Y-46362500D01*
X92181682Y-46152375D01*
X91974501Y-45717906D01*
X91570849Y-45358800D01*
X91060500Y-45181500D01*
X90360500Y-45181500D01*
X89979500Y-45181500D01*
X89979500Y-45181500D01*
X89279500Y-45181500D01*
X87971500Y-45181500D01*
X87971500Y-41808500D01*
X89431905Y-41808500D01*
X88955655Y-41903232D01*
X88551911Y-42173006D01*
X88282137Y-42576750D01*
X88187405Y-43053000D01*
X88282137Y-43529250D01*
X88551911Y-43932994D01*
X88955655Y-44202768D01*
X89431905Y-44297500D01*
X90908095Y-44297500D01*
X91384345Y-44202768D01*
X91788089Y-43932994D01*
X92057863Y-43529250D01*
X92152595Y-43053000D01*
X92057863Y-42576750D01*
X91788089Y-42173006D01*
X91384345Y-41903232D01*
X90908095Y-41808500D01*
X89431905Y-41808500D01*
X87971500Y-41808500D01*
X87971500Y-33455500D01*
X89461905Y-33455500D01*
X88985655Y-33550232D01*
X88581911Y-33820006D01*
X88312137Y-34223750D01*
X88217405Y-34700000D01*
X88312137Y-35176250D01*
X88581911Y-35579994D01*
X88985655Y-35849768D01*
X89461905Y-35944500D01*
X90938095Y-35944500D01*
X91414345Y-35849768D01*
X91818089Y-35579994D01*
X92087863Y-35176250D01*
X92182595Y-34700000D01*
X92087863Y-34223750D01*
X91818089Y-33820006D01*
X91414345Y-33550232D01*
X90938095Y-33455500D01*
X89461905Y-33455500D01*
X87971500Y-33455500D01*
X87971500Y-31390500D01*
X88286233Y-31390500D01*
X88188318Y-31600625D01*
X88395499Y-32035094D01*
X88799151Y-32394200D01*
X89309500Y-32571500D01*
X90009500Y-32571500D01*
X90009500Y-31390500D01*
X90390500Y-31390500D01*
X90390500Y-32571500D01*
X91090500Y-32571500D01*
X91600849Y-32394200D01*
X92004501Y-32035094D01*
X92211682Y-31600625D01*
X92113767Y-31390500D01*
X90390500Y-31390500D01*
X90009500Y-31390500D01*
X90009500Y-31390500D01*
X88286233Y-31390500D01*
X87971500Y-31390500D01*
X87971500Y-29828500D01*
X89309500Y-29828500D01*
X88799151Y-30005800D01*
X88395499Y-30364906D01*
X88188318Y-30799375D01*
X88286233Y-31009500D01*
X90009500Y-31009500D01*
X90009500Y-29828500D01*
X90390500Y-29828500D01*
X90009500Y-29828500D01*
X90009500Y-29828500D01*
X90390500Y-29828500D01*
X90390500Y-31009500D01*
X92113767Y-31009500D01*
X92211682Y-30799375D01*
X92004501Y-30364906D01*
X91600849Y-30005800D01*
X91090500Y-29828500D01*
X90390500Y-29828500D01*
X90009500Y-29828500D01*
X90009500Y-29828500D01*
X89309500Y-29828500D01*
X87971500Y-29828500D01*
X87971500Y-28285637D01*
X88153218Y-28104236D01*
X88288846Y-27777609D01*
X88289154Y-27423943D01*
X88154097Y-27097080D01*
X87904236Y-26846782D01*
X87577609Y-26711154D01*
X87344501Y-26710951D01*
X87344501Y-23456604D01*
X89470683Y-23456604D01*
X89390647Y-23536500D01*
X89100000Y-23536500D01*
X89075700Y-23541334D01*
X89055099Y-23555099D01*
X89041334Y-23575700D01*
X89036500Y-23600000D01*
X89036500Y-23890028D01*
X88958402Y-23967990D01*
X88680817Y-24636491D01*
X88680185Y-25360333D01*
X88956604Y-26029317D01*
X89036500Y-26109353D01*
X89036500Y-26400000D01*
X89041334Y-26424300D01*
X89055099Y-26444901D01*
X89075700Y-26458666D01*
X89100000Y-26463500D01*
X89390028Y-26463500D01*
X89467990Y-26541598D01*
X90136491Y-26819183D01*
X90860333Y-26819815D01*
X91529317Y-26543396D01*
X91609353Y-26463500D01*
X91900000Y-26463500D01*
X91924300Y-26458666D01*
X91944901Y-26444901D01*
X91958666Y-26424300D01*
X91963500Y-26400000D01*
X91963500Y-26109972D01*
X92041598Y-26032010D01*
X92319183Y-25363509D01*
X92319815Y-24639667D01*
X92043396Y-23970683D01*
X91963500Y-23890647D01*
X91963500Y-23600000D01*
X91958666Y-23575700D01*
X91944901Y-23555099D01*
X91924300Y-23541334D01*
X91900000Y-23536500D01*
X91609972Y-23536500D01*
X91532010Y-23458402D01*
X90863509Y-23180817D01*
X90139667Y-23180185D01*
X89470683Y-23456604D01*
X87344501Y-23456604D01*
X87344501Y-22673006D01*
X87344502Y-22673001D01*
X87300998Y-22454298D01*
X87300998Y-22454297D01*
X87177113Y-22268889D01*
X87177110Y-22268887D01*
X86504112Y-21595888D01*
X86495391Y-21590061D01*
X86389789Y-21519500D01*
X90948834Y-21519500D01*
X91945352Y-21717719D01*
X92746782Y-22253218D01*
X93282281Y-23054648D01*
X93480500Y-24051167D01*
X93480500Y-74448833D01*
X93282281Y-75445352D01*
X92746782Y-76246782D01*
X91945352Y-76782281D01*
X90948834Y-76980500D01*
X32051167Y-76980500D01*
X31054648Y-76782281D01*
X30253218Y-76246782D01*
X29717719Y-75445352D01*
X29519500Y-74448834D01*
X29519500Y-72456604D01*
X31470683Y-72456604D01*
X31390647Y-72536500D01*
X31100000Y-72536500D01*
X31075700Y-72541334D01*
X31055099Y-72555099D01*
X31041334Y-72575700D01*
X31036500Y-72600000D01*
X31036500Y-72890028D01*
X30958402Y-72967990D01*
X30680817Y-73636491D01*
X30680185Y-74360333D01*
X30956604Y-75029317D01*
X31036500Y-75109353D01*
X31036500Y-75400000D01*
X31041334Y-75424300D01*
X31055099Y-75444901D01*
X31075700Y-75458666D01*
X31100000Y-75463500D01*
X31390028Y-75463500D01*
X31467990Y-75541598D01*
X32136491Y-75819183D01*
X32860333Y-75819815D01*
X33529317Y-75543396D01*
X33609353Y-75463500D01*
X33900000Y-75463500D01*
X33924300Y-75458666D01*
X33944901Y-75444901D01*
X33958666Y-75424300D01*
X33963500Y-75400000D01*
X89036500Y-75400000D01*
X89041334Y-75424300D01*
X89055099Y-75444901D01*
X89075700Y-75458666D01*
X89100000Y-75463500D01*
X89390028Y-75463500D01*
X89467990Y-75541598D01*
X90136491Y-75819183D01*
X90860333Y-75819815D01*
X91529317Y-75543396D01*
X91609353Y-75463500D01*
X91900000Y-75463500D01*
X91924300Y-75458666D01*
X91944901Y-75444901D01*
X91958666Y-75424300D01*
X91963500Y-75400000D01*
X91963500Y-75109972D01*
X92041598Y-75032010D01*
X92319183Y-74363509D01*
X92319815Y-73639667D01*
X92043396Y-72970683D01*
X91963500Y-72890647D01*
X91963500Y-72600000D01*
X91958666Y-72575700D01*
X91944901Y-72555099D01*
X91924300Y-72541334D01*
X91900000Y-72536500D01*
X91609972Y-72536500D01*
X91532010Y-72458402D01*
X90863509Y-72180817D01*
X90139667Y-72180185D01*
X89470683Y-72456604D01*
X83103500Y-72456604D01*
X83103500Y-72413905D01*
X83008768Y-71937655D01*
X82738994Y-71533911D01*
X82335250Y-71264137D01*
X81859000Y-71169405D01*
X81382750Y-71264137D01*
X80979006Y-71533911D01*
X80709232Y-71937655D01*
X80614500Y-72413905D01*
X80614500Y-73890095D01*
X80709232Y-74366345D01*
X80979006Y-74770089D01*
X81382750Y-75039863D01*
X81859000Y-75134595D01*
X82335250Y-75039863D01*
X82738994Y-74770089D01*
X83008768Y-74366345D01*
X83103500Y-73890095D01*
X83103500Y-72456604D01*
X89470683Y-72456604D01*
X83103500Y-72456604D01*
X83103500Y-72456604D01*
X89470683Y-72456604D01*
X89390647Y-72536500D01*
X89100000Y-72536500D01*
X89075700Y-72541334D01*
X89055099Y-72555099D01*
X89041334Y-72575700D01*
X89036500Y-72600000D01*
X89036500Y-72890028D01*
X88958402Y-72967990D01*
X88680817Y-73636491D01*
X88680185Y-74360333D01*
X88956604Y-75029317D01*
X89036500Y-75109353D01*
X89036500Y-75400000D01*
X33963500Y-75400000D01*
X33963500Y-75400000D01*
X33963500Y-75163682D01*
X42215375Y-75163682D01*
X42425500Y-75065767D01*
X42425500Y-73342500D01*
X42806500Y-73342500D01*
X42425500Y-73342500D01*
X42425500Y-73342500D01*
X42806500Y-73342500D01*
X42806500Y-75065767D01*
X43016625Y-75163682D01*
X49215375Y-75163682D01*
X49425500Y-75065767D01*
X49425500Y-73342500D01*
X49806500Y-73342500D01*
X49425500Y-73342500D01*
X49425500Y-73342500D01*
X49806500Y-73342500D01*
X49806500Y-75065767D01*
X50016625Y-75163682D01*
X56215375Y-75163682D01*
X56425500Y-75065767D01*
X56425500Y-73342500D01*
X56806500Y-73342500D01*
X56806500Y-75065767D01*
X57016625Y-75163682D01*
X63215375Y-75163682D01*
X57016625Y-75163682D01*
X57016625Y-75163682D01*
X63215375Y-75163682D01*
X63425500Y-75065767D01*
X63425500Y-73342500D01*
X63806500Y-73342500D01*
X63425500Y-73342500D01*
X63425500Y-73342500D01*
X63806500Y-73342500D01*
X63806500Y-75065767D01*
X64016625Y-75163682D01*
X64451094Y-74956501D01*
X64810200Y-74552849D01*
X64987500Y-74042500D01*
X64987500Y-73890095D01*
X70114500Y-73890095D01*
X70209232Y-74366345D01*
X70479006Y-74770089D01*
X70882750Y-75039863D01*
X71359000Y-75134595D01*
X71835250Y-75039863D01*
X72238994Y-74770089D01*
X72508768Y-74366345D01*
X72603500Y-73890095D01*
X72603500Y-72413905D01*
X72508768Y-71937655D01*
X72238994Y-71533911D01*
X71835250Y-71264137D01*
X71359000Y-71169405D01*
X70882750Y-71264137D01*
X64276280Y-71264137D01*
X64016625Y-71140318D01*
X63806500Y-71238233D01*
X63806500Y-72961500D01*
X64987500Y-72961500D01*
X64987500Y-72261500D01*
X64810200Y-71751151D01*
X64451094Y-71347499D01*
X64276280Y-71264137D01*
X70882750Y-71264137D01*
X64276280Y-71264137D01*
X64276280Y-71264137D01*
X70882750Y-71264137D01*
X70479006Y-71533911D01*
X70209232Y-71937655D01*
X70114500Y-72413905D01*
X70114500Y-73890095D01*
X64987500Y-73890095D01*
X64987500Y-73342500D01*
X63806500Y-73342500D01*
X63425500Y-73342500D01*
X63425500Y-73342500D01*
X62244500Y-73342500D01*
X61360500Y-73342500D01*
X61360500Y-72413905D01*
X61265768Y-71937655D01*
X60995994Y-71533911D01*
X60717010Y-71347499D01*
X62780906Y-71347499D01*
X62421800Y-71751151D01*
X62244500Y-72261500D01*
X62244500Y-72961500D01*
X63425500Y-72961500D01*
X63425500Y-71238233D01*
X63215375Y-71140318D01*
X62780906Y-71347499D01*
X60717010Y-71347499D01*
X60592250Y-71264137D01*
X60116000Y-71169405D01*
X59639750Y-71264137D01*
X59236006Y-71533911D01*
X58966232Y-71937655D01*
X58871500Y-72413905D01*
X58871500Y-73890095D01*
X58966232Y-74366345D01*
X59236006Y-74770089D01*
X59639750Y-75039863D01*
X60116000Y-75134595D01*
X60592250Y-75039863D01*
X60995994Y-74770089D01*
X61265768Y-74366345D01*
X61360500Y-73890095D01*
X61360500Y-73342500D01*
X62244500Y-73342500D01*
X61360500Y-73342500D01*
X61360500Y-73342500D01*
X62244500Y-73342500D01*
X62244500Y-74042500D01*
X62421800Y-74552849D01*
X62780906Y-74956501D01*
X63215375Y-75163682D01*
X57016625Y-75163682D01*
X57016625Y-75163682D01*
X57451094Y-74956501D01*
X57810200Y-74552849D01*
X57987500Y-74042500D01*
X57987500Y-73342500D01*
X56806500Y-73342500D01*
X56425500Y-73342500D01*
X56425500Y-73342500D01*
X55244500Y-73342500D01*
X54360500Y-73342500D01*
X54360500Y-72413905D01*
X54265768Y-71937655D01*
X53995994Y-71533911D01*
X53717010Y-71347499D01*
X55780906Y-71347499D01*
X55421800Y-71751151D01*
X55244500Y-72261500D01*
X55244500Y-72961500D01*
X56425500Y-72961500D01*
X56425500Y-71238233D01*
X56806500Y-71238233D01*
X56425500Y-71238233D01*
X56425500Y-71238233D01*
X56806500Y-71238233D01*
X56806500Y-72961500D01*
X57987500Y-72961500D01*
X57987500Y-72261500D01*
X57810200Y-71751151D01*
X57451094Y-71347499D01*
X57016625Y-71140318D01*
X56806500Y-71238233D01*
X56425500Y-71238233D01*
X56425500Y-71238233D01*
X56215375Y-71140318D01*
X55780906Y-71347499D01*
X53717010Y-71347499D01*
X53592250Y-71264137D01*
X53116000Y-71169405D01*
X52639750Y-71264137D01*
X52236006Y-71533911D01*
X51966232Y-71937655D01*
X51871500Y-72413905D01*
X51871500Y-73890095D01*
X51966232Y-74366345D01*
X52236006Y-74770089D01*
X52639750Y-75039863D01*
X53116000Y-75134595D01*
X53592250Y-75039863D01*
X53995994Y-74770089D01*
X54265768Y-74366345D01*
X54360500Y-73890095D01*
X54360500Y-73342500D01*
X55244500Y-73342500D01*
X54360500Y-73342500D01*
X54360500Y-73342500D01*
X55244500Y-73342500D01*
X55244500Y-74042500D01*
X55421800Y-74552849D01*
X55780906Y-74956501D01*
X56215375Y-75163682D01*
X50016625Y-75163682D01*
X50016625Y-75163682D01*
X50451094Y-74956501D01*
X50810200Y-74552849D01*
X50987500Y-74042500D01*
X50987500Y-73342500D01*
X49806500Y-73342500D01*
X49425500Y-73342500D01*
X49425500Y-73342500D01*
X48244500Y-73342500D01*
X47360500Y-73342500D01*
X47360500Y-72413905D01*
X47265768Y-71937655D01*
X46995994Y-71533911D01*
X46717010Y-71347499D01*
X48780906Y-71347499D01*
X48421800Y-71751151D01*
X48244500Y-72261500D01*
X48244500Y-72961500D01*
X49425500Y-72961500D01*
X49425500Y-71238233D01*
X49806500Y-71238233D01*
X49806500Y-72961500D01*
X50987500Y-72961500D01*
X50987500Y-72261500D01*
X50810200Y-71751151D01*
X50451094Y-71347499D01*
X50016625Y-71140318D01*
X49806500Y-71238233D01*
X49425500Y-71238233D01*
X49425500Y-71238233D01*
X49215375Y-71140318D01*
X48780906Y-71347499D01*
X46717010Y-71347499D01*
X46592250Y-71264137D01*
X46116000Y-71169405D01*
X45639750Y-71264137D01*
X45236006Y-71533911D01*
X44966232Y-71937655D01*
X44871500Y-72413905D01*
X44871500Y-73890095D01*
X44966232Y-74366345D01*
X45236006Y-74770089D01*
X45639750Y-75039863D01*
X46116000Y-75134595D01*
X46592250Y-75039863D01*
X46995994Y-74770089D01*
X47265768Y-74366345D01*
X47360500Y-73890095D01*
X47360500Y-73342500D01*
X48244500Y-73342500D01*
X47360500Y-73342500D01*
X47360500Y-73342500D01*
X48244500Y-73342500D01*
X48244500Y-74042500D01*
X48421800Y-74552849D01*
X48780906Y-74956501D01*
X49215375Y-75163682D01*
X43016625Y-75163682D01*
X43016625Y-75163682D01*
X43451094Y-74956501D01*
X43810200Y-74552849D01*
X43987500Y-74042500D01*
X43987500Y-73342500D01*
X42806500Y-73342500D01*
X42425500Y-73342500D01*
X42425500Y-73342500D01*
X41244500Y-73342500D01*
X40360500Y-73342500D01*
X40360500Y-72413905D01*
X40265768Y-71937655D01*
X39995994Y-71533911D01*
X39717010Y-71347499D01*
X41780906Y-71347499D01*
X41421800Y-71751151D01*
X41244500Y-72261500D01*
X41244500Y-72961500D01*
X42425500Y-72961500D01*
X42425500Y-71238233D01*
X42806500Y-71238233D01*
X42806500Y-72961500D01*
X43987500Y-72961500D01*
X43987500Y-72261500D01*
X43810200Y-71751151D01*
X43451094Y-71347499D01*
X43016625Y-71140318D01*
X42806500Y-71238233D01*
X42425500Y-71238233D01*
X42425500Y-71238233D01*
X42215375Y-71140318D01*
X41780906Y-71347499D01*
X39717010Y-71347499D01*
X39592250Y-71264137D01*
X39116000Y-71169405D01*
X38639750Y-71264137D01*
X38236006Y-71533911D01*
X37966232Y-71937655D01*
X37871500Y-72413905D01*
X37871500Y-73890095D01*
X37966232Y-74366345D01*
X38236006Y-74770089D01*
X38639750Y-75039863D01*
X39116000Y-75134595D01*
X39592250Y-75039863D01*
X39995994Y-74770089D01*
X40265768Y-74366345D01*
X40360500Y-73890095D01*
X40360500Y-73342500D01*
X41244500Y-73342500D01*
X40360500Y-73342500D01*
X40360500Y-73342500D01*
X41244500Y-73342500D01*
X41244500Y-74042500D01*
X41421800Y-74552849D01*
X41780906Y-74956501D01*
X42215375Y-75163682D01*
X33963500Y-75163682D01*
X33963500Y-75109972D01*
X34041598Y-75032010D01*
X34319183Y-74363509D01*
X34319815Y-73639667D01*
X34043396Y-72970683D01*
X33963500Y-72890647D01*
X33963500Y-72600000D01*
X33958666Y-72575700D01*
X33944901Y-72555099D01*
X33924300Y-72541334D01*
X33900000Y-72536500D01*
X33609972Y-72536500D01*
X33532010Y-72458402D01*
X32863509Y-72180817D01*
X32139667Y-72180185D01*
X31470683Y-72456604D01*
X29519500Y-72456604D01*
X29519500Y-68131500D01*
X39859375Y-68131500D01*
X39716500Y-68274375D01*
X39716500Y-68392678D01*
X39803506Y-68602728D01*
X39964271Y-68763494D01*
X40174321Y-68850500D01*
X40257625Y-68850500D01*
X40400500Y-68707625D01*
X40400500Y-68131500D01*
X40625500Y-68131500D01*
X40400500Y-68131500D01*
X40400500Y-68131500D01*
X40625500Y-68131500D01*
X40625500Y-68707625D01*
X40768375Y-68850500D01*
X40851679Y-68850500D01*
X41061729Y-68763494D01*
X41222494Y-68602728D01*
X41309500Y-68392678D01*
X41309500Y-68274375D01*
X41166625Y-68131500D01*
X46971375Y-68131500D01*
X46828500Y-68274375D01*
X46828500Y-68392678D01*
X46915506Y-68602728D01*
X47076271Y-68763494D01*
X47286321Y-68850500D01*
X47369625Y-68850500D01*
X47512500Y-68707625D01*
X47512500Y-68131500D01*
X47737500Y-68131500D01*
X47737500Y-68707625D01*
X47880375Y-68850500D01*
X47963679Y-68850500D01*
X48173729Y-68763494D01*
X48334494Y-68602728D01*
X48421500Y-68392678D01*
X48421500Y-68274375D01*
X48278625Y-68131500D01*
X47737500Y-68131500D01*
X47512500Y-68131500D01*
X47512500Y-68131500D01*
X46971375Y-68131500D01*
X41166625Y-68131500D01*
X41166625Y-68131500D01*
X40625500Y-68131500D01*
X40400500Y-68131500D01*
X40400500Y-68131500D01*
X39859375Y-68131500D01*
X29519500Y-68131500D01*
X29519500Y-67893375D01*
X53432500Y-67893375D01*
X53432500Y-68011678D01*
X53519506Y-68221728D01*
X53680271Y-68382494D01*
X53890321Y-68469500D01*
X53973625Y-68469500D01*
X54116500Y-68326625D01*
X54116500Y-67750500D01*
X54341500Y-67750500D01*
X54341500Y-68326625D01*
X54484375Y-68469500D01*
X54567679Y-68469500D01*
X54777729Y-68382494D01*
X54938494Y-68221728D01*
X55025500Y-68011678D01*
X55025500Y-67893375D01*
X54882625Y-67750500D01*
X60179375Y-67750500D01*
X60036500Y-67893375D01*
X60036500Y-68011678D01*
X60123506Y-68221728D01*
X60284271Y-68382494D01*
X60494321Y-68469500D01*
X60577625Y-68469500D01*
X60720500Y-68326625D01*
X60720500Y-67750500D01*
X60945500Y-67750500D01*
X60720500Y-67750500D01*
X60720500Y-67750500D01*
X60945500Y-67750500D01*
X60945500Y-68326625D01*
X61088375Y-68469500D01*
X61171679Y-68469500D01*
X61381729Y-68382494D01*
X61542494Y-68221728D01*
X61629500Y-68011678D01*
X61629500Y-67893375D01*
X61486625Y-67750500D01*
X60945500Y-67750500D01*
X60720500Y-67750500D01*
X60720500Y-67750500D01*
X60179375Y-67750500D01*
X54882625Y-67750500D01*
X54882625Y-67750500D01*
X54341500Y-67750500D01*
X54116500Y-67750500D01*
X54116500Y-67750500D01*
X53575375Y-67750500D01*
X48364625Y-67750500D01*
X48421500Y-67693625D01*
X48421500Y-67575322D01*
X48334494Y-67365272D01*
X48173729Y-67204506D01*
X47963679Y-67117500D01*
X47880375Y-67117500D01*
X47737500Y-67260375D01*
X47737500Y-67836500D01*
X48278625Y-67836500D01*
X48364625Y-67750500D01*
X53575375Y-67750500D01*
X48364625Y-67750500D01*
X48364625Y-67750500D01*
X53575375Y-67750500D01*
X53432500Y-67893375D01*
X29519500Y-67893375D01*
X29519500Y-67117500D01*
X40174321Y-67117500D01*
X39964271Y-67204506D01*
X39803506Y-67365272D01*
X39716500Y-67575322D01*
X39716500Y-67693625D01*
X39859375Y-67836500D01*
X40400500Y-67836500D01*
X40400500Y-67260375D01*
X40257625Y-67117500D01*
X40768375Y-67117500D01*
X40257625Y-67117500D01*
X40257625Y-67117500D01*
X40768375Y-67117500D01*
X40625500Y-67260375D01*
X40625500Y-67836500D01*
X41166625Y-67836500D01*
X41309500Y-67693625D01*
X41309500Y-67575322D01*
X41222494Y-67365272D01*
X41061729Y-67204506D01*
X40851679Y-67117500D01*
X47286321Y-67117500D01*
X40851679Y-67117500D01*
X40851679Y-67117500D01*
X47286321Y-67117500D01*
X47076271Y-67204506D01*
X46915506Y-67365272D01*
X46828500Y-67575322D01*
X46828500Y-67693625D01*
X46971375Y-67836500D01*
X47512500Y-67836500D01*
X47512500Y-67260375D01*
X47369625Y-67117500D01*
X47286321Y-67117500D01*
X40851679Y-67117500D01*
X40851679Y-67117500D01*
X40768375Y-67117500D01*
X40257625Y-67117500D01*
X40257625Y-67117500D01*
X40174321Y-67117500D01*
X29519500Y-67117500D01*
X29519500Y-66736500D01*
X53890321Y-66736500D01*
X53680271Y-66823506D01*
X53519506Y-66984272D01*
X53432500Y-67194322D01*
X53432500Y-67312625D01*
X53575375Y-67455500D01*
X54116500Y-67455500D01*
X54116500Y-66879375D01*
X53973625Y-66736500D01*
X54484375Y-66736500D01*
X53973625Y-66736500D01*
X53973625Y-66736500D01*
X54484375Y-66736500D01*
X54341500Y-66879375D01*
X54341500Y-67455500D01*
X54882625Y-67455500D01*
X55025500Y-67312625D01*
X55025500Y-67194322D01*
X54938494Y-66984272D01*
X54777729Y-66823506D01*
X54567679Y-66736500D01*
X60494321Y-66736500D01*
X54567679Y-66736500D01*
X54567679Y-66736500D01*
X60494321Y-66736500D01*
X60284271Y-66823506D01*
X60123506Y-66984272D01*
X60036500Y-67194322D01*
X60036500Y-67312625D01*
X60179375Y-67455500D01*
X60720500Y-67455500D01*
X60720500Y-66879375D01*
X60577625Y-66736500D01*
X61088375Y-66736500D01*
X60945500Y-66879375D01*
X60945500Y-67455500D01*
X61486625Y-67455500D01*
X61629500Y-67312625D01*
X61629500Y-67194322D01*
X61542494Y-66984272D01*
X61381729Y-66823506D01*
X61171679Y-66736500D01*
X61088375Y-66736500D01*
X60577625Y-66736500D01*
X60577625Y-66736500D01*
X60494321Y-66736500D01*
X54567679Y-66736500D01*
X54567679Y-66736500D01*
X54484375Y-66736500D01*
X53973625Y-66736500D01*
X53973625Y-66736500D01*
X53890321Y-66736500D01*
X29519500Y-66736500D01*
X29519500Y-65087500D01*
X29808833Y-65087500D01*
X29715162Y-65331702D01*
X29997739Y-65882908D01*
X30469743Y-66284018D01*
X30807300Y-66423825D01*
X31051500Y-66329009D01*
X31051500Y-65087500D01*
X29808833Y-65087500D01*
X29519500Y-65087500D01*
X29519500Y-63509982D01*
X30469743Y-63509982D01*
X29997739Y-63911092D01*
X29715162Y-64462298D01*
X29808833Y-64706500D01*
X31051500Y-64706500D01*
X31051500Y-63464991D01*
X30807300Y-63370175D01*
X30469743Y-63509982D01*
X29519500Y-63509982D01*
X29519500Y-63099003D01*
X33563296Y-63099003D01*
X33377888Y-63222888D01*
X33254003Y-63408296D01*
X33250125Y-63427792D01*
X32766000Y-63427792D01*
X32596514Y-63460676D01*
X32447551Y-63558529D01*
X32347836Y-63706252D01*
X32332894Y-63780760D01*
X32014257Y-63509982D01*
X31676700Y-63370175D01*
X31432500Y-63464991D01*
X31432500Y-64706500D01*
X31452500Y-64706500D01*
X31452500Y-65087500D01*
X31432500Y-65087500D01*
X31432500Y-66329009D01*
X31676700Y-66423825D01*
X32014257Y-66284018D01*
X32332333Y-66013716D01*
X32345676Y-66082486D01*
X32443529Y-66231449D01*
X32591252Y-66331164D01*
X32766000Y-66366208D01*
X34798000Y-66366208D01*
X34967486Y-66333324D01*
X35116449Y-66235471D01*
X35216164Y-66087748D01*
X35251208Y-65913000D01*
X35251208Y-63881000D01*
X35218324Y-63711514D01*
X35120471Y-63562551D01*
X34972748Y-63462836D01*
X34798000Y-63427792D01*
X34313875Y-63427792D01*
X34309997Y-63408296D01*
X34186112Y-63222888D01*
X34000704Y-63099003D01*
X33782000Y-63055500D01*
X33563296Y-63099003D01*
X29519500Y-63099003D01*
X29519500Y-61277500D01*
X29808833Y-61277500D01*
X29715162Y-61521702D01*
X29997739Y-62072908D01*
X30469743Y-62474018D01*
X30807300Y-62613825D01*
X31051500Y-62519009D01*
X31051500Y-61277500D01*
X29808833Y-61277500D01*
X29519500Y-61277500D01*
X29519500Y-59699982D01*
X30469743Y-59699982D01*
X29997739Y-60101092D01*
X29715162Y-60652298D01*
X29808833Y-60896500D01*
X31051500Y-60896500D01*
X31051500Y-59654991D01*
X30807300Y-59560175D01*
X30469743Y-59699982D01*
X29519500Y-59699982D01*
X29519500Y-35115500D01*
X30063991Y-35115500D01*
X29969175Y-35359700D01*
X30108982Y-35697257D01*
X30510092Y-36169261D01*
X31061298Y-36451838D01*
X31305500Y-36358167D01*
X31305500Y-35115500D01*
X30063991Y-35115500D01*
X29519500Y-35115500D01*
X29519500Y-24051166D01*
X29637765Y-23456604D01*
X31470683Y-23456604D01*
X31390647Y-23536500D01*
X31100000Y-23536500D01*
X31075700Y-23541334D01*
X31055099Y-23555099D01*
X31041334Y-23575700D01*
X31036500Y-23600000D01*
X31036500Y-23890028D01*
X30958402Y-23967990D01*
X30680817Y-24636491D01*
X30680185Y-25360333D01*
X30956604Y-26029317D01*
X31036500Y-26109353D01*
X31036500Y-26400000D01*
X31041334Y-26424300D01*
X31055099Y-26444901D01*
X31075700Y-26458666D01*
X31100000Y-26463500D01*
X31390028Y-26463500D01*
X31467990Y-26541598D01*
X32136491Y-26819183D01*
X32860333Y-26819815D01*
X33529317Y-26543396D01*
X33609353Y-26463500D01*
X33900000Y-26463500D01*
X33924300Y-26458666D01*
X33944901Y-26444901D01*
X33958666Y-26424300D01*
X33963500Y-26400000D01*
X33963500Y-26109972D01*
X34041598Y-26032010D01*
X34319183Y-25363509D01*
X34319815Y-24639667D01*
X34043396Y-23970683D01*
X33963500Y-23890647D01*
X33963500Y-23600000D01*
X33958666Y-23575700D01*
X33944901Y-23555099D01*
X33924300Y-23541334D01*
X33900000Y-23536500D01*
X33609972Y-23536500D01*
X33532010Y-23458402D01*
X32863509Y-23180817D01*
X32139667Y-23180185D01*
X31470683Y-23456604D01*
X29637765Y-23456604D01*
X29717719Y-23054648D01*
X30253218Y-22253218D01*
X31054648Y-21717719D01*
X32051167Y-21519500D01*
X36372277Y-21519500D01*
X35795888Y-22095888D01*
X35795888Y-22095888D01*
G37*
X35795888Y-22095888D02*
X35672003Y-22281296D01*
X35664785Y-22317582D01*
X35628499Y-22500000D01*
X35628500Y-22500005D01*
X35628500Y-27471263D01*
X35504236Y-27346782D01*
X35177609Y-27211154D01*
X34823943Y-27210846D01*
X34497080Y-27345903D01*
X34246782Y-27595764D01*
X34111154Y-27922391D01*
X34110929Y-28180848D01*
X32495888Y-29795888D01*
X32372003Y-29981296D01*
X32372003Y-29981297D01*
X32328499Y-30200000D01*
X32328500Y-30200005D01*
X32328500Y-30915792D01*
X30480000Y-30915792D01*
X30310514Y-30948676D01*
X30161551Y-31046529D01*
X30061836Y-31194252D01*
X30026792Y-31369000D01*
X30026792Y-33401000D01*
X30059676Y-33570486D01*
X30157529Y-33719449D01*
X30305252Y-33819164D01*
X30379760Y-33834106D01*
X30108982Y-34152743D01*
X29969175Y-34490300D01*
X30063991Y-34734500D01*
X31305500Y-34734500D01*
X31305500Y-34714500D01*
X31686500Y-34714500D01*
X31686500Y-34734500D01*
X31706500Y-34734500D01*
X31706500Y-35115500D01*
X31686500Y-35115500D01*
X31686500Y-36358167D01*
X31930702Y-36451838D01*
X32328500Y-36247906D01*
X32328500Y-44193995D01*
X32328499Y-44194000D01*
X32353919Y-44321792D01*
X32372003Y-44412704D01*
X32495888Y-44598112D01*
X33027792Y-45130016D01*
X33027792Y-46011111D01*
X32723943Y-46010846D01*
X32397080Y-46145903D01*
X32146782Y-46395764D01*
X32011154Y-46722391D01*
X32010846Y-47076057D01*
X32145903Y-47402920D01*
X32395764Y-47653218D01*
X32722391Y-47788846D01*
X32980847Y-47789071D01*
X33027792Y-47836016D01*
X33027792Y-48742000D01*
X33060676Y-48911486D01*
X33158529Y-49060449D01*
X33306252Y-49160164D01*
X33481000Y-49195208D01*
X34981000Y-49195208D01*
X35150486Y-49162324D01*
X35299449Y-49064471D01*
X35399164Y-48916748D01*
X35434208Y-48742000D01*
X35434208Y-47442000D01*
X35401324Y-47272514D01*
X35303471Y-47123551D01*
X35155748Y-47023836D01*
X34981000Y-46988792D01*
X36181000Y-46988792D01*
X36011514Y-47021676D01*
X35862551Y-47119529D01*
X35762836Y-47267252D01*
X35727792Y-47442000D01*
X35727792Y-48742000D01*
X35760676Y-48911486D01*
X35858529Y-49060449D01*
X36006252Y-49160164D01*
X36181000Y-49195208D01*
X37681000Y-49195208D01*
X37850486Y-49162324D01*
X37999449Y-49064471D01*
X38088129Y-48933095D01*
X38222391Y-48988846D01*
X38576057Y-48989154D01*
X38902920Y-48854097D01*
X39153218Y-48604236D01*
X39288846Y-48277609D01*
X39289154Y-47923943D01*
X39154097Y-47597080D01*
X38904236Y-47346782D01*
X38577609Y-47211154D01*
X38223943Y-47210846D01*
X38095639Y-47263860D01*
X38003471Y-47123551D01*
X37855748Y-47023836D01*
X37681000Y-46988792D01*
X36181000Y-46988792D01*
X34981000Y-46988792D01*
X34981000Y-46988792D01*
X33797016Y-46988792D01*
X33788930Y-46980707D01*
X33789154Y-46723943D01*
X33708278Y-46528208D01*
X34981000Y-46528208D01*
X35150486Y-46495324D01*
X35299449Y-46397471D01*
X35399164Y-46249748D01*
X35434208Y-46075000D01*
X35434208Y-44775000D01*
X35401324Y-44605514D01*
X35303471Y-44456551D01*
X35155748Y-44356836D01*
X34981000Y-44321792D01*
X36181000Y-44321792D01*
X36011514Y-44354676D01*
X35862551Y-44452529D01*
X35762836Y-44600252D01*
X35727792Y-44775000D01*
X35727792Y-46075000D01*
X35760676Y-46244486D01*
X35858529Y-46393449D01*
X36006252Y-46493164D01*
X36181000Y-46528208D01*
X37681000Y-46528208D01*
X37850486Y-46495324D01*
X37999449Y-46397471D01*
X38099164Y-46249748D01*
X38101399Y-46238605D01*
X38222391Y-46288846D01*
X38576057Y-46289154D01*
X38902920Y-46154097D01*
X39153218Y-45904236D01*
X39288846Y-45577609D01*
X39289154Y-45223943D01*
X39154097Y-44897080D01*
X38904236Y-44646782D01*
X38577609Y-44511154D01*
X38223943Y-44510846D01*
X38078589Y-44570905D01*
X38003471Y-44456551D01*
X37855748Y-44356836D01*
X37681000Y-44321792D01*
X36181000Y-44321792D01*
X34981000Y-44321792D01*
X34981000Y-44321792D01*
X33836016Y-44321792D01*
X33471500Y-43957276D01*
X33471500Y-43859303D01*
X33481000Y-43861208D01*
X34981000Y-43861208D01*
X35150486Y-43828324D01*
X35299449Y-43730471D01*
X35399164Y-43582748D01*
X35434208Y-43408000D01*
X35434208Y-42108000D01*
X35401324Y-41938514D01*
X35303471Y-41789551D01*
X35155748Y-41689836D01*
X34981000Y-41654792D01*
X36181000Y-41654792D01*
X36011514Y-41687676D01*
X35862551Y-41785529D01*
X35762836Y-41933252D01*
X35727792Y-42108000D01*
X35727792Y-43408000D01*
X35760676Y-43577486D01*
X35858529Y-43726449D01*
X36006252Y-43826164D01*
X36181000Y-43861208D01*
X37681000Y-43861208D01*
X37850486Y-43828324D01*
X37999449Y-43730471D01*
X38086874Y-43600955D01*
X38197391Y-43646846D01*
X38551057Y-43647154D01*
X38877920Y-43512097D01*
X39128218Y-43262236D01*
X39263846Y-42935609D01*
X39264154Y-42581943D01*
X39129097Y-42255080D01*
X38879236Y-42004782D01*
X38552609Y-41869154D01*
X38198943Y-41868846D01*
X38086169Y-41915443D01*
X38003471Y-41789551D01*
X37855748Y-41689836D01*
X37681000Y-41654792D01*
X36181000Y-41654792D01*
X34981000Y-41654792D01*
X34981000Y-41654792D01*
X33947099Y-41654792D01*
X33947099Y-39634046D01*
X34236300Y-39753825D01*
X34480500Y-39659009D01*
X34480500Y-38417500D01*
X34460500Y-38417500D01*
X34460500Y-38036500D01*
X34480500Y-38036500D01*
X34480500Y-36794991D01*
X34861500Y-36794991D01*
X34861500Y-38036500D01*
X34881500Y-38036500D01*
X34881500Y-38417500D01*
X34861500Y-38417500D01*
X34861500Y-39659009D01*
X35105700Y-39753825D01*
X35443257Y-39614018D01*
X35761333Y-39343716D01*
X35774676Y-39412486D01*
X35872529Y-39561449D01*
X36020252Y-39661164D01*
X36195000Y-39696208D01*
X38227000Y-39696208D01*
X38396486Y-39663324D01*
X38545449Y-39565471D01*
X38645164Y-39417748D01*
X38680208Y-39243000D01*
X38680208Y-37211000D01*
X38647324Y-37041514D01*
X38549471Y-36892551D01*
X38401748Y-36792836D01*
X38227000Y-36757792D01*
X36195000Y-36757792D01*
X36025514Y-36790676D01*
X35876551Y-36888529D01*
X35776836Y-37036252D01*
X35761894Y-37110760D01*
X35443257Y-36839982D01*
X35105700Y-36700175D01*
X34861500Y-36794991D01*
X34480500Y-36794991D01*
X34480500Y-36794991D01*
X34236300Y-36700175D01*
X33947099Y-36819954D01*
X33947099Y-36274534D01*
X34222391Y-36388846D01*
X34576057Y-36389154D01*
X34902920Y-36254097D01*
X35153218Y-36004236D01*
X35288846Y-35677609D01*
X35289071Y-35419152D01*
X35804109Y-34904114D01*
X35804112Y-34904112D01*
X35927997Y-34718704D01*
X35927998Y-34718703D01*
X35971501Y-34500000D01*
X35971500Y-34499995D01*
X35971500Y-31592742D01*
X36968430Y-31592742D01*
X36798944Y-31625626D01*
X36649981Y-31723479D01*
X36550266Y-31871202D01*
X36515222Y-32045950D01*
X36515222Y-32846050D01*
X36548106Y-33015536D01*
X36645959Y-33164499D01*
X36793682Y-33264214D01*
X36968430Y-33299258D01*
X37031122Y-33299258D01*
X36957154Y-33477391D01*
X36956846Y-33831057D01*
X37091903Y-34157920D01*
X37341764Y-34408218D01*
X37668391Y-34543846D01*
X38022057Y-34544154D01*
X38348920Y-34409097D01*
X38599218Y-34159236D01*
X38734846Y-33832609D01*
X38735154Y-33478943D01*
X38660910Y-33299258D01*
X38769290Y-33299258D01*
X38938776Y-33266374D01*
X39087739Y-33168521D01*
X39187454Y-33020798D01*
X39222498Y-32846050D01*
X39222498Y-32045950D01*
X39189614Y-31876464D01*
X39091761Y-31727501D01*
X38944038Y-31627786D01*
X38769290Y-31592742D01*
X36968430Y-31592742D01*
X35971500Y-31592742D01*
X35971500Y-30571500D01*
X36099995Y-30571500D01*
X36100000Y-30571501D01*
X36282418Y-30535215D01*
X36318704Y-30527997D01*
X36504112Y-30404112D01*
X36515222Y-30393002D01*
X36515222Y-30946050D01*
X36548106Y-31115536D01*
X36645959Y-31264499D01*
X36793682Y-31364214D01*
X36968430Y-31399258D01*
X38769290Y-31399258D01*
X38938776Y-31366374D01*
X39087739Y-31268521D01*
X39187454Y-31120798D01*
X39222498Y-30946050D01*
X39222498Y-30145950D01*
X39189614Y-29976464D01*
X39091761Y-29827501D01*
X38944038Y-29727786D01*
X38786449Y-29696183D01*
X38861846Y-29514609D01*
X38862154Y-29160943D01*
X38727097Y-28834080D01*
X38477236Y-28583782D01*
X38369272Y-28538951D01*
X39104109Y-27804114D01*
X39104112Y-27804112D01*
X39227997Y-27618704D01*
X39269392Y-27410596D01*
X39409412Y-27504154D01*
X39910000Y-27603727D01*
X40410588Y-27504154D01*
X40834966Y-27220593D01*
X41118527Y-26796215D01*
X41180000Y-26487169D01*
X41241473Y-26796215D01*
X41525034Y-27220593D01*
X41949412Y-27504154D01*
X42450000Y-27603727D01*
X42704599Y-27553084D01*
X42704599Y-27847146D01*
X42704236Y-27846782D01*
X42377609Y-27711154D01*
X42023943Y-27710846D01*
X41697080Y-27845903D01*
X41446782Y-28095764D01*
X41311154Y-28422391D01*
X41310911Y-28700966D01*
X41227504Y-28825795D01*
X41227504Y-28825796D01*
X41184000Y-29044499D01*
X41184001Y-29044504D01*
X41184001Y-29321336D01*
X41140097Y-29215080D01*
X40890236Y-28964782D01*
X40563609Y-28829154D01*
X40209943Y-28828846D01*
X39883080Y-28963903D01*
X39632782Y-29213764D01*
X39497154Y-29540391D01*
X39496846Y-29894057D01*
X39631903Y-30220920D01*
X39881764Y-30471218D01*
X40109140Y-30565633D01*
X40109140Y-30642742D01*
X39970710Y-30642742D01*
X39801224Y-30675626D01*
X39652261Y-30773479D01*
X39552546Y-30921202D01*
X39517502Y-31095950D01*
X39517502Y-31896050D01*
X39550386Y-32065536D01*
X39648239Y-32214499D01*
X39795962Y-32314214D01*
X39970710Y-32349258D01*
X40742518Y-32349258D01*
X40495888Y-32595888D01*
X40372003Y-32781296D01*
X40372003Y-32781297D01*
X40328499Y-33000000D01*
X40328500Y-33000005D01*
X40328500Y-41999995D01*
X40328499Y-42000000D01*
X40354735Y-42131893D01*
X40372003Y-42218704D01*
X40396309Y-42255080D01*
X40495888Y-42404112D01*
X42328500Y-44236723D01*
X42328500Y-49871088D01*
X42304236Y-49846782D01*
X41977609Y-49711154D01*
X41623943Y-49710846D01*
X41297080Y-49845903D01*
X41046782Y-50095764D01*
X40911154Y-50422391D01*
X40910846Y-50776057D01*
X40912271Y-50779506D01*
X39663276Y-52028500D01*
X35036723Y-52028500D01*
X34911432Y-51903208D01*
X35000000Y-51903208D01*
X35169486Y-51870324D01*
X35318449Y-51772471D01*
X35418164Y-51624748D01*
X35453208Y-51450000D01*
X35453208Y-50150000D01*
X35420324Y-49980514D01*
X35322471Y-49831551D01*
X35174748Y-49731836D01*
X35000000Y-49696792D01*
X36200000Y-49696792D01*
X36030514Y-49729676D01*
X35881551Y-49827529D01*
X35781836Y-49975252D01*
X35746792Y-50150000D01*
X35746792Y-51450000D01*
X35779676Y-51619486D01*
X35877529Y-51768449D01*
X36025252Y-51868164D01*
X36200000Y-51903208D01*
X37700000Y-51903208D01*
X37869486Y-51870324D01*
X38018449Y-51772471D01*
X38118164Y-51624748D01*
X38132822Y-51551654D01*
X38222391Y-51588846D01*
X38576057Y-51589154D01*
X38902920Y-51454097D01*
X39153218Y-51204236D01*
X39288846Y-50877609D01*
X39289154Y-50523943D01*
X39154097Y-50197080D01*
X38904236Y-49946782D01*
X38577609Y-49811154D01*
X38223943Y-49810846D01*
X38054784Y-49880741D01*
X38022471Y-49831551D01*
X37874748Y-49731836D01*
X37700000Y-49696792D01*
X36200000Y-49696792D01*
X35000000Y-49696792D01*
X35000000Y-49696792D01*
X33500000Y-49696792D01*
X33330514Y-49729676D01*
X33181551Y-49827529D01*
X33081836Y-49975252D01*
X33046792Y-50150000D01*
X33046792Y-51450000D01*
X33079676Y-51619486D01*
X33177529Y-51768449D01*
X33325252Y-51868164D01*
X33500000Y-51903208D01*
X33678500Y-51903208D01*
X33678500Y-52049995D01*
X33678499Y-52050000D01*
X33704657Y-52181500D01*
X33722003Y-52268704D01*
X33761957Y-52328499D01*
X33845888Y-52454112D01*
X34395886Y-53004109D01*
X34395888Y-53004112D01*
X34581296Y-53127997D01*
X34800000Y-53171500D01*
X39899995Y-53171500D01*
X39900000Y-53171501D01*
X40082418Y-53135215D01*
X40118704Y-53127997D01*
X40304112Y-53004112D01*
X40304113Y-53004111D01*
X41819206Y-51489017D01*
X41976057Y-51489154D01*
X42302920Y-51354097D01*
X42328500Y-51328562D01*
X42328500Y-52020099D01*
X40352896Y-53995702D01*
X40204236Y-53846782D01*
X39877609Y-53711154D01*
X39523943Y-53710846D01*
X39197080Y-53845903D01*
X39014164Y-54028500D01*
X36100005Y-54028500D01*
X36100000Y-54028499D01*
X35917582Y-54064785D01*
X35881296Y-54072003D01*
X35695888Y-54195888D01*
X35695886Y-54195891D01*
X35644985Y-54246792D01*
X34950000Y-54246792D01*
X34780514Y-54279676D01*
X34631551Y-54377529D01*
X34531836Y-54525252D01*
X34496792Y-54700000D01*
X34496792Y-56128500D01*
X33700005Y-56128500D01*
X33700000Y-56128499D01*
X33517582Y-56164785D01*
X33481296Y-56172003D01*
X33295888Y-56295888D01*
X33295886Y-56295891D01*
X32395888Y-57195888D01*
X32272003Y-57381296D01*
X32272003Y-57381297D01*
X32228499Y-57600000D01*
X32228500Y-57600005D01*
X32228500Y-58834995D01*
X32228499Y-58835000D01*
X32262163Y-59004236D01*
X32272003Y-59053704D01*
X32384769Y-59222471D01*
X32395888Y-59239112D01*
X32774568Y-59617792D01*
X32766000Y-59617792D01*
X32596514Y-59650676D01*
X32447551Y-59748529D01*
X32347836Y-59896252D01*
X32332894Y-59970760D01*
X32014257Y-59699982D01*
X31676700Y-59560175D01*
X31432500Y-59654991D01*
X31432500Y-60896500D01*
X31452500Y-60896500D01*
X31452500Y-61277500D01*
X31432500Y-61277500D01*
X31432500Y-62519009D01*
X31676700Y-62613825D01*
X32014257Y-62474018D01*
X32332333Y-62203716D01*
X32345676Y-62272486D01*
X32443529Y-62421449D01*
X32591252Y-62521164D01*
X32766000Y-62556208D01*
X34798000Y-62556208D01*
X34967486Y-62523324D01*
X35116449Y-62425471D01*
X35216164Y-62277748D01*
X35251208Y-62103000D01*
X35251208Y-60071000D01*
X35218324Y-59901514D01*
X35120471Y-59752551D01*
X34972748Y-59652836D01*
X34798000Y-59617792D01*
X34313876Y-59617792D01*
X34309998Y-59598297D01*
X34242367Y-59497080D01*
X34186112Y-59412888D01*
X34186109Y-59412886D01*
X33371500Y-58598276D01*
X33371500Y-58528562D01*
X33595764Y-58753218D01*
X33922391Y-58888846D01*
X34276057Y-58889154D01*
X34496792Y-58797948D01*
X34496792Y-58900000D01*
X34529676Y-59069486D01*
X34627529Y-59218449D01*
X34775252Y-59318164D01*
X34950000Y-59353208D01*
X35039083Y-59353208D01*
X35053414Y-59425252D01*
X35072003Y-59518704D01*
X35186459Y-59690000D01*
X35195888Y-59704112D01*
X35411070Y-59919293D01*
X35410846Y-60176057D01*
X35545903Y-60502920D01*
X35795764Y-60753218D01*
X36122391Y-60888846D01*
X36476057Y-60889154D01*
X36802920Y-60754097D01*
X37053218Y-60504236D01*
X37188846Y-60177609D01*
X37189154Y-59823943D01*
X37054097Y-59497080D01*
X36804236Y-59246782D01*
X36607252Y-59164987D01*
X36668164Y-59074748D01*
X36703208Y-58900000D01*
X36703208Y-58721500D01*
X37591564Y-58721500D01*
X37559551Y-58742529D01*
X37459836Y-58890252D01*
X37424792Y-59065000D01*
X37424792Y-60315000D01*
X37457676Y-60484486D01*
X37555529Y-60633449D01*
X37703252Y-60733164D01*
X37878000Y-60768208D01*
X38056500Y-60768208D01*
X38056500Y-60927995D01*
X38056499Y-60928000D01*
X38080546Y-61048888D01*
X38100003Y-61146704D01*
X38204510Y-61303111D01*
X38223888Y-61332112D01*
X39295886Y-62404109D01*
X39295888Y-62404112D01*
X39481296Y-62527997D01*
X39500425Y-62531802D01*
X39700000Y-62571501D01*
X39700005Y-62571500D01*
X42571763Y-62571500D01*
X42571488Y-62887415D01*
X42586070Y-62922707D01*
X40382984Y-65125792D01*
X40288000Y-65125792D01*
X40118514Y-65158676D01*
X39969551Y-65256529D01*
X39869836Y-65404252D01*
X39834792Y-65579000D01*
X39834792Y-66169000D01*
X39867676Y-66338486D01*
X39965529Y-66487449D01*
X40113252Y-66587164D01*
X40288000Y-66622208D01*
X40738000Y-66622208D01*
X40907486Y-66589324D01*
X41056449Y-66491471D01*
X41156164Y-66343748D01*
X41191208Y-66169000D01*
X41191208Y-65934016D01*
X43524809Y-63600415D01*
X43636699Y-63600512D01*
X43963562Y-63465455D01*
X44048261Y-63380903D01*
X47122080Y-63380903D01*
X46871782Y-63630764D01*
X46736154Y-63957391D01*
X46735846Y-64311057D01*
X46870903Y-64637920D01*
X47053500Y-64820836D01*
X47053500Y-65298085D01*
X46981836Y-65404252D01*
X46946792Y-65579000D01*
X46946792Y-66169000D01*
X46979676Y-66338486D01*
X47077529Y-66487449D01*
X47225252Y-66587164D01*
X47400000Y-66622208D01*
X47850000Y-66622208D01*
X48019486Y-66589324D01*
X48168449Y-66491471D01*
X48268164Y-66343748D01*
X48303208Y-66169000D01*
X48303208Y-65579000D01*
X48270324Y-65409514D01*
X48196500Y-65297131D01*
X48196500Y-64820637D01*
X48378218Y-64639236D01*
X48513846Y-64312609D01*
X48513883Y-64269903D01*
X51186080Y-64269903D01*
X50935782Y-64519764D01*
X50800154Y-64846391D01*
X50799846Y-65200057D01*
X50934903Y-65526920D01*
X51184764Y-65777218D01*
X51511391Y-65912846D01*
X51865057Y-65913154D01*
X52191920Y-65778097D01*
X52374836Y-65595500D01*
X53523276Y-65595500D01*
X53550792Y-65623016D01*
X53550792Y-65788000D01*
X53583676Y-65957486D01*
X53681529Y-66106449D01*
X53829252Y-66206164D01*
X54004000Y-66241208D01*
X54454000Y-66241208D01*
X54623486Y-66208324D01*
X54772449Y-66110471D01*
X54872164Y-65962748D01*
X54907208Y-65788000D01*
X54907208Y-65198000D01*
X54874324Y-65028514D01*
X54776471Y-64879551D01*
X54628748Y-64779836D01*
X54454000Y-64744792D01*
X54289016Y-64744792D01*
X54164112Y-64619888D01*
X54020460Y-64523903D01*
X57409080Y-64523903D01*
X57158782Y-64773764D01*
X57023154Y-65100391D01*
X57022846Y-65454057D01*
X57157903Y-65780920D01*
X57407764Y-66031218D01*
X57734391Y-66166846D01*
X58088057Y-66167154D01*
X58414920Y-66032097D01*
X58597836Y-65849500D01*
X60166724Y-65849500D01*
X60187676Y-65957486D01*
X60285529Y-66106449D01*
X60433252Y-66206164D01*
X60608000Y-66241208D01*
X61058000Y-66241208D01*
X61227486Y-66208324D01*
X61376449Y-66110471D01*
X61476164Y-65962748D01*
X61511208Y-65788000D01*
X61511208Y-65198000D01*
X61485889Y-65067500D01*
X64224375Y-65067500D01*
X64081500Y-65210375D01*
X64081500Y-65740678D01*
X64168506Y-65950728D01*
X64329271Y-66111494D01*
X64539321Y-66198500D01*
X64944625Y-66198500D01*
X65087500Y-66055625D01*
X65087500Y-65067500D01*
X65468500Y-65067500D01*
X65468500Y-66055625D01*
X65611375Y-66198500D01*
X66016679Y-66198500D01*
X66226729Y-66111494D01*
X66387494Y-65950728D01*
X66474500Y-65740678D01*
X66474500Y-65210375D01*
X66331625Y-65067500D01*
X65468500Y-65067500D01*
X65087500Y-65067500D01*
X65087500Y-65067500D01*
X64224375Y-65067500D01*
X61485889Y-65067500D01*
X61478324Y-65028514D01*
X61380471Y-64879551D01*
X61232748Y-64779836D01*
X61058000Y-64744792D01*
X60810507Y-64744792D01*
X60800418Y-64742785D01*
X60618000Y-64706499D01*
X60617995Y-64706500D01*
X58597637Y-64706500D01*
X58416236Y-64524782D01*
X58089609Y-64389154D01*
X57735943Y-64388846D01*
X57409080Y-64523903D01*
X54020460Y-64523903D01*
X53978704Y-64496003D01*
X53916104Y-64483551D01*
X53760000Y-64452499D01*
X53759995Y-64452500D01*
X52374637Y-64452500D01*
X52193236Y-64270782D01*
X51866609Y-64135154D01*
X51512943Y-64134846D01*
X51186080Y-64269903D01*
X48513883Y-64269903D01*
X48514154Y-63958943D01*
X48379097Y-63632080D01*
X48129236Y-63381782D01*
X47802609Y-63246154D01*
X47448943Y-63245846D01*
X47122080Y-63380903D01*
X44048261Y-63380903D01*
X44213860Y-63215594D01*
X44349488Y-62888967D01*
X44349796Y-62535301D01*
X44214739Y-62208438D01*
X44007444Y-62000780D01*
X44404109Y-61604114D01*
X44404112Y-61604112D01*
X44527997Y-61418704D01*
X44537986Y-61368486D01*
X44571501Y-61200000D01*
X44571500Y-61199995D01*
X44571500Y-59629723D01*
X45035886Y-60094109D01*
X45035888Y-60094112D01*
X45135994Y-60161000D01*
X45221297Y-60217998D01*
X45440000Y-60261501D01*
X45440005Y-60261500D01*
X46822792Y-60261500D01*
X46822792Y-60315000D01*
X46855676Y-60484486D01*
X46953529Y-60633449D01*
X47101252Y-60733164D01*
X47276000Y-60768208D01*
X48776000Y-60768208D01*
X48945486Y-60735324D01*
X49094449Y-60637471D01*
X49194164Y-60489748D01*
X49205787Y-60431787D01*
X49291506Y-60638729D01*
X49452272Y-60799494D01*
X49662322Y-60886500D01*
X50192625Y-60886500D01*
X50335500Y-60743625D01*
X50335500Y-59880500D01*
X50716500Y-59880500D01*
X50716500Y-60743625D01*
X50859375Y-60886500D01*
X51389678Y-60886500D01*
X51599728Y-60799494D01*
X51760494Y-60638729D01*
X51847500Y-60428679D01*
X51847500Y-60023375D01*
X51704625Y-59880500D01*
X50716500Y-59880500D01*
X50335500Y-59880500D01*
X50335500Y-59880500D01*
X50315500Y-59880500D01*
X50315500Y-59499500D01*
X50335500Y-59499500D01*
X50335500Y-58636375D01*
X50192625Y-58493500D01*
X50859375Y-58493500D01*
X50716500Y-58636375D01*
X50716500Y-59499500D01*
X51704625Y-59499500D01*
X51847500Y-59356625D01*
X51847500Y-58951321D01*
X51760494Y-58741271D01*
X51599728Y-58580506D01*
X51389678Y-58493500D01*
X50859375Y-58493500D01*
X50192625Y-58493500D01*
X50192625Y-58493500D01*
X49662322Y-58493500D01*
X49452272Y-58580506D01*
X49291506Y-58741271D01*
X49206306Y-58946961D01*
X49196324Y-58895514D01*
X49098471Y-58746551D01*
X48950748Y-58646836D01*
X48776000Y-58611792D01*
X48709221Y-58611792D01*
X48767846Y-58470609D01*
X48768071Y-58212153D01*
X50312723Y-56667500D01*
X53084276Y-56667500D01*
X53121792Y-56705016D01*
X53121792Y-57671024D01*
X52977609Y-57611154D01*
X52623943Y-57610846D01*
X52297080Y-57745903D01*
X52046782Y-57995764D01*
X51911154Y-58322391D01*
X51910846Y-58676057D01*
X52045903Y-59002920D01*
X52295764Y-59253218D01*
X52622391Y-59388846D01*
X52701725Y-59388915D01*
X52716502Y-59463203D01*
X52819795Y-59617792D01*
X52840387Y-59648611D01*
X56315058Y-63123281D01*
X56315060Y-63123284D01*
X56389475Y-63173006D01*
X56500469Y-63247170D01*
X56719172Y-63290673D01*
X56719177Y-63290672D01*
X59353552Y-63290672D01*
X59353254Y-63632783D01*
X59488311Y-63959646D01*
X59738172Y-64209944D01*
X60064799Y-64345572D01*
X60418465Y-64345880D01*
X60745328Y-64210823D01*
X60995626Y-63960962D01*
X61131254Y-63634335D01*
X61131312Y-63567912D01*
X62535526Y-62163698D01*
X62511154Y-62222391D01*
X62510846Y-62576057D01*
X62645903Y-62902920D01*
X62895764Y-63153218D01*
X63222391Y-63288846D01*
X63576057Y-63289154D01*
X63902920Y-63154097D01*
X64085836Y-62971500D01*
X64199792Y-62971500D01*
X64199792Y-63127000D01*
X64232676Y-63296486D01*
X64330529Y-63445449D01*
X64478252Y-63545164D01*
X64536213Y-63556787D01*
X64329271Y-63642506D01*
X64168506Y-63803272D01*
X64081500Y-64013322D01*
X64081500Y-64543625D01*
X64224375Y-64686500D01*
X65087500Y-64686500D01*
X65087500Y-64666500D01*
X65468500Y-64666500D01*
X65468500Y-64686500D01*
X66331625Y-64686500D01*
X66474500Y-64543625D01*
X66474500Y-64013322D01*
X66387494Y-63803272D01*
X66226729Y-63642506D01*
X66021039Y-63557306D01*
X66072486Y-63547324D01*
X66221449Y-63449471D01*
X66321164Y-63301748D01*
X66356208Y-63127000D01*
X66356208Y-62948500D01*
X67924995Y-62948500D01*
X67925000Y-62948501D01*
X68107418Y-62912215D01*
X68143704Y-62904997D01*
X68329112Y-62781112D01*
X68329113Y-62781111D01*
X68753293Y-62356930D01*
X69010057Y-62357154D01*
X69336920Y-62222097D01*
X69587218Y-61972236D01*
X69722846Y-61645609D01*
X69723154Y-61291943D01*
X69588097Y-60965080D01*
X69338236Y-60714782D01*
X69011609Y-60579154D01*
X68657943Y-60578846D01*
X68331080Y-60713903D01*
X68080782Y-60963764D01*
X67945154Y-61290391D01*
X67944929Y-61548848D01*
X67688276Y-61805500D01*
X66356208Y-61805500D01*
X66356208Y-61627000D01*
X66355395Y-61622808D01*
X66502000Y-61652208D01*
X67102000Y-61652208D01*
X67271486Y-61619324D01*
X67420449Y-61521471D01*
X67520164Y-61373748D01*
X67555208Y-61199000D01*
X67555208Y-59199000D01*
X67522324Y-59029514D01*
X67424471Y-58880551D01*
X67276748Y-58780836D01*
X67102000Y-58745792D01*
X66677486Y-58745792D01*
X66788846Y-58477609D01*
X66789154Y-58123943D01*
X66654097Y-57797080D01*
X66404236Y-57546782D01*
X66077609Y-57411154D01*
X65819152Y-57410929D01*
X62004112Y-53595888D01*
X61818704Y-53472003D01*
X61782418Y-53464785D01*
X61600000Y-53428499D01*
X61599995Y-53428500D01*
X58822851Y-53428500D01*
X59002920Y-53354097D01*
X59253218Y-53104236D01*
X59388846Y-52777609D01*
X59389154Y-52423943D01*
X59318195Y-52252208D01*
X59482000Y-52252208D01*
X59651486Y-52219324D01*
X59800449Y-52121471D01*
X59816526Y-52097654D01*
X59829529Y-52117449D01*
X59977252Y-52217164D01*
X60152000Y-52252208D01*
X60752000Y-52252208D01*
X60921486Y-52219324D01*
X61070449Y-52121471D01*
X61086526Y-52097654D01*
X61099529Y-52117449D01*
X61247252Y-52217164D01*
X61422000Y-52252208D01*
X62022000Y-52252208D01*
X62191486Y-52219324D01*
X62340449Y-52121471D01*
X62356526Y-52097654D01*
X62369529Y-52117449D01*
X62517252Y-52217164D01*
X62692000Y-52252208D01*
X63292000Y-52252208D01*
X63461486Y-52219324D01*
X63610449Y-52121471D01*
X63626526Y-52097654D01*
X63639529Y-52117449D01*
X63690500Y-52151855D01*
X63690500Y-53524145D01*
X63690499Y-53524150D01*
X63714718Y-53645903D01*
X63734003Y-53742854D01*
X63819503Y-53870814D01*
X63857888Y-53928262D01*
X70681596Y-60751969D01*
X70681598Y-60751972D01*
X70867006Y-60875857D01*
X70886502Y-60879735D01*
X70886502Y-63148210D01*
X70919386Y-63317696D01*
X71017239Y-63466659D01*
X71164962Y-63566374D01*
X71339710Y-63601418D01*
X73440290Y-63601418D01*
X73609776Y-63568534D01*
X73758739Y-63470681D01*
X73858454Y-63322958D01*
X73893498Y-63148210D01*
X73893498Y-60919360D01*
X75721792Y-60919360D01*
X75721792Y-61100000D01*
X75754676Y-61269486D01*
X75852529Y-61418449D01*
X76000252Y-61518164D01*
X76175000Y-61553208D01*
X76638569Y-61553208D01*
X73680706Y-64511070D01*
X73423943Y-64510846D01*
X73097080Y-64645903D01*
X72914164Y-64828500D01*
X71485637Y-64828500D01*
X71304236Y-64646782D01*
X70977609Y-64511154D01*
X70623943Y-64510846D01*
X70297080Y-64645903D01*
X70114164Y-64828500D01*
X69023208Y-64828500D01*
X69023208Y-64802000D01*
X68990324Y-64632514D01*
X68892471Y-64483551D01*
X68744748Y-64383836D01*
X68570000Y-64348792D01*
X67320000Y-64348792D01*
X67150514Y-64381676D01*
X67001551Y-64479529D01*
X66901836Y-64627252D01*
X66866792Y-64802000D01*
X66866792Y-66302000D01*
X66899676Y-66471486D01*
X66997529Y-66620449D01*
X67145252Y-66720164D01*
X67320000Y-66755208D01*
X68570000Y-66755208D01*
X68739486Y-66722324D01*
X68888449Y-66624471D01*
X68988164Y-66476748D01*
X69023208Y-66302000D01*
X69023208Y-65971500D01*
X70114363Y-65971500D01*
X70276595Y-66134015D01*
X70239782Y-66170764D01*
X70104154Y-66497391D01*
X70103929Y-66755848D01*
X69379276Y-67480500D01*
X69023208Y-67480500D01*
X69023208Y-67302000D01*
X68990324Y-67132514D01*
X68892471Y-66983551D01*
X68744748Y-66883836D01*
X68570000Y-66848792D01*
X67320000Y-66848792D01*
X67150514Y-66881676D01*
X67001551Y-66979529D01*
X66901836Y-67127252D01*
X66866792Y-67302000D01*
X66866792Y-68802000D01*
X66899676Y-68971486D01*
X66997529Y-69120449D01*
X67145252Y-69220164D01*
X67320000Y-69255208D01*
X68570000Y-69255208D01*
X68739486Y-69222324D01*
X68888449Y-69124471D01*
X68988164Y-68976748D01*
X69023208Y-68802000D01*
X69023208Y-68623500D01*
X69615995Y-68623500D01*
X69616000Y-68623501D01*
X69798418Y-68587215D01*
X69834704Y-68579997D01*
X70020112Y-68456112D01*
X70912293Y-67563930D01*
X71169057Y-67564154D01*
X71495920Y-67429097D01*
X71746218Y-67179236D01*
X71881846Y-66852609D01*
X71882154Y-66498943D01*
X71747097Y-66172080D01*
X71546867Y-65971500D01*
X72914363Y-65971500D01*
X73095764Y-66153218D01*
X73230083Y-66208992D01*
X73196792Y-66375000D01*
X73196792Y-67625000D01*
X73229676Y-67794486D01*
X73252020Y-67828500D01*
X72649005Y-67828500D01*
X72649000Y-67828499D01*
X72430297Y-67872002D01*
X72430295Y-67872003D01*
X72430296Y-67872003D01*
X72244888Y-67995888D01*
X72244886Y-67995891D01*
X71698888Y-68541888D01*
X71575003Y-68727296D01*
X71575003Y-68727297D01*
X71571125Y-68746792D01*
X71353000Y-68746792D01*
X71183514Y-68779676D01*
X71034551Y-68877529D01*
X70934836Y-69025252D01*
X70899792Y-69200000D01*
X70899792Y-70500000D01*
X70932676Y-70669486D01*
X71030529Y-70818449D01*
X71178252Y-70918164D01*
X71353000Y-70953208D01*
X72853000Y-70953208D01*
X73022486Y-70920324D01*
X73171449Y-70822471D01*
X73271164Y-70674748D01*
X73306208Y-70500000D01*
X73306208Y-69200000D01*
X73273324Y-69030514D01*
X73234558Y-68971500D01*
X73671119Y-68971500D01*
X73634836Y-69025252D01*
X73599792Y-69200000D01*
X73599792Y-70500000D01*
X73632676Y-70669486D01*
X73730529Y-70818449D01*
X73878252Y-70918164D01*
X74053000Y-70953208D01*
X74231500Y-70953208D01*
X74231500Y-71365199D01*
X73979006Y-71533911D01*
X73709232Y-71937655D01*
X73614500Y-72413905D01*
X73614500Y-73890095D01*
X73709232Y-74366345D01*
X73979006Y-74770089D01*
X74382750Y-75039863D01*
X74859000Y-75134595D01*
X75335250Y-75039863D01*
X75738994Y-74770089D01*
X76008768Y-74366345D01*
X76103500Y-73890095D01*
X76103500Y-72413905D01*
X76008768Y-71937655D01*
X75738994Y-71533911D01*
X75374500Y-71290363D01*
X75374500Y-70953208D01*
X75553000Y-70953208D01*
X75722486Y-70920324D01*
X75871449Y-70822471D01*
X75971164Y-70674748D01*
X76006208Y-70500000D01*
X76006208Y-69200000D01*
X75973324Y-69030514D01*
X75875471Y-68881551D01*
X75863977Y-68873792D01*
X77609000Y-68873792D01*
X77439514Y-68906676D01*
X77290551Y-69004529D01*
X77190836Y-69152252D01*
X77155792Y-69327000D01*
X77155792Y-70627000D01*
X77188676Y-70796486D01*
X77286529Y-70945449D01*
X77434252Y-71045164D01*
X77609000Y-71080208D01*
X77787500Y-71080208D01*
X77787500Y-71327781D01*
X77479006Y-71533911D01*
X77209232Y-71937655D01*
X77114500Y-72413905D01*
X77114500Y-73890095D01*
X77209232Y-74366345D01*
X77479006Y-74770089D01*
X77882750Y-75039863D01*
X78359000Y-75134595D01*
X78835250Y-75039863D01*
X79238994Y-74770089D01*
X79508768Y-74366345D01*
X79603500Y-73890095D01*
X79603500Y-72413905D01*
X79508768Y-71937655D01*
X79238994Y-71533911D01*
X78930500Y-71327781D01*
X78930500Y-71080208D01*
X79109000Y-71080208D01*
X79278486Y-71047324D01*
X79427449Y-70949471D01*
X79527164Y-70801748D01*
X79562208Y-70627000D01*
X79562208Y-69327000D01*
X79529324Y-69157514D01*
X79431471Y-69008551D01*
X79283748Y-68908836D01*
X79109000Y-68873792D01*
X77609000Y-68873792D01*
X75863977Y-68873792D01*
X75769884Y-68810278D01*
X75779112Y-68804112D01*
X76505016Y-68078208D01*
X77650000Y-68078208D01*
X77819486Y-68045324D01*
X77968449Y-67947471D01*
X78068164Y-67799748D01*
X78103208Y-67625000D01*
X78103208Y-67571500D01*
X78749276Y-67571500D01*
X80106282Y-68928506D01*
X79990551Y-69004529D01*
X79890836Y-69152252D01*
X79855792Y-69327000D01*
X79855792Y-70627000D01*
X79888676Y-70796486D01*
X79986529Y-70945449D01*
X80134252Y-71045164D01*
X80309000Y-71080208D01*
X81809000Y-71080208D01*
X81978486Y-71047324D01*
X82127449Y-70949471D01*
X82227164Y-70801748D01*
X82262208Y-70627000D01*
X82262208Y-69327000D01*
X82229324Y-69157514D01*
X82131471Y-69008551D01*
X81983748Y-68908836D01*
X81809000Y-68873792D01*
X81590876Y-68873792D01*
X81586998Y-68854297D01*
X81515438Y-68747200D01*
X81463112Y-68668888D01*
X81463109Y-68668886D01*
X80537724Y-67743500D01*
X88256233Y-67743500D01*
X88158318Y-67953625D01*
X88365499Y-68388094D01*
X88769151Y-68747200D01*
X89279500Y-68924500D01*
X89979500Y-68924500D01*
X89979500Y-67743500D01*
X90360500Y-67743500D01*
X89979500Y-67743500D01*
X89979500Y-67743500D01*
X90360500Y-67743500D01*
X90360500Y-68924500D01*
X91060500Y-68924500D01*
X91570849Y-68747200D01*
X91974501Y-68388094D01*
X92181682Y-67953625D01*
X92083767Y-67743500D01*
X90360500Y-67743500D01*
X89979500Y-67743500D01*
X89979500Y-67743500D01*
X88256233Y-67743500D01*
X80537724Y-67743500D01*
X79390112Y-66595888D01*
X79380288Y-66589324D01*
X79204704Y-66472003D01*
X79168418Y-66464785D01*
X78986000Y-66428499D01*
X78985995Y-66428500D01*
X78103208Y-66428500D01*
X78103208Y-66375000D01*
X78070324Y-66205514D01*
X78054550Y-66181500D01*
X89279500Y-66181500D01*
X88769151Y-66358800D01*
X88365499Y-66717906D01*
X88158318Y-67152375D01*
X88256233Y-67362500D01*
X89979500Y-67362500D01*
X89979500Y-66181500D01*
X90360500Y-66181500D01*
X90360500Y-67362500D01*
X92083767Y-67362500D01*
X92181682Y-67152375D01*
X91974501Y-66717906D01*
X91570849Y-66358800D01*
X91060500Y-66181500D01*
X90360500Y-66181500D01*
X89979500Y-66181500D01*
X89979500Y-66181500D01*
X89279500Y-66181500D01*
X78054550Y-66181500D01*
X77972471Y-66056551D01*
X77824748Y-65956836D01*
X77650000Y-65921792D01*
X76150000Y-65921792D01*
X75980514Y-65954676D01*
X75831551Y-66052529D01*
X75731836Y-66200252D01*
X75696792Y-66375000D01*
X75696792Y-67269984D01*
X75603208Y-67363568D01*
X75603208Y-66375000D01*
X75570324Y-66205514D01*
X75472471Y-66056551D01*
X75324748Y-65956836D01*
X75150000Y-65921792D01*
X74931875Y-65921792D01*
X74930126Y-65913000D01*
X74927997Y-65902296D01*
X74804112Y-65716888D01*
X74488999Y-65401775D01*
X74489071Y-65319153D01*
X80204109Y-59604114D01*
X80204112Y-59604112D01*
X80327997Y-59418704D01*
X80341025Y-59353208D01*
X80371501Y-59200000D01*
X80371500Y-59199995D01*
X80371500Y-55885637D01*
X80553218Y-55704236D01*
X80688846Y-55377609D01*
X80689154Y-55023943D01*
X80554097Y-54697080D01*
X80304236Y-54446782D01*
X79977609Y-54311154D01*
X79623943Y-54310846D01*
X79297080Y-54445903D01*
X79046782Y-54695764D01*
X78911154Y-55022391D01*
X78910846Y-55376057D01*
X79045903Y-55702920D01*
X79228500Y-55885836D01*
X79228500Y-58963277D01*
X77878208Y-60313569D01*
X77878208Y-59600000D01*
X77845324Y-59430514D01*
X77747471Y-59281551D01*
X77599748Y-59181836D01*
X77541787Y-59170213D01*
X77748729Y-59084494D01*
X77909494Y-58923728D01*
X77996500Y-58713678D01*
X77996500Y-58183375D01*
X77853625Y-58040500D01*
X76990500Y-58040500D01*
X76990500Y-58060500D01*
X76609500Y-58060500D01*
X76609500Y-58040500D01*
X75746375Y-58040500D01*
X75603500Y-58183375D01*
X75603500Y-58713678D01*
X75690506Y-58923728D01*
X75851271Y-59084494D01*
X76056961Y-59169694D01*
X76005514Y-59179676D01*
X75856551Y-59277529D01*
X75756836Y-59425252D01*
X75721792Y-59600000D01*
X75721792Y-59776360D01*
X73893498Y-59776360D01*
X73893498Y-57547510D01*
X73860614Y-57378024D01*
X73762761Y-57229061D01*
X73615038Y-57129346D01*
X73440290Y-57094302D01*
X71339710Y-57094302D01*
X71170224Y-57127186D01*
X71021261Y-57225039D01*
X70921546Y-57372762D01*
X70886502Y-57547510D01*
X70886502Y-59340429D01*
X68074574Y-56528500D01*
X76061321Y-56528500D01*
X75851271Y-56615506D01*
X75690506Y-56776272D01*
X75603500Y-56986322D01*
X75603500Y-57516625D01*
X75746375Y-57659500D01*
X76609500Y-57659500D01*
X76609500Y-56671375D01*
X76466625Y-56528500D01*
X77133375Y-56528500D01*
X76466625Y-56528500D01*
X76466625Y-56528500D01*
X77133375Y-56528500D01*
X76990500Y-56671375D01*
X76990500Y-57659500D01*
X77853625Y-57659500D01*
X77996500Y-57516625D01*
X77996500Y-56986322D01*
X77909494Y-56776272D01*
X77748729Y-56615506D01*
X77538679Y-56528500D01*
X77133375Y-56528500D01*
X76466625Y-56528500D01*
X76466625Y-56528500D01*
X76061321Y-56528500D01*
X68074574Y-56528500D01*
X64833500Y-53287426D01*
X64833500Y-52152312D01*
X64880449Y-52121471D01*
X64896526Y-52097654D01*
X64909529Y-52117449D01*
X65057252Y-52217164D01*
X65232000Y-52252208D01*
X65832000Y-52252208D01*
X66001486Y-52219324D01*
X66069454Y-52174676D01*
X66178271Y-52283494D01*
X66388321Y-52370500D01*
X66509125Y-52370500D01*
X66652000Y-52227625D01*
X66652000Y-50989500D01*
X66952000Y-50989500D01*
X66952000Y-52227625D01*
X67094875Y-52370500D01*
X67215679Y-52370500D01*
X67425729Y-52283494D01*
X67586494Y-52122728D01*
X67673500Y-51912678D01*
X67673500Y-51132375D01*
X67530625Y-50989500D01*
X66952000Y-50989500D01*
X66652000Y-50989500D01*
X66652000Y-50989500D01*
X66591500Y-50989500D01*
X66591500Y-50608500D01*
X66652000Y-50608500D01*
X66652000Y-50588500D01*
X66952000Y-50588500D01*
X66952000Y-50608500D01*
X67530625Y-50608500D01*
X67673500Y-50465625D01*
X67673500Y-49685322D01*
X67586494Y-49475272D01*
X67425729Y-49314506D01*
X67215679Y-49227500D01*
X67209198Y-49227500D01*
X67246616Y-49171500D01*
X68798846Y-49171500D01*
X70681596Y-51054249D01*
X70681598Y-51054252D01*
X70867006Y-51178137D01*
X70886502Y-51182015D01*
X70886502Y-53450490D01*
X70919386Y-53619976D01*
X71017239Y-53768939D01*
X71164962Y-53868654D01*
X71339710Y-53903698D01*
X73440290Y-53903698D01*
X73609776Y-53870814D01*
X73758739Y-53772961D01*
X73858454Y-53625238D01*
X73893498Y-53450490D01*
X73893498Y-53340500D01*
X75746375Y-53340500D01*
X75603500Y-53483375D01*
X75603500Y-54013678D01*
X75690506Y-54223728D01*
X75851271Y-54384494D01*
X76061321Y-54471500D01*
X76466625Y-54471500D01*
X76609500Y-54328625D01*
X76609500Y-53340500D01*
X76990500Y-53340500D01*
X76609500Y-53340500D01*
X76609500Y-53340500D01*
X76990500Y-53340500D01*
X76990500Y-54328625D01*
X77133375Y-54471500D01*
X77538679Y-54471500D01*
X77748729Y-54384494D01*
X77909494Y-54223728D01*
X77996500Y-54013678D01*
X77996500Y-53483375D01*
X77853625Y-53340500D01*
X76990500Y-53340500D01*
X76609500Y-53340500D01*
X76609500Y-53340500D01*
X75746375Y-53340500D01*
X73893498Y-53340500D01*
X73893498Y-51221640D01*
X75721792Y-51221640D01*
X75721792Y-51400000D01*
X75754676Y-51569486D01*
X75852529Y-51718449D01*
X76000252Y-51818164D01*
X76058213Y-51829787D01*
X75851271Y-51915506D01*
X75690506Y-52076272D01*
X75603500Y-52286322D01*
X75603500Y-52816625D01*
X75746375Y-52959500D01*
X76609500Y-52959500D01*
X76609500Y-52939500D01*
X76990500Y-52939500D01*
X76990500Y-52959500D01*
X77853625Y-52959500D01*
X77996500Y-52816625D01*
X77996500Y-52286322D01*
X77909494Y-52076272D01*
X77748729Y-51915506D01*
X77543039Y-51830306D01*
X77594486Y-51820324D01*
X77743449Y-51722471D01*
X77843164Y-51574748D01*
X77878208Y-51400000D01*
X77878208Y-49900000D01*
X77845324Y-49730514D01*
X77747471Y-49581551D01*
X77599748Y-49481836D01*
X77425000Y-49446792D01*
X76175000Y-49446792D01*
X76005514Y-49479676D01*
X75856551Y-49577529D01*
X75756836Y-49725252D01*
X75721792Y-49900000D01*
X75721792Y-50078640D01*
X73893498Y-50078640D01*
X73893498Y-47849790D01*
X73860614Y-47680304D01*
X73762761Y-47531341D01*
X73615038Y-47431626D01*
X73440290Y-47396582D01*
X71339710Y-47396582D01*
X71170224Y-47429466D01*
X71021261Y-47527319D01*
X70921546Y-47675042D01*
X70886502Y-47849790D01*
X70886502Y-49642709D01*
X69439682Y-48195888D01*
X69338828Y-48128500D01*
X69254274Y-48072003D01*
X69217988Y-48064785D01*
X69035570Y-48028499D01*
X69035565Y-48028500D01*
X66800000Y-48028500D01*
X66581296Y-48072003D01*
X66395888Y-48195888D01*
X66272003Y-48381296D01*
X66229921Y-48592856D01*
X65476984Y-49345792D01*
X65232000Y-49345792D01*
X65062514Y-49378676D01*
X64913551Y-49476529D01*
X64897474Y-49500346D01*
X64884471Y-49480551D01*
X64736748Y-49380836D01*
X64562000Y-49345792D01*
X64096683Y-49345792D01*
X64187164Y-49211748D01*
X64222208Y-49037000D01*
X64222208Y-47737000D01*
X64189324Y-47567514D01*
X64091471Y-47418551D01*
X63943748Y-47318836D01*
X63769000Y-47283792D01*
X62469000Y-47283792D01*
X62299514Y-47316676D01*
X62150551Y-47414529D01*
X62050836Y-47562252D01*
X62015792Y-47737000D01*
X62015792Y-49037000D01*
X62048676Y-49206486D01*
X62146529Y-49355449D01*
X62178809Y-49377239D01*
X62022000Y-49345792D01*
X61422000Y-49345792D01*
X61252514Y-49378676D01*
X61103551Y-49476529D01*
X61087474Y-49500346D01*
X61074471Y-49480551D01*
X60926748Y-49380836D01*
X60752000Y-49345792D01*
X60152000Y-49345792D01*
X59982514Y-49378676D01*
X59833551Y-49476529D01*
X59817474Y-49500346D01*
X59804471Y-49480551D01*
X59656748Y-49380836D01*
X59482000Y-49345792D01*
X58882000Y-49345792D01*
X58725219Y-49376211D01*
X58752196Y-49289603D01*
X58482789Y-49020196D01*
X59021603Y-49020196D01*
X59226691Y-48956314D01*
X59360240Y-48489082D01*
X59304821Y-48006309D01*
X59226691Y-47817686D01*
X59021603Y-47753804D01*
X58388408Y-48387000D01*
X57849592Y-48387000D01*
X57849592Y-48387000D01*
X57216397Y-47753804D01*
X57011309Y-47817686D01*
X56877760Y-48284918D01*
X56933179Y-48767691D01*
X57011309Y-48956314D01*
X57216397Y-49020196D01*
X57849592Y-48387000D01*
X58388408Y-48387000D01*
X57849592Y-48387000D01*
X57849592Y-48387000D01*
X58388408Y-48387000D01*
X59021603Y-49020196D01*
X58482789Y-49020196D01*
X58119000Y-48656408D01*
X57485804Y-49289603D01*
X57509501Y-49365679D01*
X57442514Y-49378676D01*
X57293551Y-49476529D01*
X57277474Y-49500346D01*
X57264471Y-49480551D01*
X57116748Y-49380836D01*
X56942000Y-49345792D01*
X56471500Y-49345792D01*
X56471500Y-47201179D01*
X57738309Y-47201179D01*
X57549686Y-47279309D01*
X57485804Y-47484397D01*
X58119000Y-48117592D01*
X58752196Y-47484397D01*
X58688314Y-47279309D01*
X58221082Y-47145760D01*
X57738309Y-47201179D01*
X56471500Y-47201179D01*
X56471500Y-44300005D01*
X56471501Y-44300000D01*
X56427997Y-44081297D01*
X56427997Y-44081296D01*
X56304112Y-43895888D01*
X51032668Y-38624444D01*
X51202920Y-38554097D01*
X51453218Y-38304236D01*
X51588846Y-37977609D01*
X51589089Y-37699034D01*
X51649840Y-37608113D01*
X51672497Y-37574204D01*
X51716000Y-37355501D01*
X51715999Y-37355496D01*
X51715999Y-37199752D01*
X62730380Y-37199752D01*
X62560894Y-37232636D01*
X62411931Y-37330489D01*
X62312216Y-37478212D01*
X62277172Y-37652960D01*
X62277172Y-41153080D01*
X62310056Y-41322566D01*
X62407909Y-41471529D01*
X62555632Y-41571244D01*
X62730380Y-41606288D01*
X64557624Y-41606288D01*
X66259658Y-43308322D01*
X66609873Y-43542328D01*
X66678413Y-43555961D01*
X67022980Y-43624501D01*
X67022985Y-43624500D01*
X70485000Y-43624500D01*
X70898107Y-43542328D01*
X71248322Y-43308322D01*
X71482328Y-42958107D01*
X71564500Y-42545000D01*
X71482328Y-42131893D01*
X71248322Y-41781678D01*
X70898107Y-41547672D01*
X70485000Y-41465500D01*
X67470124Y-41465500D01*
X65692124Y-39687500D01*
X66929000Y-39687500D01*
X67342107Y-39605328D01*
X67692322Y-39371322D01*
X67926328Y-39021107D01*
X68008500Y-38608000D01*
X67926328Y-38194893D01*
X67692322Y-37844678D01*
X67342107Y-37610672D01*
X66929000Y-37528500D01*
X65460680Y-37528500D01*
X65451944Y-37483474D01*
X65354091Y-37334511D01*
X65206368Y-37234796D01*
X65031620Y-37199752D01*
X62730380Y-37199752D01*
X51715999Y-37199752D01*
X51715999Y-34193480D01*
X62301755Y-34193480D01*
X62158880Y-34336355D01*
X62158880Y-35866718D01*
X62245886Y-36076768D01*
X62406651Y-36237534D01*
X62616701Y-36324540D01*
X63547625Y-36324540D01*
X63690500Y-36181665D01*
X63690500Y-34193480D01*
X64071500Y-34193480D01*
X64071500Y-36181665D01*
X64214375Y-36324540D01*
X65145299Y-36324540D01*
X65355349Y-36237534D01*
X65516114Y-36076768D01*
X65603120Y-35866718D01*
X65603120Y-34336355D01*
X65460245Y-34193480D01*
X64071500Y-34193480D01*
X63690500Y-34193480D01*
X63690500Y-34193480D01*
X62301755Y-34193480D01*
X51715999Y-34193480D01*
X51715999Y-32792225D01*
X53362769Y-31145454D01*
X53272003Y-31281296D01*
X53272003Y-31281297D01*
X53228499Y-31500000D01*
X53228500Y-31500005D01*
X53228500Y-31810937D01*
X53123943Y-31810846D01*
X52797080Y-31945903D01*
X52546782Y-32195764D01*
X52411154Y-32522391D01*
X52410846Y-32876057D01*
X52545903Y-33202920D01*
X52795764Y-33453218D01*
X53122391Y-33588846D01*
X53476057Y-33589154D01*
X53802920Y-33454097D01*
X54053218Y-33204236D01*
X54188846Y-32877609D01*
X54189071Y-32619152D01*
X54204109Y-32604114D01*
X54204112Y-32604112D01*
X54327997Y-32418704D01*
X54344289Y-32336798D01*
X54371501Y-32200000D01*
X54371500Y-32199995D01*
X54371500Y-31736724D01*
X54426803Y-31681420D01*
X62616701Y-31681420D01*
X62406651Y-31768426D01*
X62245886Y-31929192D01*
X62158880Y-32139242D01*
X62158880Y-33669605D01*
X62301755Y-33812480D01*
X63690500Y-33812480D01*
X63690500Y-31824295D01*
X63547625Y-31681420D01*
X64214375Y-31681420D01*
X63547625Y-31681420D01*
X63547625Y-31681420D01*
X64214375Y-31681420D01*
X64071500Y-31824295D01*
X64071500Y-33812480D01*
X65460245Y-33812480D01*
X65603120Y-33669605D01*
X65603120Y-32139242D01*
X65516114Y-31929192D01*
X65355349Y-31768426D01*
X65145299Y-31681420D01*
X64214375Y-31681420D01*
X63547625Y-31681420D01*
X63547625Y-31681420D01*
X62616701Y-31681420D01*
X54426803Y-31681420D01*
X54736723Y-31371500D01*
X67099995Y-31371500D01*
X67100000Y-31371501D01*
X67282418Y-31335215D01*
X67318704Y-31327997D01*
X67504112Y-31204112D01*
X68071723Y-30636500D01*
X74500000Y-30636500D01*
X74475700Y-30641334D01*
X74455099Y-30655099D01*
X74441334Y-30675700D01*
X74436500Y-30700000D01*
X74436500Y-44000000D01*
X74441334Y-44024300D01*
X74455099Y-44044901D01*
X74475700Y-44058666D01*
X74500000Y-44063500D01*
X84800000Y-44063500D01*
X84824300Y-44058666D01*
X84844901Y-44044901D01*
X84858666Y-44024300D01*
X84863500Y-44000000D01*
X84863500Y-30700000D01*
X84858666Y-30675700D01*
X84844901Y-30655099D01*
X84824300Y-30641334D01*
X84800000Y-30636500D01*
X74500000Y-30636500D01*
X68071723Y-30636500D01*
X69536723Y-29171500D01*
X82899995Y-29171500D01*
X82900000Y-29171501D01*
X83082418Y-29135215D01*
X83118704Y-29127997D01*
X83304112Y-29004112D01*
X83304113Y-29004111D01*
X84804109Y-27504114D01*
X84804112Y-27504112D01*
X84843064Y-27445816D01*
X84948043Y-27532730D01*
X85219333Y-27645087D01*
X85439500Y-27548106D01*
X85439500Y-26460500D01*
X85419500Y-26460500D01*
X85419500Y-26079500D01*
X85439500Y-26079500D01*
X85439500Y-26059500D01*
X85820500Y-26059500D01*
X85820500Y-26079500D01*
X85840500Y-26079500D01*
X85840500Y-26460500D01*
X85820500Y-26460500D01*
X85820500Y-27548106D01*
X86040667Y-27645087D01*
X86104599Y-27618609D01*
X86104599Y-62313094D01*
X86104598Y-62313099D01*
X86126151Y-62421449D01*
X86148102Y-62531803D01*
X86206167Y-62618704D01*
X86271987Y-62717211D01*
X88011886Y-64457109D01*
X88011888Y-64457112D01*
X88113164Y-64524782D01*
X88197297Y-64580998D01*
X88335019Y-64608393D01*
X88551911Y-64932994D01*
X88955655Y-65202768D01*
X89431905Y-65297500D01*
X90908095Y-65297500D01*
X91384345Y-65202768D01*
X91788089Y-64932994D01*
X92057863Y-64529250D01*
X92152595Y-64053000D01*
X92057863Y-63576750D01*
X91788089Y-63173006D01*
X91384345Y-62903232D01*
X90908095Y-62808500D01*
X89431905Y-62808500D01*
X88955655Y-62903232D01*
X88551911Y-63173006D01*
X88468725Y-63297502D01*
X87247599Y-62076375D01*
X87247599Y-60743500D01*
X88256233Y-60743500D01*
X88158318Y-60953625D01*
X88365499Y-61388094D01*
X88769151Y-61747200D01*
X89279500Y-61924500D01*
X89979500Y-61924500D01*
X89979500Y-60743500D01*
X90360500Y-60743500D01*
X89979500Y-60743500D01*
X89979500Y-60743500D01*
X90360500Y-60743500D01*
X90360500Y-61924500D01*
X91060500Y-61924500D01*
X91570849Y-61747200D01*
X91974501Y-61388094D01*
X92181682Y-60953625D01*
X92083767Y-60743500D01*
X90360500Y-60743500D01*
X89979500Y-60743500D01*
X89979500Y-60743500D01*
X88256233Y-60743500D01*
X87247599Y-60743500D01*
X87247599Y-59181500D01*
X89279500Y-59181500D01*
X88769151Y-59358800D01*
X88365499Y-59717906D01*
X88158318Y-60152375D01*
X88256233Y-60362500D01*
X89979500Y-60362500D01*
X89979500Y-59181500D01*
X90360500Y-59181500D01*
X89979500Y-59181500D01*
X89979500Y-59181500D01*
X90360500Y-59181500D01*
X90360500Y-60362500D01*
X92083767Y-60362500D01*
X92181682Y-60152375D01*
X91974501Y-59717906D01*
X91570849Y-59358800D01*
X91060500Y-59181500D01*
X90360500Y-59181500D01*
X89979500Y-59181500D01*
X89979500Y-59181500D01*
X89279500Y-59181500D01*
X87247599Y-59181500D01*
X87247599Y-55638823D01*
X88266108Y-56657332D01*
X88187405Y-57053000D01*
X88282137Y-57529250D01*
X88551911Y-57932994D01*
X88955655Y-58202768D01*
X89431905Y-58297500D01*
X90908095Y-58297500D01*
X91384345Y-58202768D01*
X91788089Y-57932994D01*
X92057863Y-57529250D01*
X92152595Y-57053000D01*
X92057863Y-56576750D01*
X91788089Y-56173006D01*
X91384345Y-55903232D01*
X90908095Y-55808500D01*
X89431905Y-55808500D01*
X89099786Y-55874563D01*
X87971500Y-54746276D01*
X87971500Y-53743500D01*
X88256233Y-53743500D01*
X88158318Y-53953625D01*
X88365499Y-54388094D01*
X88769151Y-54747200D01*
X89279500Y-54924500D01*
X89979500Y-54924500D01*
X89979500Y-53743500D01*
X90360500Y-53743500D01*
X89979500Y-53743500D01*
X89979500Y-53743500D01*
X90360500Y-53743500D01*
X90360500Y-54924500D01*
X91060500Y-54924500D01*
X91570849Y-54747200D01*
X91974501Y-54388094D01*
X92181682Y-53953625D01*
X92083767Y-53743500D01*
X90360500Y-53743500D01*
X89979500Y-53743500D01*
X89979500Y-53743500D01*
X88256233Y-53743500D01*
X87971500Y-53743500D01*
X87971500Y-52181500D01*
X89279500Y-52181500D01*
X88769151Y-52358800D01*
X88365499Y-52717906D01*
X88158318Y-53152375D01*
X88256233Y-53362500D01*
X89979500Y-53362500D01*
X89979500Y-52181500D01*
X90360500Y-52181500D01*
X90360500Y-53362500D01*
X92083767Y-53362500D01*
X92181682Y-53152375D01*
X91974501Y-52717906D01*
X91570849Y-52358800D01*
X91060500Y-52181500D01*
X90360500Y-52181500D01*
X89979500Y-52181500D01*
X89979500Y-52181500D01*
X89279500Y-52181500D01*
X87971500Y-52181500D01*
X87971500Y-48808500D01*
X89431905Y-48808500D01*
X88955655Y-48903232D01*
X88551911Y-49173006D01*
X88282137Y-49576750D01*
X88187405Y-50053000D01*
X88282137Y-50529250D01*
X88551911Y-50932994D01*
X88955655Y-51202768D01*
X89431905Y-51297500D01*
X90908095Y-51297500D01*
X91384345Y-51202768D01*
X91788089Y-50932994D01*
X92057863Y-50529250D01*
X92152595Y-50053000D01*
X92057863Y-49576750D01*
X91788089Y-49173006D01*
X91384345Y-48903232D01*
X90908095Y-48808500D01*
X89431905Y-48808500D01*
X87971500Y-48808500D01*
X87971500Y-46743500D01*
X88256233Y-46743500D01*
X88158318Y-46953625D01*
X88365499Y-47388094D01*
X88769151Y-47747200D01*
X89279500Y-47924500D01*
X89979500Y-47924500D01*
X89979500Y-46743500D01*
X90360500Y-46743500D01*
X90360500Y-47924500D01*
X91060500Y-47924500D01*
X91570849Y-47747200D01*
X91974501Y-47388094D01*
X92181682Y-46953625D01*
X92083767Y-46743500D01*
X90360500Y-46743500D01*
X89979500Y-46743500D01*
X89979500Y-46743500D01*
X88256233Y-46743500D01*
X87971500Y-46743500D01*
X87971500Y-45181500D01*
X89279500Y-45181500D01*
X88769151Y-45358800D01*
X88365499Y-45717906D01*
X88158318Y-46152375D01*
X88256233Y-46362500D01*
X89979500Y-46362500D01*
X89979500Y-45181500D01*
X90360500Y-45181500D01*
X89979500Y-45181500D01*
X89979500Y-45181500D01*
X90360500Y-45181500D01*
X90360500Y-46362500D01*
X92083767Y-46362500D01*
X92181682Y-46152375D01*
X91974501Y-45717906D01*
X91570849Y-45358800D01*
X91060500Y-45181500D01*
X90360500Y-45181500D01*
X89979500Y-45181500D01*
X89979500Y-45181500D01*
X89279500Y-45181500D01*
X87971500Y-45181500D01*
X87971500Y-41808500D01*
X89431905Y-41808500D01*
X88955655Y-41903232D01*
X88551911Y-42173006D01*
X88282137Y-42576750D01*
X88187405Y-43053000D01*
X88282137Y-43529250D01*
X88551911Y-43932994D01*
X88955655Y-44202768D01*
X89431905Y-44297500D01*
X90908095Y-44297500D01*
X91384345Y-44202768D01*
X91788089Y-43932994D01*
X92057863Y-43529250D01*
X92152595Y-43053000D01*
X92057863Y-42576750D01*
X91788089Y-42173006D01*
X91384345Y-41903232D01*
X90908095Y-41808500D01*
X89431905Y-41808500D01*
X87971500Y-41808500D01*
X87971500Y-33455500D01*
X89461905Y-33455500D01*
X88985655Y-33550232D01*
X88581911Y-33820006D01*
X88312137Y-34223750D01*
X88217405Y-34700000D01*
X88312137Y-35176250D01*
X88581911Y-35579994D01*
X88985655Y-35849768D01*
X89461905Y-35944500D01*
X90938095Y-35944500D01*
X91414345Y-35849768D01*
X91818089Y-35579994D01*
X92087863Y-35176250D01*
X92182595Y-34700000D01*
X92087863Y-34223750D01*
X91818089Y-33820006D01*
X91414345Y-33550232D01*
X90938095Y-33455500D01*
X89461905Y-33455500D01*
X87971500Y-33455500D01*
X87971500Y-31390500D01*
X88286233Y-31390500D01*
X88188318Y-31600625D01*
X88395499Y-32035094D01*
X88799151Y-32394200D01*
X89309500Y-32571500D01*
X90009500Y-32571500D01*
X90009500Y-31390500D01*
X90390500Y-31390500D01*
X90390500Y-32571500D01*
X91090500Y-32571500D01*
X91600849Y-32394200D01*
X92004501Y-32035094D01*
X92211682Y-31600625D01*
X92113767Y-31390500D01*
X90390500Y-31390500D01*
X90009500Y-31390500D01*
X90009500Y-31390500D01*
X88286233Y-31390500D01*
X87971500Y-31390500D01*
X87971500Y-29828500D01*
X89309500Y-29828500D01*
X88799151Y-30005800D01*
X88395499Y-30364906D01*
X88188318Y-30799375D01*
X88286233Y-31009500D01*
X90009500Y-31009500D01*
X90009500Y-29828500D01*
X90390500Y-29828500D01*
X90009500Y-29828500D01*
X90009500Y-29828500D01*
X90390500Y-29828500D01*
X90390500Y-31009500D01*
X92113767Y-31009500D01*
X92211682Y-30799375D01*
X92004501Y-30364906D01*
X91600849Y-30005800D01*
X91090500Y-29828500D01*
X90390500Y-29828500D01*
X90009500Y-29828500D01*
X90009500Y-29828500D01*
X89309500Y-29828500D01*
X87971500Y-29828500D01*
X87971500Y-28285637D01*
X88153218Y-28104236D01*
X88288846Y-27777609D01*
X88289154Y-27423943D01*
X88154097Y-27097080D01*
X87904236Y-26846782D01*
X87577609Y-26711154D01*
X87344501Y-26710951D01*
X87344501Y-23456604D01*
X89470683Y-23456604D01*
X89390647Y-23536500D01*
X89100000Y-23536500D01*
X89075700Y-23541334D01*
X89055099Y-23555099D01*
X89041334Y-23575700D01*
X89036500Y-23600000D01*
X89036500Y-23890028D01*
X88958402Y-23967990D01*
X88680817Y-24636491D01*
X88680185Y-25360333D01*
X88956604Y-26029317D01*
X89036500Y-26109353D01*
X89036500Y-26400000D01*
X89041334Y-26424300D01*
X89055099Y-26444901D01*
X89075700Y-26458666D01*
X89100000Y-26463500D01*
X89390028Y-26463500D01*
X89467990Y-26541598D01*
X90136491Y-26819183D01*
X90860333Y-26819815D01*
X91529317Y-26543396D01*
X91609353Y-26463500D01*
X91900000Y-26463500D01*
X91924300Y-26458666D01*
X91944901Y-26444901D01*
X91958666Y-26424300D01*
X91963500Y-26400000D01*
X91963500Y-26109972D01*
X92041598Y-26032010D01*
X92319183Y-25363509D01*
X92319815Y-24639667D01*
X92043396Y-23970683D01*
X91963500Y-23890647D01*
X91963500Y-23600000D01*
X91958666Y-23575700D01*
X91944901Y-23555099D01*
X91924300Y-23541334D01*
X91900000Y-23536500D01*
X91609972Y-23536500D01*
X91532010Y-23458402D01*
X90863509Y-23180817D01*
X90139667Y-23180185D01*
X89470683Y-23456604D01*
X87344501Y-23456604D01*
X87344501Y-22673006D01*
X87344502Y-22673001D01*
X87300998Y-22454298D01*
X87300998Y-22454297D01*
X87177113Y-22268889D01*
X87177110Y-22268887D01*
X86504112Y-21595888D01*
X86495391Y-21590061D01*
X86389789Y-21519500D01*
X90948834Y-21519500D01*
X91945352Y-21717719D01*
X92746782Y-22253218D01*
X93282281Y-23054648D01*
X93480500Y-24051167D01*
X93480500Y-74448833D01*
X93282281Y-75445352D01*
X92746782Y-76246782D01*
X91945352Y-76782281D01*
X90948834Y-76980500D01*
X32051167Y-76980500D01*
X31054648Y-76782281D01*
X30253218Y-76246782D01*
X29717719Y-75445352D01*
X29519500Y-74448834D01*
X29519500Y-72456604D01*
X31470683Y-72456604D01*
X31390647Y-72536500D01*
X31100000Y-72536500D01*
X31075700Y-72541334D01*
X31055099Y-72555099D01*
X31041334Y-72575700D01*
X31036500Y-72600000D01*
X31036500Y-72890028D01*
X30958402Y-72967990D01*
X30680817Y-73636491D01*
X30680185Y-74360333D01*
X30956604Y-75029317D01*
X31036500Y-75109353D01*
X31036500Y-75400000D01*
X31041334Y-75424300D01*
X31055099Y-75444901D01*
X31075700Y-75458666D01*
X31100000Y-75463500D01*
X31390028Y-75463500D01*
X31467990Y-75541598D01*
X32136491Y-75819183D01*
X32860333Y-75819815D01*
X33529317Y-75543396D01*
X33609353Y-75463500D01*
X33900000Y-75463500D01*
X33924300Y-75458666D01*
X33944901Y-75444901D01*
X33958666Y-75424300D01*
X33963500Y-75400000D01*
X89036500Y-75400000D01*
X89041334Y-75424300D01*
X89055099Y-75444901D01*
X89075700Y-75458666D01*
X89100000Y-75463500D01*
X89390028Y-75463500D01*
X89467990Y-75541598D01*
X90136491Y-75819183D01*
X90860333Y-75819815D01*
X91529317Y-75543396D01*
X91609353Y-75463500D01*
X91900000Y-75463500D01*
X91924300Y-75458666D01*
X91944901Y-75444901D01*
X91958666Y-75424300D01*
X91963500Y-75400000D01*
X91963500Y-75109972D01*
X92041598Y-75032010D01*
X92319183Y-74363509D01*
X92319815Y-73639667D01*
X92043396Y-72970683D01*
X91963500Y-72890647D01*
X91963500Y-72600000D01*
X91958666Y-72575700D01*
X91944901Y-72555099D01*
X91924300Y-72541334D01*
X91900000Y-72536500D01*
X91609972Y-72536500D01*
X91532010Y-72458402D01*
X90863509Y-72180817D01*
X90139667Y-72180185D01*
X89470683Y-72456604D01*
X83103500Y-72456604D01*
X83103500Y-72413905D01*
X83008768Y-71937655D01*
X82738994Y-71533911D01*
X82335250Y-71264137D01*
X81859000Y-71169405D01*
X81382750Y-71264137D01*
X80979006Y-71533911D01*
X80709232Y-71937655D01*
X80614500Y-72413905D01*
X80614500Y-73890095D01*
X80709232Y-74366345D01*
X80979006Y-74770089D01*
X81382750Y-75039863D01*
X81859000Y-75134595D01*
X82335250Y-75039863D01*
X82738994Y-74770089D01*
X83008768Y-74366345D01*
X83103500Y-73890095D01*
X83103500Y-72456604D01*
X89470683Y-72456604D01*
X83103500Y-72456604D01*
X83103500Y-72456604D01*
X89470683Y-72456604D01*
X89390647Y-72536500D01*
X89100000Y-72536500D01*
X89075700Y-72541334D01*
X89055099Y-72555099D01*
X89041334Y-72575700D01*
X89036500Y-72600000D01*
X89036500Y-72890028D01*
X88958402Y-72967990D01*
X88680817Y-73636491D01*
X88680185Y-74360333D01*
X88956604Y-75029317D01*
X89036500Y-75109353D01*
X89036500Y-75400000D01*
X33963500Y-75400000D01*
X33963500Y-75400000D01*
X33963500Y-75163682D01*
X42215375Y-75163682D01*
X42425500Y-75065767D01*
X42425500Y-73342500D01*
X42806500Y-73342500D01*
X42425500Y-73342500D01*
X42425500Y-73342500D01*
X42806500Y-73342500D01*
X42806500Y-75065767D01*
X43016625Y-75163682D01*
X49215375Y-75163682D01*
X49425500Y-75065767D01*
X49425500Y-73342500D01*
X49806500Y-73342500D01*
X49425500Y-73342500D01*
X49425500Y-73342500D01*
X49806500Y-73342500D01*
X49806500Y-75065767D01*
X50016625Y-75163682D01*
X56215375Y-75163682D01*
X56425500Y-75065767D01*
X56425500Y-73342500D01*
X56806500Y-73342500D01*
X56806500Y-75065767D01*
X57016625Y-75163682D01*
X63215375Y-75163682D01*
X57016625Y-75163682D01*
X57016625Y-75163682D01*
X63215375Y-75163682D01*
X63425500Y-75065767D01*
X63425500Y-73342500D01*
X63806500Y-73342500D01*
X63425500Y-73342500D01*
X63425500Y-73342500D01*
X63806500Y-73342500D01*
X63806500Y-75065767D01*
X64016625Y-75163682D01*
X64451094Y-74956501D01*
X64810200Y-74552849D01*
X64987500Y-74042500D01*
X64987500Y-73890095D01*
X70114500Y-73890095D01*
X70209232Y-74366345D01*
X70479006Y-74770089D01*
X70882750Y-75039863D01*
X71359000Y-75134595D01*
X71835250Y-75039863D01*
X72238994Y-74770089D01*
X72508768Y-74366345D01*
X72603500Y-73890095D01*
X72603500Y-72413905D01*
X72508768Y-71937655D01*
X72238994Y-71533911D01*
X71835250Y-71264137D01*
X71359000Y-71169405D01*
X70882750Y-71264137D01*
X64276280Y-71264137D01*
X64016625Y-71140318D01*
X63806500Y-71238233D01*
X63806500Y-72961500D01*
X64987500Y-72961500D01*
X64987500Y-72261500D01*
X64810200Y-71751151D01*
X64451094Y-71347499D01*
X64276280Y-71264137D01*
X70882750Y-71264137D01*
X64276280Y-71264137D01*
X64276280Y-71264137D01*
X70882750Y-71264137D01*
X70479006Y-71533911D01*
X70209232Y-71937655D01*
X70114500Y-72413905D01*
X70114500Y-73890095D01*
X64987500Y-73890095D01*
X64987500Y-73342500D01*
X63806500Y-73342500D01*
X63425500Y-73342500D01*
X63425500Y-73342500D01*
X62244500Y-73342500D01*
X61360500Y-73342500D01*
X61360500Y-72413905D01*
X61265768Y-71937655D01*
X60995994Y-71533911D01*
X60717010Y-71347499D01*
X62780906Y-71347499D01*
X62421800Y-71751151D01*
X62244500Y-72261500D01*
X62244500Y-72961500D01*
X63425500Y-72961500D01*
X63425500Y-71238233D01*
X63215375Y-71140318D01*
X62780906Y-71347499D01*
X60717010Y-71347499D01*
X60592250Y-71264137D01*
X60116000Y-71169405D01*
X59639750Y-71264137D01*
X59236006Y-71533911D01*
X58966232Y-71937655D01*
X58871500Y-72413905D01*
X58871500Y-73890095D01*
X58966232Y-74366345D01*
X59236006Y-74770089D01*
X59639750Y-75039863D01*
X60116000Y-75134595D01*
X60592250Y-75039863D01*
X60995994Y-74770089D01*
X61265768Y-74366345D01*
X61360500Y-73890095D01*
X61360500Y-73342500D01*
X62244500Y-73342500D01*
X61360500Y-73342500D01*
X61360500Y-73342500D01*
X62244500Y-73342500D01*
X62244500Y-74042500D01*
X62421800Y-74552849D01*
X62780906Y-74956501D01*
X63215375Y-75163682D01*
X57016625Y-75163682D01*
X57016625Y-75163682D01*
X57451094Y-74956501D01*
X57810200Y-74552849D01*
X57987500Y-74042500D01*
X57987500Y-73342500D01*
X56806500Y-73342500D01*
X56425500Y-73342500D01*
X56425500Y-73342500D01*
X55244500Y-73342500D01*
X54360500Y-73342500D01*
X54360500Y-72413905D01*
X54265768Y-71937655D01*
X53995994Y-71533911D01*
X53717010Y-71347499D01*
X55780906Y-71347499D01*
X55421800Y-71751151D01*
X55244500Y-72261500D01*
X55244500Y-72961500D01*
X56425500Y-72961500D01*
X56425500Y-71238233D01*
X56806500Y-71238233D01*
X56425500Y-71238233D01*
X56425500Y-71238233D01*
X56806500Y-71238233D01*
X56806500Y-72961500D01*
X57987500Y-72961500D01*
X57987500Y-72261500D01*
X57810200Y-71751151D01*
X57451094Y-71347499D01*
X57016625Y-71140318D01*
X56806500Y-71238233D01*
X56425500Y-71238233D01*
X56425500Y-71238233D01*
X56215375Y-71140318D01*
X55780906Y-71347499D01*
X53717010Y-71347499D01*
X53592250Y-71264137D01*
X53116000Y-71169405D01*
X52639750Y-71264137D01*
X52236006Y-71533911D01*
X51966232Y-71937655D01*
X51871500Y-72413905D01*
X51871500Y-73890095D01*
X51966232Y-74366345D01*
X52236006Y-74770089D01*
X52639750Y-75039863D01*
X53116000Y-75134595D01*
X53592250Y-75039863D01*
X53995994Y-74770089D01*
X54265768Y-74366345D01*
X54360500Y-73890095D01*
X54360500Y-73342500D01*
X55244500Y-73342500D01*
X54360500Y-73342500D01*
X54360500Y-73342500D01*
X55244500Y-73342500D01*
X55244500Y-74042500D01*
X55421800Y-74552849D01*
X55780906Y-74956501D01*
X56215375Y-75163682D01*
X50016625Y-75163682D01*
X50016625Y-75163682D01*
X50451094Y-74956501D01*
X50810200Y-74552849D01*
X50987500Y-74042500D01*
X50987500Y-73342500D01*
X49806500Y-73342500D01*
X49425500Y-73342500D01*
X49425500Y-73342500D01*
X48244500Y-73342500D01*
X47360500Y-73342500D01*
X47360500Y-72413905D01*
X47265768Y-71937655D01*
X46995994Y-71533911D01*
X46717010Y-71347499D01*
X48780906Y-71347499D01*
X48421800Y-71751151D01*
X48244500Y-72261500D01*
X48244500Y-72961500D01*
X49425500Y-72961500D01*
X49425500Y-71238233D01*
X49806500Y-71238233D01*
X49806500Y-72961500D01*
X50987500Y-72961500D01*
X50987500Y-72261500D01*
X50810200Y-71751151D01*
X50451094Y-71347499D01*
X50016625Y-71140318D01*
X49806500Y-71238233D01*
X49425500Y-71238233D01*
X49425500Y-71238233D01*
X49215375Y-71140318D01*
X48780906Y-71347499D01*
X46717010Y-71347499D01*
X46592250Y-71264137D01*
X46116000Y-71169405D01*
X45639750Y-71264137D01*
X45236006Y-71533911D01*
X44966232Y-71937655D01*
X44871500Y-72413905D01*
X44871500Y-73890095D01*
X44966232Y-74366345D01*
X45236006Y-74770089D01*
X45639750Y-75039863D01*
X46116000Y-75134595D01*
X46592250Y-75039863D01*
X46995994Y-74770089D01*
X47265768Y-74366345D01*
X47360500Y-73890095D01*
X47360500Y-73342500D01*
X48244500Y-73342500D01*
X47360500Y-73342500D01*
X47360500Y-73342500D01*
X48244500Y-73342500D01*
X48244500Y-74042500D01*
X48421800Y-74552849D01*
X48780906Y-74956501D01*
X49215375Y-75163682D01*
X43016625Y-75163682D01*
X43016625Y-75163682D01*
X43451094Y-74956501D01*
X43810200Y-74552849D01*
X43987500Y-74042500D01*
X43987500Y-73342500D01*
X42806500Y-73342500D01*
X42425500Y-73342500D01*
X42425500Y-73342500D01*
X41244500Y-73342500D01*
X40360500Y-73342500D01*
X40360500Y-72413905D01*
X40265768Y-71937655D01*
X39995994Y-71533911D01*
X39717010Y-71347499D01*
X41780906Y-71347499D01*
X41421800Y-71751151D01*
X41244500Y-72261500D01*
X41244500Y-72961500D01*
X42425500Y-72961500D01*
X42425500Y-71238233D01*
X42806500Y-71238233D01*
X42806500Y-72961500D01*
X43987500Y-72961500D01*
X43987500Y-72261500D01*
X43810200Y-71751151D01*
X43451094Y-71347499D01*
X43016625Y-71140318D01*
X42806500Y-71238233D01*
X42425500Y-71238233D01*
X42425500Y-71238233D01*
X42215375Y-71140318D01*
X41780906Y-71347499D01*
X39717010Y-71347499D01*
X39592250Y-71264137D01*
X39116000Y-71169405D01*
X38639750Y-71264137D01*
X38236006Y-71533911D01*
X37966232Y-71937655D01*
X37871500Y-72413905D01*
X37871500Y-73890095D01*
X37966232Y-74366345D01*
X38236006Y-74770089D01*
X38639750Y-75039863D01*
X39116000Y-75134595D01*
X39592250Y-75039863D01*
X39995994Y-74770089D01*
X40265768Y-74366345D01*
X40360500Y-73890095D01*
X40360500Y-73342500D01*
X41244500Y-73342500D01*
X40360500Y-73342500D01*
X40360500Y-73342500D01*
X41244500Y-73342500D01*
X41244500Y-74042500D01*
X41421800Y-74552849D01*
X41780906Y-74956501D01*
X42215375Y-75163682D01*
X33963500Y-75163682D01*
X33963500Y-75109972D01*
X34041598Y-75032010D01*
X34319183Y-74363509D01*
X34319815Y-73639667D01*
X34043396Y-72970683D01*
X33963500Y-72890647D01*
X33963500Y-72600000D01*
X33958666Y-72575700D01*
X33944901Y-72555099D01*
X33924300Y-72541334D01*
X33900000Y-72536500D01*
X33609972Y-72536500D01*
X33532010Y-72458402D01*
X32863509Y-72180817D01*
X32139667Y-72180185D01*
X31470683Y-72456604D01*
X29519500Y-72456604D01*
X29519500Y-68131500D01*
X39859375Y-68131500D01*
X39716500Y-68274375D01*
X39716500Y-68392678D01*
X39803506Y-68602728D01*
X39964271Y-68763494D01*
X40174321Y-68850500D01*
X40257625Y-68850500D01*
X40400500Y-68707625D01*
X40400500Y-68131500D01*
X40625500Y-68131500D01*
X40400500Y-68131500D01*
X40400500Y-68131500D01*
X40625500Y-68131500D01*
X40625500Y-68707625D01*
X40768375Y-68850500D01*
X40851679Y-68850500D01*
X41061729Y-68763494D01*
X41222494Y-68602728D01*
X41309500Y-68392678D01*
X41309500Y-68274375D01*
X41166625Y-68131500D01*
X46971375Y-68131500D01*
X46828500Y-68274375D01*
X46828500Y-68392678D01*
X46915506Y-68602728D01*
X47076271Y-68763494D01*
X47286321Y-68850500D01*
X47369625Y-68850500D01*
X47512500Y-68707625D01*
X47512500Y-68131500D01*
X47737500Y-68131500D01*
X47737500Y-68707625D01*
X47880375Y-68850500D01*
X47963679Y-68850500D01*
X48173729Y-68763494D01*
X48334494Y-68602728D01*
X48421500Y-68392678D01*
X48421500Y-68274375D01*
X48278625Y-68131500D01*
X47737500Y-68131500D01*
X47512500Y-68131500D01*
X47512500Y-68131500D01*
X46971375Y-68131500D01*
X41166625Y-68131500D01*
X41166625Y-68131500D01*
X40625500Y-68131500D01*
X40400500Y-68131500D01*
X40400500Y-68131500D01*
X39859375Y-68131500D01*
X29519500Y-68131500D01*
X29519500Y-67893375D01*
X53432500Y-67893375D01*
X53432500Y-68011678D01*
X53519506Y-68221728D01*
X53680271Y-68382494D01*
X53890321Y-68469500D01*
X53973625Y-68469500D01*
X54116500Y-68326625D01*
X54116500Y-67750500D01*
X54341500Y-67750500D01*
X54341500Y-68326625D01*
X54484375Y-68469500D01*
X54567679Y-68469500D01*
X54777729Y-68382494D01*
X54938494Y-68221728D01*
X55025500Y-68011678D01*
X55025500Y-67893375D01*
X54882625Y-67750500D01*
X60179375Y-67750500D01*
X60036500Y-67893375D01*
X60036500Y-68011678D01*
X60123506Y-68221728D01*
X60284271Y-68382494D01*
X60494321Y-68469500D01*
X60577625Y-68469500D01*
X60720500Y-68326625D01*
X60720500Y-67750500D01*
X60945500Y-67750500D01*
X60720500Y-67750500D01*
X60720500Y-67750500D01*
X60945500Y-67750500D01*
X60945500Y-68326625D01*
X61088375Y-68469500D01*
X61171679Y-68469500D01*
X61381729Y-68382494D01*
X61542494Y-68221728D01*
X61629500Y-68011678D01*
X61629500Y-67893375D01*
X61486625Y-67750500D01*
X60945500Y-67750500D01*
X60720500Y-67750500D01*
X60720500Y-67750500D01*
X60179375Y-67750500D01*
X54882625Y-67750500D01*
X54882625Y-67750500D01*
X54341500Y-67750500D01*
X54116500Y-67750500D01*
X54116500Y-67750500D01*
X53575375Y-67750500D01*
X48364625Y-67750500D01*
X48421500Y-67693625D01*
X48421500Y-67575322D01*
X48334494Y-67365272D01*
X48173729Y-67204506D01*
X47963679Y-67117500D01*
X47880375Y-67117500D01*
X47737500Y-67260375D01*
X47737500Y-67836500D01*
X48278625Y-67836500D01*
X48364625Y-67750500D01*
X53575375Y-67750500D01*
X48364625Y-67750500D01*
X48364625Y-67750500D01*
X53575375Y-67750500D01*
X53432500Y-67893375D01*
X29519500Y-67893375D01*
X29519500Y-67117500D01*
X40174321Y-67117500D01*
X39964271Y-67204506D01*
X39803506Y-67365272D01*
X39716500Y-67575322D01*
X39716500Y-67693625D01*
X39859375Y-67836500D01*
X40400500Y-67836500D01*
X40400500Y-67260375D01*
X40257625Y-67117500D01*
X40768375Y-67117500D01*
X40257625Y-67117500D01*
X40257625Y-67117500D01*
X40768375Y-67117500D01*
X40625500Y-67260375D01*
X40625500Y-67836500D01*
X41166625Y-67836500D01*
X41309500Y-67693625D01*
X41309500Y-67575322D01*
X41222494Y-67365272D01*
X41061729Y-67204506D01*
X40851679Y-67117500D01*
X47286321Y-67117500D01*
X40851679Y-67117500D01*
X40851679Y-67117500D01*
X47286321Y-67117500D01*
X47076271Y-67204506D01*
X46915506Y-67365272D01*
X46828500Y-67575322D01*
X46828500Y-67693625D01*
X46971375Y-67836500D01*
X47512500Y-67836500D01*
X47512500Y-67260375D01*
X47369625Y-67117500D01*
X47286321Y-67117500D01*
X40851679Y-67117500D01*
X40851679Y-67117500D01*
X40768375Y-67117500D01*
X40257625Y-67117500D01*
X40257625Y-67117500D01*
X40174321Y-67117500D01*
X29519500Y-67117500D01*
X29519500Y-66736500D01*
X53890321Y-66736500D01*
X53680271Y-66823506D01*
X53519506Y-66984272D01*
X53432500Y-67194322D01*
X53432500Y-67312625D01*
X53575375Y-67455500D01*
X54116500Y-67455500D01*
X54116500Y-66879375D01*
X53973625Y-66736500D01*
X54484375Y-66736500D01*
X53973625Y-66736500D01*
X53973625Y-66736500D01*
X54484375Y-66736500D01*
X54341500Y-66879375D01*
X54341500Y-67455500D01*
X54882625Y-67455500D01*
X55025500Y-67312625D01*
X55025500Y-67194322D01*
X54938494Y-66984272D01*
X54777729Y-66823506D01*
X54567679Y-66736500D01*
X60494321Y-66736500D01*
X54567679Y-66736500D01*
X54567679Y-66736500D01*
X60494321Y-66736500D01*
X60284271Y-66823506D01*
X60123506Y-66984272D01*
X60036500Y-67194322D01*
X60036500Y-67312625D01*
X60179375Y-67455500D01*
X60720500Y-67455500D01*
X60720500Y-66879375D01*
X60577625Y-66736500D01*
X61088375Y-66736500D01*
X60945500Y-66879375D01*
X60945500Y-67455500D01*
X61486625Y-67455500D01*
X61629500Y-67312625D01*
X61629500Y-67194322D01*
X61542494Y-66984272D01*
X61381729Y-66823506D01*
X61171679Y-66736500D01*
X61088375Y-66736500D01*
X60577625Y-66736500D01*
X60577625Y-66736500D01*
X60494321Y-66736500D01*
X54567679Y-66736500D01*
X54567679Y-66736500D01*
X54484375Y-66736500D01*
X53973625Y-66736500D01*
X53973625Y-66736500D01*
X53890321Y-66736500D01*
X29519500Y-66736500D01*
X29519500Y-65087500D01*
X29808833Y-65087500D01*
X29715162Y-65331702D01*
X29997739Y-65882908D01*
X30469743Y-66284018D01*
X30807300Y-66423825D01*
X31051500Y-66329009D01*
X31051500Y-65087500D01*
X29808833Y-65087500D01*
X29519500Y-65087500D01*
X29519500Y-63509982D01*
X30469743Y-63509982D01*
X29997739Y-63911092D01*
X29715162Y-64462298D01*
X29808833Y-64706500D01*
X31051500Y-64706500D01*
X31051500Y-63464991D01*
X30807300Y-63370175D01*
X30469743Y-63509982D01*
X29519500Y-63509982D01*
X29519500Y-63099003D01*
X33563296Y-63099003D01*
X33377888Y-63222888D01*
X33254003Y-63408296D01*
X33250125Y-63427792D01*
X32766000Y-63427792D01*
X32596514Y-63460676D01*
X32447551Y-63558529D01*
X32347836Y-63706252D01*
X32332894Y-63780760D01*
X32014257Y-63509982D01*
X31676700Y-63370175D01*
X31432500Y-63464991D01*
X31432500Y-64706500D01*
X31452500Y-64706500D01*
X31452500Y-65087500D01*
X31432500Y-65087500D01*
X31432500Y-66329009D01*
X31676700Y-66423825D01*
X32014257Y-66284018D01*
X32332333Y-66013716D01*
X32345676Y-66082486D01*
X32443529Y-66231449D01*
X32591252Y-66331164D01*
X32766000Y-66366208D01*
X34798000Y-66366208D01*
X34967486Y-66333324D01*
X35116449Y-66235471D01*
X35216164Y-66087748D01*
X35251208Y-65913000D01*
X35251208Y-63881000D01*
X35218324Y-63711514D01*
X35120471Y-63562551D01*
X34972748Y-63462836D01*
X34798000Y-63427792D01*
X34313875Y-63427792D01*
X34309997Y-63408296D01*
X34186112Y-63222888D01*
X34000704Y-63099003D01*
X33782000Y-63055500D01*
X33563296Y-63099003D01*
X29519500Y-63099003D01*
X29519500Y-61277500D01*
X29808833Y-61277500D01*
X29715162Y-61521702D01*
X29997739Y-62072908D01*
X30469743Y-62474018D01*
X30807300Y-62613825D01*
X31051500Y-62519009D01*
X31051500Y-61277500D01*
X29808833Y-61277500D01*
X29519500Y-61277500D01*
X29519500Y-59699982D01*
X30469743Y-59699982D01*
X29997739Y-60101092D01*
X29715162Y-60652298D01*
X29808833Y-60896500D01*
X31051500Y-60896500D01*
X31051500Y-59654991D01*
X30807300Y-59560175D01*
X30469743Y-59699982D01*
X29519500Y-59699982D01*
X29519500Y-35115500D01*
X30063991Y-35115500D01*
X29969175Y-35359700D01*
X30108982Y-35697257D01*
X30510092Y-36169261D01*
X31061298Y-36451838D01*
X31305500Y-36358167D01*
X31305500Y-35115500D01*
X30063991Y-35115500D01*
X29519500Y-35115500D01*
X29519500Y-24051166D01*
X29637765Y-23456604D01*
X31470683Y-23456604D01*
X31390647Y-23536500D01*
X31100000Y-23536500D01*
X31075700Y-23541334D01*
X31055099Y-23555099D01*
X31041334Y-23575700D01*
X31036500Y-23600000D01*
X31036500Y-23890028D01*
X30958402Y-23967990D01*
X30680817Y-24636491D01*
X30680185Y-25360333D01*
X30956604Y-26029317D01*
X31036500Y-26109353D01*
X31036500Y-26400000D01*
X31041334Y-26424300D01*
X31055099Y-26444901D01*
X31075700Y-26458666D01*
X31100000Y-26463500D01*
X31390028Y-26463500D01*
X31467990Y-26541598D01*
X32136491Y-26819183D01*
X32860333Y-26819815D01*
X33529317Y-26543396D01*
X33609353Y-26463500D01*
X33900000Y-26463500D01*
X33924300Y-26458666D01*
X33944901Y-26444901D01*
X33958666Y-26424300D01*
X33963500Y-26400000D01*
X33963500Y-26109972D01*
X34041598Y-26032010D01*
X34319183Y-25363509D01*
X34319815Y-24639667D01*
X34043396Y-23970683D01*
X33963500Y-23890647D01*
X33963500Y-23600000D01*
X33958666Y-23575700D01*
X33944901Y-23555099D01*
X33924300Y-23541334D01*
X33900000Y-23536500D01*
X33609972Y-23536500D01*
X33532010Y-23458402D01*
X32863509Y-23180817D01*
X32139667Y-23180185D01*
X31470683Y-23456604D01*
X29637765Y-23456604D01*
X29717719Y-23054648D01*
X30253218Y-22253218D01*
X31054648Y-21717719D01*
X32051167Y-21519500D01*
X36372277Y-21519500D01*
X35795888Y-22095888D01*
G36*
X54628500Y-52899995D02*
X54628499Y-52900000D01*
X54640335Y-52959500D01*
X54672003Y-53118704D01*
X54777488Y-53276574D01*
X54778775Y-53278500D01*
X54533375Y-53278500D01*
X54390500Y-53421375D01*
X54390500Y-54409500D01*
X55253625Y-54409500D01*
X55396500Y-54266625D01*
X55396500Y-53904724D01*
X56495886Y-55004109D01*
X56495888Y-55004112D01*
X56681296Y-55127997D01*
X56717582Y-55135215D01*
X56900000Y-55171501D01*
X56900005Y-55171500D01*
X57371438Y-55171500D01*
X57146782Y-55395764D01*
X57011154Y-55722391D01*
X57010846Y-56076057D01*
X57145903Y-56402920D01*
X57328500Y-56585836D01*
X57328500Y-57073810D01*
X57177609Y-57011154D01*
X56823943Y-57010846D01*
X56497080Y-57145903D01*
X56246782Y-57395764D01*
X56111154Y-57722391D01*
X56110846Y-58076057D01*
X56245903Y-58402920D01*
X56428500Y-58585836D01*
X56428500Y-58645277D01*
X55278208Y-57494984D01*
X55278208Y-56350000D01*
X55245324Y-56180514D01*
X55147471Y-56031551D01*
X54999748Y-55931836D01*
X54941787Y-55920213D01*
X55148729Y-55834494D01*
X55309494Y-55673728D01*
X55396500Y-55463678D01*
X55396500Y-54933375D01*
X55253625Y-54790500D01*
X54390500Y-54790500D01*
X54390500Y-54810500D01*
X54009500Y-54810500D01*
X54009500Y-54790500D01*
X53146375Y-54790500D01*
X53003500Y-54933375D01*
X53003500Y-55463678D01*
X53028693Y-55524500D01*
X50076005Y-55524500D01*
X50076000Y-55524499D01*
X49857297Y-55568002D01*
X49857295Y-55568003D01*
X49857296Y-55568003D01*
X49671888Y-55691888D01*
X49671886Y-55691891D01*
X47959706Y-57404070D01*
X47702943Y-57403846D01*
X47376080Y-57538903D01*
X47125782Y-57788764D01*
X46990154Y-58115391D01*
X46989846Y-58469057D01*
X47071826Y-58667463D01*
X46957551Y-58742529D01*
X46857836Y-58890252D01*
X46822792Y-59065000D01*
X46822792Y-59118500D01*
X45676723Y-59118500D01*
X45103208Y-58544984D01*
X45103208Y-57400000D01*
X45070324Y-57230514D01*
X44972471Y-57081551D01*
X44824748Y-56981836D01*
X44650000Y-56946792D01*
X43350000Y-56946792D01*
X43180514Y-56979676D01*
X43031551Y-57077529D01*
X42931836Y-57225252D01*
X42896792Y-57400000D01*
X42896792Y-58900000D01*
X42929676Y-59069486D01*
X43027529Y-59218449D01*
X43175252Y-59318164D01*
X43350000Y-59353208D01*
X43428500Y-59353208D01*
X43428500Y-60963277D01*
X42963276Y-61428500D01*
X39936723Y-61428500D01*
X39276432Y-60768208D01*
X39378000Y-60768208D01*
X39547486Y-60735324D01*
X39696449Y-60637471D01*
X39796164Y-60489748D01*
X39807787Y-60431787D01*
X39893506Y-60638729D01*
X40054272Y-60799494D01*
X40264322Y-60886500D01*
X40794625Y-60886500D01*
X40937500Y-60743625D01*
X40937500Y-59880500D01*
X41318500Y-59880500D01*
X41318500Y-60743625D01*
X41461375Y-60886500D01*
X41991678Y-60886500D01*
X42201728Y-60799494D01*
X42362494Y-60638729D01*
X42449500Y-60428679D01*
X42449500Y-60023375D01*
X42306625Y-59880500D01*
X41318500Y-59880500D01*
X40937500Y-59880500D01*
X40937500Y-59880500D01*
X40917500Y-59880500D01*
X40917500Y-59499500D01*
X40937500Y-59499500D01*
X40937500Y-59479500D01*
X41318500Y-59479500D01*
X41318500Y-59499500D01*
X42306625Y-59499500D01*
X42449500Y-59356625D01*
X42449500Y-58951321D01*
X42362494Y-58741271D01*
X42269437Y-58648215D01*
X42296449Y-58630471D01*
X42396164Y-58482748D01*
X42431208Y-58308000D01*
X42431208Y-57008000D01*
X42398324Y-56838514D01*
X42300471Y-56689551D01*
X42152748Y-56589836D01*
X41978000Y-56554792D01*
X40833015Y-56554792D01*
X39774112Y-55495888D01*
X39763888Y-55489056D01*
X39876057Y-55489154D01*
X40202920Y-55354097D01*
X40385836Y-55171500D01*
X40556817Y-55171500D01*
X40556822Y-55171501D01*
X40739240Y-55135215D01*
X40775526Y-55127997D01*
X40960934Y-55004112D01*
X40960935Y-55004111D01*
X41611039Y-54354006D01*
X41610846Y-54576057D01*
X41745903Y-54902920D01*
X41995764Y-55153218D01*
X42322391Y-55288846D01*
X42676057Y-55289154D01*
X42896792Y-55197948D01*
X42896792Y-56200000D01*
X42929676Y-56369486D01*
X43027529Y-56518449D01*
X43175252Y-56618164D01*
X43350000Y-56653208D01*
X44650000Y-56653208D01*
X44819486Y-56620324D01*
X44968449Y-56522471D01*
X45068164Y-56374748D01*
X45103208Y-56200000D01*
X45103208Y-55055016D01*
X46879723Y-53278500D01*
X53461321Y-53278500D01*
X53251271Y-53365506D01*
X53090506Y-53526272D01*
X53003500Y-53736322D01*
X53003500Y-54266625D01*
X53146375Y-54409500D01*
X54009500Y-54409500D01*
X54009500Y-53421375D01*
X53866625Y-53278500D01*
X53461321Y-53278500D01*
X46879723Y-53278500D01*
X50614272Y-49543951D01*
X50722391Y-49588846D01*
X51076057Y-49589154D01*
X51402920Y-49454097D01*
X51653218Y-49204236D01*
X51788846Y-48877609D01*
X51789154Y-48523943D01*
X51767485Y-48471500D01*
X52163276Y-48471500D01*
X52728500Y-49036723D01*
X52728500Y-51114363D01*
X52546782Y-51295764D01*
X52411154Y-51622391D01*
X52410846Y-51976057D01*
X52545903Y-52302920D01*
X52795764Y-52553218D01*
X53122391Y-52688846D01*
X53476057Y-52689154D01*
X53802920Y-52554097D01*
X54053218Y-52304236D01*
X54188846Y-51977609D01*
X54189154Y-51623943D01*
X54054097Y-51297080D01*
X53871500Y-51114164D01*
X53871500Y-48800005D01*
X53871501Y-48800000D01*
X53827997Y-48581297D01*
X53827997Y-48581296D01*
X53704112Y-48395888D01*
X53704109Y-48395886D01*
X52804112Y-47495888D01*
X52723462Y-47442000D01*
X52618704Y-47372003D01*
X52582418Y-47364785D01*
X52400000Y-47328499D01*
X52399995Y-47328500D01*
X52285723Y-47328500D01*
X52427494Y-47186728D01*
X52514500Y-46976678D01*
X52514500Y-46961949D01*
X52908091Y-47224939D01*
X53467000Y-47336113D01*
X54025909Y-47224939D01*
X54499729Y-46908342D01*
X54628500Y-46715623D01*
X54628500Y-52899995D01*
X54628500Y-52899995D01*
G37*
X54628500Y-52899995D02*
X54628499Y-52900000D01*
X54640335Y-52959500D01*
X54672003Y-53118704D01*
X54777488Y-53276574D01*
X54778775Y-53278500D01*
X54533375Y-53278500D01*
X54390500Y-53421375D01*
X54390500Y-54409500D01*
X55253625Y-54409500D01*
X55396500Y-54266625D01*
X55396500Y-53904724D01*
X56495886Y-55004109D01*
X56495888Y-55004112D01*
X56681296Y-55127997D01*
X56717582Y-55135215D01*
X56900000Y-55171501D01*
X56900005Y-55171500D01*
X57371438Y-55171500D01*
X57146782Y-55395764D01*
X57011154Y-55722391D01*
X57010846Y-56076057D01*
X57145903Y-56402920D01*
X57328500Y-56585836D01*
X57328500Y-57073810D01*
X57177609Y-57011154D01*
X56823943Y-57010846D01*
X56497080Y-57145903D01*
X56246782Y-57395764D01*
X56111154Y-57722391D01*
X56110846Y-58076057D01*
X56245903Y-58402920D01*
X56428500Y-58585836D01*
X56428500Y-58645277D01*
X55278208Y-57494984D01*
X55278208Y-56350000D01*
X55245324Y-56180514D01*
X55147471Y-56031551D01*
X54999748Y-55931836D01*
X54941787Y-55920213D01*
X55148729Y-55834494D01*
X55309494Y-55673728D01*
X55396500Y-55463678D01*
X55396500Y-54933375D01*
X55253625Y-54790500D01*
X54390500Y-54790500D01*
X54390500Y-54810500D01*
X54009500Y-54810500D01*
X54009500Y-54790500D01*
X53146375Y-54790500D01*
X53003500Y-54933375D01*
X53003500Y-55463678D01*
X53028693Y-55524500D01*
X50076005Y-55524500D01*
X50076000Y-55524499D01*
X49857297Y-55568002D01*
X49857295Y-55568003D01*
X49857296Y-55568003D01*
X49671888Y-55691888D01*
X49671886Y-55691891D01*
X47959706Y-57404070D01*
X47702943Y-57403846D01*
X47376080Y-57538903D01*
X47125782Y-57788764D01*
X46990154Y-58115391D01*
X46989846Y-58469057D01*
X47071826Y-58667463D01*
X46957551Y-58742529D01*
X46857836Y-58890252D01*
X46822792Y-59065000D01*
X46822792Y-59118500D01*
X45676723Y-59118500D01*
X45103208Y-58544984D01*
X45103208Y-57400000D01*
X45070324Y-57230514D01*
X44972471Y-57081551D01*
X44824748Y-56981836D01*
X44650000Y-56946792D01*
X43350000Y-56946792D01*
X43180514Y-56979676D01*
X43031551Y-57077529D01*
X42931836Y-57225252D01*
X42896792Y-57400000D01*
X42896792Y-58900000D01*
X42929676Y-59069486D01*
X43027529Y-59218449D01*
X43175252Y-59318164D01*
X43350000Y-59353208D01*
X43428500Y-59353208D01*
X43428500Y-60963277D01*
X42963276Y-61428500D01*
X39936723Y-61428500D01*
X39276432Y-60768208D01*
X39378000Y-60768208D01*
X39547486Y-60735324D01*
X39696449Y-60637471D01*
X39796164Y-60489748D01*
X39807787Y-60431787D01*
X39893506Y-60638729D01*
X40054272Y-60799494D01*
X40264322Y-60886500D01*
X40794625Y-60886500D01*
X40937500Y-60743625D01*
X40937500Y-59880500D01*
X41318500Y-59880500D01*
X41318500Y-60743625D01*
X41461375Y-60886500D01*
X41991678Y-60886500D01*
X42201728Y-60799494D01*
X42362494Y-60638729D01*
X42449500Y-60428679D01*
X42449500Y-60023375D01*
X42306625Y-59880500D01*
X41318500Y-59880500D01*
X40937500Y-59880500D01*
X40937500Y-59880500D01*
X40917500Y-59880500D01*
X40917500Y-59499500D01*
X40937500Y-59499500D01*
X40937500Y-59479500D01*
X41318500Y-59479500D01*
X41318500Y-59499500D01*
X42306625Y-59499500D01*
X42449500Y-59356625D01*
X42449500Y-58951321D01*
X42362494Y-58741271D01*
X42269437Y-58648215D01*
X42296449Y-58630471D01*
X42396164Y-58482748D01*
X42431208Y-58308000D01*
X42431208Y-57008000D01*
X42398324Y-56838514D01*
X42300471Y-56689551D01*
X42152748Y-56589836D01*
X41978000Y-56554792D01*
X40833015Y-56554792D01*
X39774112Y-55495888D01*
X39763888Y-55489056D01*
X39876057Y-55489154D01*
X40202920Y-55354097D01*
X40385836Y-55171500D01*
X40556817Y-55171500D01*
X40556822Y-55171501D01*
X40739240Y-55135215D01*
X40775526Y-55127997D01*
X40960934Y-55004112D01*
X40960935Y-55004111D01*
X41611039Y-54354006D01*
X41610846Y-54576057D01*
X41745903Y-54902920D01*
X41995764Y-55153218D01*
X42322391Y-55288846D01*
X42676057Y-55289154D01*
X42896792Y-55197948D01*
X42896792Y-56200000D01*
X42929676Y-56369486D01*
X43027529Y-56518449D01*
X43175252Y-56618164D01*
X43350000Y-56653208D01*
X44650000Y-56653208D01*
X44819486Y-56620324D01*
X44968449Y-56522471D01*
X45068164Y-56374748D01*
X45103208Y-56200000D01*
X45103208Y-55055016D01*
X46879723Y-53278500D01*
X53461321Y-53278500D01*
X53251271Y-53365506D01*
X53090506Y-53526272D01*
X53003500Y-53736322D01*
X53003500Y-54266625D01*
X53146375Y-54409500D01*
X54009500Y-54409500D01*
X54009500Y-53421375D01*
X53866625Y-53278500D01*
X53461321Y-53278500D01*
X46879723Y-53278500D01*
X50614272Y-49543951D01*
X50722391Y-49588846D01*
X51076057Y-49589154D01*
X51402920Y-49454097D01*
X51653218Y-49204236D01*
X51788846Y-48877609D01*
X51789154Y-48523943D01*
X51767485Y-48471500D01*
X52163276Y-48471500D01*
X52728500Y-49036723D01*
X52728500Y-51114363D01*
X52546782Y-51295764D01*
X52411154Y-51622391D01*
X52410846Y-51976057D01*
X52545903Y-52302920D01*
X52795764Y-52553218D01*
X53122391Y-52688846D01*
X53476057Y-52689154D01*
X53802920Y-52554097D01*
X54053218Y-52304236D01*
X54188846Y-51977609D01*
X54189154Y-51623943D01*
X54054097Y-51297080D01*
X53871500Y-51114164D01*
X53871500Y-48800005D01*
X53871501Y-48800000D01*
X53827997Y-48581297D01*
X53827997Y-48581296D01*
X53704112Y-48395888D01*
X53704109Y-48395886D01*
X52804112Y-47495888D01*
X52723462Y-47442000D01*
X52618704Y-47372003D01*
X52582418Y-47364785D01*
X52400000Y-47328499D01*
X52399995Y-47328500D01*
X52285723Y-47328500D01*
X52427494Y-47186728D01*
X52514500Y-46976678D01*
X52514500Y-46961949D01*
X52908091Y-47224939D01*
X53467000Y-47336113D01*
X54025909Y-47224939D01*
X54499729Y-46908342D01*
X54628500Y-46715623D01*
X54628500Y-52899995D01*
G36*
X46527436Y-37390077D02*
X46854063Y-37525705D01*
X47112519Y-37525930D01*
X47664135Y-38077545D01*
X47339084Y-38107715D01*
X47061603Y-38222651D01*
X46972761Y-38448353D01*
X47752000Y-39227592D01*
X47766142Y-39213450D01*
X48035550Y-39482858D01*
X48021408Y-39497000D01*
X48800647Y-40276239D01*
X49026349Y-40187397D01*
X49193548Y-39647172D01*
X49189434Y-39602844D01*
X54115542Y-44528952D01*
X54025909Y-44469061D01*
X53467000Y-44357887D01*
X52908091Y-44469061D01*
X52514500Y-44732051D01*
X52514500Y-44717322D01*
X52427494Y-44507272D01*
X52266729Y-44346506D01*
X52056679Y-44259500D01*
X51260375Y-44259500D01*
X51117500Y-44402375D01*
X51117500Y-45656500D01*
X51137500Y-45656500D01*
X51137500Y-46037500D01*
X51117500Y-46037500D01*
X51117500Y-46057500D01*
X50736500Y-46057500D01*
X50736500Y-46037500D01*
X50716500Y-46037500D01*
X50716500Y-45656500D01*
X50736500Y-45656500D01*
X50736500Y-44402375D01*
X50593625Y-44259500D01*
X49797321Y-44259500D01*
X49587271Y-44346506D01*
X49426506Y-44507272D01*
X49367460Y-44649821D01*
X47305228Y-42587588D01*
X47232955Y-42539297D01*
X47119820Y-42463703D01*
X47083534Y-42456485D01*
X46901116Y-42420199D01*
X46901111Y-42420200D01*
X46520022Y-42420200D01*
X46520022Y-40545647D01*
X46972761Y-40545647D01*
X47061603Y-40771349D01*
X47601828Y-40938548D01*
X48164916Y-40886285D01*
X48442397Y-40771349D01*
X48531239Y-40545647D01*
X47752000Y-39766408D01*
X46972761Y-40545647D01*
X46520022Y-40545647D01*
X46520022Y-40204075D01*
X46703353Y-40276239D01*
X47482592Y-39497000D01*
X46703353Y-38717761D01*
X46520022Y-38789925D01*
X46520022Y-37382650D01*
X46527436Y-37390077D01*
X46527436Y-37390077D01*
G37*
X46527436Y-37390077D02*
X46854063Y-37525705D01*
X47112519Y-37525930D01*
X47664135Y-38077545D01*
X47339084Y-38107715D01*
X47061603Y-38222651D01*
X46972761Y-38448353D01*
X47752000Y-39227592D01*
X47766142Y-39213450D01*
X48035550Y-39482858D01*
X48021408Y-39497000D01*
X48800647Y-40276239D01*
X49026349Y-40187397D01*
X49193548Y-39647172D01*
X49189434Y-39602844D01*
X54115542Y-44528952D01*
X54025909Y-44469061D01*
X53467000Y-44357887D01*
X52908091Y-44469061D01*
X52514500Y-44732051D01*
X52514500Y-44717322D01*
X52427494Y-44507272D01*
X52266729Y-44346506D01*
X52056679Y-44259500D01*
X51260375Y-44259500D01*
X51117500Y-44402375D01*
X51117500Y-45656500D01*
X51137500Y-45656500D01*
X51137500Y-46037500D01*
X51117500Y-46037500D01*
X51117500Y-46057500D01*
X50736500Y-46057500D01*
X50736500Y-46037500D01*
X50716500Y-46037500D01*
X50716500Y-45656500D01*
X50736500Y-45656500D01*
X50736500Y-44402375D01*
X50593625Y-44259500D01*
X49797321Y-44259500D01*
X49587271Y-44346506D01*
X49426506Y-44507272D01*
X49367460Y-44649821D01*
X47305228Y-42587588D01*
X47232955Y-42539297D01*
X47119820Y-42463703D01*
X47083534Y-42456485D01*
X46901116Y-42420199D01*
X46901111Y-42420200D01*
X46520022Y-42420200D01*
X46520022Y-40545647D01*
X46972761Y-40545647D01*
X47061603Y-40771349D01*
X47601828Y-40938548D01*
X48164916Y-40886285D01*
X48442397Y-40771349D01*
X48531239Y-40545647D01*
X47752000Y-39766408D01*
X46972761Y-40545647D01*
X46520022Y-40545647D01*
X46520022Y-40204075D01*
X46703353Y-40276239D01*
X47482592Y-39497000D01*
X46703353Y-38717761D01*
X46520022Y-38789925D01*
X46520022Y-37382650D01*
X46527436Y-37390077D01*
G36*
X68040500Y-26079500D02*
X68060500Y-26079500D01*
X68060500Y-26460500D01*
X68040500Y-26460500D01*
X68040500Y-27548106D01*
X68223195Y-27628581D01*
X66523276Y-29328500D01*
X65579724Y-29328500D01*
X67004109Y-27904114D01*
X67004112Y-27904112D01*
X67112030Y-27742600D01*
X67127998Y-27718703D01*
X67165422Y-27530560D01*
X67168043Y-27532730D01*
X67439333Y-27645087D01*
X67659500Y-27548106D01*
X67659500Y-26460500D01*
X67639500Y-26460500D01*
X67639500Y-26079500D01*
X67659500Y-26079500D01*
X67659500Y-26059500D01*
X68040500Y-26059500D01*
X68040500Y-26079500D01*
X68040500Y-26079500D01*
G37*
X68040500Y-26079500D02*
X68060500Y-26079500D01*
X68060500Y-26460500D01*
X68040500Y-26460500D01*
X68040500Y-27548106D01*
X68223195Y-27628581D01*
X66523276Y-29328500D01*
X65579724Y-29328500D01*
X67004109Y-27904114D01*
X67004112Y-27904112D01*
X67112030Y-27742600D01*
X67127998Y-27718703D01*
X67165422Y-27530560D01*
X67168043Y-27532730D01*
X67439333Y-27645087D01*
X67659500Y-27548106D01*
X67659500Y-26460500D01*
X67639500Y-26460500D01*
X67639500Y-26079500D01*
X67659500Y-26079500D01*
X67659500Y-26059500D01*
X68040500Y-26059500D01*
X68040500Y-26079500D01*
G36*
X47720500Y-26079500D02*
X47740500Y-26079500D01*
X47740500Y-26460500D01*
X47720500Y-26460500D01*
X47720500Y-27548106D01*
X47940667Y-27645087D01*
X48211957Y-27532730D01*
X48643272Y-27175637D01*
X48856693Y-26772183D01*
X48861473Y-26796215D01*
X49145034Y-27220593D01*
X49569412Y-27504154D01*
X50070000Y-27603727D01*
X50092531Y-27599245D01*
X49448959Y-28242817D01*
X46300005Y-28242817D01*
X46300000Y-28242816D01*
X46125089Y-28277609D01*
X46081296Y-28286320D01*
X46032830Y-28318704D01*
X45895888Y-28410205D01*
X45561500Y-28744593D01*
X45561500Y-27456772D01*
X45914966Y-27220593D01*
X46198527Y-26796215D01*
X46203307Y-26772183D01*
X46416728Y-27175637D01*
X46848043Y-27532730D01*
X47119333Y-27645087D01*
X47339500Y-27548106D01*
X47339500Y-26460500D01*
X47319500Y-26460500D01*
X47319500Y-26079500D01*
X47339500Y-26079500D01*
X47339500Y-26059500D01*
X47720500Y-26059500D01*
X47720500Y-26079500D01*
X47720500Y-26079500D01*
G37*
X47720500Y-26079500D02*
X47740500Y-26079500D01*
X47740500Y-26460500D01*
X47720500Y-26460500D01*
X47720500Y-27548106D01*
X47940667Y-27645087D01*
X48211957Y-27532730D01*
X48643272Y-27175637D01*
X48856693Y-26772183D01*
X48861473Y-26796215D01*
X49145034Y-27220593D01*
X49569412Y-27504154D01*
X50070000Y-27603727D01*
X50092531Y-27599245D01*
X49448959Y-28242817D01*
X46300005Y-28242817D01*
X46300000Y-28242816D01*
X46125089Y-28277609D01*
X46081296Y-28286320D01*
X46032830Y-28318704D01*
X45895888Y-28410205D01*
X45561500Y-28744593D01*
X45561500Y-27456772D01*
X45914966Y-27220593D01*
X46198527Y-26796215D01*
X46203307Y-26772183D01*
X46416728Y-27175637D01*
X46848043Y-27532730D01*
X47119333Y-27645087D01*
X47339500Y-27548106D01*
X47339500Y-26460500D01*
X47319500Y-26460500D01*
X47319500Y-26079500D01*
X47339500Y-26079500D01*
X47339500Y-26059500D01*
X47720500Y-26059500D01*
X47720500Y-26079500D01*
G36*
X59021473Y-26796215D02*
X59305034Y-27220593D01*
X59729412Y-27504154D01*
X60230000Y-27603727D01*
X60726886Y-27504890D01*
X60603276Y-27628500D01*
X51679723Y-27628500D01*
X51871108Y-27437115D01*
X51871111Y-27437113D01*
X51913696Y-27373380D01*
X52109412Y-27504154D01*
X52610000Y-27603727D01*
X53110588Y-27504154D01*
X53534966Y-27220593D01*
X53818527Y-26796215D01*
X53880000Y-26487169D01*
X53941473Y-26796215D01*
X54225034Y-27220593D01*
X54649412Y-27504154D01*
X55150000Y-27603727D01*
X55650588Y-27504154D01*
X56074966Y-27220593D01*
X56358527Y-26796215D01*
X56420000Y-26487169D01*
X56481473Y-26796215D01*
X56765034Y-27220593D01*
X57189412Y-27504154D01*
X57690000Y-27603727D01*
X58190588Y-27504154D01*
X58614966Y-27220593D01*
X58898527Y-26796215D01*
X58960000Y-26487169D01*
X59021473Y-26796215D01*
X59021473Y-26796215D01*
G37*
X59021473Y-26796215D02*
X59305034Y-27220593D01*
X59729412Y-27504154D01*
X60230000Y-27603727D01*
X60726886Y-27504890D01*
X60603276Y-27628500D01*
X51679723Y-27628500D01*
X51871108Y-27437115D01*
X51871111Y-27437113D01*
X51913696Y-27373380D01*
X52109412Y-27504154D01*
X52610000Y-27603727D01*
X53110588Y-27504154D01*
X53534966Y-27220593D01*
X53818527Y-26796215D01*
X53880000Y-26487169D01*
X53941473Y-26796215D01*
X54225034Y-27220593D01*
X54649412Y-27504154D01*
X55150000Y-27603727D01*
X55650588Y-27504154D01*
X56074966Y-27220593D01*
X56358527Y-26796215D01*
X56420000Y-26487169D01*
X56481473Y-26796215D01*
X56765034Y-27220593D01*
X57189412Y-27504154D01*
X57690000Y-27603727D01*
X58190588Y-27504154D01*
X58614966Y-27220593D01*
X58898527Y-26796215D01*
X58960000Y-26487169D01*
X59021473Y-26796215D01*
G36*
X59116728Y-24635637D02*
X59548043Y-24992730D01*
X59699847Y-25055601D01*
X59305034Y-25319407D01*
X59021473Y-25743785D01*
X58960000Y-26052831D01*
X58898527Y-25743785D01*
X58614966Y-25319407D01*
X58190588Y-25035846D01*
X58010378Y-25000000D01*
X58190588Y-24964154D01*
X58614966Y-24680593D01*
X58898527Y-24256215D01*
X58903307Y-24232183D01*
X59116728Y-24635637D01*
X59116728Y-24635637D01*
G37*
X59116728Y-24635637D02*
X59548043Y-24992730D01*
X59699847Y-25055601D01*
X59305034Y-25319407D01*
X59021473Y-25743785D01*
X58960000Y-26052831D01*
X58898527Y-25743785D01*
X58614966Y-25319407D01*
X58190588Y-25035846D01*
X58010378Y-25000000D01*
X58190588Y-24964154D01*
X58614966Y-24680593D01*
X58898527Y-24256215D01*
X58903307Y-24232183D01*
X59116728Y-24635637D01*
G36*
X71816728Y-24635637D02*
X72248043Y-24992730D01*
X72399847Y-25055601D01*
X72005034Y-25319407D01*
X71721473Y-25743785D01*
X71660000Y-26052831D01*
X71598527Y-25743785D01*
X71314966Y-25319407D01*
X70890588Y-25035846D01*
X70710378Y-25000000D01*
X70890588Y-24964154D01*
X71314966Y-24680593D01*
X71598527Y-24256215D01*
X71603307Y-24232183D01*
X71816728Y-24635637D01*
X71816728Y-24635637D01*
G37*
X71816728Y-24635637D02*
X72248043Y-24992730D01*
X72399847Y-25055601D01*
X72005034Y-25319407D01*
X71721473Y-25743785D01*
X71660000Y-26052831D01*
X71598527Y-25743785D01*
X71314966Y-25319407D01*
X70890588Y-25035846D01*
X70710378Y-25000000D01*
X70890588Y-24964154D01*
X71314966Y-24680593D01*
X71598527Y-24256215D01*
X71603307Y-24232183D01*
X71816728Y-24635637D01*
G36*
X53941473Y-24256215D02*
X54225034Y-24680593D01*
X54649412Y-24964154D01*
X54829622Y-25000000D01*
X54649412Y-25035846D01*
X54225034Y-25319407D01*
X53941473Y-25743785D01*
X53880000Y-26052831D01*
X53818527Y-25743785D01*
X53534966Y-25319407D01*
X53140153Y-25055601D01*
X53291957Y-24992730D01*
X53723272Y-24635637D01*
X53936693Y-24232183D01*
X53941473Y-24256215D01*
X53941473Y-24256215D01*
G37*
X53941473Y-24256215D02*
X54225034Y-24680593D01*
X54649412Y-24964154D01*
X54829622Y-25000000D01*
X54649412Y-25035846D01*
X54225034Y-25319407D01*
X53941473Y-25743785D01*
X53880000Y-26052831D01*
X53818527Y-25743785D01*
X53534966Y-25319407D01*
X53140153Y-25055601D01*
X53291957Y-24992730D01*
X53723272Y-24635637D01*
X53936693Y-24232183D01*
X53941473Y-24256215D01*
G36*
X69181473Y-24256215D02*
X69465034Y-24680593D01*
X69889412Y-24964154D01*
X70069622Y-25000000D01*
X69889412Y-25035846D01*
X69465034Y-25319407D01*
X69181473Y-25743785D01*
X69176693Y-25767817D01*
X68963272Y-25364363D01*
X68531957Y-25007270D01*
X68380153Y-24944399D01*
X68774966Y-24680593D01*
X69058527Y-24256215D01*
X69120000Y-23947169D01*
X69181473Y-24256215D01*
X69181473Y-24256215D01*
G37*
X69181473Y-24256215D02*
X69465034Y-24680593D01*
X69889412Y-24964154D01*
X70069622Y-25000000D01*
X69889412Y-25035846D01*
X69465034Y-25319407D01*
X69181473Y-25743785D01*
X69176693Y-25767817D01*
X68963272Y-25364363D01*
X68531957Y-25007270D01*
X68380153Y-24944399D01*
X68774966Y-24680593D01*
X69058527Y-24256215D01*
X69120000Y-23947169D01*
X69181473Y-24256215D01*
G36*
X82495888Y-21595888D02*
X82495886Y-21595891D01*
X81395888Y-22695888D01*
X81381715Y-22717099D01*
X81050588Y-22495846D01*
X80550000Y-22396273D01*
X80049412Y-22495846D01*
X79625034Y-22779407D01*
X79341473Y-23203785D01*
X79336693Y-23227817D01*
X79123272Y-22824363D01*
X78691957Y-22467270D01*
X78420667Y-22354913D01*
X78200500Y-22451894D01*
X78200500Y-23539500D01*
X78220500Y-23539500D01*
X78220500Y-23920500D01*
X78200500Y-23920500D01*
X78200500Y-23940500D01*
X77819500Y-23940500D01*
X77819500Y-23920500D01*
X77799500Y-23920500D01*
X77799500Y-23539500D01*
X77819500Y-23539500D01*
X77819500Y-22451894D01*
X77599333Y-22354913D01*
X77328043Y-22467270D01*
X76896728Y-22824363D01*
X76683307Y-23227817D01*
X76678527Y-23203785D01*
X76394966Y-22779407D01*
X75970588Y-22495846D01*
X75470000Y-22396273D01*
X75031683Y-22483460D01*
X74067724Y-21519500D01*
X82610211Y-21519500D01*
X82495888Y-21595888D01*
X82495888Y-21595888D01*
G37*
X82495888Y-21595888D02*
X82495886Y-21595891D01*
X81395888Y-22695888D01*
X81381715Y-22717099D01*
X81050588Y-22495846D01*
X80550000Y-22396273D01*
X80049412Y-22495846D01*
X79625034Y-22779407D01*
X79341473Y-23203785D01*
X79336693Y-23227817D01*
X79123272Y-22824363D01*
X78691957Y-22467270D01*
X78420667Y-22354913D01*
X78200500Y-22451894D01*
X78200500Y-23539500D01*
X78220500Y-23539500D01*
X78220500Y-23920500D01*
X78200500Y-23920500D01*
X78200500Y-23940500D01*
X77819500Y-23940500D01*
X77819500Y-23920500D01*
X77799500Y-23920500D01*
X77799500Y-23539500D01*
X77819500Y-23539500D01*
X77819500Y-22451894D01*
X77599333Y-22354913D01*
X77328043Y-22467270D01*
X76896728Y-22824363D01*
X76683307Y-23227817D01*
X76678527Y-23203785D01*
X76394966Y-22779407D01*
X75970588Y-22495846D01*
X75470000Y-22396273D01*
X75031683Y-22483460D01*
X74067724Y-21519500D01*
X82610211Y-21519500D01*
X82495888Y-21595888D01*
G36*
X73303195Y-22371419D02*
X73120500Y-22451894D01*
X73120500Y-23539500D01*
X73140500Y-23539500D01*
X73140500Y-23920500D01*
X73120500Y-23920500D01*
X73120500Y-23940500D01*
X72739500Y-23940500D01*
X72739500Y-23920500D01*
X72719500Y-23920500D01*
X72719500Y-23539500D01*
X72739500Y-23539500D01*
X72739500Y-22451894D01*
X72519333Y-22354913D01*
X72248043Y-22467270D01*
X71816728Y-22824363D01*
X71603307Y-23227817D01*
X71598527Y-23203785D01*
X71314966Y-22779407D01*
X70890588Y-22495846D01*
X70390000Y-22396273D01*
X69889412Y-22495846D01*
X69465034Y-22779407D01*
X69181473Y-23203785D01*
X69120000Y-23512831D01*
X69058527Y-23203785D01*
X68774966Y-22779407D01*
X68350588Y-22495846D01*
X67850000Y-22396273D01*
X67349412Y-22495846D01*
X66925034Y-22779407D01*
X66641473Y-23203785D01*
X66580000Y-23512831D01*
X66518527Y-23203785D01*
X66234966Y-22779407D01*
X65810588Y-22495846D01*
X65310000Y-22396273D01*
X64871683Y-22483459D01*
X64850513Y-22462289D01*
X64850510Y-22462287D01*
X64659724Y-22271500D01*
X73203276Y-22271500D01*
X73303195Y-22371419D01*
X73303195Y-22371419D01*
G37*
X73303195Y-22371419D02*
X73120500Y-22451894D01*
X73120500Y-23539500D01*
X73140500Y-23539500D01*
X73140500Y-23920500D01*
X73120500Y-23920500D01*
X73120500Y-23940500D01*
X72739500Y-23940500D01*
X72739500Y-23920500D01*
X72719500Y-23920500D01*
X72719500Y-23539500D01*
X72739500Y-23539500D01*
X72739500Y-22451894D01*
X72519333Y-22354913D01*
X72248043Y-22467270D01*
X71816728Y-22824363D01*
X71603307Y-23227817D01*
X71598527Y-23203785D01*
X71314966Y-22779407D01*
X70890588Y-22495846D01*
X70390000Y-22396273D01*
X69889412Y-22495846D01*
X69465034Y-22779407D01*
X69181473Y-23203785D01*
X69120000Y-23512831D01*
X69058527Y-23203785D01*
X68774966Y-22779407D01*
X68350588Y-22495846D01*
X67850000Y-22396273D01*
X67349412Y-22495846D01*
X66925034Y-22779407D01*
X66641473Y-23203785D01*
X66580000Y-23512831D01*
X66518527Y-23203785D01*
X66234966Y-22779407D01*
X65810588Y-22495846D01*
X65310000Y-22396273D01*
X64871683Y-22483459D01*
X64850513Y-22462289D01*
X64850510Y-22462287D01*
X64659724Y-22271500D01*
X73203276Y-22271500D01*
X73303195Y-22371419D01*
G36*
X60420500Y-23539500D02*
X60440500Y-23539500D01*
X60440500Y-23920500D01*
X60420500Y-23920500D01*
X60420500Y-23940500D01*
X60039500Y-23940500D01*
X60039500Y-23920500D01*
X60019500Y-23920500D01*
X60019500Y-23539500D01*
X60039500Y-23539500D01*
X60039500Y-23519500D01*
X60420500Y-23519500D01*
X60420500Y-23539500D01*
X60420500Y-23539500D01*
G37*
X60420500Y-23539500D02*
X60440500Y-23539500D01*
X60440500Y-23920500D01*
X60420500Y-23920500D01*
X60420500Y-23940500D01*
X60039500Y-23940500D01*
X60039500Y-23920500D01*
X60019500Y-23920500D01*
X60019500Y-23539500D01*
X60039500Y-23539500D01*
X60039500Y-23519500D01*
X60420500Y-23519500D01*
X60420500Y-23539500D01*
G36*
X52800500Y-23539500D02*
X52820500Y-23539500D01*
X52820500Y-23920500D01*
X52800500Y-23920500D01*
X52800500Y-23940500D01*
X52419500Y-23940500D01*
X52419500Y-23920500D01*
X52399500Y-23920500D01*
X52399500Y-23539500D01*
X52419500Y-23539500D01*
X52419500Y-23519500D01*
X52800500Y-23519500D01*
X52800500Y-23539500D01*
X52800500Y-23539500D01*
G37*
X52800500Y-23539500D02*
X52820500Y-23539500D01*
X52820500Y-23920500D01*
X52800500Y-23920500D01*
X52800500Y-23940500D01*
X52419500Y-23940500D01*
X52419500Y-23920500D01*
X52399500Y-23920500D01*
X52399500Y-23539500D01*
X52419500Y-23539500D01*
X52419500Y-23519500D01*
X52800500Y-23519500D01*
X52800500Y-23539500D01*
G36*
X51062887Y-22528889D02*
X50939002Y-22714297D01*
X50939002Y-22714298D01*
X50934136Y-22738761D01*
X50570588Y-22495846D01*
X50070000Y-22396273D01*
X49569412Y-22495846D01*
X49145034Y-22779407D01*
X48861473Y-23203785D01*
X48800000Y-23512831D01*
X48738527Y-23203785D01*
X48454966Y-22779407D01*
X48030588Y-22495846D01*
X47530000Y-22396273D01*
X47029412Y-22495846D01*
X46605034Y-22779407D01*
X46321473Y-23203785D01*
X46260000Y-23512831D01*
X46198527Y-23203785D01*
X45914966Y-22779407D01*
X45490588Y-22495846D01*
X44990000Y-22396273D01*
X44489412Y-22495846D01*
X44065034Y-22779407D01*
X43781473Y-23203785D01*
X43776693Y-23227817D01*
X43563272Y-22824363D01*
X43131957Y-22467270D01*
X42860667Y-22354913D01*
X42640500Y-22451894D01*
X42640500Y-23539500D01*
X42660500Y-23539500D01*
X42660500Y-23920500D01*
X42640500Y-23920500D01*
X42640500Y-23940500D01*
X42259500Y-23940500D01*
X42259500Y-23920500D01*
X42239500Y-23920500D01*
X42239500Y-23539500D01*
X42259500Y-23539500D01*
X42259500Y-22451894D01*
X42039333Y-22354913D01*
X41768043Y-22467270D01*
X41336728Y-22824363D01*
X41123307Y-23227817D01*
X41118527Y-23203785D01*
X40834966Y-22779407D01*
X40410588Y-22495846D01*
X39910000Y-22396273D01*
X39409412Y-22495846D01*
X38985034Y-22779407D01*
X38701473Y-23203785D01*
X38640000Y-23512831D01*
X38578527Y-23203785D01*
X38294966Y-22779407D01*
X37870588Y-22495846D01*
X37370000Y-22396273D01*
X37047876Y-22460347D01*
X37236723Y-22271500D01*
X51320277Y-22271500D01*
X51062887Y-22528889D01*
X51062887Y-22528889D01*
G37*
X51062887Y-22528889D02*
X50939002Y-22714297D01*
X50939002Y-22714298D01*
X50934136Y-22738761D01*
X50570588Y-22495846D01*
X50070000Y-22396273D01*
X49569412Y-22495846D01*
X49145034Y-22779407D01*
X48861473Y-23203785D01*
X48800000Y-23512831D01*
X48738527Y-23203785D01*
X48454966Y-22779407D01*
X48030588Y-22495846D01*
X47530000Y-22396273D01*
X47029412Y-22495846D01*
X46605034Y-22779407D01*
X46321473Y-23203785D01*
X46260000Y-23512831D01*
X46198527Y-23203785D01*
X45914966Y-22779407D01*
X45490588Y-22495846D01*
X44990000Y-22396273D01*
X44489412Y-22495846D01*
X44065034Y-22779407D01*
X43781473Y-23203785D01*
X43776693Y-23227817D01*
X43563272Y-22824363D01*
X43131957Y-22467270D01*
X42860667Y-22354913D01*
X42640500Y-22451894D01*
X42640500Y-23539500D01*
X42660500Y-23539500D01*
X42660500Y-23920500D01*
X42640500Y-23920500D01*
X42640500Y-23940500D01*
X42259500Y-23940500D01*
X42259500Y-23920500D01*
X42239500Y-23920500D01*
X42239500Y-23539500D01*
X42259500Y-23539500D01*
X42259500Y-22451894D01*
X42039333Y-22354913D01*
X41768043Y-22467270D01*
X41336728Y-22824363D01*
X41123307Y-23227817D01*
X41118527Y-23203785D01*
X40834966Y-22779407D01*
X40410588Y-22495846D01*
X39910000Y-22396273D01*
X39409412Y-22495846D01*
X38985034Y-22779407D01*
X38701473Y-23203785D01*
X38640000Y-23512831D01*
X38578527Y-23203785D01*
X38294966Y-22779407D01*
X37870588Y-22495846D01*
X37370000Y-22396273D01*
X37047876Y-22460347D01*
X37236723Y-22271500D01*
X51320277Y-22271500D01*
X51062887Y-22528889D01*
M02*
