G04 #@! TF.FileFunction,Soldermask,Top*
%FSLAX46Y46*%
G04 Gerber Fmt 4.6, Leading zero omitted, Abs format (unit mm)*
G04 Created by KiCad (PCBNEW (2015-06-25 BZR 5821)-product) date Thu 25 Jun 2015 01:48:58 PM EDT*
%MOMM*%
G01*
G04 APERTURE LIST*
%ADD10C,0.200000*%
%ADD11R,1.500000X1.300000*%
%ADD12R,10.200000X3.500000*%
%ADD13C,1.700000*%
%ADD14R,1.700000X1.700000*%
%ADD15R,1.300000X1.300000*%
%ADD16C,1.300000*%
%ADD17R,1.500000X1.250000*%
%ADD18R,1.250000X1.500000*%
%ADD19R,1.198880X1.198880*%
%ADD20R,3.500120X2.301240*%
%ADD21O,3.000000X1.600000*%
%ADD22R,1.727200X1.727200*%
%ADD23O,1.727200X1.727200*%
%ADD24R,2.032000X2.032000*%
%ADD25O,2.032000X2.032000*%
%ADD26R,1.060000X0.650000*%
%ADD27R,1.300000X1.500000*%
%ADD28R,2.286000X1.143000*%
%ADD29R,10.410000X10.800000*%
%ADD30R,0.600000X1.500000*%
%ADD31R,0.600000X1.550000*%
%ADD32O,1.600000X3.000000*%
G04 APERTURE END LIST*
D10*
D11*
X62750000Y-57900000D03*
X60050000Y-57900000D03*
D12*
X79629000Y-42188000D03*
X79629000Y-32488000D03*
D13*
X47752000Y-39497000D03*
D14*
X47752000Y-34497000D03*
D15*
X63119000Y-48387000D03*
D16*
X58119000Y-48387000D03*
D17*
X83332000Y-53848000D03*
X85832000Y-53848000D03*
D18*
X83312000Y-58400000D03*
X83312000Y-55900000D03*
D19*
X36630020Y-42758000D03*
X34531980Y-42758000D03*
X36630020Y-45425000D03*
X34531980Y-45425000D03*
X36630020Y-48092000D03*
X34531980Y-48092000D03*
X36630020Y-50759000D03*
X34531980Y-50759000D03*
D20*
X77309980Y-51562000D03*
X82710020Y-51562000D03*
D21*
X90200000Y-31200000D03*
X90200000Y-34700000D03*
D22*
X37370000Y-26270000D03*
D23*
X37370000Y-23730000D03*
X39910000Y-26270000D03*
X39910000Y-23730000D03*
X42450000Y-26270000D03*
X42450000Y-23730000D03*
X44990000Y-26270000D03*
X44990000Y-23730000D03*
X47530000Y-26270000D03*
X47530000Y-23730000D03*
X50070000Y-26270000D03*
X50070000Y-23730000D03*
X52610000Y-26270000D03*
X52610000Y-23730000D03*
X55150000Y-26270000D03*
X55150000Y-23730000D03*
X57690000Y-26270000D03*
X57690000Y-23730000D03*
X60230000Y-26270000D03*
X60230000Y-23730000D03*
X62770000Y-26270000D03*
X62770000Y-23730000D03*
X65310000Y-26270000D03*
X65310000Y-23730000D03*
X67850000Y-26270000D03*
X67850000Y-23730000D03*
X70390000Y-26270000D03*
X70390000Y-23730000D03*
X72930000Y-26270000D03*
X72930000Y-23730000D03*
X75470000Y-26270000D03*
X75470000Y-23730000D03*
X78010000Y-26270000D03*
X78010000Y-23730000D03*
X80550000Y-26270000D03*
X80550000Y-23730000D03*
X83090000Y-26270000D03*
X83090000Y-23730000D03*
X85630000Y-26270000D03*
X85630000Y-23730000D03*
D24*
X33782000Y-61087000D03*
D25*
X31242000Y-61087000D03*
D26*
X37000000Y-30546000D03*
X37000000Y-31496000D03*
X37000000Y-32446000D03*
X39200000Y-32446000D03*
X39200000Y-30546000D03*
X39200000Y-31496000D03*
D27*
X34544000Y-30908000D03*
X34544000Y-33608000D03*
D11*
X39196000Y-34544000D03*
X36496000Y-34544000D03*
D27*
X39370000Y-68152000D03*
X39370000Y-65452000D03*
X46482000Y-68152000D03*
X46482000Y-65452000D03*
X53086000Y-67898000D03*
X53086000Y-65198000D03*
X59690000Y-67898000D03*
X59690000Y-65198000D03*
X41783000Y-65452000D03*
X41783000Y-68152000D03*
X48895000Y-65452000D03*
X48895000Y-68152000D03*
X55372000Y-65198000D03*
X55372000Y-67898000D03*
X61976000Y-65198000D03*
X61976000Y-67898000D03*
D11*
X60050000Y-55000000D03*
X62750000Y-55000000D03*
D24*
X50927000Y-45847000D03*
D25*
X53467000Y-45847000D03*
D24*
X37211000Y-38227000D03*
D25*
X34671000Y-38227000D03*
D24*
X31496000Y-32385000D03*
D25*
X31496000Y-34925000D03*
D24*
X33782000Y-64897000D03*
D25*
X31242000Y-64897000D03*
D28*
X68904000Y-38529260D03*
D29*
X60579000Y-36830000D03*
D28*
X68904000Y-35130740D03*
X68904000Y-36830000D03*
X68904000Y-40231060D03*
X68904000Y-33428940D03*
D26*
X78656000Y-56454000D03*
X78656000Y-57404000D03*
X78656000Y-58354000D03*
X80856000Y-58354000D03*
X80856000Y-56454000D03*
D30*
X46609000Y-62136000D03*
X47879000Y-62136000D03*
X49149000Y-62136000D03*
X50419000Y-62136000D03*
X51689000Y-62136000D03*
X52959000Y-62136000D03*
X54229000Y-62136000D03*
X55499000Y-62136000D03*
X55499000Y-56736000D03*
X54229000Y-56736000D03*
X52959000Y-56736000D03*
X51689000Y-56736000D03*
X50419000Y-56736000D03*
X49149000Y-56736000D03*
X47879000Y-56736000D03*
X46609000Y-56736000D03*
D31*
X37846000Y-61374000D03*
X39116000Y-61374000D03*
X40386000Y-61374000D03*
X41656000Y-61374000D03*
X41656000Y-55974000D03*
X40386000Y-55974000D03*
X39116000Y-55974000D03*
X37846000Y-55974000D03*
D30*
X76327000Y-58977000D03*
X75057000Y-58977000D03*
X73787000Y-58977000D03*
X72517000Y-58977000D03*
X71247000Y-58977000D03*
X69977000Y-58977000D03*
X68707000Y-58977000D03*
X67437000Y-58977000D03*
X67437000Y-68277000D03*
X68707000Y-68277000D03*
X69977000Y-68277000D03*
X71247000Y-68277000D03*
X72517000Y-68277000D03*
X73787000Y-68277000D03*
X75057000Y-68277000D03*
X76327000Y-68277000D03*
D21*
X90170000Y-57053000D03*
X90170000Y-60553000D03*
X90170000Y-64053000D03*
X90170000Y-67553000D03*
X90170000Y-53553000D03*
X90170000Y-50053000D03*
X90170000Y-46553000D03*
X90170000Y-43053000D03*
D32*
X53116000Y-73152000D03*
X56616000Y-73152000D03*
X60116000Y-73152000D03*
X63616000Y-73152000D03*
X49616000Y-73152000D03*
X46116000Y-73152000D03*
X42616000Y-73152000D03*
X39116000Y-73152000D03*
X71359000Y-73152000D03*
X74859000Y-73152000D03*
X78359000Y-73152000D03*
X81859000Y-73152000D03*
M02*
