G04 #@! TF.FileFunction,Legend,Top*
%FSLAX46Y46*%
G04 Gerber Fmt 4.6, Leading zero omitted, Abs format (unit mm)*
G04 Created by KiCad (PCBNEW (2015-06-25 BZR 5821)-product) date Thu 25 Jun 2015 01:48:58 PM EDT*
%MOMM*%
G01*
G04 APERTURE LIST*
%ADD10C,0.200000*%
%ADD11C,0.150000*%
G04 APERTURE END LIST*
D10*
D11*
X60800000Y-57025000D02*
X62000000Y-57025000D01*
X62000000Y-58775000D02*
X60800000Y-58775000D01*
X84630260Y-37338000D02*
G75*
G03X84630260Y-37338000I-5001260J0D01*
G01*
X79629000Y-43337480D02*
X74627740Y-43337480D01*
X74627740Y-43337480D02*
X73629520Y-42339260D01*
X73629520Y-42339260D02*
X73629520Y-32336740D01*
X73629520Y-32336740D02*
X74627740Y-31338520D01*
X74627740Y-31338520D02*
X84630260Y-31338520D01*
X84630260Y-31338520D02*
X85628480Y-32336740D01*
X85628480Y-32336740D02*
X85628480Y-42339260D01*
X85628480Y-42339260D02*
X84630260Y-43337480D01*
X84630260Y-43337480D02*
X79629000Y-43337480D01*
X54002000Y-37072000D02*
X41502000Y-37072000D01*
X53998000Y-37212000D02*
X41506000Y-37212000D01*
X53992000Y-37352000D02*
X41512000Y-37352000D01*
X53982000Y-37492000D02*
X41522000Y-37492000D01*
X53970000Y-37632000D02*
X41534000Y-37632000D01*
X53954000Y-37772000D02*
X41550000Y-37772000D01*
X53935000Y-37912000D02*
X41569000Y-37912000D01*
X53912000Y-38052000D02*
X41592000Y-38052000D01*
X53887000Y-38192000D02*
X41617000Y-38192000D01*
X53858000Y-38332000D02*
X41646000Y-38332000D01*
X53825000Y-38472000D02*
X48273000Y-38472000D01*
X47231000Y-38472000D02*
X41679000Y-38472000D01*
X53790000Y-38612000D02*
X48486000Y-38612000D01*
X47018000Y-38612000D02*
X41714000Y-38612000D01*
X53751000Y-38752000D02*
X48628000Y-38752000D01*
X46876000Y-38752000D02*
X41753000Y-38752000D01*
X53708000Y-38892000D02*
X48730000Y-38892000D01*
X46774000Y-38892000D02*
X41796000Y-38892000D01*
X53661000Y-39032000D02*
X48804000Y-39032000D01*
X46700000Y-39032000D02*
X41843000Y-39032000D01*
X53611000Y-39172000D02*
X48855000Y-39172000D01*
X46649000Y-39172000D02*
X41893000Y-39172000D01*
X53557000Y-39312000D02*
X48887000Y-39312000D01*
X46617000Y-39312000D02*
X41947000Y-39312000D01*
X53500000Y-39452000D02*
X48901000Y-39452000D01*
X46603000Y-39452000D02*
X42004000Y-39452000D01*
X53438000Y-39592000D02*
X48898000Y-39592000D01*
X46606000Y-39592000D02*
X42066000Y-39592000D01*
X53372000Y-39732000D02*
X48878000Y-39732000D01*
X46626000Y-39732000D02*
X42132000Y-39732000D01*
X53301000Y-39872000D02*
X48839000Y-39872000D01*
X46665000Y-39872000D02*
X42203000Y-39872000D01*
X53227000Y-40012000D02*
X48780000Y-40012000D01*
X46724000Y-40012000D02*
X42277000Y-40012000D01*
X53147000Y-40152000D02*
X48697000Y-40152000D01*
X46807000Y-40152000D02*
X42357000Y-40152000D01*
X53063000Y-40292000D02*
X48583000Y-40292000D01*
X46921000Y-40292000D02*
X42441000Y-40292000D01*
X52973000Y-40432000D02*
X48422000Y-40432000D01*
X47082000Y-40432000D02*
X42531000Y-40432000D01*
X52879000Y-40572000D02*
X48161000Y-40572000D01*
X47343000Y-40572000D02*
X42625000Y-40572000D01*
X52778000Y-40712000D02*
X42726000Y-40712000D01*
X52671000Y-40852000D02*
X42833000Y-40852000D01*
X52559000Y-40992000D02*
X42945000Y-40992000D01*
X52439000Y-41132000D02*
X43065000Y-41132000D01*
X52311000Y-41272000D02*
X43193000Y-41272000D01*
X52176000Y-41412000D02*
X43328000Y-41412000D01*
X52032000Y-41552000D02*
X43472000Y-41552000D01*
X51877000Y-41692000D02*
X43627000Y-41692000D01*
X51712000Y-41832000D02*
X43792000Y-41832000D01*
X51535000Y-41972000D02*
X43969000Y-41972000D01*
X51344000Y-42112000D02*
X44160000Y-42112000D01*
X51135000Y-42252000D02*
X44369000Y-42252000D01*
X50907000Y-42392000D02*
X44597000Y-42392000D01*
X50655000Y-42532000D02*
X44849000Y-42532000D01*
X50371000Y-42672000D02*
X45133000Y-42672000D01*
X50043000Y-42812000D02*
X45461000Y-42812000D01*
X49649000Y-42952000D02*
X45855000Y-42952000D01*
X49135000Y-43092000D02*
X46369000Y-43092000D01*
X48185000Y-43232000D02*
X47319000Y-43232000D01*
X48902000Y-39497000D02*
G75*
G03X48902000Y-39497000I-1150000J0D01*
G01*
X54039500Y-36997000D02*
G75*
G03X54039500Y-36997000I-6287500J0D01*
G01*
X60544000Y-53386000D02*
X60544000Y-43388000D01*
X60404000Y-53382000D02*
X60404000Y-43392000D01*
X60264000Y-53374000D02*
X60264000Y-43400000D01*
X60124000Y-53362000D02*
X60124000Y-43412000D01*
X59984000Y-53347000D02*
X59984000Y-43427000D01*
X59844000Y-53327000D02*
X59844000Y-43447000D01*
X59704000Y-53303000D02*
X59704000Y-43471000D01*
X59564000Y-53274000D02*
X59564000Y-43500000D01*
X59424000Y-53242000D02*
X59424000Y-43532000D01*
X59284000Y-53205000D02*
X59284000Y-43569000D01*
X59144000Y-53164000D02*
X59144000Y-43610000D01*
X59004000Y-53119000D02*
X59004000Y-48853000D01*
X59004000Y-47921000D02*
X59004000Y-43655000D01*
X58864000Y-53069000D02*
X58864000Y-49054000D01*
X58864000Y-47720000D02*
X58864000Y-43705000D01*
X58724000Y-53014000D02*
X58724000Y-49183000D01*
X58724000Y-47591000D02*
X58724000Y-43760000D01*
X58584000Y-52954000D02*
X58584000Y-49272000D01*
X58584000Y-47502000D02*
X58584000Y-43820000D01*
X58444000Y-52889000D02*
X58444000Y-49333000D01*
X58444000Y-47441000D02*
X58444000Y-43885000D01*
X58304000Y-52819000D02*
X58304000Y-49370000D01*
X58304000Y-47404000D02*
X58304000Y-43955000D01*
X58164000Y-52743000D02*
X58164000Y-49386000D01*
X58164000Y-47388000D02*
X58164000Y-44031000D01*
X58024000Y-52661000D02*
X58024000Y-49382000D01*
X58024000Y-47392000D02*
X58024000Y-44113000D01*
X57884000Y-52573000D02*
X57884000Y-49359000D01*
X57884000Y-47415000D02*
X57884000Y-44201000D01*
X57744000Y-52478000D02*
X57744000Y-49314000D01*
X57744000Y-47460000D02*
X57744000Y-44296000D01*
X57604000Y-52376000D02*
X57604000Y-49244000D01*
X57604000Y-47530000D02*
X57604000Y-44398000D01*
X57464000Y-52266000D02*
X57464000Y-49143000D01*
X57464000Y-47631000D02*
X57464000Y-44508000D01*
X57324000Y-52148000D02*
X57324000Y-48994000D01*
X57324000Y-47780000D02*
X57324000Y-44626000D01*
X57184000Y-52020000D02*
X57184000Y-48742000D01*
X57184000Y-48032000D02*
X57184000Y-44754000D01*
X57044000Y-51883000D02*
X57044000Y-44891000D01*
X56904000Y-51733000D02*
X56904000Y-45041000D01*
X56764000Y-51571000D02*
X56764000Y-45203000D01*
X56624000Y-51394000D02*
X56624000Y-45380000D01*
X56484000Y-51198000D02*
X56484000Y-45576000D01*
X56344000Y-50980000D02*
X56344000Y-45794000D01*
X56204000Y-50734000D02*
X56204000Y-46040000D01*
X56064000Y-50449000D02*
X56064000Y-46325000D01*
X55924000Y-50107000D02*
X55924000Y-46667000D01*
X55784000Y-49661000D02*
X55784000Y-47113000D01*
X55644000Y-48886000D02*
X55644000Y-47888000D01*
X59119000Y-48387000D02*
G75*
G03X59119000Y-48387000I-1000000J0D01*
G01*
X65656500Y-48387000D02*
G75*
G03X65656500Y-48387000I-5037500J0D01*
G01*
X85082000Y-52998000D02*
X84082000Y-52998000D01*
X84082000Y-54698000D02*
X85082000Y-54698000D01*
X82462000Y-56650000D02*
X82462000Y-57650000D01*
X84162000Y-57650000D02*
X84162000Y-56650000D01*
X35083160Y-43057720D02*
X35083160Y-43382840D01*
X35083160Y-43382840D02*
X34582780Y-43382840D01*
X34582780Y-43057720D02*
X34582780Y-43382840D01*
X35083160Y-43057720D02*
X34582780Y-43057720D01*
X35083160Y-42435420D02*
X35083160Y-42585280D01*
X35083160Y-42585280D02*
X34831700Y-42585280D01*
X34831700Y-42435420D02*
X34831700Y-42585280D01*
X35083160Y-42435420D02*
X34831700Y-42435420D01*
X35083160Y-42930720D02*
X35083160Y-43080580D01*
X35083160Y-43080580D02*
X34831700Y-43080580D01*
X34831700Y-42930720D02*
X34831700Y-43080580D01*
X35083160Y-42930720D02*
X34831700Y-42930720D01*
X35083160Y-42559880D02*
X35083160Y-42956120D01*
X35083160Y-42956120D02*
X34907900Y-42956120D01*
X34907900Y-42559880D02*
X34907900Y-42956120D01*
X35083160Y-42559880D02*
X34907900Y-42559880D01*
X36579220Y-43057720D02*
X36579220Y-43382840D01*
X36579220Y-43382840D02*
X36078840Y-43382840D01*
X36078840Y-43057720D02*
X36078840Y-43382840D01*
X36579220Y-43057720D02*
X36078840Y-43057720D01*
X36579220Y-42133160D02*
X36579220Y-42458280D01*
X36579220Y-42458280D02*
X36078840Y-42458280D01*
X36078840Y-42133160D02*
X36078840Y-42458280D01*
X36579220Y-42133160D02*
X36078840Y-42133160D01*
X36330300Y-42930720D02*
X36330300Y-43080580D01*
X36330300Y-43080580D02*
X36078840Y-43080580D01*
X36078840Y-42930720D02*
X36078840Y-43080580D01*
X36330300Y-42930720D02*
X36078840Y-42930720D01*
X36330300Y-42435420D02*
X36330300Y-42585280D01*
X36330300Y-42585280D02*
X36078840Y-42585280D01*
X36078840Y-42435420D02*
X36078840Y-42585280D01*
X36330300Y-42435420D02*
X36078840Y-42435420D01*
X36254100Y-42559880D02*
X36254100Y-42956120D01*
X36254100Y-42956120D02*
X36078840Y-42956120D01*
X36078840Y-42559880D02*
X36078840Y-42956120D01*
X36254100Y-42559880D02*
X36078840Y-42559880D01*
X35581000Y-42658940D02*
X35581000Y-42857060D01*
X35581000Y-42857060D02*
X35382880Y-42857060D01*
X35382880Y-42658940D02*
X35382880Y-42857060D01*
X35581000Y-42658940D02*
X35382880Y-42658940D01*
X35083160Y-42158560D02*
X35083160Y-42458280D01*
X35083160Y-42458280D02*
X34783440Y-42458280D01*
X34783440Y-42158560D02*
X34783440Y-42458280D01*
X35083160Y-42158560D02*
X34783440Y-42158560D01*
X34656440Y-42133160D02*
X34656440Y-42359220D01*
X34656440Y-42359220D02*
X34582780Y-42359220D01*
X34582780Y-42133160D02*
X34582780Y-42359220D01*
X34656440Y-42133160D02*
X34582780Y-42133160D01*
X35057760Y-43332040D02*
X36104240Y-43332040D01*
X36078840Y-42183960D02*
X34656440Y-42183960D01*
X34804482Y-42308420D02*
G75*
G03X34804482Y-42308420I-71842J0D01*
G01*
X34582780Y-42410020D02*
G75*
G02X34582780Y-43105980I0J-347980D01*
G01*
X36579220Y-43105980D02*
G75*
G02X36579220Y-42410020I0J347980D01*
G01*
X35083160Y-45724720D02*
X35083160Y-46049840D01*
X35083160Y-46049840D02*
X34582780Y-46049840D01*
X34582780Y-45724720D02*
X34582780Y-46049840D01*
X35083160Y-45724720D02*
X34582780Y-45724720D01*
X35083160Y-45102420D02*
X35083160Y-45252280D01*
X35083160Y-45252280D02*
X34831700Y-45252280D01*
X34831700Y-45102420D02*
X34831700Y-45252280D01*
X35083160Y-45102420D02*
X34831700Y-45102420D01*
X35083160Y-45597720D02*
X35083160Y-45747580D01*
X35083160Y-45747580D02*
X34831700Y-45747580D01*
X34831700Y-45597720D02*
X34831700Y-45747580D01*
X35083160Y-45597720D02*
X34831700Y-45597720D01*
X35083160Y-45226880D02*
X35083160Y-45623120D01*
X35083160Y-45623120D02*
X34907900Y-45623120D01*
X34907900Y-45226880D02*
X34907900Y-45623120D01*
X35083160Y-45226880D02*
X34907900Y-45226880D01*
X36579220Y-45724720D02*
X36579220Y-46049840D01*
X36579220Y-46049840D02*
X36078840Y-46049840D01*
X36078840Y-45724720D02*
X36078840Y-46049840D01*
X36579220Y-45724720D02*
X36078840Y-45724720D01*
X36579220Y-44800160D02*
X36579220Y-45125280D01*
X36579220Y-45125280D02*
X36078840Y-45125280D01*
X36078840Y-44800160D02*
X36078840Y-45125280D01*
X36579220Y-44800160D02*
X36078840Y-44800160D01*
X36330300Y-45597720D02*
X36330300Y-45747580D01*
X36330300Y-45747580D02*
X36078840Y-45747580D01*
X36078840Y-45597720D02*
X36078840Y-45747580D01*
X36330300Y-45597720D02*
X36078840Y-45597720D01*
X36330300Y-45102420D02*
X36330300Y-45252280D01*
X36330300Y-45252280D02*
X36078840Y-45252280D01*
X36078840Y-45102420D02*
X36078840Y-45252280D01*
X36330300Y-45102420D02*
X36078840Y-45102420D01*
X36254100Y-45226880D02*
X36254100Y-45623120D01*
X36254100Y-45623120D02*
X36078840Y-45623120D01*
X36078840Y-45226880D02*
X36078840Y-45623120D01*
X36254100Y-45226880D02*
X36078840Y-45226880D01*
X35581000Y-45325940D02*
X35581000Y-45524060D01*
X35581000Y-45524060D02*
X35382880Y-45524060D01*
X35382880Y-45325940D02*
X35382880Y-45524060D01*
X35581000Y-45325940D02*
X35382880Y-45325940D01*
X35083160Y-44825560D02*
X35083160Y-45125280D01*
X35083160Y-45125280D02*
X34783440Y-45125280D01*
X34783440Y-44825560D02*
X34783440Y-45125280D01*
X35083160Y-44825560D02*
X34783440Y-44825560D01*
X34656440Y-44800160D02*
X34656440Y-45026220D01*
X34656440Y-45026220D02*
X34582780Y-45026220D01*
X34582780Y-44800160D02*
X34582780Y-45026220D01*
X34656440Y-44800160D02*
X34582780Y-44800160D01*
X35057760Y-45999040D02*
X36104240Y-45999040D01*
X36078840Y-44850960D02*
X34656440Y-44850960D01*
X34804482Y-44975420D02*
G75*
G03X34804482Y-44975420I-71842J0D01*
G01*
X34582780Y-45077020D02*
G75*
G02X34582780Y-45772980I0J-347980D01*
G01*
X36579220Y-45772980D02*
G75*
G02X36579220Y-45077020I0J347980D01*
G01*
X35083160Y-48391720D02*
X35083160Y-48716840D01*
X35083160Y-48716840D02*
X34582780Y-48716840D01*
X34582780Y-48391720D02*
X34582780Y-48716840D01*
X35083160Y-48391720D02*
X34582780Y-48391720D01*
X35083160Y-47769420D02*
X35083160Y-47919280D01*
X35083160Y-47919280D02*
X34831700Y-47919280D01*
X34831700Y-47769420D02*
X34831700Y-47919280D01*
X35083160Y-47769420D02*
X34831700Y-47769420D01*
X35083160Y-48264720D02*
X35083160Y-48414580D01*
X35083160Y-48414580D02*
X34831700Y-48414580D01*
X34831700Y-48264720D02*
X34831700Y-48414580D01*
X35083160Y-48264720D02*
X34831700Y-48264720D01*
X35083160Y-47893880D02*
X35083160Y-48290120D01*
X35083160Y-48290120D02*
X34907900Y-48290120D01*
X34907900Y-47893880D02*
X34907900Y-48290120D01*
X35083160Y-47893880D02*
X34907900Y-47893880D01*
X36579220Y-48391720D02*
X36579220Y-48716840D01*
X36579220Y-48716840D02*
X36078840Y-48716840D01*
X36078840Y-48391720D02*
X36078840Y-48716840D01*
X36579220Y-48391720D02*
X36078840Y-48391720D01*
X36579220Y-47467160D02*
X36579220Y-47792280D01*
X36579220Y-47792280D02*
X36078840Y-47792280D01*
X36078840Y-47467160D02*
X36078840Y-47792280D01*
X36579220Y-47467160D02*
X36078840Y-47467160D01*
X36330300Y-48264720D02*
X36330300Y-48414580D01*
X36330300Y-48414580D02*
X36078840Y-48414580D01*
X36078840Y-48264720D02*
X36078840Y-48414580D01*
X36330300Y-48264720D02*
X36078840Y-48264720D01*
X36330300Y-47769420D02*
X36330300Y-47919280D01*
X36330300Y-47919280D02*
X36078840Y-47919280D01*
X36078840Y-47769420D02*
X36078840Y-47919280D01*
X36330300Y-47769420D02*
X36078840Y-47769420D01*
X36254100Y-47893880D02*
X36254100Y-48290120D01*
X36254100Y-48290120D02*
X36078840Y-48290120D01*
X36078840Y-47893880D02*
X36078840Y-48290120D01*
X36254100Y-47893880D02*
X36078840Y-47893880D01*
X35581000Y-47992940D02*
X35581000Y-48191060D01*
X35581000Y-48191060D02*
X35382880Y-48191060D01*
X35382880Y-47992940D02*
X35382880Y-48191060D01*
X35581000Y-47992940D02*
X35382880Y-47992940D01*
X35083160Y-47492560D02*
X35083160Y-47792280D01*
X35083160Y-47792280D02*
X34783440Y-47792280D01*
X34783440Y-47492560D02*
X34783440Y-47792280D01*
X35083160Y-47492560D02*
X34783440Y-47492560D01*
X34656440Y-47467160D02*
X34656440Y-47693220D01*
X34656440Y-47693220D02*
X34582780Y-47693220D01*
X34582780Y-47467160D02*
X34582780Y-47693220D01*
X34656440Y-47467160D02*
X34582780Y-47467160D01*
X35057760Y-48666040D02*
X36104240Y-48666040D01*
X36078840Y-47517960D02*
X34656440Y-47517960D01*
X34804482Y-47642420D02*
G75*
G03X34804482Y-47642420I-71842J0D01*
G01*
X34582780Y-47744020D02*
G75*
G02X34582780Y-48439980I0J-347980D01*
G01*
X36579220Y-48439980D02*
G75*
G02X36579220Y-47744020I0J347980D01*
G01*
X35083160Y-51058720D02*
X35083160Y-51383840D01*
X35083160Y-51383840D02*
X34582780Y-51383840D01*
X34582780Y-51058720D02*
X34582780Y-51383840D01*
X35083160Y-51058720D02*
X34582780Y-51058720D01*
X35083160Y-50436420D02*
X35083160Y-50586280D01*
X35083160Y-50586280D02*
X34831700Y-50586280D01*
X34831700Y-50436420D02*
X34831700Y-50586280D01*
X35083160Y-50436420D02*
X34831700Y-50436420D01*
X35083160Y-50931720D02*
X35083160Y-51081580D01*
X35083160Y-51081580D02*
X34831700Y-51081580D01*
X34831700Y-50931720D02*
X34831700Y-51081580D01*
X35083160Y-50931720D02*
X34831700Y-50931720D01*
X35083160Y-50560880D02*
X35083160Y-50957120D01*
X35083160Y-50957120D02*
X34907900Y-50957120D01*
X34907900Y-50560880D02*
X34907900Y-50957120D01*
X35083160Y-50560880D02*
X34907900Y-50560880D01*
X36579220Y-51058720D02*
X36579220Y-51383840D01*
X36579220Y-51383840D02*
X36078840Y-51383840D01*
X36078840Y-51058720D02*
X36078840Y-51383840D01*
X36579220Y-51058720D02*
X36078840Y-51058720D01*
X36579220Y-50134160D02*
X36579220Y-50459280D01*
X36579220Y-50459280D02*
X36078840Y-50459280D01*
X36078840Y-50134160D02*
X36078840Y-50459280D01*
X36579220Y-50134160D02*
X36078840Y-50134160D01*
X36330300Y-50931720D02*
X36330300Y-51081580D01*
X36330300Y-51081580D02*
X36078840Y-51081580D01*
X36078840Y-50931720D02*
X36078840Y-51081580D01*
X36330300Y-50931720D02*
X36078840Y-50931720D01*
X36330300Y-50436420D02*
X36330300Y-50586280D01*
X36330300Y-50586280D02*
X36078840Y-50586280D01*
X36078840Y-50436420D02*
X36078840Y-50586280D01*
X36330300Y-50436420D02*
X36078840Y-50436420D01*
X36254100Y-50560880D02*
X36254100Y-50957120D01*
X36254100Y-50957120D02*
X36078840Y-50957120D01*
X36078840Y-50560880D02*
X36078840Y-50957120D01*
X36254100Y-50560880D02*
X36078840Y-50560880D01*
X35581000Y-50659940D02*
X35581000Y-50858060D01*
X35581000Y-50858060D02*
X35382880Y-50858060D01*
X35382880Y-50659940D02*
X35382880Y-50858060D01*
X35581000Y-50659940D02*
X35382880Y-50659940D01*
X35083160Y-50159560D02*
X35083160Y-50459280D01*
X35083160Y-50459280D02*
X34783440Y-50459280D01*
X34783440Y-50159560D02*
X34783440Y-50459280D01*
X35083160Y-50159560D02*
X34783440Y-50159560D01*
X34656440Y-50134160D02*
X34656440Y-50360220D01*
X34656440Y-50360220D02*
X34582780Y-50360220D01*
X34582780Y-50134160D02*
X34582780Y-50360220D01*
X34656440Y-50134160D02*
X34582780Y-50134160D01*
X35057760Y-51333040D02*
X36104240Y-51333040D01*
X36078840Y-50184960D02*
X34656440Y-50184960D01*
X34804482Y-50309420D02*
G75*
G03X34804482Y-50309420I-71842J0D01*
G01*
X34582780Y-50411020D02*
G75*
G02X34582780Y-51106980I0J-347980D01*
G01*
X36579220Y-51106980D02*
G75*
G02X36579220Y-50411020I0J347980D01*
G01*
X79560420Y-51562000D02*
X80408780Y-50561240D01*
X80408780Y-50561240D02*
X80408780Y-52562760D01*
X80408780Y-52562760D02*
X79560420Y-51562000D01*
X79560420Y-51562000D02*
X79560420Y-52562760D01*
X79560420Y-51562000D02*
X79560420Y-50561240D01*
X77703680Y-53362000D02*
X77703680Y-53162200D01*
X78160720Y-53362000D02*
X78160720Y-53163000D01*
X82311240Y-53362000D02*
X82311240Y-53213000D01*
X77708760Y-49762000D02*
X77708760Y-49911000D01*
X78160720Y-49762000D02*
X78160720Y-49911000D01*
X82311240Y-49762000D02*
X82311240Y-49911000D01*
X78160720Y-53510980D02*
X78160720Y-53312860D01*
X78160720Y-49563020D02*
X78160720Y-49761140D01*
X82306160Y-53558440D02*
X82306160Y-53360320D01*
X77703680Y-53558440D02*
X82306160Y-53558440D01*
X77703680Y-53558440D02*
X77703680Y-53360320D01*
X77708760Y-49563020D02*
X77708760Y-49761140D01*
X77708760Y-49563020D02*
X82311240Y-49563020D01*
X82311240Y-49563020D02*
X82311240Y-49761140D01*
X93700000Y-37000000D02*
X93700000Y-28900000D01*
X86700000Y-37000000D02*
X86700000Y-28900000D01*
X86700000Y-37000000D02*
X93700000Y-37000000D01*
X86700000Y-28900000D02*
X93700000Y-28900000D01*
X86900000Y-22460000D02*
X36100000Y-22460000D01*
X38640000Y-27540000D02*
X86900000Y-27540000D01*
X86900000Y-22460000D02*
X86900000Y-27540000D01*
X36100000Y-22460000D02*
X36100000Y-25000000D01*
X35820000Y-26270000D02*
X35820000Y-27820000D01*
X36100000Y-25000000D02*
X38640000Y-25000000D01*
X38640000Y-25000000D02*
X38640000Y-27540000D01*
X35820000Y-27820000D02*
X37370000Y-27820000D01*
X32512000Y-62357000D02*
X29972000Y-62357000D01*
X35332000Y-62637000D02*
X33782000Y-62637000D01*
X32512000Y-62357000D02*
X32512000Y-59817000D01*
X33782000Y-59537000D02*
X35332000Y-59537000D01*
X35332000Y-59537000D02*
X35332000Y-62637000D01*
X32512000Y-59817000D02*
X29972000Y-59817000D01*
X29972000Y-59817000D02*
X29972000Y-62357000D01*
X37800000Y-29796000D02*
G75*
G03X37800000Y-29796000I-100000J0D01*
G01*
X38350000Y-30046000D02*
X37850000Y-30046000D01*
X38350000Y-32946000D02*
X38350000Y-30046000D01*
X37850000Y-32946000D02*
X38350000Y-32946000D01*
X37850000Y-30046000D02*
X37850000Y-32946000D01*
X33669000Y-32858000D02*
X33669000Y-31658000D01*
X35419000Y-31658000D02*
X35419000Y-32858000D01*
X37246000Y-33669000D02*
X38446000Y-33669000D01*
X38446000Y-35419000D02*
X37246000Y-35419000D01*
X40245000Y-66202000D02*
X40245000Y-67402000D01*
X38495000Y-67402000D02*
X38495000Y-66202000D01*
X47357000Y-66202000D02*
X47357000Y-67402000D01*
X45607000Y-67402000D02*
X45607000Y-66202000D01*
X53961000Y-65948000D02*
X53961000Y-67148000D01*
X52211000Y-67148000D02*
X52211000Y-65948000D01*
X60565000Y-65948000D02*
X60565000Y-67148000D01*
X58815000Y-67148000D02*
X58815000Y-65948000D01*
X40908000Y-67402000D02*
X40908000Y-66202000D01*
X42658000Y-66202000D02*
X42658000Y-67402000D01*
X48020000Y-67402000D02*
X48020000Y-66202000D01*
X49770000Y-66202000D02*
X49770000Y-67402000D01*
X54497000Y-67148000D02*
X54497000Y-65948000D01*
X56247000Y-65948000D02*
X56247000Y-67148000D01*
X61101000Y-67148000D02*
X61101000Y-65948000D01*
X62851000Y-65948000D02*
X62851000Y-67148000D01*
X62000000Y-55875000D02*
X60800000Y-55875000D01*
X60800000Y-54125000D02*
X62000000Y-54125000D01*
X52197000Y-44577000D02*
X54737000Y-44577000D01*
X49377000Y-44297000D02*
X50927000Y-44297000D01*
X52197000Y-44577000D02*
X52197000Y-47117000D01*
X50927000Y-47397000D02*
X49377000Y-47397000D01*
X49377000Y-47397000D02*
X49377000Y-44297000D01*
X52197000Y-47117000D02*
X54737000Y-47117000D01*
X54737000Y-47117000D02*
X54737000Y-44577000D01*
X35941000Y-39497000D02*
X33401000Y-39497000D01*
X38761000Y-39777000D02*
X37211000Y-39777000D01*
X35941000Y-39497000D02*
X35941000Y-36957000D01*
X37211000Y-36677000D02*
X38761000Y-36677000D01*
X38761000Y-36677000D02*
X38761000Y-39777000D01*
X35941000Y-36957000D02*
X33401000Y-36957000D01*
X33401000Y-36957000D02*
X33401000Y-39497000D01*
X32766000Y-33655000D02*
X32766000Y-36195000D01*
X33046000Y-30835000D02*
X33046000Y-32385000D01*
X32766000Y-33655000D02*
X30226000Y-33655000D01*
X29946000Y-32385000D02*
X29946000Y-30835000D01*
X29946000Y-30835000D02*
X33046000Y-30835000D01*
X30226000Y-33655000D02*
X30226000Y-36195000D01*
X30226000Y-36195000D02*
X32766000Y-36195000D01*
X32512000Y-66167000D02*
X29972000Y-66167000D01*
X35332000Y-66447000D02*
X33782000Y-66447000D01*
X32512000Y-66167000D02*
X32512000Y-63627000D01*
X33782000Y-63347000D02*
X35332000Y-63347000D01*
X35332000Y-63347000D02*
X35332000Y-66447000D01*
X32512000Y-63627000D02*
X29972000Y-63627000D01*
X29972000Y-63627000D02*
X29972000Y-66167000D01*
X66491000Y-32529780D02*
X66491000Y-31115000D01*
X66503700Y-41130220D02*
X70047000Y-41130220D01*
X66491000Y-42545000D02*
X55374000Y-42545000D01*
X55374000Y-31115000D02*
X66491000Y-31115000D01*
X66491000Y-42545000D02*
X66491000Y-41130220D01*
X79556000Y-55704000D02*
G75*
G03X79556000Y-55704000I-100000J0D01*
G01*
X80006000Y-55954000D02*
X79506000Y-55954000D01*
X80006000Y-58854000D02*
X80006000Y-55954000D01*
X79506000Y-58854000D02*
X80006000Y-58854000D01*
X79506000Y-55954000D02*
X79506000Y-58854000D01*
X45979000Y-61511000D02*
X46084000Y-61511000D01*
X45979000Y-57361000D02*
X46084000Y-57361000D01*
X56129000Y-57361000D02*
X56024000Y-57361000D01*
X56129000Y-61511000D02*
X56024000Y-61511000D01*
X45979000Y-61511000D02*
X45979000Y-57361000D01*
X56129000Y-61511000D02*
X56129000Y-57361000D01*
X46084000Y-61511000D02*
X46084000Y-62886000D01*
X37176000Y-60749000D02*
X37321000Y-60749000D01*
X37176000Y-56599000D02*
X37321000Y-56599000D01*
X42326000Y-56599000D02*
X42181000Y-56599000D01*
X42326000Y-60749000D02*
X42181000Y-60749000D01*
X37176000Y-60749000D02*
X37176000Y-56599000D01*
X42326000Y-60749000D02*
X42326000Y-56599000D01*
X37321000Y-60749000D02*
X37321000Y-62149000D01*
X77207000Y-59752000D02*
X76852000Y-59752000D01*
X77207000Y-67502000D02*
X76852000Y-67502000D01*
X66557000Y-67502000D02*
X66912000Y-67502000D01*
X66557000Y-59752000D02*
X66912000Y-59752000D01*
X77207000Y-59752000D02*
X77207000Y-67502000D01*
X66557000Y-59752000D02*
X66557000Y-67502000D01*
X76852000Y-59752000D02*
X76852000Y-58227000D01*
X86670000Y-69853000D02*
X86670000Y-40753000D01*
X93670000Y-40753000D02*
X93670000Y-69853000D01*
X93670000Y-69853000D02*
X86670000Y-69853000D01*
X93670000Y-40753000D02*
X86670000Y-40753000D01*
X65916000Y-76652000D02*
X36816000Y-76652000D01*
X36816000Y-69652000D02*
X65916000Y-69652000D01*
X65916000Y-69652000D02*
X65916000Y-76652000D01*
X36816000Y-69652000D02*
X36816000Y-76652000D01*
X69059000Y-69652000D02*
X84159000Y-69652000D01*
X84159000Y-76652000D02*
X69059000Y-76652000D01*
X69059000Y-76652000D02*
X69059000Y-69652000D01*
X84159000Y-76652000D02*
X84159000Y-69652000D01*
X60757143Y-60452381D02*
X60423809Y-59976190D01*
X60185714Y-60452381D02*
X60185714Y-59452381D01*
X60566667Y-59452381D01*
X60661905Y-59500000D01*
X60709524Y-59547619D01*
X60757143Y-59642857D01*
X60757143Y-59785714D01*
X60709524Y-59880952D01*
X60661905Y-59928571D01*
X60566667Y-59976190D01*
X60185714Y-59976190D01*
X61138095Y-59547619D02*
X61185714Y-59500000D01*
X61280952Y-59452381D01*
X61519048Y-59452381D01*
X61614286Y-59500000D01*
X61661905Y-59547619D01*
X61709524Y-59642857D01*
X61709524Y-59738095D01*
X61661905Y-59880952D01*
X61090476Y-60452381D01*
X61709524Y-60452381D01*
X62042857Y-59452381D02*
X62709524Y-59452381D01*
X62280952Y-60452381D01*
X73833334Y-45352381D02*
X73357143Y-45352381D01*
X73357143Y-44352381D01*
X74690477Y-45352381D02*
X74119048Y-45352381D01*
X74404762Y-45352381D02*
X74404762Y-44352381D01*
X74309524Y-44495238D01*
X74214286Y-44590476D01*
X74119048Y-44638095D01*
X51433334Y-30357143D02*
X51385715Y-30404762D01*
X51242858Y-30452381D01*
X51147620Y-30452381D01*
X51004762Y-30404762D01*
X50909524Y-30309524D01*
X50861905Y-30214286D01*
X50814286Y-30023810D01*
X50814286Y-29880952D01*
X50861905Y-29690476D01*
X50909524Y-29595238D01*
X51004762Y-29500000D01*
X51147620Y-29452381D01*
X51242858Y-29452381D01*
X51385715Y-29500000D01*
X51433334Y-29547619D01*
X52385715Y-30452381D02*
X51814286Y-30452381D01*
X52100000Y-30452381D02*
X52100000Y-29452381D01*
X52004762Y-29595238D01*
X51909524Y-29690476D01*
X51814286Y-29738095D01*
X66333334Y-45357143D02*
X66285715Y-45404762D01*
X66142858Y-45452381D01*
X66047620Y-45452381D01*
X65904762Y-45404762D01*
X65809524Y-45309524D01*
X65761905Y-45214286D01*
X65714286Y-45023810D01*
X65714286Y-44880952D01*
X65761905Y-44690476D01*
X65809524Y-44595238D01*
X65904762Y-44500000D01*
X66047620Y-44452381D01*
X66142858Y-44452381D01*
X66285715Y-44500000D01*
X66333334Y-44547619D01*
X66714286Y-44547619D02*
X66761905Y-44500000D01*
X66857143Y-44452381D01*
X67095239Y-44452381D01*
X67190477Y-44500000D01*
X67238096Y-44547619D01*
X67285715Y-44642857D01*
X67285715Y-44738095D01*
X67238096Y-44880952D01*
X66666667Y-45452381D01*
X67285715Y-45452381D01*
X85133334Y-56057143D02*
X85085715Y-56104762D01*
X84942858Y-56152381D01*
X84847620Y-56152381D01*
X84704762Y-56104762D01*
X84609524Y-56009524D01*
X84561905Y-55914286D01*
X84514286Y-55723810D01*
X84514286Y-55580952D01*
X84561905Y-55390476D01*
X84609524Y-55295238D01*
X84704762Y-55200000D01*
X84847620Y-55152381D01*
X84942858Y-55152381D01*
X85085715Y-55200000D01*
X85133334Y-55247619D01*
X85466667Y-55152381D02*
X86085715Y-55152381D01*
X85752381Y-55533333D01*
X85895239Y-55533333D01*
X85990477Y-55580952D01*
X86038096Y-55628571D01*
X86085715Y-55723810D01*
X86085715Y-55961905D01*
X86038096Y-56057143D01*
X85990477Y-56104762D01*
X85895239Y-56152381D01*
X85609524Y-56152381D01*
X85514286Y-56104762D01*
X85466667Y-56057143D01*
X85233334Y-57557143D02*
X85185715Y-57604762D01*
X85042858Y-57652381D01*
X84947620Y-57652381D01*
X84804762Y-57604762D01*
X84709524Y-57509524D01*
X84661905Y-57414286D01*
X84614286Y-57223810D01*
X84614286Y-57080952D01*
X84661905Y-56890476D01*
X84709524Y-56795238D01*
X84804762Y-56700000D01*
X84947620Y-56652381D01*
X85042858Y-56652381D01*
X85185715Y-56700000D01*
X85233334Y-56747619D01*
X86090477Y-56985714D02*
X86090477Y-57652381D01*
X85852381Y-56604762D02*
X85614286Y-57319048D01*
X86233334Y-57319048D01*
X31961905Y-43152381D02*
X31961905Y-42152381D01*
X32200000Y-42152381D01*
X32342858Y-42200000D01*
X32438096Y-42295238D01*
X32485715Y-42390476D01*
X32533334Y-42580952D01*
X32533334Y-42723810D01*
X32485715Y-42914286D01*
X32438096Y-43009524D01*
X32342858Y-43104762D01*
X32200000Y-43152381D01*
X31961905Y-43152381D01*
X33485715Y-43152381D02*
X32914286Y-43152381D01*
X33200000Y-43152381D02*
X33200000Y-42152381D01*
X33104762Y-42295238D01*
X33009524Y-42390476D01*
X32914286Y-42438095D01*
X31961905Y-45952381D02*
X31961905Y-44952381D01*
X32200000Y-44952381D01*
X32342858Y-45000000D01*
X32438096Y-45095238D01*
X32485715Y-45190476D01*
X32533334Y-45380952D01*
X32533334Y-45523810D01*
X32485715Y-45714286D01*
X32438096Y-45809524D01*
X32342858Y-45904762D01*
X32200000Y-45952381D01*
X31961905Y-45952381D01*
X32914286Y-45047619D02*
X32961905Y-45000000D01*
X33057143Y-44952381D01*
X33295239Y-44952381D01*
X33390477Y-45000000D01*
X33438096Y-45047619D01*
X33485715Y-45142857D01*
X33485715Y-45238095D01*
X33438096Y-45380952D01*
X32866667Y-45952381D01*
X33485715Y-45952381D01*
X31961905Y-48652381D02*
X31961905Y-47652381D01*
X32200000Y-47652381D01*
X32342858Y-47700000D01*
X32438096Y-47795238D01*
X32485715Y-47890476D01*
X32533334Y-48080952D01*
X32533334Y-48223810D01*
X32485715Y-48414286D01*
X32438096Y-48509524D01*
X32342858Y-48604762D01*
X32200000Y-48652381D01*
X31961905Y-48652381D01*
X32866667Y-47652381D02*
X33485715Y-47652381D01*
X33152381Y-48033333D01*
X33295239Y-48033333D01*
X33390477Y-48080952D01*
X33438096Y-48128571D01*
X33485715Y-48223810D01*
X33485715Y-48461905D01*
X33438096Y-48557143D01*
X33390477Y-48604762D01*
X33295239Y-48652381D01*
X33009524Y-48652381D01*
X32914286Y-48604762D01*
X32866667Y-48557143D01*
X31961905Y-51152381D02*
X31961905Y-50152381D01*
X32200000Y-50152381D01*
X32342858Y-50200000D01*
X32438096Y-50295238D01*
X32485715Y-50390476D01*
X32533334Y-50580952D01*
X32533334Y-50723810D01*
X32485715Y-50914286D01*
X32438096Y-51009524D01*
X32342858Y-51104762D01*
X32200000Y-51152381D01*
X31961905Y-51152381D01*
X33390477Y-50485714D02*
X33390477Y-51152381D01*
X33152381Y-50104762D02*
X32914286Y-50819048D01*
X33533334Y-50819048D01*
X79271905Y-48914381D02*
X79271905Y-47914381D01*
X79510000Y-47914381D01*
X79652858Y-47962000D01*
X79748096Y-48057238D01*
X79795715Y-48152476D01*
X79843334Y-48342952D01*
X79843334Y-48485810D01*
X79795715Y-48676286D01*
X79748096Y-48771524D01*
X79652858Y-48866762D01*
X79510000Y-48914381D01*
X79271905Y-48914381D01*
X80700477Y-47914381D02*
X80510000Y-47914381D01*
X80414762Y-47962000D01*
X80367143Y-48009619D01*
X80271905Y-48152476D01*
X80224286Y-48342952D01*
X80224286Y-48723905D01*
X80271905Y-48819143D01*
X80319524Y-48866762D01*
X80414762Y-48914381D01*
X80605239Y-48914381D01*
X80700477Y-48866762D01*
X80748096Y-48819143D01*
X80795715Y-48723905D01*
X80795715Y-48485810D01*
X80748096Y-48390571D01*
X80700477Y-48342952D01*
X80605239Y-48295333D01*
X80414762Y-48295333D01*
X80319524Y-48342952D01*
X80271905Y-48390571D01*
X80224286Y-48485810D01*
X76438095Y-49852381D02*
X76438095Y-48852381D01*
X77009524Y-49852381D02*
X76580952Y-49280952D01*
X77009524Y-48852381D02*
X76438095Y-49423810D01*
X83361905Y-49666667D02*
X83838096Y-49666667D01*
X83266667Y-49952381D02*
X83600000Y-48952381D01*
X83933334Y-49952381D01*
X84961905Y-29952381D02*
X84961905Y-28952381D01*
X85342858Y-28952381D01*
X85438096Y-29000000D01*
X85485715Y-29047619D01*
X85533334Y-29142857D01*
X85533334Y-29285714D01*
X85485715Y-29380952D01*
X85438096Y-29428571D01*
X85342858Y-29476190D01*
X84961905Y-29476190D01*
X86485715Y-29952381D02*
X85914286Y-29952381D01*
X86200000Y-29952381D02*
X86200000Y-28952381D01*
X86104762Y-29095238D01*
X86009524Y-29190476D01*
X85914286Y-29238095D01*
X36061905Y-22252381D02*
X36061905Y-21252381D01*
X36442858Y-21252381D01*
X36538096Y-21300000D01*
X36585715Y-21347619D01*
X36633334Y-21442857D01*
X36633334Y-21585714D01*
X36585715Y-21680952D01*
X36538096Y-21728571D01*
X36442858Y-21776190D01*
X36061905Y-21776190D01*
X37538096Y-21252381D02*
X37061905Y-21252381D01*
X37014286Y-21728571D01*
X37061905Y-21680952D01*
X37157143Y-21633333D01*
X37395239Y-21633333D01*
X37490477Y-21680952D01*
X37538096Y-21728571D01*
X37585715Y-21823810D01*
X37585715Y-22061905D01*
X37538096Y-22157143D01*
X37490477Y-22204762D01*
X37395239Y-22252381D01*
X37157143Y-22252381D01*
X37061905Y-22204762D01*
X37014286Y-22157143D01*
X29985714Y-59352381D02*
X29985714Y-58352381D01*
X30366667Y-58352381D01*
X30461905Y-58400000D01*
X30509524Y-58447619D01*
X30557143Y-58542857D01*
X30557143Y-58685714D01*
X30509524Y-58780952D01*
X30461905Y-58828571D01*
X30366667Y-58876190D01*
X29985714Y-58876190D01*
X31509524Y-59352381D02*
X30938095Y-59352381D01*
X31223809Y-59352381D02*
X31223809Y-58352381D01*
X31128571Y-58495238D01*
X31033333Y-58590476D01*
X30938095Y-58638095D01*
X32461905Y-59352381D02*
X31890476Y-59352381D01*
X32176190Y-59352381D02*
X32176190Y-58352381D01*
X32080952Y-58495238D01*
X31985714Y-58590476D01*
X31890476Y-58638095D01*
X36204762Y-29947619D02*
X36109524Y-29900000D01*
X36014286Y-29804762D01*
X35871429Y-29661905D01*
X35776190Y-29614286D01*
X35680952Y-29614286D01*
X35728571Y-29852381D02*
X35633333Y-29804762D01*
X35538095Y-29709524D01*
X35490476Y-29519048D01*
X35490476Y-29185714D01*
X35538095Y-28995238D01*
X35633333Y-28900000D01*
X35728571Y-28852381D01*
X35919048Y-28852381D01*
X36014286Y-28900000D01*
X36109524Y-28995238D01*
X36157143Y-29185714D01*
X36157143Y-29519048D01*
X36109524Y-29709524D01*
X36014286Y-29804762D01*
X35919048Y-29852381D01*
X35728571Y-29852381D01*
X36538095Y-28947619D02*
X36585714Y-28900000D01*
X36680952Y-28852381D01*
X36919048Y-28852381D01*
X37014286Y-28900000D01*
X37061905Y-28947619D01*
X37109524Y-29042857D01*
X37109524Y-29138095D01*
X37061905Y-29280952D01*
X36490476Y-29852381D01*
X37109524Y-29852381D01*
X32633334Y-29952381D02*
X32300000Y-29476190D01*
X32061905Y-29952381D02*
X32061905Y-28952381D01*
X32442858Y-28952381D01*
X32538096Y-29000000D01*
X32585715Y-29047619D01*
X32633334Y-29142857D01*
X32633334Y-29285714D01*
X32585715Y-29380952D01*
X32538096Y-29428571D01*
X32442858Y-29476190D01*
X32061905Y-29476190D01*
X33538096Y-28952381D02*
X33061905Y-28952381D01*
X33014286Y-29428571D01*
X33061905Y-29380952D01*
X33157143Y-29333333D01*
X33395239Y-29333333D01*
X33490477Y-29380952D01*
X33538096Y-29428571D01*
X33585715Y-29523810D01*
X33585715Y-29761905D01*
X33538096Y-29857143D01*
X33490477Y-29904762D01*
X33395239Y-29952381D01*
X33157143Y-29952381D01*
X33061905Y-29904762D01*
X33014286Y-29857143D01*
X41252381Y-34666666D02*
X40776190Y-35000000D01*
X41252381Y-35238095D02*
X40252381Y-35238095D01*
X40252381Y-34857142D01*
X40300000Y-34761904D01*
X40347619Y-34714285D01*
X40442857Y-34666666D01*
X40585714Y-34666666D01*
X40680952Y-34714285D01*
X40728571Y-34761904D01*
X40776190Y-34857142D01*
X40776190Y-35238095D01*
X40252381Y-33809523D02*
X40252381Y-34000000D01*
X40300000Y-34095238D01*
X40347619Y-34142857D01*
X40490476Y-34238095D01*
X40680952Y-34285714D01*
X41061905Y-34285714D01*
X41157143Y-34238095D01*
X41204762Y-34190476D01*
X41252381Y-34095238D01*
X41252381Y-33904761D01*
X41204762Y-33809523D01*
X41157143Y-33761904D01*
X41061905Y-33714285D01*
X40823810Y-33714285D01*
X40728571Y-33761904D01*
X40680952Y-33809523D01*
X40633333Y-33904761D01*
X40633333Y-34095238D01*
X40680952Y-34190476D01*
X40728571Y-34238095D01*
X40823810Y-34285714D01*
X39133334Y-64252381D02*
X38800000Y-63776190D01*
X38561905Y-64252381D02*
X38561905Y-63252381D01*
X38942858Y-63252381D01*
X39038096Y-63300000D01*
X39085715Y-63347619D01*
X39133334Y-63442857D01*
X39133334Y-63585714D01*
X39085715Y-63680952D01*
X39038096Y-63728571D01*
X38942858Y-63776190D01*
X38561905Y-63776190D01*
X39466667Y-63252381D02*
X40133334Y-63252381D01*
X39704762Y-64252381D01*
X45733334Y-64352381D02*
X45400000Y-63876190D01*
X45161905Y-64352381D02*
X45161905Y-63352381D01*
X45542858Y-63352381D01*
X45638096Y-63400000D01*
X45685715Y-63447619D01*
X45733334Y-63542857D01*
X45733334Y-63685714D01*
X45685715Y-63780952D01*
X45638096Y-63828571D01*
X45542858Y-63876190D01*
X45161905Y-63876190D01*
X46304762Y-63780952D02*
X46209524Y-63733333D01*
X46161905Y-63685714D01*
X46114286Y-63590476D01*
X46114286Y-63542857D01*
X46161905Y-63447619D01*
X46209524Y-63400000D01*
X46304762Y-63352381D01*
X46495239Y-63352381D01*
X46590477Y-63400000D01*
X46638096Y-63447619D01*
X46685715Y-63542857D01*
X46685715Y-63590476D01*
X46638096Y-63685714D01*
X46590477Y-63733333D01*
X46495239Y-63780952D01*
X46304762Y-63780952D01*
X46209524Y-63828571D01*
X46161905Y-63876190D01*
X46114286Y-63971429D01*
X46114286Y-64161905D01*
X46161905Y-64257143D01*
X46209524Y-64304762D01*
X46304762Y-64352381D01*
X46495239Y-64352381D01*
X46590477Y-64304762D01*
X46638096Y-64257143D01*
X46685715Y-64161905D01*
X46685715Y-63971429D01*
X46638096Y-63876190D01*
X46590477Y-63828571D01*
X46495239Y-63780952D01*
X52833334Y-64152381D02*
X52500000Y-63676190D01*
X52261905Y-64152381D02*
X52261905Y-63152381D01*
X52642858Y-63152381D01*
X52738096Y-63200000D01*
X52785715Y-63247619D01*
X52833334Y-63342857D01*
X52833334Y-63485714D01*
X52785715Y-63580952D01*
X52738096Y-63628571D01*
X52642858Y-63676190D01*
X52261905Y-63676190D01*
X53309524Y-64152381D02*
X53500000Y-64152381D01*
X53595239Y-64104762D01*
X53642858Y-64057143D01*
X53738096Y-63914286D01*
X53785715Y-63723810D01*
X53785715Y-63342857D01*
X53738096Y-63247619D01*
X53690477Y-63200000D01*
X53595239Y-63152381D01*
X53404762Y-63152381D01*
X53309524Y-63200000D01*
X53261905Y-63247619D01*
X53214286Y-63342857D01*
X53214286Y-63580952D01*
X53261905Y-63676190D01*
X53309524Y-63723810D01*
X53404762Y-63771429D01*
X53595239Y-63771429D01*
X53690477Y-63723810D01*
X53738096Y-63676190D01*
X53785715Y-63580952D01*
X58452381Y-68142857D02*
X57976190Y-68476191D01*
X58452381Y-68714286D02*
X57452381Y-68714286D01*
X57452381Y-68333333D01*
X57500000Y-68238095D01*
X57547619Y-68190476D01*
X57642857Y-68142857D01*
X57785714Y-68142857D01*
X57880952Y-68190476D01*
X57928571Y-68238095D01*
X57976190Y-68333333D01*
X57976190Y-68714286D01*
X58452381Y-67190476D02*
X58452381Y-67761905D01*
X58452381Y-67476191D02*
X57452381Y-67476191D01*
X57595238Y-67571429D01*
X57690476Y-67666667D01*
X57738095Y-67761905D01*
X57452381Y-66571429D02*
X57452381Y-66476190D01*
X57500000Y-66380952D01*
X57547619Y-66333333D01*
X57642857Y-66285714D01*
X57833333Y-66238095D01*
X58071429Y-66238095D01*
X58261905Y-66285714D01*
X58357143Y-66333333D01*
X58404762Y-66380952D01*
X58452381Y-66476190D01*
X58452381Y-66571429D01*
X58404762Y-66666667D01*
X58357143Y-66714286D01*
X58261905Y-66761905D01*
X58071429Y-66809524D01*
X57833333Y-66809524D01*
X57642857Y-66761905D01*
X57547619Y-66714286D01*
X57500000Y-66666667D01*
X57452381Y-66571429D01*
X42057143Y-64352381D02*
X41723809Y-63876190D01*
X41485714Y-64352381D02*
X41485714Y-63352381D01*
X41866667Y-63352381D01*
X41961905Y-63400000D01*
X42009524Y-63447619D01*
X42057143Y-63542857D01*
X42057143Y-63685714D01*
X42009524Y-63780952D01*
X41961905Y-63828571D01*
X41866667Y-63876190D01*
X41485714Y-63876190D01*
X43009524Y-64352381D02*
X42438095Y-64352381D01*
X42723809Y-64352381D02*
X42723809Y-63352381D01*
X42628571Y-63495238D01*
X42533333Y-63590476D01*
X42438095Y-63638095D01*
X43961905Y-64352381D02*
X43390476Y-64352381D01*
X43676190Y-64352381D02*
X43676190Y-63352381D01*
X43580952Y-63495238D01*
X43485714Y-63590476D01*
X43390476Y-63638095D01*
X49057143Y-64352381D02*
X48723809Y-63876190D01*
X48485714Y-64352381D02*
X48485714Y-63352381D01*
X48866667Y-63352381D01*
X48961905Y-63400000D01*
X49009524Y-63447619D01*
X49057143Y-63542857D01*
X49057143Y-63685714D01*
X49009524Y-63780952D01*
X48961905Y-63828571D01*
X48866667Y-63876190D01*
X48485714Y-63876190D01*
X50009524Y-64352381D02*
X49438095Y-64352381D01*
X49723809Y-64352381D02*
X49723809Y-63352381D01*
X49628571Y-63495238D01*
X49533333Y-63590476D01*
X49438095Y-63638095D01*
X50390476Y-63447619D02*
X50438095Y-63400000D01*
X50533333Y-63352381D01*
X50771429Y-63352381D01*
X50866667Y-63400000D01*
X50914286Y-63447619D01*
X50961905Y-63542857D01*
X50961905Y-63638095D01*
X50914286Y-63780952D01*
X50342857Y-64352381D01*
X50961905Y-64352381D01*
X55457143Y-64152381D02*
X55123809Y-63676190D01*
X54885714Y-64152381D02*
X54885714Y-63152381D01*
X55266667Y-63152381D01*
X55361905Y-63200000D01*
X55409524Y-63247619D01*
X55457143Y-63342857D01*
X55457143Y-63485714D01*
X55409524Y-63580952D01*
X55361905Y-63628571D01*
X55266667Y-63676190D01*
X54885714Y-63676190D01*
X56409524Y-64152381D02*
X55838095Y-64152381D01*
X56123809Y-64152381D02*
X56123809Y-63152381D01*
X56028571Y-63295238D01*
X55933333Y-63390476D01*
X55838095Y-63438095D01*
X56742857Y-63152381D02*
X57361905Y-63152381D01*
X57028571Y-63533333D01*
X57171429Y-63533333D01*
X57266667Y-63580952D01*
X57314286Y-63628571D01*
X57361905Y-63723810D01*
X57361905Y-63961905D01*
X57314286Y-64057143D01*
X57266667Y-64104762D01*
X57171429Y-64152381D01*
X56885714Y-64152381D01*
X56790476Y-64104762D01*
X56742857Y-64057143D01*
X64252381Y-68242857D02*
X63776190Y-68576191D01*
X64252381Y-68814286D02*
X63252381Y-68814286D01*
X63252381Y-68433333D01*
X63300000Y-68338095D01*
X63347619Y-68290476D01*
X63442857Y-68242857D01*
X63585714Y-68242857D01*
X63680952Y-68290476D01*
X63728571Y-68338095D01*
X63776190Y-68433333D01*
X63776190Y-68814286D01*
X64252381Y-67290476D02*
X64252381Y-67861905D01*
X64252381Y-67576191D02*
X63252381Y-67576191D01*
X63395238Y-67671429D01*
X63490476Y-67766667D01*
X63538095Y-67861905D01*
X63585714Y-66433333D02*
X64252381Y-66433333D01*
X63204762Y-66671429D02*
X63919048Y-66909524D01*
X63919048Y-66290476D01*
X56757143Y-55052381D02*
X56423809Y-54576190D01*
X56185714Y-55052381D02*
X56185714Y-54052381D01*
X56566667Y-54052381D01*
X56661905Y-54100000D01*
X56709524Y-54147619D01*
X56757143Y-54242857D01*
X56757143Y-54385714D01*
X56709524Y-54480952D01*
X56661905Y-54528571D01*
X56566667Y-54576190D01*
X56185714Y-54576190D01*
X57138095Y-54147619D02*
X57185714Y-54100000D01*
X57280952Y-54052381D01*
X57519048Y-54052381D01*
X57614286Y-54100000D01*
X57661905Y-54147619D01*
X57709524Y-54242857D01*
X57709524Y-54338095D01*
X57661905Y-54480952D01*
X57090476Y-55052381D01*
X57709524Y-55052381D01*
X58280952Y-54480952D02*
X58185714Y-54433333D01*
X58138095Y-54385714D01*
X58090476Y-54290476D01*
X58090476Y-54242857D01*
X58138095Y-54147619D01*
X58185714Y-54100000D01*
X58280952Y-54052381D01*
X58471429Y-54052381D01*
X58566667Y-54100000D01*
X58614286Y-54147619D01*
X58661905Y-54242857D01*
X58661905Y-54290476D01*
X58614286Y-54385714D01*
X58566667Y-54433333D01*
X58471429Y-54480952D01*
X58280952Y-54480952D01*
X58185714Y-54528571D01*
X58138095Y-54576190D01*
X58090476Y-54671429D01*
X58090476Y-54861905D01*
X58138095Y-54957143D01*
X58185714Y-55004762D01*
X58280952Y-55052381D01*
X58471429Y-55052381D01*
X58566667Y-55004762D01*
X58614286Y-54957143D01*
X58661905Y-54861905D01*
X58661905Y-54671429D01*
X58614286Y-54576190D01*
X58566667Y-54528571D01*
X58471429Y-54480952D01*
X51438095Y-48052381D02*
X52009524Y-48052381D01*
X51723809Y-49052381D02*
X51723809Y-48052381D01*
X52342857Y-49052381D02*
X52342857Y-48052381D01*
X52723810Y-48052381D01*
X52819048Y-48100000D01*
X52866667Y-48147619D01*
X52914286Y-48242857D01*
X52914286Y-48385714D01*
X52866667Y-48480952D01*
X52819048Y-48528571D01*
X52723810Y-48576190D01*
X52342857Y-48576190D01*
X53866667Y-49052381D02*
X53295238Y-49052381D01*
X53580952Y-49052381D02*
X53580952Y-48052381D01*
X53485714Y-48195238D01*
X53390476Y-48290476D01*
X53295238Y-48338095D01*
X41763381Y-39488905D02*
X41763381Y-38917476D01*
X42763381Y-39203191D02*
X41763381Y-39203191D01*
X42763381Y-38584143D02*
X41763381Y-38584143D01*
X41763381Y-38203190D01*
X41811000Y-38107952D01*
X41858619Y-38060333D01*
X41953857Y-38012714D01*
X42096714Y-38012714D01*
X42191952Y-38060333D01*
X42239571Y-38107952D01*
X42287190Y-38203190D01*
X42287190Y-38584143D01*
X41858619Y-37631762D02*
X41811000Y-37584143D01*
X41763381Y-37488905D01*
X41763381Y-37250809D01*
X41811000Y-37155571D01*
X41858619Y-37107952D01*
X41953857Y-37060333D01*
X42049095Y-37060333D01*
X42191952Y-37107952D01*
X42763381Y-37679381D01*
X42763381Y-37060333D01*
X30138095Y-36752381D02*
X30709524Y-36752381D01*
X30423809Y-37752381D02*
X30423809Y-36752381D01*
X31042857Y-37752381D02*
X31042857Y-36752381D01*
X31423810Y-36752381D01*
X31519048Y-36800000D01*
X31566667Y-36847619D01*
X31614286Y-36942857D01*
X31614286Y-37085714D01*
X31566667Y-37180952D01*
X31519048Y-37228571D01*
X31423810Y-37276190D01*
X31042857Y-37276190D01*
X31947619Y-36752381D02*
X32566667Y-36752381D01*
X32233333Y-37133333D01*
X32376191Y-37133333D01*
X32471429Y-37180952D01*
X32519048Y-37228571D01*
X32566667Y-37323810D01*
X32566667Y-37561905D01*
X32519048Y-37657143D01*
X32471429Y-37704762D01*
X32376191Y-37752381D01*
X32090476Y-37752381D01*
X31995238Y-37704762D01*
X31947619Y-37657143D01*
X30038095Y-66652381D02*
X30609524Y-66652381D01*
X30323809Y-67652381D02*
X30323809Y-66652381D01*
X30942857Y-67652381D02*
X30942857Y-66652381D01*
X31323810Y-66652381D01*
X31419048Y-66700000D01*
X31466667Y-66747619D01*
X31514286Y-66842857D01*
X31514286Y-66985714D01*
X31466667Y-67080952D01*
X31419048Y-67128571D01*
X31323810Y-67176190D01*
X30942857Y-67176190D01*
X32371429Y-66985714D02*
X32371429Y-67652381D01*
X32133333Y-66604762D02*
X31895238Y-67319048D01*
X32514286Y-67319048D01*
X67838095Y-30852381D02*
X67838095Y-31661905D01*
X67885714Y-31757143D01*
X67933333Y-31804762D01*
X68028571Y-31852381D01*
X68219048Y-31852381D01*
X68314286Y-31804762D01*
X68361905Y-31757143D01*
X68409524Y-31661905D01*
X68409524Y-30852381D01*
X69409524Y-31852381D02*
X68838095Y-31852381D01*
X69123809Y-31852381D02*
X69123809Y-30852381D01*
X69028571Y-30995238D01*
X68933333Y-31090476D01*
X68838095Y-31138095D01*
X79038095Y-59752381D02*
X79038095Y-60561905D01*
X79085714Y-60657143D01*
X79133333Y-60704762D01*
X79228571Y-60752381D01*
X79419048Y-60752381D01*
X79514286Y-60704762D01*
X79561905Y-60657143D01*
X79609524Y-60561905D01*
X79609524Y-59752381D01*
X80038095Y-59847619D02*
X80085714Y-59800000D01*
X80180952Y-59752381D01*
X80419048Y-59752381D01*
X80514286Y-59800000D01*
X80561905Y-59847619D01*
X80609524Y-59942857D01*
X80609524Y-60038095D01*
X80561905Y-60180952D01*
X79990476Y-60752381D01*
X80609524Y-60752381D01*
X46338095Y-54252381D02*
X46338095Y-55061905D01*
X46385714Y-55157143D01*
X46433333Y-55204762D01*
X46528571Y-55252381D01*
X46719048Y-55252381D01*
X46814286Y-55204762D01*
X46861905Y-55157143D01*
X46909524Y-55061905D01*
X46909524Y-54252381D01*
X47290476Y-54252381D02*
X47909524Y-54252381D01*
X47576190Y-54633333D01*
X47719048Y-54633333D01*
X47814286Y-54680952D01*
X47861905Y-54728571D01*
X47909524Y-54823810D01*
X47909524Y-55061905D01*
X47861905Y-55157143D01*
X47814286Y-55204762D01*
X47719048Y-55252381D01*
X47433333Y-55252381D01*
X47338095Y-55204762D01*
X47290476Y-55157143D01*
X36938095Y-53752381D02*
X36938095Y-54561905D01*
X36985714Y-54657143D01*
X37033333Y-54704762D01*
X37128571Y-54752381D01*
X37319048Y-54752381D01*
X37414286Y-54704762D01*
X37461905Y-54657143D01*
X37509524Y-54561905D01*
X37509524Y-53752381D01*
X38414286Y-54085714D02*
X38414286Y-54752381D01*
X38176190Y-53704762D02*
X37938095Y-54419048D01*
X38557143Y-54419048D01*
X66738095Y-56452381D02*
X66738095Y-57261905D01*
X66785714Y-57357143D01*
X66833333Y-57404762D01*
X66928571Y-57452381D01*
X67119048Y-57452381D01*
X67214286Y-57404762D01*
X67261905Y-57357143D01*
X67309524Y-57261905D01*
X67309524Y-56452381D01*
X67690476Y-56452381D02*
X68357143Y-56452381D01*
X67928571Y-57452381D01*
X86661905Y-40452381D02*
X86661905Y-39452381D01*
X87042858Y-39452381D01*
X87138096Y-39500000D01*
X87185715Y-39547619D01*
X87233334Y-39642857D01*
X87233334Y-39785714D01*
X87185715Y-39880952D01*
X87138096Y-39928571D01*
X87042858Y-39976190D01*
X86661905Y-39976190D01*
X87614286Y-39547619D02*
X87661905Y-39500000D01*
X87757143Y-39452381D01*
X87995239Y-39452381D01*
X88090477Y-39500000D01*
X88138096Y-39547619D01*
X88185715Y-39642857D01*
X88185715Y-39738095D01*
X88138096Y-39880952D01*
X87566667Y-40452381D01*
X88185715Y-40452381D01*
X36761905Y-69252381D02*
X36761905Y-68252381D01*
X37142858Y-68252381D01*
X37238096Y-68300000D01*
X37285715Y-68347619D01*
X37333334Y-68442857D01*
X37333334Y-68585714D01*
X37285715Y-68680952D01*
X37238096Y-68728571D01*
X37142858Y-68776190D01*
X36761905Y-68776190D01*
X37666667Y-68252381D02*
X38285715Y-68252381D01*
X37952381Y-68633333D01*
X38095239Y-68633333D01*
X38190477Y-68680952D01*
X38238096Y-68728571D01*
X38285715Y-68823810D01*
X38285715Y-69061905D01*
X38238096Y-69157143D01*
X38190477Y-69204762D01*
X38095239Y-69252381D01*
X37809524Y-69252381D01*
X37714286Y-69204762D01*
X37666667Y-69157143D01*
X81285714Y-69052381D02*
X81285714Y-68052381D01*
X81666667Y-68052381D01*
X81761905Y-68100000D01*
X81809524Y-68147619D01*
X81857143Y-68242857D01*
X81857143Y-68385714D01*
X81809524Y-68480952D01*
X81761905Y-68528571D01*
X81666667Y-68576190D01*
X81285714Y-68576190D01*
X82809524Y-69052381D02*
X82238095Y-69052381D01*
X82523809Y-69052381D02*
X82523809Y-68052381D01*
X82428571Y-68195238D01*
X82333333Y-68290476D01*
X82238095Y-68338095D01*
X83428571Y-68052381D02*
X83523810Y-68052381D01*
X83619048Y-68100000D01*
X83666667Y-68147619D01*
X83714286Y-68242857D01*
X83761905Y-68433333D01*
X83761905Y-68671429D01*
X83714286Y-68861905D01*
X83666667Y-68957143D01*
X83619048Y-69004762D01*
X83523810Y-69052381D01*
X83428571Y-69052381D01*
X83333333Y-69004762D01*
X83285714Y-68957143D01*
X83238095Y-68861905D01*
X83190476Y-68671429D01*
X83190476Y-68433333D01*
X83238095Y-68242857D01*
X83285714Y-68147619D01*
X83333333Y-68100000D01*
X83428571Y-68052381D01*
M02*
